<?xml version="1.0" encoding="UTF-8"?>
<!DOCTYPE svg PUBLIC "-//W3C//DTD SVG 1.1//EN" "http://www.w3.org/Graphics/SVG/1.1/DTD/svg11.dtd">
<!-- Creator: CorelDRAW 2018 (64-Bit) -->
<svg xmlns="http://www.w3.org/2000/svg" xml:space="preserve" width="300px" height="74px" version="1.1" style="shape-rendering:geometricPrecision; text-rendering:geometricPrecision; image-rendering:optimizeQuality; fill-rule:evenodd; clip-rule:evenodd"
viewBox="0 0 299.93 74.31"
 xmlns:xlink="http://www.w3.org/1999/xlink">
 <defs>
  <style type="text/css">
   <![CDATA[
    .fil0 {fill:#003893}
    .fil1 {fill:#003893;fill-rule:nonzero}
   ]]>
  </style>
 </defs>
 <g id="Warstwa_x0020_1">
  <metadata id="CorelCorpID_0Corel-Layer"/>
  <g id="_2178210261152">
   <path class="fil0" d="M27.32 39.3l-10.25 0 5.45 -17.8 4.8 17.8zm-15.55 19.61l3.49 -11.7 13.8 0 3.27 11.7 12.79 0 -12.72 -44.61c-0.72,-2.61 -2.32,-3.85 -5.08,-3.85l-18.09 0 0 4.22 1.52 0c1.89,0 2.91,0.72 2.91,2.18 0,0.94 -0.22,1.74 -0.95,3.92l-12.71 38.14 11.77 0z"/>
   <path class="fil1" d="M59.85 58.91l0 -44.75c0,-2.33 -1.38,-3.71 -3.63,-3.71l-11.19 0 0 4.22 0.73 0c1.89,0 2.68,0.79 2.68,2.68l0 41.56 11.41 0z"/>
   <path class="fil1" d="M79.23 58.91l0 -44.75c0,-2.33 -1.38,-3.71 -3.63,-3.71l-11.19 0 0 4.22 0.73 0c1.88,0 2.68,0.79 2.68,2.68l0 41.56 11.41 0z"/>
   <path class="fil0" d="M99.12 14.88c0,-3.27 -2.4,-5.23 -6.54,-5.23 -4.07,0 -6.54,1.96 -6.54,5.23 0,3.27 2.47,5.23 6.54,5.23 4.14,0 6.54,-1.96 6.54,-5.23zm-0.22 44.03l0 -32.62c0,-2.32 -1.38,-3.71 -3.63,-3.71l-11.05 0 0 4.15 0.66 0c1.89,0 2.69,0.87 2.69,2.76l0 29.42 11.33 0z"/>
   <path class="fil0" d="M123.87 41.47l0 7.05c-1.89,1.96 -4.21,3.13 -6.17,3.13 -2.04,0 -2.76,-1.02 -2.76,-3.71 0,-2.69 0.58,-3.92 2.61,-4.72 1.53,-0.66 3.49,-1.24 6.32,-1.75zm-15.32 -8.5c3.77,-1.81 7.91,-2.83 11.18,-2.83 3.05,0 4.14,1.09 4.14,4.29l0 0.8c-4.65,0.72 -6.1,1.01 -8.71,1.59 -1.53,0.37 -2.91,0.8 -4.29,1.38 -4.58,1.82 -6.76,5.38 -6.76,10.83 0,6.9 2.98,10.24 9.16,10.24 2.25,0 4.28,-0.43 6.1,-1.16 1.6,-0.72 2.54,-1.3 4.87,-3.12l0 0.51c0,2.25 1.16,3.41 3.41,3.41l10.39 0 0 -3.92 -0.51 0c-1.96,0 -2.68,-0.87 -2.68,-3.2l0 -17.29c0,-9.23 -3.2,-12.42 -12.43,-12.42 -2.98,0 -5.88,0.36 -8.72,1.01 -2.83,0.66 -4.28,1.24 -7.7,2.91l2.55 6.97z"/>
   <path class="fil0" d="M154.58 58.91l0 -24.56c1.89,-2.1 3.86,-3.05 6.11,-3.05 2.4,0 2.98,0.95 2.98,4.58l0 23.03 11.33 0 0 -24.7c0,-5.74 -0.44,-7.56 -2.25,-9.52 -1.53,-1.67 -3.85,-2.54 -6.83,-2.54 -4.43,0 -7.56,1.38 -11.77,5.3l0 -1.45c0,-2.25 -1.16,-3.42 -3.49,-3.42l-10.75 0 0 4.15 0.65 0c1.89,0 2.69,0.87 2.69,2.76l0 29.42 11.33 0z"/>
   <path class="fil1" d="M208.63 51.28l-15.84 0 15.11 -21.21 0 -7.49 -23.69 0c-2.68,0 -3.92,1.24 -3.92,3.93l0 6.61 4.21 0 0 -0.65c0,-1.67 0.88,-2.48 2.69,-2.48l8.14 0 -15.26 21.44 0 7.48 28.56 0 0 -7.63z"/>
   <path class="fil0" d="M268.11 57.97l0 -41.05c0,-3.27 -1.16,-4.36 -4.36,-4.36l-9.59 0 0 4.58 0.58 0c2.18,0 2.62,0.5 2.62,3.12l0 37.71 10.75 0zm-2.75 -57.97l-5.26 0c-19.95,1.25 -34.57,16.71 -34.57,37.12 0,21.28 15.91,37.19 37.2,37.19 21.29,0 37.2,-15.91 37.2,-37.19 0,-20.41 -14.61,-35.87 -34.57,-37.12zm7.47 57.97l10.68 0 0 -31.97c0,-3.2 -1.23,-4.36 -4.36,-4.36l-6.32 0 0 36.33zm-20.2 0l0 -36.33 -6.32 0c-3.12,0 -4.36,1.16 -4.36,4.36l0 31.97 10.68 0zm40.98 -20.85c0,18.09 -13,31.24 -30.88,31.24 -17.87,0 -30.88,-13.15 -30.88,-31.24 0,-18.1 13.01,-31.25 30.88,-31.25 17.88,0 30.88,13.23 30.88,31.25z"/>
  </g>
 </g>
</svg>
