<?xml version="1.0" encoding="UTF-8"?>
<!DOCTYPE svg PUBLIC "-//W3C//DTD SVG 1.1//EN" "http://www.w3.org/Graphics/SVG/1.1/DTD/svg11.dtd">
<!-- Creator: CorelDRAW 2018 (64-Bit) -->
<svg xmlns="http://www.w3.org/2000/svg" xml:space="preserve" width="300px" height="317px" version="1.1" style="shape-rendering:geometricPrecision; text-rendering:geometricPrecision; image-rendering:optimizeQuality; fill-rule:evenodd; clip-rule:evenodd"
viewBox="0 0 299.94 317.08"
 xmlns:xlink="http://www.w3.org/1999/xlink">
 <defs>
  <style type="text/css">
   <![CDATA[
    .fil0 {fill:#FFDD09}
    .fil1 {fill:#FFDD09;fill-rule:nonzero}
    .fil2 {fill:#66B44A;fill-rule:nonzero}
    .fil3 {fill:#09539D;fill-rule:nonzero}
   ]]>
  </style>
 </defs>
 <g id="Warstwa_x0020_1">
  <metadata id="CorelCorpID_0Corel-Layer"/>
  <g id="_2177820063520">
   <polygon class="fil0" points="0,0 299.94,0 299.94,317.08 0,317.08 "/>
   <path class="fil1" d="M177.1 158.33l-7.29 -75.01 0 0 -7.4 76.26c4.8,-0.53 9.7,-0.95 14.69,-1.25z"/>
   <path class="fil2" d="M194.91 157.78l0.02 -74.46 -22.61 -0.01 -2.51 0 0 0.01 7.3 75.01c5.8,-0.35 11.75,-0.54 17.8,-0.55z"/>
   <path class="fil3" d="M162.42 159.58l7.39 -76.26 0 -0.01 -3.46 0 -62.21 0.01 0.03 90.55c15.43,-6.75 35.52,-11.78 58.25,-14.29z"/>
   <path class="fil3" d="M141.64 193.55c0.91,0.16 4.15,1.1 4.15,3.4l0 36.9 10.97 0 0 -41.62 -15.12 0 0 1.32z"/>
   <path class="fil3" d="M55.4 192.23l0 1.31c1.33,0.28 4.21,1.09 3.05,3.68l-16.36 36.63 0 0 8.64 0 5.12 -11.42 18.12 0 4.48 11.42 11.36 0 -16.23 -41.62 -18.18 0zm2.77 25.03l0 0 7.35 -16.37 6.42 16.37 -13.77 0z"/>
   <path class="fil3" d="M223.55 192.23l0 1.31c1.33,0.28 4.21,1.09 3.04,3.68l-16.35 36.63 8.64 0 5.12 -11.42 18.11 0 4.48 11.42 11.37 0 -16.24 -41.62 -18.17 0zm2.77 25.03l0 0 7.35 -16.37 6.42 16.37 -13.77 0z"/>
   <path class="fil3" d="M194.38 233.85l17.34 -41.62 -8.2 0 -12.72 30.52 -12.1 -30.52 -15.42 0 0 1.32c1.79,0.33 3.79,1.1 4.7,3.4l14.63 36.9 11.77 0z"/>
   <path class="fil3" d="M118.36 233.85l17.34 -41.62 -8.2 0 -12.72 30.52 -12.1 -30.52 -15.41 0 0 1.32c1.78,0.33 3.77,1.1 4.69,3.4l14.62 36.9 11.78 0z"/>
  </g>
 </g>
</svg>
