<?xml version="1.0" encoding="UTF-8"?>
<!DOCTYPE svg PUBLIC "-//W3C//DTD SVG 1.1//EN" "http://www.w3.org/Graphics/SVG/1.1/DTD/svg11.dtd">
<!-- Creator: CorelDRAW 2018 (64-Bit) -->
<svg xmlns="http://www.w3.org/2000/svg" xml:space="preserve" width="299px" height="61px" version="1.1" style="shape-rendering:geometricPrecision; text-rendering:geometricPrecision; image-rendering:optimizeQuality; fill-rule:evenodd; clip-rule:evenodd"
viewBox="0 0 299.57 61.12"
 xmlns:xlink="http://www.w3.org/1999/xlink">
 <defs>
  <style type="text/css">
   <![CDATA[
    .fil0 {fill:#C22E27;fill-rule:nonzero}
    .fil2 {fill:#C13029;fill-rule:nonzero}
    .fil1 {fill:#1E1F20;fill-rule:nonzero}
   ]]>
  </style>
 </defs>
 <g id="Warstwa_x0020_1">
  <metadata id="CorelCorpID_0Corel-Layer"/>
  <g id="_2177518526592">
   <path class="fil0" d="M11.85 50.1l0.01 -4.29c2.68,0 3.67,-0.14 4.14,3.16l0.28 0 0 -3.67 -7.32 0 0 0.51 1.27 0 0 9.44 -1.4 0 0 0.5 7.55 0 0 -3.86 -0.38 0c-0.38,2.92 -1.12,3.36 -3.19,3.36l-0.96 0 0 -4.59 0.56 0c0.93,0.02 1.46,0.57 1.65,2.17l0.34 0 0 -4.74c-0.01,0.01 -0.34,0 -0.34,0 0,0.02 -0.07,2.04 -1.7,2.01l-0.51 0z"/>
   <path class="fil0" d="M8.86 50.28l-4.14 0 0 0.47 1.42 0 0 3.4c-0.24,0.86 -1.51,1.22 -1.89,1.22 -2.64,0 -2.45,-3.86 -2.45,-4.89 0,-0.95 -0.1,-4.9 2.45,-4.9 1.79,0 2.74,1.78 3.11,3.39l0.29 0c0,-0.66 0.01,-3.81 0,-3.8 0.01,-0.02 -1.22,0.89 -1.23,0.87 0.03,0 -0.56,-0.84 -2.17,-0.84 -3.12,0 -4.26,3.11 -4.25,5.28 0.02,1.98 0.93,5.36 4.25,5.36 1.04,0 1.78,-0.53 2.17,-1.13 0.01,-0.01 1.32,1.03 1.32,1.04l0 -5 1.12 0 0 -0.47z"/>
   <path class="fil0" d="M44.96 51.98l1.51 -4.52 1.6 4.52 -3.11 0zm-5.85 -1.8l-1.7 0 0 -4.38 2.17 0c1.27,0.19 1.32,1.66 1.32,2.13 0,1.13 -0.47,2.25 -1.79,2.25zm18.03 1.71c-0.37,2.92 -1.11,3.35 -3.19,3.35l-0.12 0 0 -9.44 1.32 0 0 -0.51 -4.34 0 0 0.51 1.32 0 0 9.44 -1.05 0 -3.86 -10.23 -0.57 0c0.02,-0.01 -3.2,9.28 -3.21,9.31 0.01,-0.03 -0.24,0.8 -0.77,0.9 -0.48,0.02 -0.45,-0.23 -0.45,-0.32l0 -1.79c0,-0.47 -0.03,-1.53 -0.52,-2.02 -0.55,-0.56 -1.49,-0.6 -1.46,-0.62 0,0 2.37,-0.49 2.37,-2.74 0,-1.58 -1.1,-2.36 -2.94,-2.43l-5.21 0 0 0.5 1.33 0 0 9.44 -1.33 0 0 0.51 4.28 0 0 -0.51 -1.34 0 0 -4.54 1.78 0c3.09,0.26 -0.53,5.05 3.51,5.05l2.55 0 0 -0.51c-0.14,0 -1.07,0.03 -1.13,-0.62 -0.04,-0.47 0.61,-2.16 0.61,-2.16l3.47 0c0,-0.01 1.08,2.78 1.09,2.78l-1.21 0 0 0.51 9.45 0 0 -3.86 -0.38 0z"/>
   <path class="fil0" d="M29.32 45.8c2.69,0 3.68,-0.13 4.15,3.17l0.29 0 0 -3.67 -10.68 0 0 0.5 0.28 0c0.37,0 1.27,0.03 1.32,0.81l0 0 0 6.03 -5 -7.34 -2.72 0 0 0.5 0.45 0c0.54,0 1.29,0.02 1.33,0.81l0 7.72c0,0.76 -1.13,1.04 -1.6,1.04l-0.01 0 0 0.38 3.68 0 0 -0.38c-0.47,0 -1.6,-0.28 -1.6,-1.04l0.01 -6.79c1.98,2.82 5.71,8.21 5.75,8.21l0.18 0 0 -9.14c0.05,-0.78 0.95,-0.81 1.32,-0.81l1.23 0 0 9.45 -1.4 0 0 0.5 7.55 0 0 -3.86 -0.38 0c-0.37,2.92 -1.11,3.36 -3.19,3.36l-0.96 0 0 -4.59 0.56 0c0.93,0.03 1.46,0.57 1.65,2.17l0.34 0 0 -4.75c-0.01,0.02 -0.34,0 -0.34,0 0,0.03 -0.06,2.05 -1.69,2.02l-0.52 0 0 -4.3z"/>
   <polygon class="fil0" points="62.27,45.8 62.27,45.29 58.01,45.29 58.01,45.8 59.35,45.8 59.35,55.24 58.01,55.24 58.01,55.75 62.27,55.75 62.27,55.24 60.93,55.24 60.93,45.8 "/>
   <path class="fil0" d="M47.08 36.61c0.13,-0.32 0.38,-0.53 0.72,-0.59l3.44 -0.77 -0.31 -3.08 -0.01 -0.06c-0.08,-0.41 -0.34,-1.63 -1.94,-1.76 -6.16,-0.5 -7.59,-1.41 -9.09,-2.38 0,-0.01 0,-0.01 -0.01,-0.02l0 0.01 -0.1 -0.06c-1.6,-1.04 -3.19,-1.05 -3.35,-1.04 -1.74,0 -3.95,0.69 -4.13,0.74 -0.53,0.16 -1.03,0.32 -1.52,0.48 -1.92,0.62 -3.59,1.15 -6.39,1.07l-0.51 -0.01 -0.14 0.49c-0.1,0.38 -0.88,3.48 -0.12,5.46 -0.68,0.54 -0.68,1.15 -0.68,1.24 0.03,0.68 -0.13,0.85 -0.18,0.9 -0.33,0.34 -1.4,0.38 -2.3,0.38l-0.01 0 -0.33 0 -0.2 0.27c-0.55,0.76 -1.76,0.94 -2.53,0.75 -0.34,-1.03 -0.35,-1.82 -0.02,-2.29 0.39,-0.56 1.2,-0.62 1.54,-0.62l0.19 0c0.82,0 1.49,-0.67 1.49,-1.49l0 -5.54c0.24,-0.39 0.44,-0.83 0.62,-1.33 1.35,-0.22 2.39,-1.36 2.39,-2.74 0,-0.53 -0.16,-1.04 -0.44,-1.48 1.25,-0.6 2.32,-1.83 2.32,-3.44 0,-1.62 -0.81,-2.35 -1.58,-2.84 0.22,-0.62 0.57,-1.7 0.82,-2.8l1.08 -3.88c0.48,-1.52 1.75,-2.5 3.22,-2.5l19.06 0c-0.81,1.14 -1.95,1.68 -3.54,1.68l-11.53 0 -0.61 1.29 10.34 0c-0.81,1.29 -2,1.9 -3.69,1.9l-7.49 0 -0.61 1.29 6.69 0c-0.81,1.24 -1.98,1.83 -3.64,1.83l-4.09 0 -0.6 1.29 4.28 0c0.04,0.05 0.15,0.24 0.15,0.77 0,0.83 -0.7,1.5 -1.56,1.5 -0.29,0 -0.54,-0.07 -0.98,-0.25 -0.19,-0.08 -0.38,-0.16 -0.57,-0.24l-0.99 0.9c0.18,0.07 0.37,0.15 0.56,0.23l0 0c0.86,0.38 1.33,0.57 1.98,0.57 0.79,0 1.5,-0.33 2.01,-0.85 0.73,0.05 1.92,0.15 3.06,0.24 1.37,0.11 2.67,0.22 3.33,0.25 0.34,0.02 0.65,0.04 0.95,0.05 0.57,0.03 1.09,0.06 1.61,0.1 2.6,4.22 3.94,4.77 8.97,5.38 0.37,0.65 0.69,1.33 1.01,2.03l0 8.22 0 0.05c0.03,0.38 0.03,0.5 -0.03,0.57 -0.17,0.23 -0.95,0.56 -1.22,0.67l-4.24 1.6c-0.57,-0.76 -0.77,-1.56 -0.55,-2.14zm-0.92 2.24l-8.39 0 3.6 -3.8c0.72,-0.75 0.96,-1.65 0.65,-2.54 -0.17,-0.51 -0.65,-1.49 -1.14,-2.49 1.42,0.66 3.59,1.26 7.99,1.61 0.53,0.05 0.68,0.23 0.78,0.71l0.19 1.9 -2.3 0.51c-0.77,0.16 -1.38,0.66 -1.66,1.4 -0.32,0.81 -0.21,1.76 0.28,2.7zm-15.14 0c-0.23,-0.91 -0.13,-1.64 0.28,-2.12 0.4,-0.46 1.01,-0.6 1.45,-0.53l2.45 0.45 0.06 0.01 0.34 0 1.74 -1.87 0.01 -0.01c0.3,-0.35 1.2,-1.39 0.28,-2.73l-2.32 -3.81c0.39,-0.06 0.77,-0.09 1.13,-0.09l0.01 0c0.01,0 1.18,-0.02 2.42,0.7 0.17,0.36 0.41,0.84 0.67,1.37 0.48,0.99 1.09,2.21 1.26,2.71 0.05,0.16 0.21,0.63 -0.37,1.23l-4.44 4.69 -4.97 0zm-0.69 -2.97c-0.47,0.54 -0.92,1.47 -0.63,2.97l-7.9 0c0.85,-0.09 1.46,-0.28 1.89,-0.73 0.52,-0.54 0.56,-1.27 0.55,-1.8 0.01,-0.04 0.1,-0.22 0.49,-0.39l0.68 -0.31 -0.41 -0.63c-0.68,-1.04 -0.38,-3.31 -0.12,-4.54l0.06 0c2.68,0 4.41,-0.56 6.24,-1.15 0.48,-0.15 0.97,-0.31 1.49,-0.46l0.02 0c0.01,-0.01 0.54,-0.18 1.27,-0.35l2.57 4.25 0.03 0.03c0.25,0.37 0.29,0.61 -0.18,1.16l-1.29 1.39 -2.12 -0.39 -0.02 -0.01c-0.95,-0.14 -1.98,0.23 -2.62,0.96zm-14.02 -0.28c-0.55,0.79 -0.62,1.88 -0.2,3.25l-1.34 0 0 -10.43c0.48,-0.07 0.99,-0.21 1.47,-0.42 -0.03,0.45 -0.09,0.81 -0.17,1.29 -0.02,0.11 -0.04,0.23 -0.06,0.35l-0.13 0.75 0.76 0c1.15,0 2,-0.17 2.65,-0.51l0 4.35c0,0.11 -0.08,0.2 -0.19,0.2l-0.19 0c-1.14,0 -2.09,0.43 -2.6,1.17zm-2.83 2.12l-6.09 -1.59 -6.09 1.59 0 -10.89 6.09 -1.58 6.09 1.58 0 10.89zm-11.39 1.13l5.3 -1.38 5.3 1.38 -10.6 0zm2.12 -16.03c0.25,-0.38 0.83,-0.72 1.56,-0.59l0.55 0.09 0.18 -0.53c0.04,-0.14 0.1,-0.25 0.19,-0.33 0.16,-0.14 0.39,-0.21 0.68,-0.2 0.78,0.02 1.75,0.56 2.54,1.41 0.29,0.31 0.55,0.67 0.77,1.03 0.05,0.08 0.1,0.16 0.14,0.23 0.07,0.1 0.12,0.18 0.13,0.2 0.03,0.05 0.42,0.64 0.39,0.68 0.27,-0.38 0.54,-0.75 0.81,-1.13 0,-0.01 -0.01,-0.04 -0.03,-0.09 -0.06,-0.13 -0.2,-0.36 -0.29,-0.49 -0.02,-0.03 -0.04,-0.06 -0.06,-0.09 0,-0.01 0,-0.01 0,-0.01 -0.01,-0.01 -0.05,-0.07 -0.09,-0.14 -0.09,-0.14 -0.22,-0.35 -0.28,-0.46l1.69 -2.69c0.42,0.09 0.77,0.1 0.95,0.1l0.04 0c2.37,0 4.83,-1.37 4.83,-3.66l0 -0.06c-0.03,-0.62 -0.15,-1.22 -0.24,-1.69 -0.06,-0.32 -0.12,-0.62 -0.12,-0.77 0,-0.25 0.35,-0.53 0.86,-0.53l0.76 0 -0.34 -1.99c1.08,-0.79 1.74,-2.09 1.71,-3.33 1.16,0.9 1.98,2.45 2.13,4.09 0.05,0.48 -0.05,1.15 -0.2,1.86l-0.08 0.29 0.01 0c-0.28,1.15 -0.68,2.33 -0.9,2.89l-0.2 0.52 0.49 0.28c0.86,0.49 1.4,0.85 1.4,1.99 0,1.31 -1.18,2.31 -2.32,2.52l-1.56 0.29 1.32 0.88c0.42,0.28 0.67,0.74 0.67,1.23 0,0.82 -0.69,1.49 -1.55,1.49l-0.5 0 -0.14 0.45c-0.48,1.58 -1.01,2.35 -2.7,2.51 0.08,-0.48 0.14,-0.94 0.14,-1.59 0,-0.15 -0.02,-0.58 -0.02,-0.72l-0.08 -1.46 -1.03 1.04c-0.35,0.36 -0.97,0.64 -1.65,0.77l0 -1.27 -7.38 -1.92 -2.63 0.68c-0.58,-0.58 -0.7,-1.55 -0.55,-1.78zm7.97 -4.74c0.01,-0.08 0.09,-0.16 0.16,-0.15l1.11 0.03c1.36,-0.04 2.74,-0.6 2.89,-2.01 0,-0.96 -0.67,-1.89 -1.63,-1.89 -0.51,0 -1.09,0.36 -1.73,0.78 -0.43,0.28 -0.76,0.5 -1.01,0.5 -0.17,0 -0.31,-0.11 -0.31,-0.2 0,-0.02 0,-0.04 0.01,-0.05l0.71 -0.95 -0.62 -0.41c-0.13,-0.09 -0.33,-0.25 -0.35,-0.37 -0.01,-0.06 0.07,-0.16 0.1,-0.19 0.25,-0.3 0.54,-0.66 0.83,-1.1 0.19,-0.26 0.29,-0.4 0.6,-0.4 0.29,0 0.54,0.25 0.54,0.54 0,0.2 0.21,0.35 0.48,0.35 0.27,0 0.39,-0.19 0.55,-0.35 0,0 0.63,-0.58 0.3,-0.86 -0.38,-0.31 -1.92,0.33 -1.49,-1.08l0.11 -0.2c0.16,-0.22 0.89,-0.76 2.41,-0.76 0.28,0 0.59,0.02 0.9,0.06l0.22 0.03 3.22 -1.98c0.03,0.07 0.04,0.11 0.04,0.11l0 0.02c0.17,0.98 -0.45,2.13 -1.43,2.7l-0.39 0.22 0.26 1.45c-0.83,0.26 -1.4,0.92 -1.4,1.71 0,0.28 0.06,0.6 0.14,1.01 0.09,0.46 0.19,0.98 0.22,1.5 0,1.51 -2.09,2.51 -3.85,2.45l-0.04 0c-0.08,0 -1.2,-0.09 -1.47,-0.31 -0.06,-0.04 -0.1,-0.13 -0.08,-0.2zm2.66 -10.07c0.2,-0.25 0.53,-0.54 0.93,-0.8 0.31,-0.21 0.71,-0.39 1.1,-0.5 0.62,-0.18 1.34,-0.19 2.08,-0.05l-2.28 1.41c-0.28,-0.03 -0.56,-0.05 -0.83,-0.05 -0.39,0 -0.74,0.03 -1.07,0.09 0.02,-0.03 0.05,-0.07 0.07,-0.1zm34.75 -0.33l8.6 0c-0.81,1.14 -1.96,1.68 -3.54,1.68l-6.35 0c0.5,-0.45 0.93,-1.01 1.29,-1.68zm-0.43 4.87l-6.35 0c0.56,-0.5 1.03,-1.13 1.4,-1.9l8.64 0c-0.82,1.29 -2.01,1.9 -3.69,1.9zm-5.06 3.12l-6.34 0c0.54,-0.48 1,-1.09 1.36,-1.83l8.63 0c-0.81,1.24 -1.99,1.83 -3.65,1.83zm1.46 4.84c2.01,0.33 3.66,1.24 4.9,2.69 0.26,0.31 0.52,0.64 0.77,1 -3.38,-0.44 -4.56,-0.94 -6.45,-3.81 0.25,0.03 0.51,0.07 0.78,0.12zm13.5 13.92c0.12,0.2 0.23,0.39 0.33,0.57 0.13,0.22 0.25,0.44 0.4,0.67 -0.98,-0.07 -1.72,-0.61 -2.41,-1.63 0.63,-0.23 1.4,-0.07 1.68,0.39zm-8.04 4.42l1.32 -0.5 0.02 -0.01c1.87,-0.77 2.13,-1.26 2.05,-2.5l0 -5.04c1.42,3.62 2.77,6.17 5.53,6.17 0.38,0 0.78,-0.05 1.21,-0.15l1.08 -0.24 -0.74 -0.82c-0.48,-0.52 -0.71,-0.93 -0.97,-1.4 -0.11,-0.19 -0.22,-0.39 -0.36,-0.61 -0.64,-1.04 -2.18,-1.4 -3.43,-0.84 -0.56,-1.12 -1.13,-2.59 -1.82,-4.39l-0.15 -0.35c-0.11,-0.26 -0.23,-0.54 -0.35,-0.81l0 -0.04 -0.02 0c-0.43,-0.96 -0.88,-1.91 -1.42,-2.81 -0.49,-0.81 -0.99,-1.52 -1.53,-2.15 -1.44,-1.69 -3.34,-2.74 -5.67,-3.12 -1.6,-0.27 -2.74,-0.32 -4.17,-0.39 -0.3,-0.02 -0.61,-0.03 -0.94,-0.05 -0.66,-0.04 -2,-0.15 -3.3,-0.26 -0.88,-0.07 -1.78,-0.14 -2.48,-0.19 0.04,-0.2 0.07,-0.41 0.07,-0.62 0,-0.29 -0.03,-0.55 -0.08,-0.77l9.23 0c2.38,0 4.11,-1.06 5.13,-3.13 2.37,-0.02 4.08,-1.09 5.09,-3.18l0.33 0c2.46,0 4.22,-1.13 5.23,-3.35l0.42 -0.91 -31.28 0c-2.05,0 -3.8,1.34 -4.46,3.42l-0.02 0.07c-0.53,-1.48 -1.5,-2.74 -2.75,-3.48 -1.73,-1.04 -3.71,-1.38 -5.28,-0.93 -0.52,0.15 -1.04,0.39 -1.46,0.66 -0.36,0.24 -0.86,0.62 -1.23,1.09 -0.4,0.51 -0.79,1.13 -1.07,1.71 -0.18,0.15 -0.32,0.31 -0.42,0.45l-0.37 0.7 -0.02 0.04c-0.45,1.02 -0.99,1.72 -1.42,2.21 -0.42,0.49 -0.44,0.96 -0.38,1.27 0.06,0.33 0.24,0.6 0.43,0.81l-0.01 0.02c-0.13,0.21 -0.19,0.46 -0.19,0.71 0,0.82 0.72,1.45 1.6,1.45 0.64,0 1.17,-0.3 1.72,-0.67 0.23,-0.15 0.82,-0.55 1.02,-0.57 0.25,0 0.47,0.23 0.47,0.47 0,0.68 -0.87,1.04 -1.49,1.09l-1.28 0.13c-0.91,0.09 -1.34,0.57 -1.34,1.01 0,0.43 0.21,0.68 0.35,0.82l0.1 0.1 0.32 0.29 -1.35 2.17c-0.96,-0.89 -2.08,-1.43 -3.08,-1.46 -0.64,-0.02 -1.2,0.17 -1.61,0.56 -0.12,0.11 -0.22,0.24 -0.31,0.38l-0.02 0c-1.07,0 -1.92,0.57 -2.34,1.21 -0.46,0.7 -0.3,1.91 0.28,2.83l-3.4 0.89 0 16.25 62.36 0 0 -3.24 -11.35 0z"/>
   <polygon class="fil0" points="12.13,28.5 8.06,27.45 8.06,28.78 12.13,29.84 "/>
   <polygon class="fil0" points="2.65,29.84 6.72,28.78 6.72,27.45 2.65,28.5 "/>
   <polygon class="fil0" points="2.65,32.52 6.72,31.46 6.72,30.13 2.65,31.18 "/>
   <polygon class="fil0" points="12.13,31.18 8.06,30.13 8.06,31.46 12.13,32.52 "/>
   <polygon class="fil0" points="12.13,33.86 8.06,32.81 8.06,34.14 12.13,35.2 "/>
   <polygon class="fil0" points="2.65,35.2 6.72,34.14 6.72,32.81 2.65,33.86 "/>
   <polygon class="fil0" points="81.9,61.12 80.53,61.12 80.53,0 81.9,0 "/>
   <path class="fil1" d="M109.11 36.75c-0.71,0.92 -1.83,1.44 -3,1.37 -0.44,0 -0.85,-0.01 -1.22,-0.05 -0.37,0 -0.67,-0.07 -0.88,-0.11l0 -8.83c0.37,-0.23 0.77,-0.4 1.19,-0.5 0.48,-0.13 0.98,-0.19 1.48,-0.19 2.32,0 3.47,1.57 3.47,4.71 0.05,1.28 -0.31,2.54 -1.04,3.6zm4.06 -10.01c-0.63,-0.79 -1.44,-1.41 -2.36,-1.82 -1.02,-0.44 -2.12,-0.66 -3.24,-0.64 -0.63,0 -1.27,0.06 -1.89,0.2 -0.58,0.13 -1.15,0.32 -1.7,0.55l0 -8.57 -4.88 0.79 0 24.04c0.44,0.13 0.95,0.26 1.51,0.38 0.57,0.12 1.16,0.22 1.77,0.31 0.61,0.09 1.25,0.16 1.89,0.21 0.65,0.06 1.26,0.08 1.85,0.08 1.29,0.02 2.58,-0.19 3.79,-0.63 1.06,-0.4 2.03,-1.02 2.82,-1.82 0.79,-0.81 1.39,-1.78 1.76,-2.84 0.42,-1.2 0.63,-2.47 0.61,-3.74 0.02,-1.24 -0.15,-2.48 -0.49,-3.68 -0.29,-1.02 -0.78,-1.98 -1.44,-2.82z"/>
   <path class="fil1" d="M122.37 31.51c0.06,-0.41 0.17,-0.83 0.31,-1.22 0.13,-0.39 0.33,-0.75 0.6,-1.06 0.27,-0.32 0.61,-0.57 0.99,-0.75 0.44,-0.19 0.92,-0.28 1.4,-0.27 0.91,-0.04 1.79,0.34 2.37,1.04 0.25,0.31 0.44,0.67 0.56,1.05 0.11,0.4 0.19,0.8 0.21,1.21l-6.44 0zm3.24 -7.32c-1.05,0 -2.09,0.19 -3.07,0.58 -0.99,0.4 -1.89,1 -2.64,1.76 -0.81,0.82 -1.44,1.8 -1.86,2.86 -0.49,1.28 -0.72,2.64 -0.69,4.01 -0.01,1.2 0.17,2.39 0.53,3.53 0.34,1.06 0.91,2.02 1.67,2.83 0.8,0.82 1.77,1.46 2.84,1.88 1.3,0.48 2.67,0.71 4.05,0.68 0.61,0 1.21,0 1.83,-0.09 0.62,-0.1 1.19,-0.15 1.72,-0.25 0.49,-0.09 0.97,-0.2 1.45,-0.34 0.36,-0.1 0.71,-0.23 1.05,-0.39l-0.62 -3.98c-0.69,0.28 -1.4,0.48 -2.12,0.61 -0.88,0.16 -1.76,0.24 -2.65,0.24 -1.18,0.06 -2.34,-0.25 -3.34,-0.88 -0.8,-0.54 -1.32,-1.42 -1.4,-2.39l11.05 0c0,-0.27 0,-0.57 0.07,-0.88 0.07,-0.32 0,-0.65 0,-0.94 0,-2.89 -0.71,-5.09 -2.13,-6.58 -1.51,-1.54 -3.59,-2.36 -5.74,-2.26z"/>
   <path class="fil1" d="M143.47 34.95c0.78,-0.98 1.55,-1.92 2.31,-2.82 0.77,-0.9 1.49,-1.71 2.15,-2.45 0.66,-0.74 1.2,-1.33 1.59,-1.77l0 -3.29 -13.67 0 0 4.05 7.32 0c-0.59,0.7 -1.23,1.48 -1.93,2.34 -0.71,0.86 -1.4,1.77 -2.11,2.65 -0.72,0.88 -1.39,1.82 -2.03,2.73 -0.65,0.91 -1.19,1.77 -1.65,2.54l0 2.87 14.24 0 0 -4 -8.34 0c0.64,-0.92 1.34,-1.87 2.12,-2.85z"/>
   <path class="fil1" d="M159.83 38.05c-0.5,0 -1,-0.06 -1.49,-0.19 -0.42,-0.1 -0.82,-0.27 -1.19,-0.5l0 -8.82c0.24,0 0.55,-0.08 0.88,-0.12 0.34,-0.03 0.77,-0.04 1.21,-0.04 1.17,-0.07 2.3,0.43 3.01,1.36 0.73,1.06 1.08,2.33 1.02,3.61 0.03,3.15 -1.13,4.7 -3.44,4.7zm6.08 -11.37c-0.8,-0.78 -1.76,-1.38 -2.82,-1.76 -1.21,-0.45 -2.49,-0.67 -3.78,-0.65 -0.59,0 -1.21,0.03 -1.86,0.09 -0.64,0.05 -1.27,0.13 -1.89,0.22 -0.63,0.08 -1.22,0.18 -1.77,0.3 -0.55,0.13 -1.07,0.24 -1.51,0.38l0 22.64 4.88 0 0 -6.51c0.55,0.24 1.12,0.43 1.71,0.56 0.62,0.13 1.26,0.2 1.89,0.19 1.12,0.02 2.22,-0.2 3.24,-0.65 0.92,-0.42 1.72,-1.04 2.35,-1.83 0.66,-0.84 1.15,-1.79 1.44,-2.82 0.34,-1.18 0.51,-2.4 0.49,-3.63 0.02,-1.27 -0.19,-2.53 -0.61,-3.73 -0.37,-1.05 -0.98,-2 -1.76,-2.8z"/>
   <polygon class="fil1" points="171.34,24.65 176.21,24.65 176.21,41.86 171.34,41.86 "/>
   <path class="fil1" d="M184.29 31.51c0.07,-0.42 0.18,-0.83 0.32,-1.22 0.13,-0.39 0.33,-0.75 0.6,-1.06 0.27,-0.32 0.61,-0.57 0.98,-0.75 0.45,-0.19 0.93,-0.28 1.41,-0.27 0.92,-0.04 1.8,0.34 2.38,1.04 0.25,0.31 0.43,0.67 0.55,1.05 0.12,0.4 0.19,0.8 0.21,1.21l-6.45 0zm3.24 -7.32c-1.04,0 -2.08,0.19 -3.05,0.58 -1,0.4 -1.9,1 -2.65,1.76 -0.8,0.83 -1.43,1.8 -1.84,2.86 -0.5,1.28 -0.73,2.64 -0.71,4.01 0,1.2 0.18,2.39 0.54,3.53 0.34,1.05 0.91,2.02 1.67,2.83 0.8,0.82 1.77,1.46 2.85,1.88 1.28,0.46 2.65,0.68 4.01,0.63 0.61,0 1.22,-0.03 1.83,-0.1 0.61,-0.06 1.18,-0.15 1.72,-0.24 0.49,-0.09 0.98,-0.2 1.46,-0.35 0.36,-0.1 0.7,-0.23 1.04,-0.38l-0.65 -3.97c-0.68,0.28 -1.39,0.48 -2.11,0.61 -0.87,0.16 -1.76,0.25 -2.65,0.25 -1.18,0.06 -2.34,-0.25 -3.34,-0.88 -0.8,-0.55 -1.32,-1.43 -1.41,-2.4l11.06 0c0,-0.26 0,-0.56 0.07,-0.88 0.07,-0.32 0,-0.64 0,-0.93 0,-2.9 -0.71,-5.09 -2.13,-6.59 -1.5,-1.51 -3.58,-2.32 -5.71,-2.22z"/>
   <path class="fil1" d="M209.06 37.96c-0.63,0.11 -1.26,0.16 -1.9,0.16 -1.66,0 -2.81,-0.42 -3.48,-1.28 -0.72,-1.05 -1.08,-2.32 -0.99,-3.6 -0.06,-1.26 0.31,-2.51 1.06,-3.53 0.8,-0.93 1.99,-1.43 3.22,-1.34 0.61,0 1.23,0.06 1.83,0.2 0.51,0.12 1.01,0.27 1.51,0.45l0.99 -3.89c-0.72,-0.3 -1.46,-0.53 -2.22,-0.71 -0.83,-0.16 -1.68,-0.24 -2.53,-0.23 -1.27,-0.03 -2.54,0.22 -3.72,0.71 -1.05,0.45 -2,1.12 -2.78,1.95 -0.78,0.83 -1.39,1.81 -1.77,2.88 -0.41,1.13 -0.61,2.33 -0.61,3.53 -0.01,1.21 0.16,2.42 0.51,3.58 0.33,1.06 0.9,2.04 1.65,2.85 0.78,0.84 1.74,1.49 2.8,1.92 1.29,0.49 2.67,0.73 4.06,0.7 0.94,0.01 1.88,-0.08 2.8,-0.27 0.73,-0.13 1.44,-0.34 2.13,-0.62l-0.68 -3.99c-0.6,0.25 -1.23,0.43 -1.88,0.53z"/>
   <path class="fil1" d="M221.07 34.95c0.78,-0.98 1.55,-1.92 2.32,-2.82 0.76,-0.9 1.48,-1.71 2.14,-2.45 0.66,-0.74 1.2,-1.33 1.59,-1.77l0 -3.29 -13.67 0 0 4.05 7.32 0c-0.59,0.7 -1.23,1.48 -1.92,2.34 -0.69,0.86 -1.4,1.77 -2.12,2.65 -0.71,0.88 -1.38,1.82 -2.02,2.73 -0.64,0.91 -1.2,1.77 -1.66,2.54l0 2.87 14.24 0 0 -4 -8.33 0c0.63,-0.92 1.34,-1.87 2.11,-2.85z"/>
   <path class="fil1" d="M243.15 26.45c-0.61,-0.74 -1.41,-1.3 -2.3,-1.63 -1.17,-0.41 -2.41,-0.61 -3.65,-0.57 -1.38,0 -2.76,0.1 -4.12,0.31 -1.08,0.16 -2.15,0.38 -3.21,0.67l0 16.62 4.88 0 0 -13.29c0.3,0 0.65,-0.08 1.05,-0.11 0.39,-0.04 0.75,-0.04 1.11,-0.04 0.89,-0.11 1.77,0.26 2.32,0.97 0.49,1.04 0.71,2.19 0.62,3.34l0 9.13 4.87 0 0 -9.71c0.01,-1.08 -0.11,-2.15 -0.35,-3.2 -0.21,-0.92 -0.63,-1.77 -1.22,-2.49z"/>
   <polygon class="fil2" points="264.06,35.73 270.37,35.73 270.37,41.79 264.06,41.79 "/>
   <path class="fil1" d="M286.33 35.81c-0.17,0.71 -0.47,1.38 -0.89,1.97 -0.39,0.55 -0.92,1 -1.52,1.3 -0.7,0.34 -1.47,0.5 -2.24,0.48 -0.79,0.01 -1.56,-0.13 -2.29,-0.42 -0.58,-0.22 -1.12,-0.51 -1.61,-0.88l0 -10.74c0.41,-0.1 0.82,-0.18 1.23,-0.23 0.71,-0.07 1.43,-0.11 2.14,-0.09 1.48,-0.07 2.92,0.51 3.93,1.59 1.06,1.29 1.58,2.93 1.48,4.58 0.01,0.82 -0.06,1.64 -0.23,2.44zm1.1 -8.94c-0.75,-0.77 -1.65,-1.37 -2.65,-1.76 -1.13,-0.43 -2.32,-0.64 -3.53,-0.62 -1.25,-0.02 -2.51,0.09 -3.75,0.31 -1.08,0.21 -1.98,0.39 -2.7,0.57l0 22.53 3.04 0 0 -6.8c0.54,0.31 1.1,0.56 1.69,0.75 1.92,0.61 4,0.51 5.86,-0.26 0.93,-0.42 1.75,-1.05 2.4,-1.83 0.66,-0.83 1.16,-1.77 1.46,-2.78 0.34,-1.15 0.51,-2.34 0.5,-3.53 0.02,-1.27 -0.18,-2.52 -0.6,-3.71 -0.36,-1.07 -0.95,-2.05 -1.72,-2.87z"/>
   <path class="fil1" d="M298.36 39.38c-0.3,-0.08 -0.57,-0.23 -0.79,-0.44 -0.21,-0.22 -0.36,-0.49 -0.42,-0.79 -0.1,-0.4 -0.14,-0.82 -0.13,-1.24l0 -20.45 -3.05 0.52 0 20.42c-0.1,1.29 0.33,2.56 1.18,3.53 0.79,0.77 2.11,1.17 3.99,1.21l0.43 -2.52c-0.41,-0.05 -0.82,-0.13 -1.21,-0.24z"/>
   <path class="fil1" d="M257.94 27.4c-0.27,1 -0.56,1.99 -0.88,3.01 -0.32,1.01 -0.6,2 -0.88,2.96 -0.29,0.97 -0.61,1.83 -0.89,2.65 -0.31,-0.78 -0.62,-1.66 -0.97,-2.65 -0.34,-0.98 -0.67,-1.95 -0.99,-2.96 -0.33,-1.02 -0.65,-2.01 -0.95,-3.01 -0.3,-1 -0.55,-1.92 -0.77,-2.76l-5.17 0c0.89,3.1 1.93,6.15 3.14,9.14 1.11,2.72 2.23,5.17 3.35,7.35 -0.27,0.72 -0.68,1.38 -1.2,1.94 -0.55,0.5 -1.28,0.76 -2.02,0.71 -0.41,0 -0.83,-0.03 -1.24,-0.1 -0.46,-0.08 -0.9,-0.2 -1.34,-0.36l-0.88 3.89c0.51,0.21 1.04,0.37 1.58,0.48 0.69,0.15 1.4,0.22 2.11,0.21 0.82,0.02 1.63,-0.09 2.41,-0.31 0.68,-0.2 1.31,-0.53 1.86,-0.98 0.59,-0.48 1.12,-1.05 1.54,-1.69 0.52,-0.8 0.98,-1.64 1.38,-2.51 1.26,-2.72 2.44,-5.53 3.53,-8.44 1.09,-2.9 2.11,-6.02 3.06,-9.35l-5.04 0c-0.22,0.88 -0.46,1.76 -0.74,2.78z"/>
   <polygon class="fil2" points="12.08,28.54 8.05,27.49 8.05,28.81 12.08,29.86 "/>
   <polygon class="fil2" points="2.67,29.86 6.71,28.81 6.71,27.49 2.67,28.54 "/>
   <polygon class="fil2" points="2.67,32.52 6.71,31.47 6.71,30.14 2.67,31.19 "/>
   <polygon class="fil2" points="12.08,31.19 8.05,30.14 8.05,31.47 12.08,32.52 "/>
   <polygon class="fil2" points="12.08,33.86 8.05,32.81 8.05,34.12 12.08,35.18 "/>
   <polygon class="fil2" points="2.67,35.18 6.71,34.13 6.71,32.81 2.67,33.86 "/>
  </g>
 </g>
</svg>
