<?xml version="1.0" encoding="UTF-8"?>
<!DOCTYPE svg PUBLIC "-//W3C//DTD SVG 1.1//EN" "http://www.w3.org/Graphics/SVG/1.1/DTD/svg11.dtd">
<!-- Creator: CorelDRAW 2018 (64-Bit) -->
<svg xmlns="http://www.w3.org/2000/svg" xml:space="preserve" width="300px" height="81px" version="1.1" style="shape-rendering:geometricPrecision; text-rendering:geometricPrecision; image-rendering:optimizeQuality; fill-rule:evenodd; clip-rule:evenodd"
viewBox="0 0 299.36 81.17"
 xmlns:xlink="http://www.w3.org/1999/xlink">
 <defs>
  <style type="text/css">
   <![CDATA[
    .fil1 {fill:#2B2A29;fill-rule:nonzero}
    .fil0 {fill:#E31E24;fill-rule:nonzero}
    .fil2 {fill:#007E3C;fill-rule:nonzero}
   ]]>
  </style>
 </defs>
 <g id="Warstwa_x0020_1">
  <metadata id="CorelCorpID_0Corel-Layer"/>
  <g id="_2178206059856">
   <polygon class="fil0" points="0,53.95 299.27,53.95 299.27,49.39 0,49.39 "/>
   <polygon class="fil1" points="7.52,81.03 5.56,81.03 0.06,65 2.68,65 6.54,76.66 10.39,65 13.07,65 "/>
   <polygon class="fil1" points="15.44,65 17.98,65 17.98,81.03 15.44,81.03 "/>
   <polygon class="fil1" points="22.42,81.03 22.42,65 33.11,65 33.11,67.18 24.96,67.18 24.96,71.87 31.9,71.87 31.9,74.03 24.96,74.03 24.96,78.85 33.11,78.85 33.11,81.03 "/>
   <polygon class="fil1" points="46.92,81.03 39.19,69.75 39.19,81.03 36.65,81.03 36.65,65 38.98,65 46.71,76.26 46.71,65 49.25,65 49.25,81.03 "/>
   <polygon class="fil1" points="63.95,81.03 56.22,69.75 56.22,81.03 53.68,81.03 53.68,65 56.01,65 63.74,76.26 63.74,65 66.28,65 66.28,81.03 "/>
   <path class="fil1" d="M75.93 68.62l-2.6 7.11 5.14 0 -2.54 -7.11zm4.39 12.41l-1.15 -3.22 -6.6 0 -1.15 3.22 -2.7 0 6.13 -16.03 2.05 0 6.13 16.03 -2.71 0z"/>
   <polygon class="fil1" points="91.18,65 93.71,65 93.71,81.03 91.18,81.03 "/>
   <polygon class="fil1" points="108.42,81.03 100.69,69.75 100.69,81.03 98.16,81.03 98.16,65 100.48,65 108.21,76.26 108.21,65 110.74,65 110.74,81.03 "/>
   <path class="fil1" d="M119.62 81.17c-2.51,0 -4.32,-0.57 -5.91,-2.12l1.69 -1.6c1.22,1.18 2.55,1.53 4.27,1.53 2.19,0 3.45,-0.9 3.45,-2.45 0,-0.7 -0.2,-1.29 -0.65,-1.67 -0.43,-0.39 -0.85,-0.54 -1.83,-0.67l-1.98 -0.27c-1.36,-0.18 -2.44,-0.63 -3.17,-1.29 -0.82,-0.74 -1.23,-1.75 -1.23,-3.06 0,-2.79 2.12,-4.7 5.6,-4.7 2.21,0 3.76,0.53 5.19,1.82l-1.61 1.53c-1.04,-0.95 -2.24,-1.24 -3.64,-1.24 -1.99,0 -3.06,1.08 -3.06,2.5 0,0.59 0.19,1.1 0.63,1.49 0.42,0.36 1.1,0.63 1.88,0.74l1.9 0.27c1.56,0.22 2.42,0.59 3.13,1.19 0.91,0.77 1.36,1.92 1.36,3.29 0,2.95 -2.52,4.71 -6.02,4.71z"/>
   <path class="fil1" d="M134.85 81.17c-3.4,0 -5.99,-2.24 -5.99,-5.54l0 -10.63 2.54 0 0 10.51c0,2.15 1.36,3.47 3.45,3.47 2.09,0 3.47,-1.32 3.47,-3.47l0 -10.51 2.55 0 0 10.63c0,3.3 -2.61,5.54 -6.02,5.54z"/>
   <path class="fil1" d="M151.34 67.18l-3.76 0 0 5.02 3.76 0c1.69,0 2.84,-0.92 2.84,-2.49 0,-1.58 -1.15,-2.53 -2.84,-2.53zm2.93 13.85l-3.51 -6.75 -3.18 0 0 6.75 -2.53 0 0 -16.03 6.49 0c3.16,0 5.18,1.96 5.18,4.68 0,2.3 -1.45,3.76 -3.33,4.26l3.85 7.09 -2.97 0z"/>
   <path class="fil1" d="M165.71 68.62l-2.6 7.11 5.14 0 -2.54 -7.11zm4.4 12.41l-1.16 -3.22 -6.6 0 -1.14 3.22 -2.7 0 6.13 -16.03 2.03 0 6.14 16.03 -2.7 0z"/>
   <polygon class="fil1" points="185.52,81.03 177.79,69.75 177.79,81.03 175.25,81.03 175.25,65 177.58,65 185.31,76.26 185.31,65 187.84,65 187.84,81.03 "/>
   <path class="fil1" d="M197.69 81.17c-1.74,0 -3.24,-0.62 -4.4,-1.72 -1.64,-1.57 -1.62,-3.35 -1.62,-6.44 0,-3.08 -0.02,-4.86 1.62,-6.44 1.16,-1.09 2.66,-1.7 4.4,-1.7 2.09,0 3.42,0.72 4.67,1.88l-1.69 1.65c-0.86,-0.83 -1.59,-1.35 -2.98,-1.35 -0.99,0 -1.88,0.36 -2.47,0.96 -0.82,0.87 -0.98,1.78 -0.98,5 0,3.22 0.16,4.15 0.98,5.01 0.59,0.61 1.48,0.96 2.47,0.96 1.39,0 2.12,-0.52 2.98,-1.35l1.69 1.64c-1.25,1.17 -2.58,1.9 -4.67,1.9z"/>
   <polygon class="fil1" points="205.84,81.03 205.84,65 216.52,65 216.52,67.18 208.37,67.18 208.37,71.87 215.33,71.87 215.33,74.03 208.37,74.03 208.37,78.85 216.52,78.85 216.52,81.03 "/>
   <path class="fil1" d="M235.74 79.32c-1.18,1.19 -2.72,1.85 -4.55,1.85 -1.75,0 -3.24,-0.62 -4.4,-1.72 -1.64,-1.57 -1.62,-3.35 -1.62,-6.44 0,-3.08 -0.02,-4.86 1.62,-6.44 1.16,-1.09 2.61,-1.7 4.4,-1.7 2.27,0 3.55,0.67 5.04,2.11l-1.71 1.64c-1.06,-1.01 -1.83,-1.57 -3.33,-1.57 -0.99,0 -1.91,0.38 -2.49,0.99 -0.82,0.85 -0.99,1.75 -0.99,4.97 0,3.22 0.17,4.15 0.99,5.01 0.58,0.61 1.5,0.96 2.49,0.96 1.1,0 2.01,-0.4 2.67,-1.13 0.61,-0.65 0.82,-1.54 0.82,-2.54l0 -0.88 -3.49 0 0 -2.06 6.03 0 0 2.4c0,2.08 -0.37,3.42 -1.48,4.55z"/>
   <path class="fil1" d="M247.21 67.18l-3.76 0 0 5.02 3.76 0c1.69,0 2.84,-0.92 2.84,-2.49 0,-1.58 -1.15,-2.53 -2.84,-2.53zm2.94 13.85l-3.53 -6.75 -3.17 0 0 6.75 -2.53 0 0 -16.03 6.47 0c3.18,0 5.19,1.96 5.19,4.68 0,2.3 -1.44,3.76 -3.33,4.26l3.86 7.09 -2.96 0z"/>
   <path class="fil1" d="M264.27 68.04c-0.6,-0.61 -1.51,-0.99 -2.49,-0.99 -1,0 -1.91,0.38 -2.5,0.99 -0.82,0.85 -0.98,1.75 -0.98,4.97 0,3.23 0.16,4.12 0.98,4.98 0.59,0.61 1.5,0.99 2.5,0.99 0.98,0 1.89,-0.38 2.49,-0.99 0.82,-0.86 0.98,-1.75 0.98,-4.98 0,-3.22 -0.16,-4.12 -0.98,-4.97zm1.91 11.41c-1.15,1.1 -2.62,1.72 -4.4,1.72 -1.79,0 -3.24,-0.62 -4.4,-1.72 -1.65,-1.57 -1.62,-3.35 -1.62,-6.44 0,-3.08 -0.03,-4.86 1.62,-6.44 1.16,-1.09 2.61,-1.7 4.4,-1.7 1.78,0 3.25,0.61 4.4,1.7 1.65,1.58 1.61,3.36 1.61,6.44 0,3.09 0.04,4.87 -1.61,6.44z"/>
   <path class="fil1" d="M277.34 81.17c-3.4,0 -5.98,-2.24 -5.98,-5.54l0 -10.63 2.54 0 0 10.51c0,2.15 1.35,3.47 3.44,3.47 2.09,0 3.49,-1.32 3.49,-3.47l0 -10.51 2.53 0 0 10.63c0,3.3 -2.61,5.54 -6.02,5.54z"/>
   <path class="fil1" d="M293.74 67.18l-3.66 0 0 5.35 3.66 0c1.77,0 2.97,-0.98 2.97,-2.67 0,-1.69 -1.2,-2.68 -2.97,-2.68zm0.15 7.55l-3.81 0 0 6.3 -2.54 0 0 -16.03 6.35 0c3.26,0 5.35,2.07 5.35,4.86 0,2.8 -2.09,4.87 -5.35,4.87z"/>
   <path class="fil2" d="M196.85 26.25c0.26,-0.62 3.45,-8.23 3.83,-9.16 0.41,0.91 3.85,8.52 4.13,9.16l-7.96 0zm5.47 -16.16l-3.17 0 -12.29 28.42 4.66 0c0,0 3.41,-7.88 3.55,-8.18l11.62 0c0.13,0.29 3.73,8.18 3.73,8.18l4.68 0 -12.78 -28.42zm-23.9 11.8c-2.58,-1.46 -4.8,-2.7 -4.8,-4.87 0,-1.8 1.71,-3.05 4.19,-3.05 2.26,0 4.42,0.95 6.41,2.82l0.42 0.41 0 -5.25 -0.1 -0.07c-1.98,-1.31 -4.2,-2 -6.4,-2 -5.33,0 -8.79,3 -8.79,7.66 0,4.22 3.63,6.39 6.84,8.31 2.74,1.63 5.33,3.17 5.33,5.69 0,1.27 -1.18,3.25 -4.33,3.25 -2.69,0 -5.19,-1.36 -7.21,-3.93l-0.46 -0.57 0 5.9 0.09 0.08c2.39,1.77 4.96,2.61 8.03,2.61 4.7,0 8.13,-3.28 8.13,-7.79 0,-5.11 -3.91,-7.29 -7.35,-9.2zm-18 9.44c-0.85,-0.96 -18.67,-21.09 -18.67,-21.09l-3.57 0 0 28.27 4.3 0 0 -20.95c0.83,0.97 18.41,20.95 18.41,20.95l3.82 0 0 -28.27 -4.29 0 0 21.09zm-38.67 -5.03l11.49 0 0 -4.09 -11.49 0 0 -7.87 11.9 0 0 -4.1 -16.45 0 0 28.27 16.82 0 0 -4.08 -12.27 0 0 -8.13zm-17.3 -3.88l-4.33 0 0 -8.08 4.49 0c4.07,0 4.51,2.77 4.51,3.99 0,2.55 -1.74,4.09 -4.67,4.09zm0.16 -12.18l-9.03 0 0 28.27 4.54 0 0 -12.01 3.95 0c6.09,0 9.73,-2.99 9.73,-8.02 0,-3.98 -2.42,-8.24 -9.19,-8.24zm-28.14 11.26c-0.37,-0.46 -9.2,-11.26 -9.2,-11.26l-4.15 0 0 28.27 4.54 0 0 -21.24c0.68,0.84 8.36,10.37 8.36,10.37l0.9 0c0,0 7.68,-9.53 8.36,-10.37l0 21.24 4.54 0 0 -28.27 -4.12 0c0,0 -8.86,10.8 -9.23,11.26zm-32.47 13.21c-6.09,0 -10.68,-4.43 -10.68,-10.33 0,-5.99 4.49,-10.32 10.68,-10.32 6.2,0 10.7,4.33 10.7,10.32 0,5.9 -4.6,10.33 -10.7,10.33zm0 -24.83c-8.75,0 -15.34,6.24 -15.34,14.5 0,7.04 5.34,14.5 15.25,14.5 10.15,0 15.45,-7.29 15.45,-14.5 0,-8.39 -6.47,-14.5 -15.36,-14.5zm-28 24.83c-6.54,0 -11.11,-4.24 -11.11,-10.29 0,-5.91 4.71,-10.36 10.95,-10.36 3.18,0 6.13,0.88 9.55,2.85l0.39 0.21 0 -4.87 -0.15 -0.07c-3.9,-1.62 -6.82,-2.3 -9.75,-2.3 -9.07,0 -15.67,6.28 -15.67,14.9 0,5.46 4.19,14.1 15.43,14.1 4.85,0 7.92,-1.25 10.28,-2.47l0.14 -0.07 0 -4.98 -0.39 0.25c-3.11,2 -6.54,3.1 -9.67,3.1z"/>
   <g>
    <path class="fil2" d="M231.49 38.38l1.58 0.16c0,0 24.25,-0.14 26.38,-0.15 -8.98,-6.57 -21.77,-15.87 -22.67,-16.29 -1.25,-0.55 -2.55,-0.83 -3.87,-0.83 -4.76,0 -8.47,3.76 -8.47,8.57 0,4.92 3.5,7.84 7.05,8.54z"/>
   </g>
   <g>
    <path class="fil2" d="M248.52 6.83c-3.84,-2.8 -9.07,-1.94 -11.89,1.95 -1.22,1.66 -1.73,3.4 -1.73,5.06 0,2.3 0.98,4.44 2.41,5.99l1.17 1.05c0,0 19.68,14.16 21.4,15.41 -3.37,-10.6 -8.24,-25.65 -8.74,-26.5 -0.66,-1.2 -1.54,-2.19 -2.62,-2.96z"/>
   </g>
   <g>
    <path class="fil2" d="M259.51 0.42c-4.27,1.35 -6.06,4.95 -6.06,8.29 0,0.35 0.02,0.69 0.05,1.02l0.33 1.55c0,0 7.42,23.08 8.07,25.1 3.58,-10.53 8.59,-25.52 8.71,-26.51 0.04,-0.38 0.05,-0.77 0.05,-1.16 0,-0.94 -0.14,-1.88 -0.42,-2.79 -1.44,-4.54 -6.15,-6.94 -10.73,-5.5z"/>
   </g>
   <g>
    <path class="fil2" d="M290.88 21.27c-1.32,0 -2.61,0.28 -3.95,0.87 -0.81,0.38 -13.61,9.68 -22.58,16.25 2.13,0.01 26.38,0.15 26.38,0.15 0,0 1.58,-0.16 1.63,-0.18 3.5,-0.68 7,-3.6 7,-8.52 0,-4.81 -3.73,-8.57 -8.48,-8.57z"/>
   </g>
   <g>
    <path class="fil2" d="M288.89 13.84c0,-1.66 -0.5,-3.4 -1.72,-5.06 -2.83,-3.89 -8.05,-4.75 -11.9,-1.95 -1.05,0.77 -1.95,1.76 -2.67,3.02 -0.49,0.89 -6.16,18.49 -8.71,26.44 4.24,-3.05 21.42,-15.41 21.42,-15.41 0,0 1.18,-1.05 1.21,-1.11 1.41,-1.51 2.37,-3.63 2.37,-5.93z"/>
   </g>
  </g>
 </g>
</svg>
