<?xml version="1.0" encoding="UTF-8"?>
<!DOCTYPE svg PUBLIC "-//W3C//DTD SVG 1.1//EN" "http://www.w3.org/Graphics/SVG/1.1/DTD/svg11.dtd">
<!-- Creator: CorelDRAW 2018 (64-Bit) -->
<svg xmlns="http://www.w3.org/2000/svg" xml:space="preserve" width="300px" height="165px" version="1.1" style="shape-rendering:geometricPrecision; text-rendering:geometricPrecision; image-rendering:optimizeQuality; fill-rule:evenodd; clip-rule:evenodd"
viewBox="0 0 298.87 164.64"
 xmlns:xlink="http://www.w3.org/1999/xlink">
 <defs>
  <style type="text/css">
   <![CDATA[
    .fil0 {fill:#CF142B}
    .fil1 {fill:#6B5C4F}
   ]]>
  </style>
 </defs>
 <g id="Warstwa_x0020_1">
  <metadata id="CorelCorpID_0Corel-Layer"/>
  <g id="_2178210268704">
   <path class="fil0" d="M276.3 43.02c0,-11.91 -5.78,-25.75 -20.77,-25.75 -13.59,0 -20.73,11.67 -20.73,25.75 0,15.84 8.82,25.8 20.73,25.8 14.99,0 20.77,-13.72 20.77,-25.8zm20.03 0c0,25 -16.65,42.92 -41.13,42.92 -23.12,0 -40.33,-16.46 -40.33,-42.92 0,-28.4 20.4,-43.02 41.1,-43.02 19.86,0 40.36,13.88 40.36,43.02z"/>
   <path class="fil0" d="M207.53 78.15c-4.89,3.25 -15.23,7.71 -29.26,7.71 -27.62,0 -41.27,-19.05 -41.27,-42.35 0,-26.21 18.52,-43.49 42.78,-43.49 12.01,0 19.71,1.98 26.56,5.32l-7.03 16.17c-5.19,-2.19 -11.21,-3.48 -18.34,-3.48 -17.49,0 -23.44,10.48 -23.44,24.97 0,15.62 7.98,25.74 21.89,25.74 5.02,0 8.78,-1.08 9.98,-1.82l0 -14.53 -14.13 0 0.02 -16.46 32.23 0 0.01 42.22z"/>
   <path class="fil0" d="M111.61 28.37c0,-3.45 -1.25,-6.25 -3.76,-8.15 -2.48,-1.96 -5.92,-2.92 -10.08,-2.98 -0.47,-0.03 -2.25,0 -3.32,0.05 -1.08,0.01 -3.89,0.26 -4.78,0.42l0 23.72c1.28,0.17 3.97,0.29 6.12,0.29 4.6,0 8.91,-1.26 11.61,-3.39 2.75,-2.19 4.21,-5.72 4.21,-9.96zm1.57 56.14c-2.73,-9.99 -7.33,-17.61 -11.12,-22.47 -3.19,-4.12 -5.68,-4.98 -5.68,-4.98 -2.56,0.04 -4.35,0.04 -6.71,-0.06l0 27.51 -19.3 0 0 -82.31c4.07,-0.63 6.98,-1.01 11.23,-1.39 3.93,-0.37 8.36,-0.6 13.28,-0.6 6.5,0 12.04,0.71 16.57,2.13 4.53,1.45 8.22,3.4 11.11,5.91 2.95,2.5 5.06,5.61 6.35,9.01 1.34,3.33 2.03,6.87 2.03,10.65 0,4.97 -1.22,9.82 -3.85,13.98 -2.37,3.67 -6.33,7.41 -10.44,10.02l0 0.34c9.18,4.2 14.37,17.7 19.4,32.26l-22.87 0z"/>
   <path class="fil0" d="M2.61 64.81l0 -63.43 56.65 0 0.01 17.69 -37.35 0 0 14.21 31.61 0 0.01 16.82 -31.62 0 0 8.87c0,5.59 3.27,7.97 7.55,7.97l31.31 0 0.03 17.57 -38.62 0c-14.49,0 -19.58,-6.68 -19.58,-19.7z"/>
   <path class="fil1" d="M290.43 96.51c0,0.28 -0.24,0.52 -0.51,0.52 -0.3,0 -0.5,-0.24 -0.5,-0.52 0,-0.28 0.2,-0.51 0.5,-0.51 0.27,0 0.51,0.23 0.51,0.51z"/>
   <path class="fil1" d="M287.92 100.38l2.39 0c1.53,0 2.32,0.53 2.32,1.62 0,0.77 -0.29,1.28 -0.92,1.54 -0.39,0.16 -1.07,0.26 -2.03,0.26l-1.76 0 0 -3.42zm2.13 4.41l2.76 4.33 1.39 0 -2.91 -4.33c1.64,-0.28 2.47,-1.18 2.47,-2.73 0,-1.8 -1.07,-2.69 -3.18,-2.69l-3.79 0 0 9.75 1.13 0 0 -4.33 2.13 0zm5.65 5.28c1.62,-1.62 2.41,-3.56 2.41,-5.84 0,-2.27 -0.79,-4.18 -2.41,-5.82 -1.59,-1.58 -3.53,-2.38 -5.8,-2.38 -2.27,0 -4.23,0.8 -5.84,2.38 -1.61,1.64 -2.41,3.55 -2.41,5.82 0,2.28 0.8,4.22 2.41,5.84 1.61,1.59 3.57,2.43 5.84,2.43 2.27,0 4.21,-0.84 5.8,-2.43zm-0.74 -0.69c-1.37,1.38 -3.05,2.09 -5.06,2.09 -2.01,0 -3.72,-0.68 -5.08,-2.07 -1.37,-1.4 -2.04,-3.11 -2.04,-5.17 0,-2.02 0.67,-3.73 2.04,-5.11 1.36,-1.4 3.07,-2.13 5.08,-2.13 2.01,0 3.69,0.73 5.06,2.13 1.36,1.38 2.03,3.09 2.03,5.11 0,2.06 -0.67,3.75 -2.03,5.15z"/>
   <path class="fil1" d="M18.46 129.52l30.38 0c0.33,0 0.49,-0.19 0.49,-0.56l0 -1.67c0,-9.49 -0.06,-15.09 -0.16,-16.85 -0.16,-2.53 -1.3,-4.06 -3.4,-4.53 -0.77,-0.15 -1.81,-0.23 -3.12,-0.23 -0.9,0 -1.35,-0.23 -1.35,-0.72 0,-0.47 0.56,-0.71 1.66,-0.71 1.59,0 3.76,0.04 6.53,0.11 2.76,0.07 4.4,0.11 4.92,0.11 0.54,0 2.08,-0.04 4.59,-0.11 2.51,-0.07 4.33,-0.11 5.44,-0.11 1.12,0 1.67,0.24 1.67,0.71 0,0.49 -0.46,0.72 -1.42,0.72 -0.65,0 -1.4,0.08 -2.3,0.23 -1.81,0.33 -2.79,1.83 -2.96,4.53 -0.1,1.76 -0.16,7.38 -0.16,16.85l0 14.01c0,9 0.14,14.67 0.41,17 0.3,2.61 1.34,4.02 3.11,4.31 1.51,0.21 2.87,0.29 4.04,0.29 0.87,0 1.28,0.24 1.28,0.65 0,0.53 -0.53,0.79 -1.59,0.79 -1.97,0 -4.39,-0.03 -7.33,-0.1 -2.91,-0.08 -4.6,-0.1 -5.1,-0.1 -0.45,0 -1.95,0.02 -4.45,0.1 -2.47,0.07 -4.33,0.1 -5.49,0.1 -1.11,0 -1.66,-0.26 -1.66,-0.79 0,-0.37 0.59,-0.62 1.75,-0.72 0.79,-0.1 1.61,-0.19 2.39,-0.22 1.2,-0.29 1.99,-1.75 2.29,-4.39 0.27,-2.08 0.41,-7.72 0.41,-16.92l0 -7c0,-0.32 -0.16,-0.48 -0.49,-0.48l-30.38 0c-0.31,0 -0.48,0.16 -0.48,0.48l0 7c0,9 0.14,14.67 0.39,17 0.33,2.61 1.38,4.02 3.12,4.31 1.52,0.21 2.89,0.29 4.07,0.29 0.84,0 1.25,0.24 1.25,0.65 0,0.53 -0.53,0.79 -1.58,0.79 -1.98,0 -4.4,-0.03 -7.34,-0.1 -2.9,-0.08 -4.62,-0.1 -5.08,-0.1 -0.47,0 -1.98,0.02 -4.48,0.1 -2.53,0.07 -4.36,0.1 -5.54,0.1 -1.06,0 -1.59,-0.26 -1.59,-0.79 0,-0.37 0.58,-0.62 1.76,-0.72 0.8,-0.1 1.59,-0.19 2.37,-0.22 1.23,-0.29 1.99,-1.75 2.3,-4.37 0.27,-2.1 0.42,-7.74 0.42,-16.94l0 -14.01c0,-9.47 -0.08,-15.09 -0.18,-16.85 -0.16,-2.53 -1.3,-4.04 -3.4,-4.53 -0.75,-0.15 -1.79,-0.23 -3.12,-0.23 -0.9,0 -1.35,-0.23 -1.35,-0.72 0,-0.47 0.55,-0.71 1.67,-0.71 1.59,0 3.78,0.04 6.52,0.11 2.77,0.07 4.4,0.11 4.95,0.11 0.52,0 2.05,-0.04 4.56,-0.11 2.53,-0.07 4.35,-0.11 5.46,-0.11 1.12,0 1.67,0.24 1.67,0.71 0,0.49 -0.49,0.72 -1.44,0.72 -0.63,0 -1.4,0.08 -2.3,0.23 -1.8,0.33 -2.8,1.83 -2.94,4.53 -0.12,1.76 -0.17,7.36 -0.17,16.85l0 1.67c0,0.37 0.17,0.56 0.48,0.56z"/>
   <path class="fil1" d="M78.63 140.86l0 -13.99c0,-9.49 -0.07,-15.08 -0.17,-16.83 -0.16,-2.57 -1.31,-4.08 -3.43,-4.54 -0.74,-0.16 -1.76,-0.23 -3.08,-0.23 -0.93,0 -1.37,-0.25 -1.37,-0.72 0,-0.48 0.58,-0.73 1.76,-0.73 1.59,0 3.74,0.05 6.48,0.11 2.72,0.07 4.4,0.12 4.97,0.12 12.57,0 19.2,-0.03 19.89,-0.09 1.39,-0.09 2.51,-0.24 3.41,-0.46 0.92,-0.22 1.34,-0.3 1.28,-0.3 0.31,0 0.47,0.23 0.47,0.71 0,0.05 -0.07,0.54 -0.23,1.43 -0.17,1.06 -0.28,2.29 -0.34,3.73 -0.11,1.41 -0.24,3.16 -0.45,5.24 -0.11,0.59 -0.38,0.86 -0.8,0.86 -0.36,0 -0.59,-0.27 -0.67,-0.86 -0.07,-0.6 -0.16,-1.16 -0.21,-1.67 -0.04,-0.56 -0.15,-1 -0.31,-1.43 -0.65,-1.55 -2.42,-2.51 -5.33,-2.88 -1.8,-0.21 -5.55,-0.32 -11.3,-0.32 -0.37,0 -0.55,0.26 -0.55,0.79l0 20.13c0,0.59 0.18,0.87 0.55,0.87 7.26,0 11.5,-0.06 12.72,-0.15 0.9,-0.07 1.59,-0.13 2.08,-0.24 0.81,-0.23 1.38,-0.53 1.74,-0.95 0.64,-0.69 1.07,-1.04 1.28,-1.04 0.38,0 0.56,0.22 0.56,0.64 0,0.05 -0.09,0.58 -0.24,1.59 -0.16,1.22 -0.3,2.62 -0.41,4.2 -0.2,3.05 -0.3,4.82 -0.3,5.35 0,0.99 -0.25,1.49 -0.71,1.49 -0.49,0 -0.74,-0.26 -0.74,-0.82 0,-0.56 -0.09,-1.46 -0.31,-2.74 -0.41,-1.81 -1.91,-2.83 -4.44,-3.12 -1.49,-0.16 -5.26,-0.21 -11.31,-0.21 -0.31,0 -0.47,0.25 -0.47,0.76l0 18.63c0.1,2.82 0.72,4.65 1.86,5.47 1.15,0.81 3.7,1.22 7.67,1.22 3.62,0 6.11,-0.32 7.49,-0.96 1.84,-0.85 3.06,-2.83 3.58,-5.89 0.18,-0.77 0.45,-1.18 0.88,-1.18 0.42,0 0.63,0.49 0.63,1.43 0,3.24 -0.34,6.19 -1.03,8.88 -0.28,0.98 -0.65,1.55 -1.12,1.75 -0.48,0.2 -1.54,0.33 -3.18,0.33 -4.6,0 -9.2,-0.09 -13.77,-0.27 -4.57,-0.17 -7.31,-0.26 -8.26,-0.26 -0.49,0 -1.98,0.03 -4.49,0.11 -2.53,0.05 -4.38,0.09 -5.53,0.09 -1.06,0 -1.59,-0.27 -1.59,-0.77 0,-0.39 0.58,-0.62 1.74,-0.74 0.79,-0.1 1.6,-0.18 2.38,-0.23 1.24,-0.28 2,-1.74 2.3,-4.38 0.29,-2.07 0.42,-7.7 0.42,-16.93z"/>
   <path class="fil1" d="M131.95 164.64c-4.63,0 -8.49,-0.7 -11.62,-2.07 -1.03,-0.42 -1.52,-1.33 -1.52,-2.71 0,-2.85 0.13,-6.33 0.4,-10.43 0.09,-1.36 0.42,-2.06 0.96,-2.06 0.53,0 0.79,0.45 0.79,1.35 0,1.1 0.24,2.45 0.72,4.07 1.59,5.33 5.38,8.02 11.38,8.02 3.34,0 6.01,-0.98 8.03,-2.94 1.77,-1.78 2.62,-3.79 2.62,-6.13 0,-4.41 -2.59,-8.65 -7.78,-12.75l-3.67 -2.84c-7.85,-6.17 -11.76,-12.45 -11.76,-18.86 0,-4.42 1.67,-8 5.08,-10.82 3.38,-2.8 7.83,-4.22 13.27,-4.22 3.52,0 7.05,0.44 10.59,1.37 0.74,0.2 1.1,0.51 1.1,0.94 0,-0.11 -0.04,0.83 -0.14,2.81 -0.11,2 -0.16,4.25 -0.16,6.73 0,1.6 -0.3,2.41 -0.87,2.41 -0.53,0 -0.79,-0.49 -0.79,-1.43 0,-1.79 -0.7,-3.52 -2.09,-5.25 -2.06,-2.63 -4.94,-3.92 -8.66,-3.92 -2.94,0 -5.22,0.77 -6.92,2.27 -1.71,1.52 -2.56,3.48 -2.56,5.92 0,1.88 0.61,3.63 1.8,5.29 1.21,1.67 3.41,3.72 6.65,6.2l2.23 1.66c4.76,3.61 8.15,6.92 10.1,9.98 1.94,3.04 2.95,6.49 2.95,10.3 0,6 -2.5,10.61 -7.48,13.84 -3.34,2.18 -7.56,3.27 -12.65,3.27z"/>
   <path class="fil1" d="M176.15 140.86l0 -32.64 -11.86 0.34c-4.2,0.1 -6.76,0.88 -7.71,2.32 -0.7,1 -1.14,1.93 -1.35,2.77 -0.17,0.66 -0.46,0.97 -0.87,0.97 -0.48,0 -0.72,-0.41 -0.72,-1.29 0,-1.43 0.56,-4.46 1.66,-9.12 0.26,-1.04 0.58,-1.56 0.95,-1.56 0.16,0 0.61,0.18 1.28,0.45 0.69,0.29 1.41,0.48 2.15,0.52 2.88,0.29 5.51,0.43 7.95,0.43l31.51 0c0.92,0 2.19,-0.14 3.89,-0.43 1.71,-0.29 2.96,-0.42 3.74,-0.42 0.43,0 0.63,0.57 0.63,1.68 0,0.53 -0.04,2.01 -0.09,4.47 -0.09,2.45 -0.17,4.06 -0.21,4.86 -0.06,0.81 -0.28,1.21 -0.64,1.21 -0.47,0 -0.76,-0.52 -0.87,-1.62l-0.08 -0.87c-0.25,-2.79 -3.4,-4.28 -9.37,-4.43l-10.04 -0.28 0 32.64c0,8.99 0.13,14.67 0.38,17.01 0.33,2.59 1.35,4.02 3.13,4.3 1.52,0.21 2.87,0.32 4.05,0.32 0.85,0 1.27,0.21 1.27,0.65 0,0.5 -0.49,0.77 -1.52,0.77 -2.02,0 -4.48,-0.04 -7.41,-0.11 -2.91,-0.06 -4.59,-0.09 -5.08,-0.09 -0.49,0 -1.97,0.03 -4.5,0.09 -2.5,0.07 -4.38,0.11 -5.54,0.11 -1.05,0 -1.57,-0.27 -1.57,-0.77 0,-0.39 0.58,-0.62 1.74,-0.74 0.79,-0.1 1.59,-0.18 2.39,-0.23 1.22,-0.28 1.99,-1.74 2.31,-4.39 0.26,-2.33 0.4,-7.98 0.4,-16.92z"/>
   <path class="fil1" d="M270.95 139.14l-14.63 0c-0.32,0 -0.44,-0.16 -0.32,-0.55l7.32 -19.57c0.1,-0.48 0.26,-0.71 0.49,-0.71 0.15,0 0.29,0.23 0.39,0.71l7.15 19.65c0.1,0.32 -0.03,0.47 -0.4,0.47zm26.89 23.31c-1.27,0 -2.37,-0.1 -3.35,-0.3 -2.42,-0.56 -4.77,-3.43 -6.98,-8.7 -8.27,-20.31 -14.87,-36.6 -19.74,-48.9 -0.75,-1.7 -1.4,-2.54 -2,-2.54 -0.62,0 -1.36,1.06 -2.21,3.18l-19.98 49.94c-0.89,2.29 -1.77,3.91 -2.63,4.94 -1.04,1.25 -2.43,2 -4.12,2.23 -0.82,0.1 -6.5,0.05 -8.04,-0.15 -1.9,-0.3 -2.97,-1.58 -3.18,-3.91 -0.21,-2.15 -0.32,-7.94 -0.32,-17.41l0 -14c0,-9.48 0.07,-15.1 0.16,-16.84 0.16,-2.71 1.17,-4.22 2.94,-4.54 0.9,-0.17 1.75,-0.22 2.52,-0.22 0.77,0 1.15,-0.27 1.15,-0.8 0,-0.43 -0.57,-0.64 -1.68,-0.64 -1.1,0 -2.85,0.03 -5.24,0.11 -2.39,0.06 -3.85,0.1 -4.45,0.1 -0.71,0 -2.33,-0.04 -4.89,-0.1 -2.58,-0.08 -4.39,-0.11 -5.45,-0.11 -1.28,0 -1.92,0.21 -1.92,0.64 0,0.53 0.47,0.8 1.4,0.8 0.91,0 1.85,0.1 2.73,0.32 1.65,0.41 2.56,1.89 2.71,4.44 0.1,1.74 0.17,7.36 0.17,16.84l0 14c0,9.22 -0.15,15 -0.39,17.37 -0.29,2.34 -1.04,3.65 -2.33,3.95 -0.78,0.05 -1.57,0.11 -2.37,0.22 -1.18,0.12 -1.77,0.35 -1.77,0.71 0,0.53 0.54,0.79 1.59,0.79 1.19,0 3.02,-0.04 5.55,-0.11 2.52,-0.05 4.01,-0.1 4.49,-0.1 0.48,0 2.16,0.05 5.04,0.1 2.89,0.07 5.33,0.11 7.37,0.11l2.3 0c1.65,0 4.78,-0.07 9.39,-0.21 0.77,0 2.18,0.05 4.17,0.1 2,0.07 3.39,0.11 4.26,0.11 0.9,0 1.36,-0.24 1.36,-0.77 0,-0.42 -0.4,-0.61 -1.19,-0.61l-1.21 0c-2.11,0 -3.17,-0.85 -3.17,-2.49 0,-1.11 0.38,-2.72 1.18,-4.85l4.31 -11.38c0.15,-0.41 0.4,-0.62 0.71,-0.62l17.73 0c0.38,0 0.64,0.19 0.8,0.55l6.38 16.83c0.36,0.96 0.12,1.58 -0.71,1.84 -0.77,0.06 -1.14,0.29 -1.14,0.71 0,0.38 0.79,0.58 2.4,0.64 3.44,0.1 8.44,0.15 15.03,0.15 1.38,0 2.34,-0.05 2.85,-0.15 0.54,-0.11 0.8,-0.32 0.8,-0.64 0,-0.42 -0.34,-0.63 -1.03,-0.63z"/>
  </g>
 </g>
</svg>
