<?xml version="1.0" encoding="UTF-8"?>
<!DOCTYPE svg PUBLIC "-//W3C//DTD SVG 1.1//EN" "http://www.w3.org/Graphics/SVG/1.1/DTD/svg11.dtd">
<!-- Creator: CorelDRAW 2018 (64-Bit) -->
<svg xmlns="http://www.w3.org/2000/svg" xml:space="preserve" width="300px" height="243px" version="1.1" style="shape-rendering:geometricPrecision; text-rendering:geometricPrecision; image-rendering:optimizeQuality; fill-rule:evenodd; clip-rule:evenodd"
viewBox="0 0 300.47 243.6"
 xmlns:xlink="http://www.w3.org/1999/xlink">
 <defs>
  <style type="text/css">
   <![CDATA[
    .fil0 {fill:#C83023;fill-rule:nonzero}
   ]]>
  </style>
 </defs>
 <g id="Warstwa_x0020_1">
  <metadata id="CorelCorpID_0Corel-Layer"/>
  <g id="_2178210256832">
   <path class="fil0" d="M57.07 215.92l0.04 -20.66c12.95,0 17.7,-0.65 19.96,15.23l1.37 0 0 -17.68 -35.28 0.02 0 2.43 6.1 0 0 45.49 -6.73 0 0 2.4 36.37 0 0 -18.59 -1.83 0c-1.81,14.05 -5.37,16.2 -15.37,16.2l-4.63 0 0 -22.11 2.69 0c4.48,0.11 7.03,2.73 7.95,10.44l1.65 0 -0.01 -22.85c-0.04,0.04 -1.63,0 -1.63,0 0,0.11 -0.32,9.83 -8.16,9.68l-2.49 0z"/>
   <path class="fil0" d="M42.65 216.83l-19.9 0 0 2.26 6.82 0 0 16.36c-1.16,4.16 -7.28,5.89 -9.1,5.89 -12.72,0 -11.81,-18.6 -11.81,-23.58 0,-4.56 -0.46,-23.6 11.81,-23.6 8.64,0 13.18,8.6 15.01,16.33l1.37 0c0,-3.19 0.05,-18.33 0.02,-18.29 0.03,-0.12 -5.92,4.27 -5.94,4.2 0.14,-0.02 -2.72,-4.07 -10.46,-4.07 -15.01,0 -20.51,14.97 -20.47,25.43 0.07,9.56 4.48,25.84 20.47,25.84 5.02,0 8.57,-2.55 10.46,-5.46 0.02,-0.06 6.34,4.99 6.36,5.01l0 -24.06 5.36 0 0 -2.26z"/>
   <path class="fil0" d="M216.58 224.99l7.26 -21.75 7.74 21.75 -15 0zm-28.19 -8.68l-8.17 0 0 -21.08 10.45 0c6.13,0.92 6.38,8.01 6.38,10.26 0,5.45 -2.28,10.82 -8.66,10.82zm86.89 8.25c-1.81,14.05 -5.37,16.16 -15.37,16.16l-0.6 0 0 -45.48 6.36 0 0 -2.46 -20.92 0 0 2.46 6.36 0 0 45.48 -5.04 0 -18.58 -49.29 -2.74 0c0.07,-0.03 -15.43,44.72 -15.46,44.86 0.03,-0.14 -1.17,3.84 -3.72,4.32 -2.35,0.12 -2.18,-1.11 -2.18,-1.54l0 -8.62c0,-2.26 -0.17,-7.4 -2.52,-9.76 -2.64,-2.66 -7.14,-2.85 -7.04,-2.95 0,0 11.43,-2.36 11.43,-13.22 0,-7.61 -5.29,-11.39 -14.14,-11.73l-25.1 0 0 2.45 6.42 0 0 45.49 -6.42 0 0 2.42 20.59 0 0 -2.42 -6.42 0 0 -21.87 8.56 0c14.86,1.22 -2.55,24.31 16.93,24.29l12.27 0 0 -2.43c-0.69,0 -5.18,0.13 -5.46,-3 -0.19,-2.27 2.96,-10.4 2.96,-10.4l16.71 0c-0.01,-0.04 5.2,13.41 5.24,13.41l-5.82 0 0 2.42 45.53 0 0 -18.59 -1.83 0z"/>
   <path class="fil0" d="M141.26 195.23c12.96,0 17.74,-0.62 19.99,15.26l1.37 0 0 -17.68 -51.45 0 0 2.42 1.35 0c1.81,0 6.12,0.13 6.37,3.92l0 0 0 29.02 -24.07 -35.36 -13.11 0 0 2.42 2.18 0c2.58,0 6.21,0.11 6.37,3.92l0 37.18c0,3.63 -5.43,5.01 -7.7,5.01l-0.03 0 0 1.81 17.73 0 0 -1.81c-2.26,0 -7.73,-1.38 -7.73,-5.01l0.06 -32.73c9.53,13.62 27.51,39.57 27.68,39.55l0.9 0 0 -44c0.25,-3.79 4.55,-3.92 6.37,-3.92l5.91 0 0 45.52 -6.74 0 0 2.4 36.37 0 0 -18.59 -1.83 0c-1.81,14.05 -5.37,16.2 -15.37,16.2l-4.62 0 0 -22.11 2.68 0c4.48,0.11 7.04,2.73 7.95,10.44l1.65 0 -0.01 -22.85c-0.03,0.04 -1.63,0 -1.63,0 0,0.11 -0.32,9.83 -8.16,9.68l-2.48 0 0 -20.69z"/>
   <polygon class="fil0" points="299.98,195.23 299.98,192.78 279.45,192.78 279.45,195.23 285.89,195.23 285.92,240.69 279.45,240.69 279.45,243.15 299.98,243.15 299.98,240.69 293.53,240.69 293.53,195.23 "/>
   <path class="fil0" d="M226.82 150.98c0.61,-1.57 1.8,-2.56 3.44,-2.88l16.61 -3.7 -1.5 -14.82 -0.05 -0.32c-0.41,-1.94 -1.65,-7.85 -9.36,-8.48 -29.69,-2.4 -36.58,-6.8 -43.79,-11.46 -0.01,-0.02 -0.02,-0.05 -0.03,-0.07l-0.04 0.02 -0.47 -0.3c-7.71,-4.99 -15.37,-5.03 -16.12,-5.01 -8.41,0.01 -19.05,3.34 -19.91,3.61 -2.57,0.75 -4.97,1.53 -7.3,2.27 -9.29,2.99 -17.32,5.58 -30.81,5.18l-2.46 -0.08 -0.64 2.39c-0.49,1.83 -4.26,16.74 -0.62,26.32 -3.26,2.57 -3.26,5.55 -3.24,5.95 0.13,3.28 -0.64,4.08 -0.9,4.35 -1.56,1.61 -6.73,1.82 -11.08,1.82l-0.06 0 -1.58 0 -0.94 1.29c-2.68,3.69 -8.48,4.56 -12.19,3.61 -1.64,-4.96 -1.68,-8.76 -0.11,-11.03 1.86,-2.68 5.8,-2.97 7.41,-2.97l0.93 0c3.95,0 7.16,-3.22 7.16,-7.19l0 -26.69c1.2,-1.85 2.16,-3.99 3,-6.4 6.52,-1.04 11.51,-6.57 11.51,-13.21 0,-2.55 -0.76,-5.02 -2.11,-7.13 6.02,-2.89 11.17,-8.82 11.17,-16.58 0,-7.76 -3.91,-11.32 -7.62,-13.66 1.05,-2.98 2.77,-8.22 3.95,-13.49l5.21 -18.67c2.33,-7.32 8.42,-12.05 15.53,-12.05l91.81 0c-3.89,5.47 -9.41,8.06 -17.06,8.06l-55.55 0 -2.91 6.21 49.8 0c-3.92,6.22 -9.64,9.15 -17.78,9.15l-36.1 0 -2.9 6.22 32.21 0c-3.9,5.99 -9.56,8.82 -17.55,8.82l-19.68 0 -2.9 6.21 20.63 0c0.18,0.26 0.7,1.2 0.7,3.72 0,3.99 -3.35,7.24 -7.48,7.24 -1.42,0 -2.63,-0.33 -4.75,-1.19 -0.92,-0.39 -1.82,-0.77 -2.74,-1.16l-4.78 4.3c0.89,0.38 1.79,0.76 2.68,1.14l0 0c4.15,1.8 6.46,2.73 9.59,2.73 3.8,0 7.22,-1.57 9.65,-4.08 3.54,0.23 9.24,0.7 14.76,1.15 6.6,0.54 12.83,1.06 16.06,1.22 1.61,0.09 3.12,0.17 4.57,0.24 2.73,0.13 5.24,0.26 7.74,0.44 12.53,20.34 18.96,23.02 43.23,25.93 1.75,3.13 3.32,6.44 4.82,9.78l0 39.62 0.01 0.22c0.14,1.83 0.14,2.44 -0.11,2.77 -0.85,1.11 -4.6,2.67 -5.89,3.21l-20.46 7.71c-2.71,-3.68 -3.69,-7.51 -2.61,-10.28zm-4.42 10.76l-40.45 0 17.34 -18.29c3.5,-3.62 4.61,-7.97 3.14,-12.24 -0.84,-2.46 -3.13,-7.18 -5.51,-12.02 6.88,3.2 17.31,6.07 38.53,7.78 2.56,0.21 3.23,1.08 3.74,3.41l0.93 9.16 -11.09 2.47c-3.72,0.74 -6.64,3.18 -8.01,6.72 -1.52,3.9 -1,8.5 1.38,13.01zm-72.94 0c-1.12,-4.4 -0.67,-7.91 1.34,-10.21 1.92,-2.2 4.86,-2.86 6.95,-2.56l11.82 2.19 0.3 0.05 1.64 0 8.35 -9 0.08 -0.08c1.43,-1.67 5.77,-6.7 1.34,-13.12l-11.16 -18.4c1.84,-0.27 3.7,-0.43 5.42,-0.43l0.07 -0.01c0.06,0.01 5.65,-0.08 11.65,3.42 0.81,1.74 1.94,4.03 3.2,6.58 2.34,4.75 5.26,10.67 6.08,13.06 0.26,0.75 1.05,3.03 -1.75,5.92l-21.4 22.59 -23.93 0zm-3.36 -14.3c-2.25,2.59 -4.44,7.09 -3.02,14.3l-38.07 0c4.09,-0.4 7.06,-1.36 9.11,-3.49 2.49,-2.6 2.72,-6.14 2.63,-8.67 0.09,-0.22 0.5,-1.08 2.36,-1.92l3.29 -1.5 -1.97 -3.03c-3.26,-5 -1.84,-15.92 -0.58,-21.86l0.3 0c12.91,0 21.26,-2.68 30.06,-5.51 2.3,-0.74 4.67,-1.5 7.17,-2.23l0.08 -0.03c0.05,-0.01 2.62,-0.83 6.13,-1.65l12.41 20.46 0.11 0.17c1.24,1.76 1.4,2.93 -0.86,5.55l-6.22 6.71 -10.19 -1.89 -0.1 -0.02c-4.6,-0.7 -9.57,1.11 -12.64,4.61zm-67.54 -1.34c-2.65,3.8 -2.97,9.06 -0.98,15.64l-6.43 0 0 -50.23c2.3,-0.35 4.78,-1.01 7.09,-2.06 -0.13,2.19 -0.43,3.92 -0.84,6.24 -0.1,0.53 -0.19,1.1 -0.3,1.69l-0.61 3.63 3.68 0c5.51,0 9.61,-0.86 12.77,-2.49l0 20.96c0,0.54 -0.41,0.98 -0.93,0.98l-0.93 0c-5.47,0 -10.03,2.05 -12.52,5.64zm-13.65 10.2l-29.31 -7.63 -29.32 7.63 0 -52.44 29.32 -7.61 29.31 7.61 0 52.44zm-54.87 5.44l25.56 -6.65 25.55 6.65 -51.11 0zm10.23 -77.2c1.22,-1.87 4.02,-3.49 7.53,-2.88l2.65 0.46 0.83 -2.56c0.23,-0.68 0.53,-1.19 0.94,-1.58 0.75,-0.7 1.86,-1.03 3.28,-1 3.75,0.13 8.44,2.73 12.25,6.82 1.39,1.49 2.62,3.21 3.71,4.96 0.21,0.36 0.46,0.76 0.68,1.1 0.31,0.49 0.57,0.89 0.62,0.98 0.13,0.24 2.02,3.07 1.89,3.25 1.29,-1.8 2.57,-3.62 3.86,-5.42 0.04,-0.05 -0.02,-0.22 -0.13,-0.45 -0.29,-0.62 -0.97,-1.7 -1.38,-2.33l-0.29 -0.47c-0.01,-0.01 -0.02,-0.03 -0.02,-0.04 -0.05,-0.06 -0.22,-0.33 -0.44,-0.69 -0.43,-0.67 -1.05,-1.64 -1.32,-2.18l8.11 -12.96c2.02,0.42 3.75,0.48 4.57,0.48l0.2 0c11.44,0 23.27,-6.6 23.27,-17.64l0 -0.27c-0.14,-3.01 -0.7,-5.88 -1.16,-8.18 -0.29,-1.52 -0.58,-2.96 -0.58,-3.67 0,-1.22 1.71,-2.56 4.14,-2.56l3.7 0 -1.67 -9.59c5.21,-3.82 8.4,-10.07 8.24,-16.03 5.61,4.3 9.57,11.76 10.29,19.7 0.21,2.3 -0.24,5.53 -0.99,8.92l-0.4 1.41 0.07 0.02c-1.33,5.54 -3.29,11.23 -4.32,13.93l-0.95 2.49 2.33 1.32c4.17,2.37 6.74,4.09 6.74,9.59 0,6.3 -5.68,11.13 -11.16,12.16l-7.5 1.4 6.34 4.24c2.04,1.35 3.25,3.56 3.25,5.91 0,3.96 -3.36,7.18 -7.51,7.18l-2.39 0 -0.67 2.19c-2.33,7.58 -4.86,11.29 -12.99,12.08 0.38,-2.3 0.64,-4.52 0.64,-7.65 0,-0.74 -0.06,-2.8 -0.09,-3.47l-0.37 -7.06 -4.96 5.04c-1.69,1.72 -4.68,3.08 -7.96,3.72l0 -6.16 -35.55 -9.23 -12.65 3.29c-2.82,-2.82 -3.39,-7.49 -2.68,-8.57zm38.38 -22.83c0.09,-0.43 0.44,-0.77 0.81,-0.76l5.35 0.17c6.53,-0.23 13.17,-2.92 13.92,-9.71 0,-4.6 -3.26,-9.08 -7.87,-9.08 -2.47,0 -5.24,1.7 -8.36,3.77 -2.03,1.34 -3.63,2.4 -4.85,2.4 -0.82,0 -1.48,-0.54 -1.48,-0.99 0,-0.08 0.01,-0.16 0.03,-0.23l3.42 -4.58 -2.95 -1.98c-0.63,-0.42 -1.61,-1.19 -1.72,-1.77 -0.05,-0.28 0.34,-0.77 0.47,-0.91 1.22,-1.43 2.63,-3.17 4.05,-5.32 0.87,-1.22 1.38,-1.89 2.84,-1.89 1.44,0 2.62,1.16 2.62,2.58 0,0.94 1.04,1.68 2.32,1.68 1.29,0 1.86,-0.91 2.65,-1.68 0,0 3.06,-2.8 1.44,-4.12 -1.84,-1.51 -9.22,1.57 -7.17,-5.21l0.51 -0.97c0.79,-1.05 4.32,-3.66 11.62,-3.66 1.38,0 2.84,0.1 4.33,0.28l1.09 0.14 15.5 -9.55c0.13,0.33 0.18,0.56 0.18,0.56l0.01 0.09c0.81,4.69 -2.14,10.27 -6.87,12.98l-1.89 1.08 1.22 6.99c-3.98,1.22 -6.75,4.41 -6.75,8.25 0,1.31 0.31,2.88 0.7,4.86 0.42,2.2 0.91,4.68 1.04,7.21 0,7.27 -10.03,12.08 -18.52,11.8l-0.22 0c-0.34,-0.01 -5.75,-0.44 -7.07,-1.49 -0.26,-0.19 -0.47,-0.61 -0.4,-0.94zm12.84 -48.51c0.97,-1.25 2.56,-2.63 4.46,-3.89 1.49,-0.98 3.43,-1.86 5.32,-2.4 3,-0.87 6.45,-0.92 10.02,-0.24l-10.98 6.78c-1.38,-0.14 -2.71,-0.22 -4.01,-0.22 -1.87,0 -3.58,0.16 -5.15,0.41 0.12,-0.15 0.22,-0.3 0.34,-0.44zm167.39 -1.6l41.43 0c-3.89,5.47 -9.41,8.06 -17.05,8.06l-30.59 0c2.44,-2.14 4.52,-4.83 6.21,-8.06zm-2.07 23.42l-30.58 0c2.7,-2.37 4.95,-5.43 6.75,-9.15l41.6 0c-3.91,6.22 -9.64,9.15 -17.77,9.15zm-24.34 15.04l-30.58 0c2.62,-2.3 4.81,-5.25 6.58,-8.82l41.55 0c-3.9,5.99 -9.57,8.82 -17.55,8.82zm7.03 23.33c9.69,1.6 17.62,5.96 23.58,12.95 1.27,1.51 2.5,3.1 3.71,4.82 -16.3,-2.13 -21.97,-4.51 -31.08,-18.34 1.21,0.16 2.46,0.35 3.79,0.57zm65.02 67.06c0.6,0.97 1.11,1.87 1.61,2.74 0.6,1.08 1.2,2.12 1.9,3.21 -4.72,-0.29 -8.29,-2.9 -11.6,-7.84 3.05,-1.07 6.74,-0.31 8.09,1.89zm-38.74 21.29l6.35 -2.4 0.1 -0.03c9.02,-3.74 10.3,-6.07 9.88,-12.07l0 -24.25c6.86,17.43 13.35,29.68 26.66,29.68 1.81,0 3.74,-0.22 5.82,-0.7l5.19 -1.17 -3.57 -3.94c-2.28,-2.51 -3.39,-4.47 -4.66,-6.72 -0.53,-0.93 -1.07,-1.89 -1.72,-2.95 -3.12,-5.05 -10.52,-6.76 -16.52,-4.08 -2.73,-5.4 -5.46,-12.44 -8.76,-21.14l-0.72 -1.66c-0.57,-1.29 -1.14,-2.6 -1.72,-3.91l0 -0.22 -0.1 0c-2.04,-4.59 -4.22,-9.2 -6.83,-13.52 -2.36,-3.92 -4.78,-7.3 -7.36,-10.34 -6.94,-8.15 -16.13,-13.21 -27.31,-15.06 -7.72,-1.28 -13.19,-1.55 -20.12,-1.89 -1.44,-0.06 -2.94,-0.14 -4.54,-0.23 -3.13,-0.17 -9.61,-0.7 -15.88,-1.22 -4.22,-0.34 -8.56,-0.69 -11.96,-0.95 0.23,-0.96 0.36,-1.95 0.36,-2.98 0,-1.39 -0.12,-2.62 -0.37,-3.72l44.47 0c11.46,0 19.76,-5.07 24.69,-15.04 11.4,-0.1 19.64,-5.28 24.51,-15.36l1.59 0c11.86,0 20.34,-5.41 25.21,-16.09l2.01 -4.4 -150.67 0c-9.9,0 -18.33,6.46 -21.48,16.45l-0.1 0.35c-2.56,-7.14 -7.25,-13.21 -13.26,-16.78 -8.36,-4.97 -17.86,-6.64 -25.43,-4.46 -2.5,0.72 -5,1.85 -7.02,3.19 -1.74,1.14 -4.17,2.98 -5.94,5.25 -1.93,2.47 -3.79,5.46 -5.16,8.25 -0.86,0.71 -1.54,1.44 -2,2.15l-1.81 3.39 -0.09 0.19c-2.16,4.87 -4.79,8.25 -6.83,10.64 -2.03,2.36 -2.13,4.61 -1.86,6.08 0.3,1.61 1.16,2.92 2.08,3.91l-0.05 0.09c-0.6,1.04 -0.92,2.22 -0.92,3.43 0,3.97 3.46,6.98 7.71,6.98 3.1,0 5.62,-1.45 8.3,-3.22 1.09,-0.71 3.96,-2.62 4.91,-2.73 1.19,0 2.27,1.08 2.27,2.27 0,3.26 -4.2,5.02 -7.21,5.23l-6.11 0.66c-4.41,0.41 -6.5,2.75 -6.5,4.83 0,2.1 1.01,3.28 1.71,3.98l0.45 0.46 1.56 1.38 -6.49 10.45c-4.63,-4.28 -10.04,-6.87 -14.84,-7.02 -3.11,-0.11 -5.79,0.83 -7.76,2.69 -0.58,0.55 -1.08,1.16 -1.5,1.84l-0.11 0c-5.14,0 -9.26,2.75 -11.28,5.83 -2.2,3.37 -1.4,9.21 1.38,13.66l-16.38 4.25 0 78.3 300.42 0 0 -15.61 -54.69 0z"/>
   <polygon class="fil0" points="58.42,111.91 38.83,106.82 38.83,113.24 58.42,118.33 "/>
   <polygon class="fil0" points="12.78,118.33 32.37,113.24 32.37,106.82 12.78,111.91 "/>
   <polygon class="fil0" points="12.78,131.23 32.37,126.15 32.37,119.73 12.78,124.81 "/>
   <polygon class="fil0" points="58.42,124.81 38.83,119.73 38.83,126.15 58.42,131.24 "/>
   <polygon class="fil0" points="58.42,137.73 38.83,132.63 38.83,139.06 58.42,144.14 "/>
   <polygon class="fil0" points="12.78,144.14 32.37,139.06 32.37,132.63 12.78,137.72 "/>
  </g>
 </g>
</svg>
