<?xml version="1.0" encoding="UTF-8"?>
<!DOCTYPE svg PUBLIC "-//W3C//DTD SVG 1.1//EN" "http://www.w3.org/Graphics/SVG/1.1/DTD/svg11.dtd">
<!-- Creator: CorelDRAW 2018 (64-Bit) -->
<svg xmlns="http://www.w3.org/2000/svg" xml:space="preserve" width="300px" height="300px" version="1.1" style="shape-rendering:geometricPrecision; text-rendering:geometricPrecision; image-rendering:optimizeQuality; fill-rule:evenodd; clip-rule:evenodd"
viewBox="0 0 300 300"
 xmlns:xlink="http://www.w3.org/1999/xlink">
 <defs>
  <style type="text/css">
   <![CDATA[
    .fil2 {fill:#CFD0D0}
    .fil1 {fill:#CFD0D0;fill-rule:nonzero}
    .fil4 {fill:#E31E24;fill-rule:nonzero}
    .fil0 {fill:#007E3C;fill-rule:nonzero}
    .fil3 {fill:#006E36;fill-rule:nonzero}
   ]]>
  </style>
 </defs>
<symbol id="Fm3-26-0" viewBox="2891.66 -1122.18 290.36 143.27">
 <path class="fil0" d="M3111.67 -1122.18c-10.91,0 -21.66,2.34 -32.77,7.25 -6.73,3.09 -112.84,80.28 -187.24,134.73 17.65,0.08 218.81,1.28 218.81,1.28 0,0 13.02,-1.35 13.51,-1.51 28.97,-5.65 58.04,-29.9 58.04,-70.69 0,-39.87 -30.96,-71.06 -70.35,-71.06z"/>
</symbol>
<symbol id="Fm1-24-0" viewBox="2647.42 -1255.55 207.2 257.9">
 <path class="fil0" d="M2760.41 -1241.93c-31.87,-23.19 -75.23,-16.09 -98.64,16.16 -10.12,13.82 -14.35,28.25 -14.35,41.96 0,19.11 8.16,36.85 20.02,49.69l9.74 8.76c0,0 163.17,117.37 177.45,127.72 -27.98,-87.84 -68.4,-212.64 -72.47,-219.74 -5.52,-9.9 -12.84,-18.12 -21.75,-24.55z"/>
</symbol>
<symbol id="Fm2-25-0" viewBox="2801.27 -1298.55 142.74 301.67">
 <path class="fil0" d="M2851.57 -1295.1c-35.43,11.25 -50.3,41.08 -50.3,68.8 0,2.88 0.14,5.67 0.45,8.46l2.72 12.84c0,0 61.55,191.34 66.91,208.11 29.68,-87.3 71.23,-211.58 72.2,-219.82 0.35,-3.16 0.46,-6.41 0.46,-9.59 0,-7.85 -1.13,-15.63 -3.48,-23.18 -11.93,-37.61 -51.05,-57.55 -88.96,-45.62z"/>
</symbol>
<symbol id="Fm4-27-0" viewBox="2887.89 -1255.55 207.32 257.9">
 <path class="fil0" d="M3095.21 -1183.74c0,-13.78 -4.2,-28.21 -14.28,-42.03 -23.48,-32.25 -66.76,-39.35 -98.7,-16.16 -8.73,6.42 -16.17,14.65 -22.18,25.07 -4.03,7.33 -51.01,153.28 -72.16,219.22 35.16,-25.23 177.59,-127.72 177.59,-127.72 0,0 9.75,-8.76 10.05,-9.21 11.68,-12.54 19.68,-30.13 19.68,-49.17z"/>
</symbol>
<symbol id="Fm8-60-0" viewBox="1696.53 -4113.72 202.38 141.66">
 <path class="fil1" d="M1696.53 -4109.92l43.08 -0.05 0 90.92 34.61 0 0 -76.93 40.9 -0.04 0 76.97 21.64 0c13.59,0 19.37,-7.95 19.37,-18.36l0 -76.22 42.78 -0.09 0 94.53c-0.15,34.32 -15.9,46.75 -46.49,47.13l-155.89 0 0 -137.86z"/>
</symbol>
<symbol id="Fm0-23-0" viewBox="2560.72 -1122.18 290.31 143.27">
 <path class="fil0" d="M2619.18 -980.27l13.14 1.35c0,0 201.04,-1.2 218.72,-1.28 -74.47,-54.45 -180.55,-131.64 -187.98,-135.04 -10.35,-4.6 -21.15,-6.94 -32.11,-6.94 -39.49,0 -70.23,31.19 -70.23,71.06 0,40.79 29.01,65.03 58.46,70.85z"/>
</symbol>
<symbol id="Fm9-61-0" viewBox="2276.34 -1635.47 202.39 141.67">
 <path class="fil1" d="M2324.29 -1635.47l154.43 0 0 137.88 -43.08 0.04 0 -90.92 -34.62 0 0 76.93 -40.89 0.04 0 -76.97 -21.64 0c-13.6,0 -19.37,7.95 -19.37,18.36l0 76.22 -42.78 0.09 0 -94.03c0,-35.26 16.25,-47.64 47.95,-47.64z"/>
</symbol>
<symbol id="Fm7-59-0" viewBox="1814.71 -3256.79 202.38 141.67">
 <path class="fil1" d="M1814.71 -3252.99l43.08 -0.05 0 90.92 34.62 0 0 -76.93 40.89 -0.04 0 76.97 21.64 0c13.6,0 19.37,-7.95 19.37,-18.36l0 -76.22 42.78 -0.09 0 94.04c0,35.18 -16.19,47.58 -47.77,47.63l-154.61 0 0 -137.87z"/>
</symbol>
<symbol id="Fm37-56-0" viewBox="682.49 -2451.31 360.43 198.55">
 <path class="fil2" d="M1015.71 -2399.43c0,-14.36 -6.97,-31.05 -25.05,-31.05 -16.39,0 -25.01,14.08 -25.01,31.05 0,19.11 10.65,31.12 25.01,31.12 18.08,0 25.05,-16.55 25.05,-31.12zm24.16 0c0,30.15 -20.08,51.77 -49.6,51.77 -27.89,0 -48.65,-19.86 -48.65,-51.77 0,-34.25 24.61,-51.88 49.57,-51.88 23.95,0 48.68,16.74 48.68,51.88z"/>
 <path class="fil2" d="M932.78 -2357.06c-5.91,3.92 -18.37,9.31 -35.29,9.31 -33.31,0 -49.77,-22.98 -49.77,-51.09 0,-31.6 22.34,-52.45 51.59,-52.45 14.48,0 23.77,2.39 32.02,6.43l-8.47 19.49c-6.26,-2.63 -13.52,-4.2 -22.11,-4.2 -21.11,0 -28.28,12.65 -28.28,30.11 0,18.85 9.63,31.05 26.39,31.05 6.07,0 10.61,-1.3 12.06,-2.19l0 -17.53 -17.06 0 0.03 -19.85 38.86 0 0.03 50.92z"/>
 <path class="fil2" d="M817.09 -2417.09c0,-4.17 -1.51,-7.54 -4.52,-9.83 -3.01,-2.38 -7.14,-3.52 -12.17,-3.6 -0.56,-0.03 -2.71,0 -4.01,0.06 -1.29,0.02 -4.69,0.32 -5.76,0.52l0 28.6c1.54,0.2 4.78,0.34 7.39,0.34 5.55,0 10.75,-1.52 14,-4.08 3.31,-2.64 5.07,-6.9 5.07,-12.01zm1.89 67.7c-3.29,-12.04 -8.84,-21.24 -13.4,-27.1 -3.84,-4.97 -6.86,-6 -6.86,-6 -3.08,0.05 -5.25,0.05 -8.09,-0.06l0 33.16 -23.27 0 0 -99.26c4.92,-0.77 8.42,-1.23 13.54,-1.68 4.74,-0.44 10.09,-0.72 16.02,-0.72 7.84,0 14.52,0.85 19.98,2.57 5.47,1.75 9.91,4.1 13.4,7.12 3.56,3.01 6.1,6.76 7.66,10.87 1.61,4.01 2.45,8.29 2.45,12.84 0,6 -1.48,11.85 -4.65,16.86 -2.85,4.42 -7.64,8.94 -12.59,12.08l0 0.43c11.07,5.05 17.33,21.33 23.4,38.89l-27.59 0z"/>
 <path class="fil2" d="M685.64 -2373.14l0 -76.5 68.31 0 0.02 21.33 -45.04 0 0 17.14 38.11 0 0.02 20.28 -38.13 0 0 10.7c0,6.74 3.93,9.61 9.1,9.61l37.77 0 0.02 21.19 -46.58 0c-17.46,0 -23.6,-8.05 -23.6,-23.75z"/>
 <path class="fil2" d="M1032.75 -2334.92c0,0.33 -0.28,0.63 -0.61,0.63 -0.36,0 -0.61,-0.3 -0.61,-0.63 0,-0.33 0.25,-0.62 0.61,-0.62 0.33,0 0.61,0.29 0.61,0.62z"/>
 <path class="fil2" d="M1029.73 -2330.25l2.87 0c1.86,0 2.81,0.65 2.81,1.96 0,0.92 -0.35,1.54 -1.13,1.85 -0.46,0.2 -1.28,0.31 -2.43,0.31l-2.12 0 0 -4.12zm2.57 5.32l3.32 5.22 1.67 0 -3.49 -5.22c1.96,-0.34 2.96,-1.43 2.96,-3.29 0,-2.18 -1.28,-3.24 -3.83,-3.24l-4.57 0 0 11.75 1.37 0 0 -5.22 2.57 0zm6.81 6.36c1.95,-1.95 2.9,-4.28 2.9,-7.04 0,-2.73 -0.95,-5.04 -2.9,-7.02 -1.92,-1.9 -4.26,-2.87 -7,-2.87 -2.73,0 -5.1,0.97 -7.04,2.87 -1.95,1.98 -2.9,4.29 -2.9,7.02 0,2.76 0.95,5.09 2.9,7.04 1.94,1.93 4.31,2.93 7.04,2.93 2.74,0 5.08,-1 7,-2.93zm-0.89 -0.83c-1.66,1.66 -3.69,2.52 -6.11,2.52 -2.42,0 -4.48,-0.82 -6.13,-2.49 -1.65,-1.68 -2.46,-3.75 -2.46,-6.24 0,-2.42 0.81,-4.49 2.46,-6.16 1.65,-1.69 3.71,-2.57 6.13,-2.57 2.42,0 4.45,0.88 6.11,2.57 1.63,1.67 2.44,3.74 2.44,6.16 0,2.49 -0.81,4.53 -2.44,6.21z"/>
 <path class="fil2" d="M704.76 -2295.1l36.63 0c0.4,0 0.59,-0.24 0.59,-0.68l0 -2.01c0,-11.45 -0.07,-18.2 -0.19,-20.33 -0.19,-3.05 -1.56,-4.9 -4.11,-5.46 -0.92,-0.18 -2.17,-0.28 -3.76,-0.28 -1.07,0 -1.62,-0.28 -1.62,-0.87 0,-0.56 0.67,-0.85 1.99,-0.85 1.93,0 4.55,0.04 7.88,0.14 3.33,0.07 5.32,0.12 5.94,0.12 0.66,0 2.5,-0.05 5.53,-0.12 3.03,-0.1 5.24,-0.14 6.57,-0.14 1.36,0 2,0.29 2,0.85 0,0.59 -0.56,0.87 -1.71,0.87 -0.78,0 -1.68,0.1 -2.75,0.28 -2.2,0.41 -3.38,2.2 -3.59,5.46 -0.12,2.13 -0.19,8.9 -0.19,20.33l0 16.89c0,10.86 0.17,17.69 0.49,20.51 0.37,3.14 1.62,4.85 3.75,5.19 1.84,0.26 3.47,0.35 4.88,0.35 1.04,0 1.55,0.29 1.55,0.78 0,0.65 -0.65,0.96 -1.93,0.96 -2.36,0 -5.3,-0.04 -8.84,-0.12 -3.5,-0.1 -5.54,-0.13 -6.15,-0.13 -0.54,0 -2.35,0.03 -5.36,0.13 -2.99,0.08 -5.23,0.12 -6.62,0.12 -1.34,0 -2.01,-0.31 -2.01,-0.96 0,-0.45 0.72,-0.74 2.11,-0.86 0.96,-0.12 1.94,-0.23 2.89,-0.27 1.44,-0.34 2.39,-2.11 2.76,-5.3 0.31,-2.5 0.49,-9.3 0.49,-20.4l0 -8.45c0,-0.38 -0.19,-0.57 -0.59,-0.57l-36.63 0c-0.38,0 -0.59,0.19 -0.59,0.57l0 8.45c0,10.86 0.18,17.69 0.48,20.51 0.39,3.14 1.66,4.85 3.76,5.19 1.83,0.26 3.48,0.35 4.91,0.35 1.01,0 1.5,0.29 1.5,0.78 0,0.65 -0.64,0.96 -1.91,0.96 -2.38,0 -5.29,-0.04 -8.84,-0.12 -3.5,-0.1 -5.58,-0.13 -6.13,-0.13 -0.57,0 -2.39,0.03 -5.41,0.13 -3.04,0.08 -5.26,0.12 -6.68,0.12 -1.27,0 -1.92,-0.31 -1.92,-0.96 0,-0.45 0.71,-0.74 2.13,-0.86 0.97,-0.12 1.93,-0.23 2.87,-0.27 1.48,-0.34 2.39,-2.11 2.76,-5.27 0.33,-2.53 0.51,-9.33 0.51,-20.43l0 -16.89c0,-11.43 -0.09,-18.2 -0.22,-20.33 -0.19,-3.05 -1.56,-4.87 -4.11,-5.46 -0.88,-0.18 -2.14,-0.28 -3.74,-0.28 -1.09,0 -1.64,-0.28 -1.64,-0.87 0,-0.56 0.67,-0.85 2,-0.85 1.93,0 4.57,0.04 7.87,0.14 3.35,0.07 5.31,0.12 5.97,0.12 0.63,0 2.48,-0.05 5.51,-0.12 3.05,-0.1 5.24,-0.14 6.58,-0.14 1.35,0 2.02,0.29 2.02,0.85 0,0.59 -0.59,0.87 -1.74,0.87 -0.76,0 -1.69,0.1 -2.77,0.28 -2.18,0.41 -3.38,2.2 -3.55,5.46 -0.14,2.13 -0.21,8.88 -0.21,20.33l0 2.01c0,0.44 0.21,0.68 0.59,0.68z"/>
 <path class="fil2" d="M777.33 -2281.43l0 -16.86c0,-11.45 -0.1,-18.2 -0.22,-20.32 -0.19,-3.08 -1.59,-4.91 -4.13,-5.47 -0.89,-0.18 -2.13,-0.28 -3.72,-0.28 -1.12,0 -1.64,-0.3 -1.64,-0.86 0,-0.58 0.69,-0.87 2.1,-0.87 1.93,0 4.51,0.04 7.83,0.12 3.28,0.08 5.3,0.15 5.99,0.15 15.17,0 23.17,-0.04 23.99,-0.11 1.68,-0.12 3.03,-0.29 4.11,-0.57 1.11,-0.25 1.61,-0.35 1.55,-0.35 0.37,0 0.56,0.28 0.56,0.86 0,0.06 -0.08,0.64 -0.28,1.73 -0.2,1.27 -0.32,2.75 -0.41,4.48 -0.14,1.71 -0.29,3.83 -0.55,6.32 -0.12,0.72 -0.45,1.04 -0.95,1.04 -0.44,0 -0.72,-0.32 -0.82,-1.04 -0.07,-0.72 -0.18,-1.38 -0.25,-2 -0.04,-0.68 -0.18,-1.21 -0.37,-1.73 -0.78,-1.86 -2.92,-3.03 -6.43,-3.47 -2.17,-0.26 -6.69,-0.39 -13.63,-0.39 -0.43,0 -0.65,0.32 -0.65,0.96l0 24.28c0,0.71 0.22,1.04 0.65,1.04 8.77,0 13.88,-0.07 15.34,-0.18 1.08,-0.08 1.92,-0.15 2.51,-0.3 0.98,-0.27 1.67,-0.63 2.1,-1.13 0.78,-0.84 1.3,-1.26 1.55,-1.26 0.46,0 0.67,0.27 0.67,0.78 0,0.06 -0.11,0.69 -0.29,1.91 -0.19,1.47 -0.37,3.17 -0.48,5.07 -0.26,3.68 -0.38,5.81 -0.38,6.44 0,1.21 -0.29,1.8 -0.85,1.8 -0.59,0 -0.89,-0.31 -0.89,-0.98 0,-0.68 -0.11,-1.77 -0.38,-3.31 -0.49,-2.17 -2.3,-3.42 -5.35,-3.77 -1.79,-0.18 -6.34,-0.25 -13.64,-0.25 -0.38,0 -0.56,0.3 -0.56,0.93l0 22.47c0.12,3.38 0.86,5.6 2.24,6.59 1.38,0.98 4.46,1.47 9.24,1.47 4.38,0 7.37,-0.39 9.04,-1.16 2.23,-1.02 3.69,-3.4 4.32,-7.1 0.21,-0.93 0.53,-1.42 1.05,-1.42 0.51,0 0.77,0.59 0.77,1.72 0,3.9 -0.41,7.47 -1.24,10.7 -0.33,1.19 -0.79,1.87 -1.36,2.11 -0.57,0.25 -1.86,0.41 -3.83,0.41 -5.55,0 -11.1,-0.11 -16.61,-0.34 -5.51,-0.2 -8.8,-0.31 -9.95,-0.31 -0.6,0 -2.4,0.04 -5.43,0.13 -3.04,0.07 -5.27,0.12 -6.67,0.12 -1.26,0 -1.91,-0.32 -1.91,-0.93 0,-0.46 0.7,-0.76 2.1,-0.89 0.95,-0.12 1.92,-0.22 2.88,-0.27 1.47,-0.35 2.4,-2.11 2.76,-5.28 0.34,-2.5 0.52,-9.3 0.52,-20.43z"/>
 <path class="fil2" d="M841.62 -2252.75c-5.58,0 -10.24,-0.84 -14.01,-2.5 -1.24,-0.5 -1.84,-1.6 -1.84,-3.27 0,-3.43 0.17,-7.63 0.48,-12.58 0.12,-1.64 0.52,-2.48 1.16,-2.48 0.65,0 0.96,0.54 0.96,1.63 0,1.33 0.29,2.96 0.86,4.91 1.91,6.43 6.49,9.67 13.72,9.67 4.04,0 7.26,-1.18 9.7,-3.55 2.12,-2.14 3.16,-4.56 3.16,-7.38 0,-5.33 -3.13,-10.43 -9.38,-15.39l-4.44 -3.42c-9.46,-7.44 -14.18,-15.01 -14.18,-22.75 0,-5.32 2.01,-9.64 6.13,-13.04 4.08,-3.38 9.44,-5.1 16.01,-5.1 4.23,0 8.49,0.54 12.76,1.66 0.9,0.24 1.33,0.62 1.33,1.14 0,-0.14 -0.05,1 -0.17,3.38 -0.14,2.41 -0.19,5.12 -0.19,8.12 0,1.93 -0.36,2.9 -1.05,2.9 -0.64,0 -0.95,-0.59 -0.95,-1.72 0,-2.16 -0.83,-4.25 -2.53,-6.33 -2.48,-3.17 -5.95,-4.73 -10.44,-4.73 -3.54,0 -6.29,0.94 -8.34,2.73 -2.06,1.85 -3.08,4.21 -3.08,7.15 0,2.27 0.73,4.38 2.17,6.37 1.45,2.03 4.11,4.49 8.01,7.48l2.69 2c5.74,4.36 9.83,8.35 12.18,12.04 2.35,3.67 3.56,7.83 3.56,12.42 0,7.24 -3.01,12.8 -9.02,16.69 -4.03,2.63 -9.12,3.95 -15.26,3.95z"/>
 <path class="fil2" d="M894.92 -2281.43l0 -39.36 -14.29 0.41c-5.06,0.13 -8.16,1.05 -9.3,2.79 -0.85,1.21 -1.38,2.33 -1.63,3.34 -0.2,0.79 -0.56,1.18 -1.05,1.18 -0.58,0 -0.87,-0.51 -0.87,-1.56 0,-1.72 0.67,-5.37 2,-11 0.32,-1.26 0.7,-1.87 1.15,-1.87 0.19,0 0.74,0.2 1.54,0.54 0.84,0.34 1.7,0.57 2.59,0.62 3.47,0.35 6.65,0.52 9.59,0.52l38 0c1.12,0 2.64,-0.17 4.7,-0.52 2.06,-0.34 3.56,-0.51 4.5,-0.51 0.53,0 0.77,0.69 0.77,2.03 0,0.64 -0.05,2.42 -0.11,5.39 -0.11,2.95 -0.2,4.9 -0.26,5.85 -0.07,0.98 -0.33,1.46 -0.77,1.46 -0.57,0 -0.92,-0.62 -1.04,-1.93l-0.1 -1.06c-0.31,-3.36 -4.1,-5.17 -11.31,-5.35l-12.11 -0.33 0 39.36c0,10.85 0.17,17.69 0.46,20.51 0.4,3.13 1.64,4.85 3.78,5.2 1.84,0.25 3.46,0.38 4.89,0.38 1.02,0 1.53,0.24 1.53,0.78 0,0.61 -0.6,0.92 -1.83,0.92 -2.44,0 -5.41,-0.04 -8.94,-0.13 -3.51,-0.07 -5.54,-0.11 -6.12,-0.11 -0.59,0 -2.38,0.04 -5.43,0.11 -3.02,0.09 -5.29,0.13 -6.68,0.13 -1.27,0 -1.9,-0.31 -1.9,-0.92 0,-0.46 0.69,-0.76 2.1,-0.89 0.95,-0.12 1.92,-0.22 2.89,-0.27 1.46,-0.35 2.39,-2.11 2.77,-5.3 0.32,-2.82 0.48,-9.63 0.48,-20.41z"/>
 <path class="fil2" d="M1009.26 -2283.5l-17.65 0c-0.38,0 -0.53,-0.2 -0.38,-0.66l8.83 -23.61c0.12,-0.58 0.32,-0.86 0.59,-0.86 0.18,0 0.34,0.28 0.48,0.86l8.61 23.71c0.13,0.37 -0.04,0.56 -0.48,0.56zm32.43 28.11c-1.54,0 -2.86,-0.13 -4.04,-0.35 -2.91,-0.69 -5.75,-4.16 -8.42,-10.51 -9.98,-24.48 -17.92,-44.13 -23.81,-58.97 -0.9,-2.05 -1.69,-3.06 -2.41,-3.06 -0.74,0 -1.63,1.27 -2.66,3.83l-24.1 60.23c-1.08,2.76 -2.14,4.72 -3.17,5.95 -1.26,1.52 -2.93,2.42 -4.97,2.7 -1,0.12 -7.83,0.05 -9.7,-0.17 -2.29,-0.38 -3.58,-1.92 -3.84,-4.73 -0.24,-2.58 -0.38,-9.57 -0.38,-21l0 -16.88c0,-11.43 0.08,-18.21 0.2,-20.3 0.18,-3.27 1.4,-5.1 3.55,-5.49 1.08,-0.19 2.1,-0.26 3.02,-0.26 0.93,0 1.4,-0.33 1.4,-0.97 0,-0.52 -0.69,-0.77 -2.03,-0.77 -1.33,0 -3.44,0.04 -6.32,0.14 -2.88,0.07 -4.65,0.11 -5.36,0.11 -0.86,0 -2.82,-0.04 -5.91,-0.11 -3.11,-0.1 -5.29,-0.14 -6.56,-0.14 -1.55,0 -2.32,0.25 -2.32,0.77 0,0.64 0.56,0.97 1.68,0.97 1.1,0 2.24,0.12 3.29,0.39 2,0.49 3.1,2.27 3.28,5.36 0.12,2.09 0.19,8.87 0.19,20.3l0 16.88c0,11.12 -0.16,18.09 -0.45,20.95 -0.36,2.83 -1.27,4.4 -2.82,4.78 -0.94,0.04 -1.9,0.13 -2.85,0.25 -1.43,0.15 -2.14,0.42 -2.14,0.85 0,0.65 0.64,0.96 1.92,0.96 1.43,0 3.64,-0.05 6.69,-0.13 3.04,-0.07 4.84,-0.13 5.42,-0.13 0.58,0 2.6,0.06 6.07,0.13 3.5,0.08 6.44,0.13 8.89,0.13l2.77 0c2,0 5.77,-0.09 11.33,-0.26 0.93,0 2.63,0.06 5.03,0.13 2.4,0.08 4.09,0.13 5.13,0.13 1.08,0 1.65,-0.29 1.65,-0.93 0,-0.5 -0.48,-0.73 -1.44,-0.73l-1.47 0c-2.54,0 -3.81,-1.03 -3.81,-3.01 0,-1.34 0.46,-3.29 1.42,-5.84l5.2 -13.73c0.17,-0.5 0.48,-0.75 0.85,-0.75l21.4 0c0.45,0 0.75,0.23 0.95,0.66l7.69 20.3c0.44,1.16 0.15,1.9 -0.85,2.22 -0.93,0.08 -1.37,0.35 -1.37,0.85 0,0.46 0.95,0.7 2.9,0.77 4.13,0.12 10.18,0.19 18.12,0.19 1.66,0 2.82,-0.07 3.43,-0.19 0.66,-0.12 0.97,-0.38 0.97,-0.77 0,-0.5 -0.41,-0.75 -1.24,-0.75z"/>
</symbol>
<symbol id="Fm38-57-0" viewBox="813.45 -1835.98 360.43 198.55">
 <path class="fil2" d="M1146.66 -1784.1c0,-14.37 -6.96,-31.05 -25.05,-31.05 -16.39,0 -25.01,14.07 -25.01,31.05 0,19.1 10.65,31.11 25.01,31.11 18.09,0 25.05,-16.54 25.05,-31.11zm24.16 0c0,30.14 -20.08,51.76 -49.6,51.76 -27.89,0 -48.65,-19.86 -48.65,-51.76 0,-34.26 24.61,-51.88 49.57,-51.88 23.95,0 48.68,16.73 48.68,51.88z"/>
 <path class="fil2" d="M1063.73 -1741.74c-5.91,3.92 -18.37,9.31 -35.29,9.31 -33.31,0 -49.77,-22.98 -49.77,-51.08 0,-31.6 22.34,-52.46 51.59,-52.46 14.48,0 23.77,2.39 32.02,6.43l-8.47 19.5c-6.26,-2.64 -13.52,-4.21 -22.11,-4.21 -21.11,0 -28.28,12.65 -28.28,30.12 0,18.85 9.63,31.04 26.39,31.04 6.07,0 10.61,-1.29 12.06,-2.18l0 -17.53 -17.06 0 0.03 -19.85 38.86 0 0.03 50.91z"/>
 <path class="fil2" d="M948.04 -1801.77c0,-4.17 -1.51,-7.54 -4.52,-9.83 -3.01,-2.37 -7.14,-3.52 -12.17,-3.6 -0.56,-0.02 -2.71,0 -4.01,0.06 -1.29,0.02 -4.69,0.32 -5.76,0.52l0 28.6c1.54,0.2 4.79,0.35 7.39,0.35 5.55,0 10.75,-1.53 14,-4.09 3.31,-2.64 5.07,-6.9 5.07,-12.01zm1.89 67.7c-3.29,-12.04 -8.84,-21.24 -13.4,-27.1 -3.84,-4.96 -6.86,-6 -6.86,-6 -3.08,0.05 -5.25,0.05 -8.09,-0.06l0 33.16 -23.26 0 0 -99.26c4.91,-0.77 8.41,-1.22 13.53,-1.67 4.74,-0.45 10.09,-0.73 16.02,-0.73 7.84,0 14.52,0.86 19.98,2.57 5.46,1.75 9.91,4.11 13.4,7.13 3.56,3.01 6.1,6.76 7.66,10.86 1.62,4.02 2.45,8.29 2.45,12.85 0,6 -1.48,11.84 -4.65,16.85 -2.85,4.42 -7.64,8.95 -12.59,12.08l0 0.43c11.07,5.06 17.33,21.34 23.4,38.89l-27.59 0z"/>
 <path class="fil2" d="M816.59 -1757.82l0 -76.5 68.31 0 0.02 21.33 -45.04 0 0 17.14 38.11 0 0.02 20.29 -38.13 0 0 10.7c0,6.73 3.93,9.61 9.1,9.61l37.77 0 0.02 21.18 -46.58 0c-17.46,0 -23.6,-8.04 -23.6,-23.75z"/>
 <path class="fil2" d="M1163.7 -1719.6c0,0.34 -0.28,0.63 -0.61,0.63 -0.36,0 -0.61,-0.29 -0.61,-0.63 0,-0.33 0.25,-0.61 0.61,-0.61 0.33,0 0.61,0.28 0.61,0.61z"/>
 <path class="fil2" d="M1160.68 -1714.93l2.87 0c1.86,0 2.81,0.65 2.81,1.96 0,0.92 -0.35,1.54 -1.12,1.86 -0.47,0.19 -1.28,0.3 -2.43,0.3l-2.13 0 0 -4.12zm2.57 5.32l3.32 5.23 1.67 0 -3.49 -5.23c1.96,-0.34 2.96,-1.42 2.96,-3.29 0,-2.17 -1.28,-3.24 -3.82,-3.24l-4.58 0 0 11.76 1.37 0 0 -5.23 2.57 0zm6.81 6.36c1.95,-1.95 2.9,-4.28 2.9,-7.04 0,-2.73 -0.95,-5.04 -2.9,-7.01 -1.92,-1.9 -4.26,-2.88 -7,-2.88 -2.73,0 -5.1,0.98 -7.04,2.88 -1.95,1.97 -2.9,4.28 -2.9,7.01 0,2.76 0.95,5.09 2.9,7.04 1.94,1.93 4.31,2.94 7.04,2.94 2.74,0 5.08,-1.01 7,-2.94zm-0.89 -0.83c-1.66,1.66 -3.69,2.53 -6.11,2.53 -2.42,0 -4.48,-0.83 -6.13,-2.5 -1.65,-1.68 -2.46,-3.75 -2.46,-6.24 0,-2.42 0.81,-4.49 2.46,-6.16 1.65,-1.69 3.71,-2.57 6.13,-2.57 2.42,0 4.45,0.88 6.11,2.57 1.63,1.67 2.44,3.74 2.44,6.16 0,2.49 -0.81,4.53 -2.44,6.21z"/>
 <path class="fil2" d="M835.71 -1679.78l36.63 0c0.41,0 0.59,-0.23 0.59,-0.68l0 -2.01c0,-11.45 -0.07,-18.2 -0.18,-20.32 -0.2,-3.06 -1.57,-4.91 -4.12,-5.47 -0.92,-0.18 -2.17,-0.27 -3.76,-0.27 -1.07,0 -1.62,-0.29 -1.62,-0.88 0,-0.55 0.68,-0.85 2,-0.85 1.92,0 4.54,0.05 7.87,0.14 3.33,0.08 5.32,0.13 5.94,0.13 0.66,0 2.5,-0.05 5.53,-0.13 3.04,-0.09 5.24,-0.14 6.57,-0.14 1.36,0 2,0.3 2,0.85 0,0.59 -0.55,0.88 -1.71,0.88 -0.78,0 -1.68,0.09 -2.75,0.27 -2.2,0.41 -3.37,2.2 -3.59,5.47 -0.12,2.12 -0.19,8.9 -0.19,20.32l0 16.89c0,10.86 0.17,17.7 0.49,20.51 0.37,3.14 1.62,4.85 3.75,5.19 1.84,0.26 3.47,0.35 4.88,0.35 1.04,0 1.55,0.29 1.55,0.78 0,0.65 -0.65,0.96 -1.93,0.96 -2.36,0 -5.3,-0.04 -8.84,-0.12 -3.5,-0.1 -5.54,-0.12 -6.14,-0.12 -0.55,0 -2.35,0.02 -5.37,0.12 -2.99,0.08 -5.23,0.12 -6.62,0.12 -1.34,0 -2.01,-0.31 -2.01,-0.96 0,-0.44 0.72,-0.74 2.11,-0.86 0.96,-0.12 1.94,-0.23 2.89,-0.27 1.45,-0.34 2.39,-2.11 2.76,-5.3 0.31,-2.5 0.49,-9.3 0.49,-20.4l0 -8.45c0,-0.38 -0.18,-0.57 -0.59,-0.57l-36.63 0c-0.38,0 -0.59,0.19 -0.59,0.57l0 8.45c0,10.86 0.18,17.7 0.48,20.51 0.39,3.14 1.66,4.85 3.76,5.19 1.83,0.26 3.49,0.35 4.91,0.35 1.01,0 1.51,0.29 1.51,0.78 0,0.65 -0.65,0.96 -1.92,0.96 -2.38,0 -5.29,-0.04 -8.84,-0.12 -3.49,-0.1 -5.58,-0.12 -6.13,-0.12 -0.57,0 -2.39,0.02 -5.41,0.12 -3.04,0.08 -5.26,0.12 -6.68,0.12 -1.27,0 -1.92,-0.31 -1.92,-0.96 0,-0.44 0.71,-0.74 2.13,-0.86 0.97,-0.12 1.93,-0.23 2.87,-0.27 1.48,-0.34 2.39,-2.11 2.76,-5.27 0.33,-2.53 0.51,-9.33 0.51,-20.43l0 -16.89c0,-11.42 -0.09,-18.2 -0.22,-20.32 -0.19,-3.06 -1.56,-4.87 -4.11,-5.47 -0.88,-0.18 -2.14,-0.27 -3.74,-0.27 -1.09,0 -1.63,-0.29 -1.63,-0.88 0,-0.55 0.66,-0.85 2,-0.85 1.93,0 4.56,0.05 7.86,0.14 3.35,0.08 5.32,0.13 5.97,0.13 0.63,0 2.48,-0.05 5.51,-0.13 3.05,-0.09 5.24,-0.14 6.58,-0.14 1.36,0 2.02,0.3 2.02,0.85 0,0.59 -0.59,0.88 -1.74,0.88 -0.76,0 -1.69,0.09 -2.77,0.27 -2.18,0.41 -3.38,2.2 -3.55,5.47 -0.14,2.12 -0.21,8.87 -0.21,20.32l0 2.01c0,0.45 0.21,0.68 0.59,0.68z"/>
 <path class="fil2" d="M908.28 -1666.11l0 -16.86c0,-11.45 -0.09,-18.2 -0.22,-20.32 -0.19,-3.08 -1.59,-4.9 -4.13,-5.46 -0.89,-0.19 -2.13,-0.29 -3.72,-0.29 -1.12,0 -1.64,-0.3 -1.64,-0.86 0,-0.57 0.69,-0.87 2.1,-0.87 1.93,0 4.52,0.05 7.83,0.12 3.28,0.08 5.31,0.15 5.99,0.15 15.17,0 23.17,-0.04 23.99,-0.11 1.68,-0.11 3.03,-0.29 4.11,-0.56 1.11,-0.26 1.61,-0.35 1.55,-0.35 0.37,0 0.56,0.27 0.56,0.85 0,0.06 -0.08,0.65 -0.28,1.73 -0.2,1.27 -0.32,2.75 -0.41,4.49 -0.14,1.71 -0.29,3.82 -0.55,6.31 -0.12,0.72 -0.45,1.05 -0.95,1.05 -0.44,0 -0.72,-0.33 -0.82,-1.05 -0.07,-0.71 -0.18,-1.38 -0.25,-2 -0.04,-0.67 -0.18,-1.21 -0.37,-1.73 -0.78,-1.86 -2.92,-3.02 -6.43,-3.47 -2.17,-0.25 -6.69,-0.38 -13.63,-0.38 -0.43,0 -0.65,0.31 -0.65,0.95l0 24.28c0,0.71 0.22,1.04 0.65,1.04 8.77,0 13.88,-0.06 15.34,-0.17 1.08,-0.08 1.92,-0.16 2.51,-0.31 0.98,-0.27 1.67,-0.63 2.1,-1.13 0.78,-0.83 1.3,-1.26 1.55,-1.26 0.46,0 0.67,0.28 0.67,0.78 0,0.06 -0.11,0.7 -0.29,1.92 -0.19,1.47 -0.37,3.16 -0.48,5.07 -0.26,3.67 -0.38,5.8 -0.38,6.44 0,1.2 -0.29,1.8 -0.85,1.8 -0.59,0 -0.89,-0.31 -0.89,-0.99 0,-0.68 -0.11,-1.77 -0.38,-3.31 -0.49,-2.17 -2.3,-3.42 -5.35,-3.76 -1.79,-0.18 -6.34,-0.26 -13.64,-0.26 -0.38,0 -0.56,0.3 -0.56,0.94l0 22.46c0.12,3.39 0.86,5.6 2.24,6.59 1.38,0.98 4.46,1.48 9.24,1.48 4.38,0 7.37,-0.4 9.04,-1.16 2.23,-1.03 3.69,-3.41 4.32,-7.11 0.21,-0.93 0.54,-1.42 1.06,-1.42 0.5,0 0.76,0.59 0.76,1.72 0,3.9 -0.41,7.47 -1.24,10.71 -0.33,1.18 -0.79,1.86 -1.36,2.1 -0.57,0.26 -1.86,0.41 -3.83,0.41 -5.55,0 -11.1,-0.11 -16.61,-0.33 -5.51,-0.21 -8.8,-0.32 -9.95,-0.32 -0.59,0 -2.4,0.05 -5.43,0.13 -3.04,0.07 -5.27,0.12 -6.67,0.12 -1.26,0 -1.91,-0.32 -1.91,-0.93 0,-0.46 0.7,-0.75 2.1,-0.89 0.95,-0.12 1.92,-0.22 2.88,-0.27 1.47,-0.35 2.4,-2.11 2.76,-5.28 0.35,-2.5 0.52,-9.3 0.52,-20.43z"/>
 <path class="fil2" d="M972.57 -1637.43c-5.57,0 -10.24,-0.84 -14.01,-2.49 -1.23,-0.51 -1.84,-1.6 -1.84,-3.27 0,-3.44 0.17,-7.64 0.48,-12.59 0.13,-1.64 0.52,-2.48 1.17,-2.48 0.64,0 0.95,0.54 0.95,1.63 0,1.33 0.29,2.96 0.86,4.92 1.92,6.42 6.49,9.66 13.72,9.66 4.04,0 7.27,-1.18 9.7,-3.54 2.12,-2.15 3.16,-4.57 3.16,-7.39 0,-5.33 -3.13,-10.43 -9.38,-15.39l-4.43 -3.42c-9.47,-7.43 -14.19,-15.01 -14.19,-22.75 0,-5.32 2.01,-9.64 6.13,-13.04 4.08,-3.38 9.44,-5.1 16.01,-5.1 4.23,0 8.49,0.54 12.76,1.66 0.9,0.25 1.33,0.62 1.33,1.14 0,-0.14 -0.05,1 -0.17,3.38 -0.14,2.41 -0.19,5.13 -0.19,8.12 0,1.94 -0.35,2.9 -1.05,2.9 -0.64,0 -0.95,-0.58 -0.95,-1.72 0,-2.15 -0.83,-4.24 -2.53,-6.33 -2.47,-3.17 -5.95,-4.73 -10.44,-4.73 -3.54,0 -6.29,0.94 -8.34,2.74 -2.06,1.84 -3.08,4.2 -3.08,7.14 0,2.27 0.73,4.38 2.17,6.37 1.46,2.03 4.11,4.5 8.01,7.48l2.69 2.01c5.74,4.36 9.83,8.35 12.18,12.03 2.35,3.67 3.56,7.83 3.56,12.42 0,7.24 -3.02,12.81 -9.02,16.69 -4.03,2.63 -9.12,3.95 -15.26,3.95z"/>
 <path class="fil2" d="M1025.87 -1666.11l0 -39.36 -14.29 0.41c-5.06,0.13 -8.16,1.06 -9.3,2.79 -0.84,1.21 -1.38,2.33 -1.63,3.35 -0.19,0.78 -0.56,1.17 -1.05,1.17 -0.58,0 -0.86,-0.5 -0.86,-1.56 0,-1.72 0.66,-5.37 1.99,-11 0.32,-1.26 0.71,-1.87 1.16,-1.87 0.18,0 0.73,0.21 1.53,0.54 0.84,0.35 1.7,0.57 2.59,0.62 3.48,0.35 6.65,0.52 9.59,0.52l38 0c1.12,0 2.64,-0.17 4.7,-0.52 2.06,-0.34 3.56,-0.5 4.5,-0.5 0.53,0 0.77,0.68 0.77,2.02 0,0.64 -0.05,2.42 -0.11,5.39 -0.11,2.96 -0.2,4.9 -0.26,5.86 -0.07,0.98 -0.33,1.46 -0.77,1.46 -0.57,0 -0.92,-0.63 -1.04,-1.94l-0.1 -1.06c-0.31,-3.36 -4.1,-5.17 -11.31,-5.35l-12.11 -0.33 0 39.36c0,10.85 0.17,17.7 0.47,20.52 0.39,3.13 1.63,4.84 3.77,5.19 1.84,0.25 3.46,0.39 4.89,0.39 1.02,0 1.54,0.24 1.54,0.77 0,0.61 -0.61,0.92 -1.84,0.92 -2.44,0 -5.41,-0.04 -8.94,-0.13 -3.51,-0.06 -5.54,-0.11 -6.12,-0.11 -0.59,0 -2.38,0.05 -5.43,0.11 -3.02,0.09 -5.29,0.13 -6.68,0.13 -1.27,0 -1.9,-0.31 -1.9,-0.92 0,-0.46 0.69,-0.75 2.1,-0.89 0.95,-0.12 1.92,-0.22 2.89,-0.27 1.46,-0.35 2.39,-2.11 2.77,-5.3 0.32,-2.82 0.48,-9.62 0.48,-20.41z"/>
 <path class="fil2" d="M1140.21 -1668.17l-17.65 0c-0.37,0 -0.53,-0.21 -0.37,-0.67l8.82 -23.61c0.12,-0.57 0.32,-0.86 0.59,-0.86 0.18,0 0.34,0.29 0.48,0.86l8.61 23.71c0.13,0.38 -0.04,0.57 -0.48,0.57zm32.43 28.1c-1.54,0 -2.86,-0.13 -4.04,-0.36 -2.91,-0.68 -5.75,-4.15 -8.42,-10.49 -9.98,-24.49 -17.92,-44.14 -23.81,-58.98 -0.9,-2.05 -1.69,-3.06 -2.41,-3.06 -0.74,0 -1.64,1.27 -2.66,3.84l-24.1 60.23c-1.08,2.75 -2.14,4.71 -3.17,5.95 -1.26,1.51 -2.93,2.41 -4.97,2.69 -0.99,0.12 -7.83,0.05 -9.69,-0.18 -2.3,-0.37 -3.59,-1.9 -3.85,-4.72 -0.24,-2.58 -0.38,-9.57 -0.38,-21l0 -16.87c0,-11.44 0.08,-18.22 0.2,-20.31 0.18,-3.27 1.4,-5.09 3.55,-5.49 1.08,-0.19 2.1,-0.26 3.03,-0.26 0.92,0 1.39,-0.33 1.39,-0.96 0,-0.53 -0.69,-0.77 -2.02,-0.77 -1.34,0 -3.45,0.04 -6.33,0.13 -2.88,0.07 -4.65,0.11 -5.36,0.11 -0.86,0 -2.82,-0.04 -5.91,-0.11 -3.11,-0.09 -5.29,-0.13 -6.56,-0.13 -1.55,0 -2.32,0.24 -2.32,0.77 0,0.63 0.56,0.96 1.68,0.96 1.1,0 2.25,0.12 3.3,0.39 1.99,0.5 3.09,2.27 3.27,5.36 0.12,2.09 0.19,8.87 0.19,20.31l0 16.87c0,11.12 -0.16,18.09 -0.45,20.95 -0.36,2.83 -1.27,4.4 -2.82,4.77 -0.94,0.05 -1.9,0.14 -2.85,0.26 -1.43,0.15 -2.14,0.43 -2.14,0.86 0,0.65 0.65,0.95 1.92,0.95 1.43,0 3.64,-0.05 6.69,-0.13 3.04,-0.07 4.84,-0.12 5.42,-0.12 0.58,0 2.6,0.05 6.07,0.12 3.5,0.08 6.44,0.13 8.89,0.13l2.77 0c2,0 5.77,-0.09 11.33,-0.25 0.93,0 2.63,0.05 5.04,0.12 2.4,0.08 4.08,0.13 5.12,0.13 1.08,0 1.65,-0.28 1.65,-0.93 0,-0.5 -0.48,-0.73 -1.45,-0.73l-1.46 0c-2.54,0 -3.81,-1.02 -3.81,-3.01 0,-1.34 0.46,-3.28 1.42,-5.84l5.2 -13.72c0.18,-0.51 0.48,-0.75 0.85,-0.75l21.4 0c0.45,0 0.75,0.23 0.95,0.65l7.69 20.3c0.44,1.16 0.15,1.91 -0.85,2.22 -0.93,0.09 -1.37,0.36 -1.37,0.86 0,0.45 0.96,0.7 2.9,0.77 4.13,0.11 10.18,0.18 18.12,0.18 1.66,0 2.82,-0.07 3.44,-0.18 0.65,-0.12 0.96,-0.39 0.96,-0.77 0,-0.5 -0.41,-0.76 -1.24,-0.76z"/>
</symbol>
<symbol id="Fm39-58-0" viewBox="370.06 -2161.91 198.55 360.43">
 <path class="fil2" d="M421.94 -2134.69c-14.36,0 -31.05,6.96 -31.05,25.05 0,16.39 14.08,25.01 31.05,25.01 19.11,0 31.11,-10.65 31.11,-25.01 0,-18.09 -16.54,-25.05 -31.11,-25.05zm0 -24.16c30.15,0 51.77,20.08 51.77,49.6 0,27.89 -19.86,48.64 -51.77,48.64 -34.25,0 -51.88,-24.6 -51.88,-49.56 0,-23.95 16.74,-48.68 51.88,-48.68z"/>
 <path class="fil2" d="M464.31 -2051.76c3.92,5.91 9.31,18.37 9.31,35.29 0,33.31 -22.98,49.77 -51.09,49.77 -31.6,0 -52.45,-22.34 -52.45,-51.59 0,-14.48 2.39,-23.77 6.43,-32.03l19.49 8.48c-2.63,6.26 -4.2,13.52 -4.2,22.11 0,21.11 12.65,28.28 30.11,28.28 18.85,0 31.05,-9.63 31.05,-26.39 0,-6.07 -1.3,-10.61 -2.19,-12.06l-17.53 0 0 17.06 -19.85 -0.03 0 -38.86 50.92 -0.03z"/>
 <path class="fil2" d="M404.28 -1936.07c-4.17,0 -7.54,1.51 -9.84,4.52 -2.37,3.01 -3.51,7.14 -3.59,12.17 -0.03,0.56 0,2.71 0.06,4.01 0.02,1.29 0.32,4.69 0.52,5.76l28.6 0c0.2,-1.55 0.34,-4.79 0.34,-7.39 0,-5.55 -1.52,-10.75 -4.08,-14 -2.64,-3.31 -6.9,-5.07 -12.01,-5.07zm67.7 -1.89c-12.04,3.29 -21.24,8.84 -27.1,13.4 -4.96,3.84 -6,6.86 -6,6.86 0.05,3.08 0.05,5.25 -0.07,8.09l33.17 0 0 23.26 -99.26 0c-0.77,-4.91 -1.23,-8.41 -1.68,-13.53 -0.44,-4.75 -0.72,-10.09 -0.72,-16.02 0,-7.84 0.85,-14.52 2.57,-19.98 1.75,-5.46 4.1,-9.91 7.12,-13.4 3.01,-3.56 6.76,-6.1 10.87,-7.66 4.01,-1.62 8.29,-2.45 12.84,-2.45 6,0 11.85,1.48 16.86,4.65 4.42,2.85 8.94,7.63 12.08,12.58l0.43 0c5.05,-11.06 21.33,-17.32 38.89,-23.4l0 27.6z"/>
 <path class="fil2" d="M448.22 -1804.62l-76.5 0 0 -68.31 21.34 -0.02 0 45.04 17.14 0 0 -38.11 20.28 -0.03 0 38.14 10.7 0c6.74,0 9.61,-3.94 9.61,-9.1l0 -37.77 21.19 -0.02 0 46.58c0,17.46 -8.05,23.6 -23.76,23.6z"/>
 <path class="fil2" d="M486.45 -2151.73c0.33,0 0.63,0.28 0.63,0.61 0,0.36 -0.3,0.61 -0.63,0.61 -0.33,0 -0.62,-0.25 -0.62,-0.61 0,-0.33 0.29,-0.61 0.62,-0.61z"/>
 <path class="fil2" d="M491.12 -2148.71l0 -2.87c0,-1.86 0.65,-2.81 1.96,-2.81 0.92,0 1.54,0.35 1.85,1.12 0.2,0.47 0.31,1.28 0.31,2.43l0 2.13 -4.12 0zm5.32 -2.57l5.22 -3.32 0 -1.67 -5.22 3.49c-0.34,-1.96 -1.43,-2.96 -3.29,-2.96 -2.17,0 -3.24,1.28 -3.24,3.82l0 4.58 11.75 0 0 -1.37 -5.22 0 0 -2.57zm6.36 -6.81c-1.95,-1.95 -4.28,-2.9 -7.04,-2.9 -2.73,0 -5.04,0.95 -7.02,2.9 -1.9,1.92 -2.87,4.26 -2.87,7 0,2.72 0.97,5.1 2.87,7.04 1.98,1.95 4.29,2.9 7.02,2.9 2.76,0 5.09,-0.95 7.04,-2.9 1.93,-1.94 2.93,-4.32 2.93,-7.04 0,-2.74 -1,-5.08 -2.93,-7zm-0.83 0.89c1.66,1.66 2.52,3.69 2.52,6.11 0,2.42 -0.82,4.48 -2.49,6.12 -1.68,1.66 -3.75,2.47 -6.24,2.47 -2.43,0 -4.49,-0.81 -6.16,-2.47 -1.69,-1.64 -2.57,-3.7 -2.57,-6.12 0,-2.42 0.88,-4.45 2.57,-6.11 1.67,-1.63 3.73,-2.44 6.16,-2.44 2.49,0 4.53,0.81 6.21,2.44z"/>
 <path class="fil2" d="M526.27 -1823.74l0 -36.63c0,-0.41 -0.24,-0.59 -0.68,-0.59l-2.01 0c-11.46,0 -18.21,0.07 -20.33,0.18 -3.05,0.19 -4.9,1.57 -5.46,4.12 -0.18,0.92 -0.28,2.17 -0.28,3.76 0,1.07 -0.28,1.62 -0.87,1.62 -0.56,0 -0.85,-0.68 -0.85,-2 0,-1.92 0.04,-4.54 0.14,-7.87 0.07,-3.33 0.12,-5.32 0.12,-5.94 0,-0.65 -0.05,-2.5 -0.12,-5.53 -0.1,-3.04 -0.14,-5.24 -0.14,-6.57 0,-1.36 0.29,-2 0.85,-2 0.59,0 0.87,0.55 0.87,1.71 0,0.78 0.1,1.68 0.28,2.75 0.41,2.2 2.21,3.37 5.46,3.59 2.12,0.12 8.9,0.19 20.33,0.19l16.89 0c10.86,0 17.69,-0.17 20.5,-0.49 3.15,-0.37 4.85,-1.62 5.2,-3.75 0.25,-1.84 0.35,-3.47 0.35,-4.88 0,-1.04 0.29,-1.55 0.78,-1.55 0.65,0 0.95,0.65 0.95,1.93 0,2.36 -0.03,5.3 -0.11,8.84 -0.1,3.5 -0.13,5.54 -0.13,6.14 0,0.55 0.03,2.35 0.13,5.37 0.08,2.99 0.11,5.23 0.11,6.62 0,1.34 -0.3,2.01 -0.95,2.01 -0.45,0 -0.74,-0.72 -0.86,-2.11 -0.12,-0.96 -0.23,-1.94 -0.27,-2.89 -0.35,-1.45 -2.11,-2.4 -5.3,-2.76 -2.5,-0.31 -9.3,-0.49 -20.4,-0.49l-8.45 0c-0.38,0 -0.57,0.18 -0.57,0.59l0 36.63c0,0.38 0.19,0.59 0.57,0.59l8.45 0c10.86,0 17.69,-0.18 20.5,-0.48 3.15,-0.39 4.85,-1.66 5.2,-3.76 0.25,-1.83 0.35,-3.49 0.35,-4.91 0,-1.01 0.29,-1.51 0.78,-1.51 0.65,0 0.95,0.65 0.95,1.92 0,2.38 -0.03,5.29 -0.11,8.84 -0.1,3.49 -0.13,5.58 -0.13,6.13 0,0.57 0.03,2.39 0.13,5.41 0.08,3.04 0.11,5.26 0.11,6.68 0,1.27 -0.3,1.92 -0.95,1.92 -0.45,0 -0.74,-0.71 -0.86,-2.13 -0.12,-0.97 -0.23,-1.93 -0.27,-2.87 -0.35,-1.48 -2.11,-2.4 -5.27,-2.76 -2.53,-0.34 -9.33,-0.51 -20.43,-0.51l-16.89 0c-11.43,0 -18.21,0.09 -20.33,0.22 -3.05,0.19 -4.87,1.56 -5.46,4.1 -0.18,0.89 -0.28,2.15 -0.28,3.75 0,1.09 -0.28,1.63 -0.87,1.63 -0.56,0 -0.85,-0.66 -0.85,-2 0,-1.93 0.04,-4.56 0.14,-7.86 0.07,-3.35 0.12,-5.32 0.12,-5.97 0,-0.63 -0.05,-2.48 -0.12,-5.51 -0.1,-3.05 -0.14,-5.24 -0.14,-6.58 0,-1.36 0.29,-2.02 0.85,-2.02 0.59,0 0.87,0.59 0.87,1.74 0,0.76 0.1,1.69 0.28,2.77 0.41,2.18 2.21,3.38 5.46,3.55 2.12,0.14 8.87,0.21 20.33,0.21l2.01 0c0.44,0 0.68,-0.21 0.68,-0.59z"/>
 <path class="fil2" d="M539.94 -1896.31l-16.86 0c-11.45,0 -18.2,0.09 -20.32,0.22 -3.08,0.19 -4.91,1.59 -5.46,4.13 -0.19,0.89 -0.29,2.13 -0.29,3.71 0,1.13 -0.3,1.65 -0.86,1.65 -0.58,0 -0.88,-0.69 -0.88,-2.1 0,-1.93 0.05,-4.52 0.13,-7.83 0.08,-3.28 0.15,-5.31 0.15,-5.99 0,-15.17 -0.04,-23.17 -0.11,-23.99 -0.12,-1.68 -0.29,-3.03 -0.57,-4.11 -0.25,-1.11 -0.35,-1.61 -0.35,-1.55 0,-0.37 0.28,-0.56 0.86,-0.56 0.06,0 0.64,0.08 1.73,0.28 1.27,0.2 2.75,0.32 4.48,0.41 1.71,0.14 3.82,0.29 6.32,0.54 0.72,0.12 1.04,0.45 1.04,0.96 0,0.44 -0.32,0.72 -1.04,0.81 -0.71,0.08 -1.38,0.19 -2,0.26 -0.68,0.04 -1.21,0.17 -1.73,0.37 -1.86,0.78 -3.03,2.92 -3.47,6.43 -0.26,2.17 -0.39,6.69 -0.39,13.63 0,0.43 0.32,0.65 0.96,0.65l24.28 0c0.71,0 1.04,-0.22 1.04,-0.65 0,-8.77 -0.07,-13.88 -0.18,-15.34 -0.08,-1.08 -0.15,-1.92 -0.3,-2.51 -0.27,-0.98 -0.63,-1.67 -1.13,-2.1 -0.84,-0.78 -1.26,-1.3 -1.26,-1.55 0,-0.46 0.27,-0.67 0.78,-0.67 0.06,0 0.69,0.11 1.91,0.29 1.48,0.19 3.17,0.37 5.08,0.48 3.67,0.26 5.8,0.38 6.43,0.38 1.21,0 1.8,0.29 1.8,0.85 0,0.59 -0.31,0.89 -0.98,0.89 -0.68,0 -1.77,0.11 -3.31,0.37 -2.17,0.5 -3.42,2.31 -3.77,5.36 -0.17,1.79 -0.25,6.34 -0.25,13.64 0,0.38 0.3,0.56 0.93,0.56l22.47 0c3.38,-0.12 5.6,-0.86 6.59,-2.24 0.98,-1.38 1.47,-4.47 1.47,-9.24 0,-4.38 -0.39,-7.38 -1.16,-9.04 -1.03,-2.23 -3.4,-3.69 -7.1,-4.32 -0.93,-0.21 -1.43,-0.54 -1.43,-1.06 0,-0.51 0.6,-0.76 1.73,-0.76 3.9,0 7.47,0.4 10.7,1.24 1.19,0.33 1.87,0.78 2.11,1.36 0.25,0.57 0.41,1.86 0.41,3.83 0,5.55 -0.11,11.1 -0.34,16.61 -0.2,5.51 -0.31,8.8 -0.31,9.95 0,0.59 0.04,2.4 0.13,5.43 0.07,3.04 0.12,5.27 0.12,6.67 0,1.26 -0.32,1.91 -0.93,1.91 -0.46,0 -0.76,-0.7 -0.89,-2.1 -0.12,-0.95 -0.22,-1.92 -0.27,-2.88 -0.35,-1.47 -2.11,-2.4 -5.28,-2.77 -2.5,-0.34 -9.3,-0.51 -20.43,-0.51z"/>
 <path class="fil2" d="M568.62 -1960.61c0,5.58 -0.84,10.25 -2.5,14.02 -0.5,1.23 -1.6,1.84 -3.27,1.84 -3.43,0 -7.63,-0.17 -12.58,-0.49 -1.64,-0.12 -2.48,-0.51 -2.48,-1.16 0,-0.64 0.54,-0.95 1.63,-0.95 1.33,0 2.96,-0.29 4.91,-0.86 6.43,-1.92 9.67,-6.49 9.67,-13.73 0,-4.03 -1.18,-7.26 -3.55,-9.7 -2.14,-2.11 -4.56,-3.15 -7.38,-3.15 -5.33,0 -10.43,3.13 -15.39,9.38l-3.42 4.43c-7.44,9.47 -15.01,14.19 -22.75,14.19 -5.32,0 -9.64,-2.01 -13.04,-6.14 -3.38,-4.07 -5.1,-9.43 -5.1,-16 0,-4.23 0.54,-8.49 1.66,-12.76 0.24,-0.9 0.62,-1.33 1.14,-1.33 -0.14,0 1,0.05 3.38,0.17 2.41,0.14 5.12,0.19 8.12,0.19 1.93,0 2.9,0.35 2.9,1.05 0,0.64 -0.59,0.95 -1.72,0.95 -2.16,0 -4.25,0.83 -6.33,2.53 -3.17,2.47 -4.73,5.95 -4.73,10.44 0,3.54 0.94,6.29 2.73,8.34 1.85,2.06 4.21,3.08 7.15,3.08 2.27,0 4.38,-0.73 6.37,-2.17 2.03,-1.46 4.49,-4.11 7.48,-8.01l2 -2.69c4.36,-5.74 8.35,-9.83 12.04,-12.18 3.67,-2.35 7.83,-3.56 12.42,-3.56 7.24,0 12.8,3.02 16.69,9.02 2.63,4.02 3.95,9.12 3.95,15.25z"/>
 <path class="fil2" d="M539.94 -2013.9l-39.36 0 0.41 14.29c0.13,5.06 1.05,8.16 2.79,9.31 1.21,0.83 2.33,1.37 3.34,1.62 0.79,0.19 1.18,0.56 1.18,1.05 0,0.58 -0.5,0.86 -1.56,0.86 -1.72,0 -5.37,-0.66 -11,-1.99 -1.26,-0.32 -1.87,-0.71 -1.87,-1.16 0,-0.18 0.2,-0.73 0.54,-1.53 0.34,-0.84 0.57,-1.7 0.62,-2.59 0.35,-3.48 0.52,-6.65 0.52,-9.59l0 -38c0,-1.12 -0.17,-2.65 -0.52,-4.7 -0.34,-2.06 -0.51,-3.56 -0.51,-4.5 0,-0.52 0.69,-0.77 2.03,-0.77 0.64,0 2.42,0.05 5.39,0.11 2.95,0.11 4.9,0.2 5.86,0.26 0.97,0.07 1.45,0.33 1.45,0.77 0,0.57 -0.62,0.91 -1.93,1.04l-1.06 0.1c-3.37,0.31 -5.17,4.1 -5.35,11.31l-0.33 12.11 39.36 0c10.85,0 17.69,-0.17 20.51,-0.47 3.13,-0.39 4.85,-1.63 5.2,-3.77 0.25,-1.84 0.38,-3.46 0.38,-4.89 0,-1.02 0.24,-1.54 0.78,-1.54 0.61,0 0.92,0.61 0.92,1.84 0,2.44 -0.04,5.41 -0.13,8.93 -0.07,3.52 -0.11,5.55 -0.11,6.13 0,0.59 0.04,2.38 0.11,5.43 0.09,3.02 0.13,5.29 0.13,6.68 0,1.26 -0.31,1.9 -0.92,1.9 -0.46,0 -0.76,-0.69 -0.89,-2.1 -0.12,-0.95 -0.22,-1.92 -0.27,-2.89 -0.35,-1.46 -2.11,-2.39 -5.3,-2.77 -2.82,-0.32 -9.63,-0.48 -20.41,-0.48z"/>
 <path class="fil2" d="M537.87 -2128.24l0 17.65c0,0.37 -0.2,0.53 -0.67,0.37l-23.6 -8.82c-0.58,-0.12 -0.86,-0.32 -0.86,-0.59 0,-0.18 0.28,-0.34 0.86,-0.48l23.71 -8.62c0.37,-0.12 0.56,0.05 0.56,0.49zm28.11 -32.43c0,1.54 -0.13,2.86 -0.36,4.04 -0.68,2.91 -4.15,5.75 -10.5,8.42 -24.48,9.98 -44.13,17.92 -58.97,23.81 -2.05,0.9 -3.06,1.69 -3.06,2.41 0,0.74 1.27,1.63 3.83,2.66l60.23 24.1c2.76,1.08 4.72,2.13 5.95,3.17 1.52,1.26 2.42,2.93 2.7,4.96 0.12,1 0.05,7.84 -0.18,9.7 -0.37,2.3 -1.91,3.59 -4.72,3.85 -2.58,0.24 -9.57,0.38 -21,0.38l-16.88 0c-11.43,0 -18.21,-0.08 -20.3,-0.2 -3.28,-0.18 -5.1,-1.4 -5.49,-3.55 -0.19,-1.08 -0.26,-2.1 -0.26,-3.03 0,-0.92 -0.33,-1.39 -0.97,-1.39 -0.52,0 -0.77,0.69 -0.77,2.02 0,1.34 0.04,3.45 0.13,6.33 0.08,2.88 0.12,4.65 0.12,5.37 0,0.85 -0.04,2.81 -0.12,5.9 -0.09,3.11 -0.13,5.29 -0.13,6.56 0,1.55 0.25,2.32 0.77,2.32 0.64,0 0.97,-0.56 0.97,-1.68 0,-1.1 0.12,-2.24 0.39,-3.3 0.49,-1.99 2.27,-3.09 5.36,-3.27 2.09,-0.12 8.87,-0.19 20.3,-0.19l16.88 0c11.12,0 18.09,0.16 20.95,0.45 2.82,0.36 4.4,1.27 4.77,2.82 0.05,0.94 0.14,1.9 0.26,2.85 0.15,1.43 0.42,2.14 0.85,2.14 0.65,0 0.96,-0.65 0.96,-1.92 0,-1.43 -0.05,-3.64 -0.13,-6.69 -0.07,-3.05 -0.13,-4.84 -0.13,-5.42 0,-0.57 0.06,-2.6 0.13,-6.07 0.08,-3.5 0.13,-6.44 0.13,-8.89l0 -2.77c0,-2 -0.09,-5.77 -0.26,-11.33 0,-0.93 0.06,-2.63 0.13,-5.04 0.08,-2.4 0.13,-4.08 0.13,-5.12 0,-1.08 -0.29,-1.65 -0.94,-1.65 -0.49,0 -0.72,0.48 -0.72,1.45l0 1.46c0,2.53 -1.03,3.81 -3.01,3.81 -1.34,0 -3.29,-0.46 -5.84,-1.42l-13.73 -5.2c-0.5,-0.18 -0.75,-0.48 -0.75,-0.86l0 -21.39c0,-0.45 0.23,-0.76 0.66,-0.95l20.3 -7.69c1.16,-0.45 1.9,-0.15 2.22,0.85 0.08,0.93 0.35,1.37 0.85,1.37 0.46,0 0.7,-0.96 0.77,-2.9 0.12,-4.14 0.19,-10.18 0.19,-18.12 0,-1.67 -0.07,-2.82 -0.19,-3.44 -0.12,-0.65 -0.38,-0.96 -0.77,-0.96 -0.5,0 -0.75,0.4 -0.75,1.24z"/>
</symbol>
<symbol id="Fm40-60-0" viewBox="1850.32 -2290.06 198.55 360.43">
 <path class="fil2" d="M1902.2 -2262.84c-14.36,0 -31.05,6.96 -31.05,25.05 0,16.39 14.07,25.01 31.05,25.01 19.1,0 31.11,-10.65 31.11,-25.01 0,-18.09 -16.54,-25.05 -31.11,-25.05zm0 -24.16c30.15,0 51.77,20.08 51.77,49.6 0,27.89 -19.86,48.65 -51.77,48.65 -34.25,0 -51.88,-24.61 -51.88,-49.57 0,-23.95 16.74,-48.68 51.88,-48.68z"/>
 <path class="fil2" d="M1944.57 -2179.91c3.92,5.91 9.31,18.37 9.31,35.29 0,33.31 -22.98,49.77 -51.09,49.77 -31.6,0 -52.45,-22.34 -52.45,-51.59 0,-14.48 2.39,-23.77 6.43,-32.02l19.49 8.47c-2.64,6.26 -4.21,13.52 -4.21,22.11 0,21.11 12.65,28.28 30.12,28.28 18.85,0 31.05,-9.63 31.05,-26.39 0,-6.07 -1.3,-10.61 -2.19,-12.06l-17.53 0 0 17.06 -19.85 -0.03 0 -38.86 50.92 -0.03z"/>
 <path class="fil2" d="M1884.53 -2064.22c-4.17,0 -7.54,1.51 -9.83,4.52 -2.37,3.01 -3.51,7.14 -3.59,12.17 -0.03,0.56 0,2.71 0.05,4.01 0.03,1.29 0.33,4.69 0.52,5.76l28.6 0c0.2,-1.55 0.35,-4.79 0.35,-7.39 0,-5.55 -1.52,-10.75 -4.09,-14 -2.63,-3.31 -6.89,-5.07 -12.01,-5.07zm67.71 -1.89c-12.04,3.29 -21.24,8.84 -27.1,13.4 -4.97,3.84 -6,6.86 -6,6.86 0.04,3.08 0.04,5.25 -0.07,8.09l33.17 0 0 23.26 -99.26 0c-0.77,-4.91 -1.23,-8.41 -1.68,-13.53 -0.44,-4.75 -0.72,-10.09 -0.72,-16.02 0,-7.84 0.85,-14.52 2.57,-19.98 1.74,-5.46 4.1,-9.91 7.12,-13.4 3.01,-3.56 6.76,-6.1 10.86,-7.66 4.02,-1.62 8.3,-2.45 12.85,-2.45 6,0 11.85,1.48 16.86,4.65 4.42,2.85 8.94,7.64 12.08,12.59l0.42 0c5.06,-11.07 21.34,-17.33 38.9,-23.4l0 27.59z"/>
 <path class="fil2" d="M1928.48 -1932.77l-76.5 0 0 -68.31 21.34 -0.02 0 45.04 17.14 0 0 -38.11 20.28 -0.02 0 38.13 10.7 0c6.74,0 9.61,-3.93 9.61,-9.1l0 -37.77 21.19 -0.02 0 46.58c0,17.46 -8.05,23.6 -23.76,23.6z"/>
 <path class="fil2" d="M1966.71 -2279.88c0.33,0 0.62,0.28 0.62,0.61 0,0.36 -0.29,0.61 -0.62,0.61 -0.34,0 -0.62,-0.25 -0.62,-0.61 0,-0.33 0.28,-0.61 0.62,-0.61z"/>
 <path class="fil2" d="M1971.38 -2276.86l0 -2.87c0,-1.86 0.64,-2.81 1.96,-2.81 0.92,0 1.53,0.35 1.85,1.12 0.19,0.47 0.31,1.28 0.31,2.43l0 2.13 -4.12 0zm5.32 -2.57l5.22 -3.32 0 -1.67 -5.22 3.49c-0.34,-1.96 -1.43,-2.96 -3.29,-2.96 -2.18,0 -3.25,1.28 -3.25,3.82l0 4.58 11.76 0 0 -1.37 -5.22 0 0 -2.57zm6.35 -6.81c-1.94,-1.95 -4.27,-2.9 -7.03,-2.9 -2.73,0 -5.04,0.95 -7.02,2.9 -1.9,1.92 -2.87,4.26 -2.87,7 0,2.73 0.97,5.1 2.87,7.04 1.98,1.95 4.29,2.9 7.02,2.9 2.76,0 5.09,-0.95 7.03,-2.9 1.93,-1.94 2.94,-4.31 2.94,-7.04 0,-2.74 -1.01,-5.08 -2.94,-7zm-0.82 0.89c1.66,1.66 2.52,3.69 2.52,6.11 0,2.42 -0.82,4.48 -2.49,6.13 -1.69,1.65 -3.75,2.46 -6.24,2.46 -2.43,0 -4.49,-0.81 -6.17,-2.46 -1.68,-1.65 -2.56,-3.71 -2.56,-6.13 0,-2.42 0.88,-4.45 2.56,-6.11 1.68,-1.63 3.74,-2.44 6.17,-2.44 2.49,0 4.53,0.81 6.21,2.44z"/>
 <path class="fil2" d="M2006.52 -1951.89l0 -36.63c0,-0.41 -0.23,-0.59 -0.67,-0.59l-2.01 0c-11.46,0 -18.21,0.07 -20.33,0.18 -3.05,0.2 -4.9,1.57 -5.46,4.12 -0.18,0.92 -0.28,2.17 -0.28,3.76 0,1.07 -0.28,1.62 -0.87,1.62 -0.56,0 -0.86,-0.68 -0.86,-2 0,-1.92 0.05,-4.54 0.15,-7.87 0.07,-3.33 0.12,-5.32 0.12,-5.94 0,-0.65 -0.05,-2.5 -0.12,-5.53 -0.1,-3.04 -0.15,-5.24 -0.15,-6.57 0,-1.36 0.3,-2 0.86,-2 0.59,0 0.87,0.56 0.87,1.71 0,0.78 0.1,1.68 0.28,2.75 0.4,2.2 2.2,3.38 5.46,3.59 2.12,0.12 8.9,0.19 20.33,0.19l16.88 0c10.87,0 17.7,-0.17 20.51,-0.49 3.14,-0.37 4.85,-1.62 5.19,-3.75 0.26,-1.84 0.36,-3.47 0.36,-4.88 0,-1.04 0.29,-1.55 0.78,-1.55 0.64,0 0.95,0.65 0.95,1.93 0,2.36 -0.03,5.3 -0.12,8.84 -0.1,3.5 -0.12,5.54 -0.12,6.14 0,0.56 0.02,2.36 0.12,5.37 0.09,2.99 0.12,5.23 0.12,6.62 0,1.34 -0.31,2.01 -0.95,2.01 -0.45,0 -0.74,-0.72 -0.86,-2.11 -0.13,-0.96 -0.23,-1.94 -0.28,-2.89 -0.34,-1.45 -2.1,-2.4 -5.29,-2.76 -2.51,-0.31 -9.31,-0.49 -20.41,-0.49l-8.45 0c-0.37,0 -0.56,0.18 -0.56,0.59l0 36.63c0,0.38 0.19,0.59 0.56,0.59l8.45 0c10.87,0 17.7,-0.18 20.51,-0.48 3.14,-0.39 4.85,-1.66 5.19,-3.76 0.26,-1.83 0.36,-3.49 0.36,-4.91 0,-1.01 0.29,-1.51 0.78,-1.51 0.64,0 0.95,0.65 0.95,1.92 0,2.38 -0.03,5.29 -0.12,8.84 -0.1,3.49 -0.12,5.58 -0.12,6.13 0,0.57 0.02,2.39 0.12,5.41 0.09,3.04 0.12,5.26 0.12,6.68 0,1.27 -0.31,1.92 -0.95,1.92 -0.45,0 -0.74,-0.71 -0.86,-2.13 -0.13,-0.97 -0.23,-1.93 -0.28,-2.87 -0.34,-1.48 -2.1,-2.39 -5.26,-2.76 -2.54,-0.34 -9.34,-0.51 -20.44,-0.51l-16.88 0c-11.43,0 -18.21,0.09 -20.33,0.22 -3.05,0.19 -4.87,1.56 -5.46,4.11 -0.18,0.88 -0.28,2.14 -0.28,3.74 0,1.09 -0.28,1.63 -0.87,1.63 -0.56,0 -0.86,-0.66 -0.86,-2 0,-1.92 0.05,-4.56 0.15,-7.86 0.07,-3.35 0.12,-5.31 0.12,-5.97 0,-0.63 -0.05,-2.48 -0.12,-5.51 -0.1,-3.05 -0.15,-5.24 -0.15,-6.58 0,-1.35 0.3,-2.02 0.86,-2.02 0.59,0 0.87,0.59 0.87,1.74 0,0.76 0.1,1.69 0.28,2.77 0.4,2.18 2.2,3.38 5.46,3.55 2.12,0.14 8.87,0.21 20.33,0.21l2.01 0c0.44,0 0.67,-0.21 0.67,-0.59z"/>
 <path class="fil2" d="M2020.2 -2024.46l-16.86 0c-11.46,0 -18.21,0.09 -20.32,0.22 -3.08,0.19 -4.91,1.59 -5.47,4.13 -0.19,0.89 -0.28,2.13 -0.28,3.71 0,1.13 -0.3,1.65 -0.86,1.65 -0.58,0 -0.88,-0.69 -0.88,-2.1 0,-1.93 0.05,-4.52 0.13,-7.83 0.08,-3.28 0.15,-5.31 0.15,-5.99 0,-15.17 -0.05,-23.17 -0.12,-23.99 -0.11,-1.68 -0.28,-3.03 -0.56,-4.11 -0.26,-1.11 -0.35,-1.61 -0.35,-1.55 0,-0.37 0.28,-0.56 0.85,-0.56 0.06,0 0.65,0.08 1.73,0.28 1.28,0.2 2.75,0.32 4.49,0.41 1.71,0.14 3.82,0.29 6.32,0.55 0.71,0.12 1.04,0.45 1.04,0.95 0,0.44 -0.33,0.72 -1.04,0.82 -0.72,0.07 -1.39,0.18 -2.01,0.25 -0.67,0.04 -1.2,0.18 -1.72,0.37 -1.86,0.78 -3.03,2.92 -3.48,6.43 -0.25,2.17 -0.38,6.69 -0.38,13.63 0,0.43 0.31,0.65 0.96,0.65l24.27 0c0.71,0 1.05,-0.22 1.05,-0.65 0,-8.77 -0.07,-13.88 -0.18,-15.34 -0.08,-1.08 -0.16,-1.92 -0.3,-2.51 -0.27,-0.98 -0.63,-1.67 -1.14,-2.1 -0.83,-0.78 -1.25,-1.3 -1.25,-1.55 0,-0.46 0.27,-0.67 0.77,-0.67 0.06,0 0.7,0.11 1.92,0.29 1.47,0.19 3.16,0.37 5.07,0.48 3.67,0.26 5.81,0.38 6.44,0.38 1.2,0 1.8,0.29 1.8,0.85 0,0.59 -0.31,0.89 -0.98,0.89 -0.68,0 -1.77,0.11 -3.31,0.38 -2.18,0.49 -3.43,2.3 -3.77,5.35 -0.18,1.79 -0.26,6.34 -0.26,13.64 0,0.38 0.31,0.56 0.94,0.56l22.47 0c3.38,-0.12 5.6,-0.86 6.58,-2.24 0.99,-1.38 1.48,-4.47 1.48,-9.24 0,-4.38 -0.39,-7.38 -1.16,-9.04 -1.03,-2.23 -3.41,-3.69 -7.1,-4.32 -0.93,-0.21 -1.43,-0.54 -1.43,-1.06 0,-0.5 0.59,-0.76 1.73,-0.76 3.9,0 7.46,0.41 10.7,1.24 1.18,0.33 1.87,0.79 2.11,1.36 0.25,0.57 0.4,1.86 0.4,3.83 0,5.55 -0.1,11.1 -0.33,16.61 -0.2,5.51 -0.31,8.8 -0.31,9.95 0,0.59 0.04,2.4 0.13,5.43 0.07,3.04 0.11,5.27 0.11,6.67 0,1.26 -0.32,1.91 -0.93,1.91 -0.46,0 -0.75,-0.7 -0.88,-2.1 -0.12,-0.95 -0.22,-1.92 -0.28,-2.88 -0.35,-1.47 -2.11,-2.4 -5.28,-2.76 -2.5,-0.35 -9.3,-0.52 -20.42,-0.52z"/>
 <path class="fil2" d="M2048.87 -2088.75c0,5.57 -0.83,10.24 -2.49,14.01 -0.5,1.24 -1.6,1.84 -3.27,1.84 -3.44,0 -7.63,-0.17 -12.59,-0.48 -1.63,-0.12 -2.48,-0.52 -2.48,-1.17 0,-0.64 0.55,-0.95 1.63,-0.95 1.34,0 2.97,-0.29 4.92,-0.86 6.43,-1.92 9.67,-6.49 9.67,-13.72 0,-4.04 -1.19,-7.27 -3.55,-9.7 -2.14,-2.12 -4.57,-3.16 -7.39,-3.16 -5.33,0 -10.43,3.13 -15.38,9.38l-3.42 4.43c-7.44,9.47 -15.02,14.19 -22.75,14.19 -5.33,0 -9.65,-2.01 -13.05,-6.14 -3.38,-4.07 -5.09,-9.43 -5.09,-16 0,-4.23 0.53,-8.49 1.66,-12.76 0.24,-0.9 0.61,-1.33 1.13,-1.33 -0.13,0 1,0.05 3.39,0.17 2.41,0.14 5.12,0.19 8.11,0.19 1.94,0 2.91,0.35 2.91,1.05 0,0.64 -0.59,0.95 -1.72,0.95 -2.16,0 -4.25,0.83 -6.34,2.53 -3.16,2.47 -4.72,5.95 -4.72,10.44 0,3.54 0.94,6.29 2.73,8.34 1.85,2.06 4.21,3.08 7.14,3.08 2.28,0 4.39,-0.73 6.38,-2.17 2.02,-1.46 4.49,-4.11 7.48,-8.01l2 -2.69c4.36,-5.74 8.35,-9.83 12.04,-12.18 3.67,-2.35 7.82,-3.56 12.42,-3.56 7.24,0 12.8,3.02 16.68,9.02 2.64,4.03 3.95,9.12 3.95,15.26z"/>
 <path class="fil2" d="M2020.2 -2142.05l-39.36 0 0.4 14.29c0.14,5.06 1.06,8.16 2.8,9.31 1.2,0.83 2.33,1.37 3.34,1.62 0.79,0.19 1.18,0.56 1.18,1.05 0,0.58 -0.51,0.86 -1.57,0.86 -1.72,0 -5.37,-0.66 -10.99,-1.99 -1.26,-0.32 -1.87,-0.71 -1.87,-1.16 0,-0.18 0.2,-0.73 0.53,-1.53 0.35,-0.84 0.58,-1.7 0.63,-2.59 0.34,-3.48 0.52,-6.65 0.52,-9.59l0 -38c0,-1.12 -0.18,-2.64 -0.52,-4.7 -0.35,-2.06 -0.51,-3.56 -0.51,-4.5 0,-0.53 0.68,-0.77 2.02,-0.77 0.64,0 2.43,0.05 5.4,0.11 2.95,0.11 4.89,0.2 5.85,0.26 0.98,0.07 1.46,0.33 1.46,0.77 0,0.57 -0.63,0.92 -1.94,1.04l-1.06 0.1c-3.36,0.31 -5.16,4.1 -5.34,11.31l-0.33 12.11 39.36 0c10.84,0 17.69,-0.17 20.51,-0.47 3.13,-0.39 4.84,-1.63 5.19,-3.77 0.26,-1.84 0.39,-3.46 0.39,-4.89 0,-1.02 0.24,-1.54 0.77,-1.54 0.61,0 0.93,0.61 0.93,1.84 0,2.44 -0.04,5.41 -0.13,8.94 -0.07,3.51 -0.11,5.54 -0.11,6.12 0,0.59 0.04,2.38 0.11,5.43 0.09,3.02 0.13,5.29 0.13,6.68 0,1.27 -0.32,1.9 -0.93,1.9 -0.46,0 -0.75,-0.69 -0.89,-2.1 -0.11,-0.95 -0.21,-1.92 -0.27,-2.89 -0.35,-1.46 -2.11,-2.39 -5.29,-2.77 -2.82,-0.32 -9.63,-0.48 -20.41,-0.48z"/>
 <path class="fil2" d="M2018.13 -2256.39l0 17.65c0,0.37 -0.21,0.53 -0.66,0.37l-23.61 -8.82c-0.58,-0.12 -0.86,-0.32 -0.86,-0.59 0,-0.18 0.28,-0.34 0.86,-0.48l23.71 -8.61c0.37,-0.13 0.56,0.04 0.56,0.48zm28.11 -32.43c0,1.54 -0.13,2.86 -0.36,4.04 -0.69,2.91 -4.15,5.75 -10.5,8.42 -24.49,9.98 -44.14,17.92 -58.97,23.81 -2.06,0.9 -3.07,1.69 -3.07,2.41 0,0.74 1.27,1.63 3.84,2.66l60.23 24.1c2.75,1.08 4.71,2.14 5.95,3.17 1.51,1.26 2.42,2.93 2.7,4.97 0.11,0.99 0.05,7.83 -0.18,9.69 -0.37,2.3 -1.91,3.59 -4.72,3.85 -2.59,0.24 -9.57,0.38 -21,0.38l-16.88 0c-11.44,0 -18.21,-0.08 -20.31,-0.2 -3.27,-0.18 -5.09,-1.4 -5.48,-3.55 -0.2,-1.08 -0.27,-2.1 -0.27,-3.03 0,-0.92 -0.32,-1.39 -0.96,-1.39 -0.52,0 -0.77,0.69 -0.77,2.02 0,1.34 0.04,3.45 0.13,6.33 0.07,2.88 0.12,4.65 0.12,5.36 0,0.86 -0.05,2.82 -0.12,5.91 -0.09,3.11 -0.13,5.29 -0.13,6.56 0,1.55 0.25,2.32 0.77,2.32 0.64,0 0.96,-0.56 0.96,-1.68 0,-1.1 0.12,-2.25 0.4,-3.3 0.49,-1.99 2.27,-3.09 5.35,-3.27 2.1,-0.12 8.87,-0.19 20.31,-0.19l16.88 0c11.12,0 18.08,0.16 20.95,0.45 2.82,0.36 4.4,1.27 4.77,2.82 0.05,0.94 0.13,1.9 0.25,2.85 0.16,1.43 0.43,2.14 0.86,2.14 0.65,0 0.96,-0.65 0.96,-1.92 0,-1.43 -0.05,-3.64 -0.13,-6.69 -0.07,-3.04 -0.13,-4.84 -0.13,-5.42 0,-0.58 0.06,-2.6 0.13,-6.07 0.08,-3.5 0.13,-6.44 0.13,-8.89l0 -2.77c0,-2 -0.09,-5.77 -0.26,-11.33 0,-0.93 0.06,-2.63 0.13,-5.04 0.08,-2.4 0.13,-4.08 0.13,-5.12 0,-1.08 -0.29,-1.65 -0.94,-1.65 -0.49,0 -0.72,0.48 -0.72,1.44l0 1.47c0,2.54 -1.03,3.81 -3.01,3.81 -1.34,0 -3.29,-0.46 -5.85,-1.42l-13.72 -5.2c-0.51,-0.18 -0.75,-0.48 -0.75,-0.85l0 -21.4c0,-0.45 0.23,-0.75 0.66,-0.95l20.3 -7.69c1.15,-0.44 1.9,-0.15 2.21,0.85 0.09,0.93 0.36,1.37 0.86,1.37 0.46,0 0.7,-0.96 0.77,-2.9 0.12,-4.13 0.19,-10.18 0.19,-18.12 0,-1.66 -0.07,-2.82 -0.19,-3.44 -0.12,-0.65 -0.38,-0.96 -0.77,-0.96 -0.5,0 -0.75,0.41 -0.75,1.24z"/>
</symbol>
<symbol id="Fm4-59-0" viewBox="1843.5 -1737.46 106.25 151.78">
 <path class="fil1" d="M1843.5 -1621.64l0 -115.82 103.41 0 0.03 32.31 -68.19 0 0 25.96 57.69 0 0.04 30.67 -57.73 0 0 16.23c0,10.2 5.97,14.53 13.77,14.53l57.17 0 0.06 31.52 0 0.57 -70.68 0c-26.32,-0.05 -35.57,-12.24 -35.57,-35.97z"/>
</symbol>
<symbol id="Fm42-62-0" viewBox="1246.12 -3330.57 139.36 146.9">
 <polygon class="fil1" points="1337.67,-3275.64 1293.93,-3330.57 1246.12,-3330.57 1246.12,-3183.68 1293.93,-3183.68 1293.93,-3238.61 1337.67,-3183.68 1385.48,-3183.68 1385.48,-3330.57 1337.67,-3330.57 "/>
</symbol>
<symbol id="Fm41-61-0" viewBox="277.22 -3771.81 170.98 119.68">
 <path class="fil1" d="M407.68 -3652.13l-130.46 0 0 -116.47 36.4 -0.04 0 76.8 29.24 0 0 -64.99 34.55 -0.03 0 65.02 18.28 0c11.49,0 16.37,-6.71 16.37,-15.5l0 -64.4 34.44 -0.07 1.7 0 0 79.44c0,29.78 -13.73,40.24 -40.52,40.24z"/>
</symbol>
<symbol id="Fm5-66-0" viewBox="1843.5 -1960.51 106.25 151.78">
 <path class="fil1" d="M1843.5 -1844.69l0 -115.82 103.41 0 0.03 32.31 -68.19 0 0 25.96 57.69 0 0.04 30.67 -57.73 0 0 16.24c0,10.19 5.97,14.52 13.77,14.52l57.17 0 0.06 31.51 0 0.58 -70.52 0c-26.44,0 -35.73,-12.19 -35.73,-35.97z"/>
</symbol>
<symbol id="Fm7-68-0" viewBox="1345.85 -2036.06 151.78 106.25">
 <path class="fil1" d="M1461.67 -1929.81l-115.82 0 0 -103.41 32.31 -0.03 0 68.19 25.96 0 0 -57.7 30.67 -0.03 0 57.73 16.23 0c10.2,0 14.53,-5.96 14.53,-13.77l0 -57.17 32.08 -0.06 0 70.68c-0.05,26.32 -12.23,35.57 -35.96,35.57z"/>
</symbol>
<symbol id="Fm43-63-0" viewBox="1236.29 -2773.75 139.36 146.9">
 <polygon class="fil1" points="1327.84,-2718.81 1284.1,-2773.75 1236.29,-2773.75 1236.29,-2626.85 1284.1,-2626.85 1284.1,-2681.78 1327.84,-2626.85 1375.65,-2626.85 1375.65,-2773.75 1327.84,-2773.75 "/>
</symbol>
<symbol id="Fm45-65-0" viewBox="828.46 -3088.42 146.9 139.36">
 <polygon class="fil1" points="883.4,-3040.61 828.46,-2996.86 828.46,-2949.06 975.35,-2949.06 975.35,-2996.86 920.43,-2996.86 975.35,-3040.61 975.35,-3088.42 828.46,-3088.42 828.46,-3040.61 "/>
</symbol>
<symbol id="Fm6-67-0" viewBox="1211.92 -1976.42 106.25 151.78">
 <path class="fil1" d="M1211.92 -1860.6l0 -115.82 103.4 0 0.04 32.31 -68.19 0 0 25.96 57.69 0 0.04 30.67 -57.73 0 0 16.23c0,10.2 5.96,14.53 13.77,14.53l57.16 0 0.07 32.08 -70.53 0c-26.44,0 -35.72,-12.18 -35.72,-35.96z"/>
</symbol>
<symbol id="Fm44-64-0" viewBox="2264.53 -3158.1 146.9 139.36">
 <polygon class="fil1" points="2319.46,-3110.29 2264.53,-3066.55 2264.53,-3018.74 2411.42,-3018.74 2411.42,-3066.55 2356.49,-3066.55 2411.42,-3110.29 2411.42,-3158.1 2264.53,-3158.1 2264.53,-3110.29 "/>
</symbol>
<symbol id="Fm0-25-0" viewBox="1636.14 -3871.73 141.67 202.37">
 <path class="fil1" d="M1636.14 -3717.32l0 -154.41 137.87 0 0.04 43.07 -90.91 0 0 34.62 76.92 0 0.05 40.89 -76.97 0 0 21.64c0,13.6 7.95,19.37 18.36,19.37l76.22 0 0.08 42.78 -94.03 0c-35.25,0 -47.63,-16.25 -47.63,-47.96z"/>
</symbol>
<symbol id="Fm9-70-0" viewBox="1692.07 -820.07 151.79 106.25">
 <path class="fil1" d="M1728.03 -820.07l115.83 0 0 103.41 -32.32 0.03 0 -68.19 -25.96 0 0 57.69 -30.67 0.04 0 -57.73 -16.23 0c-10.2,0 -14.53,5.96 -14.53,13.77l0 57.16 -30.96 0.07 -1.12 0 0 -70.83c0.09,-26.21 12.28,-35.42 35.96,-35.42z"/>
</symbol>
<symbol id="Fm1-26-0" viewBox="2189.7 -3475.97 202.39 141.66">
 <path class="fil1" d="M2344.12 -3334.31l-154.42 0 0 -137.87 43.08 -0.05 0 90.92 34.62 0 0 -76.93 40.89 -0.04 0 76.97 21.64 0c13.6,0 19.37,-7.95 19.37,-18.35l0 -76.23 41.05 -0.08 1.73 0 0 94.19c-0.05,35.13 -16.3,47.47 -47.96,47.47z"/>
</symbol>
<symbol id="Fm10-27-0" viewBox="2924.55 -1201.16 141.67 202.38">
 <path class="fil1" d="M3066.22 -1153.21l0 154.43 -137.87 0 -0.05 -43.08 90.92 0 0 -34.62 -76.93 0 -0.04 -40.89 76.97 0 0 -21.64c0,-13.6 -7.95,-19.37 -18.36,-19.37l-76.22 0 -0.09 -42.78 94.53 0c34.87,0.15 47.14,16.4 47.14,47.95z"/>
</symbol>
<symbol id="Fm8-69-0" viewBox="1257.21 -2678.76 151.78 106.25">
 <path class="fil1" d="M1257.21 -2675.92l32.31 -0.03 0 68.19 25.96 0 0 -57.7 30.67 -0.03 0 57.73 16.23 0c10.2,0 14.53,-5.96 14.53,-13.77l0 -57.17 32.09 -0.06 0 70.68c-0.05,26.05 -11.99,35.37 -35.23,35.56l-116.56 0 0 -103.4z"/>
</symbol>
<symbol id="Fm13-30-0" viewBox="3193.68 -658.09 202.38 141.66">
 <path class="fil1" d="M3348.1 -516.42l-154.42 0 0 -137.88 43.08 -0.04 0 90.91 34.61 0 0 -76.92 40.89 -0.05 0 76.97 21.65 0c13.59,0 19.36,-7.95 19.36,-18.35l0 -76.23 41.05 -0.08 1.74 0 0 94.19c-0.06,35.13 -16.31,47.48 -47.96,47.48z"/>
</symbol>
<symbol id="Fm14-31-0" viewBox="2276.34 -669.28 202.38 141.67">
 <path class="fil1" d="M2478.71 -531.4l-43.08 0.04 0 -90.92 -34.61 0 0 76.93 -40.89 0.04 0 -76.97 -21.64 0c-13.6,0 -19.37,7.95 -19.37,18.36l0 76.22 -42.78 0.09 0 -94.03c0,-35.19 16.19,-47.59 47.77,-47.64l154.6 0 0 137.88z"/>
</symbol>
<symbol id="Fm11-28-0" viewBox="2549.56 -291.12 141.67 202.38">
 <path class="fil1" d="M2691.22 -243.16l0 154.42 -137.87 0 -0.04 -43.08 90.91 0 0 -34.62 -76.92 0 -0.05 -40.89 76.97 0 0 -21.64c0,-13.6 -7.95,-19.37 -18.35,-19.37l-76.23 0 -0.08 -42.78 94.36 0c35,0.1 47.3,16.35 47.3,47.96z"/>
</symbol>
<symbol id="Fm12-29-0" viewBox="3324.97 -1304.13 202.38 141.67">
 <path class="fil1" d="M3479.39 -1162.46l-154.42 0 0 -137.87 43.08 -0.05 0 90.92 34.61 0 0 -76.93 40.9 -0.04 0 76.97 21.64 0c13.6,0 19.37,-7.95 19.37,-18.36l0 -76.22 41.69 -0.09 1.09 0 0 94.53c-0.15,34.87 -16.4,47.14 -47.96,47.14z"/>
</symbol>
<symbol id="Fm17-34-0" viewBox="3336.61 -2953.67 164.97 173.88">
 <polygon class="fil1" points="3444.98,-2888.64 3393.2,-2953.67 3336.61,-2953.67 3336.61,-2779.79 3393.2,-2779.79 3393.2,-2844.81 3444.98,-2779.79 3501.57,-2779.79 3501.57,-2953.67 3444.98,-2953.67 "/>
</symbol>
<symbol id="Fm15-32-0" viewBox="2521.07 -890.91 141.67 202.38">
 <path class="fil1" d="M2662.74 -842.96l0 154.43 -137.88 0 -0.04 -43.08 90.92 0 0 -34.62 -76.93 0 -0.04 -40.89 76.97 0 0 -21.65c0,-13.59 -7.95,-19.36 -18.36,-19.36l-76.22 0 -0.09 -42.2 0 -0.58 94.69 0c34.75,0.2 46.98,16.45 46.98,47.95z"/>
</symbol>
<symbol id="Fm16-33-0" viewBox="2431.38 -1902.06 141.66 202.38">
 <path class="fil1" d="M2431.38 -1747.64l0 -154.42 137.87 0 0.04 43.08 -90.92 0 0 34.61 76.93 0 0.04 40.9 -76.97 0 0 21.64c0,13.59 7.96,19.37 18.36,19.37l76.22 0 0.09 41.63 0 1.15 -94.2 0c-35.12,-0.05 -47.46,-16.31 -47.46,-47.96z"/>
</symbol>
<symbol id="Fm21-39-0" viewBox="2904.73 -3538.25 211.92 105.94">
 <path class="fil2" d="M3010.68 -3538.25c-58.5,0 -105.94,47.43 -105.95,105.94l211.92 0 0 -0.27c-0.15,-58.38 -47.54,-105.67 -105.97,-105.67z"/>
</symbol>
<symbol id="Fm2-37-0" viewBox="1832.47 -2721.53 202.38 141.67">
 <path class="fil1" d="M1986.9 -2579.86l-154.43 0 0 -137.88 43.08 -0.04 0 90.91 34.62 0 0 -76.92 40.89 -0.05 0 76.97 21.65 0c13.59,0 19.36,-7.95 19.36,-18.35l0 -76.23 41.63 -0.08 1.15 0 0 94.52c-0.15,34.88 -16.4,47.15 -47.95,47.15z"/>
</symbol>
<symbol id="Fm19-36-0" viewBox="4542.13 -2749.51 173.88 164.97">
 <polygon class="fil1" points="4607.15,-2692.91 4542.13,-2641.13 4542.13,-2584.54 4716.01,-2584.54 4716.01,-2641.13 4650.99,-2641.13 4716.01,-2692.91 4716.01,-2749.51 4542.13,-2749.51 4542.13,-2692.91 "/>
</symbol>
<symbol id="Fm18-35-0" viewBox="3324.97 -2294.54 164.97 173.88">
 <polygon class="fil1" points="3433.34,-2229.51 3381.56,-2294.54 3324.97,-2294.54 3324.97,-2120.65 3381.56,-2120.65 3381.56,-2185.68 3433.34,-2120.65 3489.94,-2120.65 3489.94,-2294.54 3433.34,-2294.54 "/>
</symbol>
<symbol id="Fm20-38-0" viewBox="2842.21 -2667.02 173.88 164.97">
 <polygon class="fil1" points="2907.24,-2610.43 2842.21,-2558.65 2842.21,-2502.06 3016.1,-2502.06 3016.1,-2558.65 2951.07,-2558.65 3016.1,-2610.43 3016.1,-2667.02 2842.21,-2667.02 2842.21,-2610.43 "/>
</symbol>
<symbol id="Fm22-40-0" viewBox="3556.55 -3538.25 211.93 105.94">
 <path class="fil2" d="M3662.5 -3538.25c-58.5,0 -105.94,47.43 -105.95,105.94l211.93 0 0 -0.08c-0.05,-58.47 -47.49,-105.86 -105.98,-105.86z"/>
</symbol>
<symbol id="Fm23-41-0" viewBox="3237.2 -3857.14 105.95 211.91">
 <path class="fil2" d="M3237.2 -3751.18c0,58.51 47.43,105.95 105.95,105.95l0 -211.91 -0.84 0c-58.12,0.45 -105.11,47.72 -105.11,105.96z"/>
</symbol>
<symbol id="Fm26-44-0" viewBox="3457.16 -4268.31 105.95 211.92">
 <path class="fil2" d="M3563.11 -4162.37c0,-58.29 -47.08,-105.59 -105.29,-105.94l-0.66 0 0 211.91c58.52,0 105.95,-47.45 105.95,-105.97z"/>
</symbol>
<symbol id="Fm25-43-0" viewBox="2911.29 -4268.31 105.95 211.92">
 <path class="fil2" d="M2911.29 -4162.35c0,58.51 47.44,105.95 105.95,105.95l0 -211.91 -0.56 0c-58.25,0.3 -105.39,47.63 -105.39,105.96z"/>
</symbol>
<symbol id="Fm24-42-0" viewBox="3237.2 -3306.72 105.95 211.92">
 <path class="fil2" d="M3237.2 -3200.76c0,58.52 47.43,105.95 105.95,105.95l0 -211.91 -0.37 0c-58.34,0.2 -105.58,47.57 -105.58,105.96z"/>
</symbol>
<symbol id="Fm28-46-0" viewBox="3154.34 -4023.65 211.92 105.96">
 <path class="fil2" d="M3260.32 -3917.69c58.41,0 105.79,-47.28 105.94,-105.67l0 -0.29 -211.92 0c0,58.52 47.45,105.96 105.98,105.96z"/>
</symbol>
<symbol id="Fm3-48-0" viewBox="2635.79 -3662.5 141.67 202.38">
 <path class="fil1" d="M2635.79 -3508.08l0 -154.42 137.88 0 0.04 43.08 -90.91 0 0 34.62 76.93 0 0.04 40.89 -76.97 0 0 21.64c0,13.6 7.95,19.37 18.35,19.37l76.23 0 0.09 42.79 -94.04 0c-35.26,0 -47.64,-16.26 -47.64,-47.97z"/>
</symbol>
<symbol id="Fm27-45-0" viewBox="3121 -4468.11 211.92 105.95">
 <path class="fil2" d="M3226.29 -4468.11c-58.2,0.36 -105.29,47.65 -105.29,105.95l211.92 0 0 -0.38c-0.2,-58.12 -47.21,-105.21 -105.31,-105.57l-1.32 0z"/>
</symbol>
<symbol id="Fm29-47-0" viewBox="3860.38 -3494.81 147.1 147.08">
 <path class="fil1" d="M3933.82 -3494.81l-0.18 0.01c-40.49,0.16 -73.25,33.02 -73.26,73.53 0.01,40.62 32.94,73.56 73.57,73.54 40.61,0 73.53,-32.92 73.53,-73.54l0 -0.01c0,-40.45 -32.67,-73.27 -73.06,-73.53l-0.6 0z"/>
</symbol>
<symbol id="Fm30-49-0" viewBox="4080.9 -3715.34 147.1 147.07">
 <path class="fil1" d="M4154.47 -3715.34c-0.11,0 -0.21,0.02 -0.3,0.02 -40.5,0.16 -73.25,33.02 -73.27,73.53 0.02,40.24 32.33,72.93 72.43,73.52l2.28 0c40.09,-0.61 72.39,-33.28 72.39,-73.52l0 -0.01c0,-40.61 -32.92,-73.54 -73.53,-73.54z"/>
</symbol>
<symbol id="Fm31-50-0" viewBox="4813.43 -3379.77 147.1 147.08">
 <path class="fil1" d="M4886.92 -3379.77c-0.08,0.01 -0.15,0.02 -0.22,0.02 -40.49,0.16 -73.25,33.02 -73.27,73.53 0.02,40.62 32.95,73.56 73.57,73.54 40.59,0 73.49,-32.87 73.54,-73.45l0 -0.2c-0.05,-40.5 -32.85,-73.33 -73.35,-73.44l-0.27 0z"/>
</symbol>
<symbol id="Fm32-51-0" viewBox="4307.51 -3221.51 147.1 147.06">
 <path class="fil1" d="M4380.56 -3221.51c-40.39,0.27 -73.03,33.08 -73.05,73.52 0.02,40.62 32.94,73.56 73.57,73.54 40.58,0 73.48,-32.87 73.53,-73.44l0 -0.2c-0.05,-40.03 -32.08,-72.57 -71.92,-73.42l-2.13 0z"/>
</symbol>
<symbol id="Fm34-53-0" viewBox="3745.75 -4529.9 73.55 147.06">
 <path class="fil1" d="M3745.75 -4382.84l0.01 0c40.62,0 73.54,-32.92 73.54,-73.53l0 -0.02c0,-40.03 -32,-72.6 -71.83,-73.51l-1.72 0 0 147.06z"/>
</symbol>
<symbol id="Fm33-52-0" viewBox="3892.72 -4676.9 147.1 73.54">
 <path class="fil1" d="M3892.72 -4676.9l0 0c0.01,40.62 32.94,73.56 73.57,73.54 40.58,0 73.48,-32.87 73.53,-73.44l0 -0.1 -147.1 0z"/>
</symbol>
<symbol id="Fm35-54-0" viewBox="4119.33 -4256.64 147.11 73.54">
 <path class="fil1" d="M4266.43 -4183.3c-0.1,-40.52 -32.98,-73.34 -73.53,-73.34 -0.12,0 -0.21,0.01 -0.31,0.01 -40.48,0.16 -73.24,33.01 -73.26,73.52l147.1 0 0 -0.19z"/>
</symbol>
<symbol id="Fm36-55-0" viewBox="4625.25 -4414.86 73.55 147.07">
 <path class="fil1" d="M4698.45 -4414.86c-40.46,0.2 -73.18,33.04 -73.2,73.53 0.02,40.61 32.94,73.55 73.56,73.54l0 -147.07 -0.36 0z"/>
</symbol>
<symbol id="Fm6-58-0" viewBox="1636.14 -3177.27 141.67 202.38">
 <path class="fil1" d="M1636.14 -3022.84l0 -154.43 137.87 0 0.04 43.09 -90.91 0 0 34.61 76.92 0 0.05 40.89 -76.97 0 0 21.65c0,13.59 7.95,19.36 18.36,19.36l76.22 0 0.08 42.78 -94.03 0c-35.25,0 -47.63,-16.25 -47.63,-47.95z"/>
</symbol>
<symbol id="Fm5-57-0" viewBox="2478.25 -3156.05 141.66 202.38">
 <path class="fil1" d="M2478.25 -3001.63l0 -154.42 137.88 0 0.04 43.08 -90.92 0 0 34.61 76.93 0 0.04 40.9 -76.97 0 0 21.64c0,13.6 7.95,19.37 18.36,19.37l76.22 0 0.08 41.04 0 1.74 -94.03 0c-35.25,0 -47.63,-16.25 -47.63,-47.96z"/>
</symbol>
<symbol id="Fm4-56-0" viewBox="2478.25 -2858.65 141.66 202.38">
 <path class="fil1" d="M2478.25 -2704.23l0 -154.42 137.88 0 0.04 43.08 -90.92 0 0 34.61 76.93 0 0.04 40.9 -76.97 0 0 21.64c0,13.6 7.95,19.37 18.36,19.37l76.22 0 0.08 41.05 0 1.73 -94.03 0c-35.25,0 -47.63,-16.25 -47.63,-47.96z"/>
</symbol>
 <g id="Warstwa_x0020_1">
  <metadata id="CorelCorpID_0Corel-Layer"/>
  <g id="_2177650535392">
   <path class="fil3" d="M174.84 169.97l0 -53.75 6.62 0c18.15,0 29.86,8.1 29.86,26.69l0 0.37c0,18.59 -11.71,26.69 -29.86,26.69l-6.62 0zm-39.71 32.52l44.12 0c48.03,0 72.12,-24.94 72.12,-60.07l0 -0.34c0,-35.13 -23.59,-58.38 -70.76,-58.38l-45.48 0 0 118.79z"/>
   <polygon class="fil3" points="261.27,202.49 300.87,202.49 300.87,83.7 261.27,83.7 "/>
   <polygon class="fil4" points="40.07,162.89 79.67,162.89 79.67,123.3 40.07,123.3 "/>
   <polygon class="fil3" points="79.69,202.49 119.29,202.49 119.29,83.7 79.69,83.7 "/>
   <polygon class="fil3" points="0.45,202.49 40.04,202.49 40.04,83.7 0.45,83.7 "/>
  </g>
 </g>
</svg>
