<?xml version="1.0" encoding="UTF-8"?>
<!DOCTYPE svg PUBLIC "-//W3C//DTD SVG 1.1//EN" "http://www.w3.org/Graphics/SVG/1.1/DTD/svg11.dtd">
<!-- Creator: CorelDRAW 2018 (64-Bit) -->
<svg xmlns="http://www.w3.org/2000/svg" xml:space="preserve" width="300px" height="108px" version="1.1" style="shape-rendering:geometricPrecision; text-rendering:geometricPrecision; image-rendering:optimizeQuality; fill-rule:evenodd; clip-rule:evenodd"
viewBox="0 0 299.83 108.11"
 xmlns:xlink="http://www.w3.org/1999/xlink">
 <defs>
  <style type="text/css">
   <![CDATA[
    .fil3 {fill:#E31E24}
    .fil2 {fill:#0C54A0}
    .fil1 {fill:#2B2A29;fill-rule:nonzero}
    .fil0 {fill:#E31E24;fill-rule:nonzero}
   ]]>
  </style>
 </defs>
 <g id="Warstwa_x0020_1">
  <metadata id="CorelCorpID_0Corel-Layer"/>
  <g id="_2178210234432">
   <polygon class="fil0" points="0,80.84 299.83,80.84 299.83,76.28 0,76.27 "/>
   <polygon class="fil1" points="7.54,107.97 5.57,107.97 0.06,91.92 2.69,91.92 6.55,103.6 10.41,91.92 13.09,91.92 "/>
   <polygon class="fil1" points="15.47,91.92 18.01,91.92 18.01,107.97 15.47,107.97 "/>
   <polygon class="fil1" points="22.46,107.97 22.46,91.92 33.17,91.92 33.17,94.1 25,94.1 25,98.79 31.96,98.79 31.96,100.96 25,100.96 25,105.78 33.17,105.78 33.17,107.97 "/>
   <polygon class="fil1" points="47.01,107.97 39.27,96.67 39.27,107.97 36.72,107.97 36.72,91.92 39.05,91.92 46.79,103.19 46.79,91.92 49.34,91.92 49.34,107.97 "/>
   <polygon class="fil1" points="64.07,107.97 56.33,96.67 56.33,107.97 53.78,107.97 53.78,91.92 56.11,91.92 63.86,103.19 63.86,91.92 66.4,91.92 66.4,107.97 "/>
   <path class="fil1" d="M76.07 95.54l-2.61 7.13 5.16 0 -2.55 -7.13zm4.4 12.43l-1.15 -3.22 -6.61 0 -1.15 3.22 -2.71 0 6.14 -16.05 2.05 0 6.14 16.05 -2.71 0z"/>
   <polygon class="fil1" points="91.35,91.92 93.89,91.92 93.89,107.97 91.35,107.97 "/>
   <polygon class="fil1" points="108.62,107.97 100.88,96.67 100.88,107.97 98.34,107.97 98.34,91.92 100.67,91.92 108.41,103.19 108.41,91.92 110.95,91.92 110.95,107.97 "/>
   <path class="fil1" d="M119.84 108.11c-2.51,0 -4.32,-0.57 -5.92,-2.12l1.69 -1.6c1.23,1.18 2.56,1.53 4.28,1.53 2.19,0 3.46,-0.9 3.46,-2.46 0,-0.7 -0.2,-1.29 -0.65,-1.67 -0.43,-0.39 -0.85,-0.54 -1.84,-0.67l-1.97 -0.27c-1.38,-0.19 -2.45,-0.63 -3.19,-1.29 -0.82,-0.74 -1.22,-1.76 -1.22,-3.07 0,-2.79 2.12,-4.71 5.6,-4.71 2.21,0 3.77,0.54 5.21,1.83l-1.62 1.53c-1.05,-0.95 -2.24,-1.25 -3.65,-1.25 -1.98,0 -3.06,1.09 -3.06,2.51 0,0.59 0.18,1.11 0.63,1.49 0.42,0.36 1.1,0.64 1.88,0.74l1.91 0.27c1.56,0.23 2.42,0.59 3.13,1.2 0.92,0.77 1.36,1.92 1.36,3.3 0,2.95 -2.52,4.71 -6.03,4.71z"/>
   <path class="fil1" d="M135.1 108.11c-3.41,0 -6,-2.24 -6,-5.55l0 -10.64 2.55 0 0 10.53c0,2.14 1.36,3.47 3.45,3.47 2.1,0 3.48,-1.33 3.48,-3.47l0 -10.53 2.55 0 0 10.64c0,3.31 -2.61,5.55 -6.03,5.55z"/>
   <path class="fil1" d="M151.62 94.1l-3.77 0 0 5.03 3.77 0c1.69,0 2.85,-0.93 2.85,-2.5 0,-1.58 -1.16,-2.53 -2.85,-2.53zm2.94 13.87l-3.52 -6.76 -3.19 0 0 6.76 -2.53 0 0 -16.05 6.5 0c3.17,0 5.19,1.95 5.19,4.69 0,2.29 -1.46,3.76 -3.34,4.26l3.86 7.1 -2.97 0z"/>
   <path class="fil1" d="M166.02 95.54l-2.61 7.13 5.15 0 -2.54 -7.13zm4.41 12.43l-1.16 -3.22 -6.61 0 -1.15 3.22 -2.71 0 6.14 -16.05 2.04 0 6.16 16.05 -2.71 0z"/>
   <polygon class="fil1" points="185.86,107.97 178.12,96.67 178.12,107.97 175.58,107.97 175.58,91.92 177.91,91.92 185.65,103.19 185.65,91.92 188.19,91.92 188.19,107.97 "/>
   <path class="fil1" d="M198.06 108.11c-1.75,0 -3.25,-0.62 -4.41,-1.72 -1.64,-1.57 -1.62,-3.36 -1.62,-6.45 0,-3.09 -0.02,-4.87 1.62,-6.45 1.16,-1.1 2.66,-1.71 4.41,-1.71 2.09,0 3.42,0.72 4.68,1.89l-1.69 1.64c-0.87,-0.83 -1.6,-1.34 -2.99,-1.34 -0.99,0 -1.89,0.36 -2.48,0.96 -0.81,0.87 -0.98,1.79 -0.98,5.01 0,3.23 0.17,4.15 0.98,5.01 0.59,0.62 1.49,0.97 2.48,0.97 1.39,0 2.12,-0.52 2.99,-1.35l1.69 1.64c-1.26,1.18 -2.59,1.9 -4.68,1.9z"/>
   <polygon class="fil1" points="206.22,107.97 206.22,91.92 216.92,91.92 216.92,94.1 208.76,94.1 208.76,98.79 215.73,98.79 215.73,100.96 208.76,100.96 208.76,105.78 216.92,105.78 216.92,107.97 "/>
   <path class="fil1" d="M236.18 106.26c-1.18,1.19 -2.73,1.85 -4.56,1.85 -1.75,0 -3.25,-0.62 -4.41,-1.72 -1.65,-1.57 -1.62,-3.36 -1.62,-6.45 0,-3.09 -0.03,-4.87 1.62,-6.45 1.16,-1.1 2.61,-1.71 4.41,-1.71 2.27,0 3.56,0.68 5.05,2.12l-1.71 1.64c-1.07,-1.01 -1.83,-1.57 -3.34,-1.57 -0.99,0 -1.91,0.38 -2.5,0.99 -0.82,0.86 -0.98,1.76 -0.98,4.98 0,3.23 0.16,4.15 0.98,5.01 0.59,0.61 1.51,0.97 2.5,0.97 1.1,0 2.02,-0.4 2.67,-1.13 0.62,-0.65 0.83,-1.55 0.83,-2.55l0 -0.88 -3.5 0 0 -2.07 6.04 0 0 2.41c0,2.08 -0.37,3.43 -1.48,4.56z"/>
   <path class="fil1" d="M247.67 94.1l-3.76 0 0 5.03 3.76 0c1.69,0 2.85,-0.93 2.85,-2.5 0,-1.58 -1.16,-2.53 -2.85,-2.53zm2.95 13.87l-3.54 -6.76 -3.17 0 0 6.76 -2.55 0 0 -16.05 6.5 0c3.17,0 5.19,1.95 5.19,4.69 0,2.29 -1.45,3.76 -3.33,4.26l3.86 7.1 -2.96 0z"/>
   <path class="fil1" d="M264.76 94.96c-0.6,-0.61 -1.51,-0.99 -2.5,-0.99 -0.99,0 -1.91,0.38 -2.49,0.99 -0.83,0.86 -0.99,1.76 -0.99,4.98 0,3.23 0.16,4.13 0.99,4.99 0.58,0.61 1.5,0.99 2.49,0.99 0.99,0 1.9,-0.38 2.5,-0.99 0.82,-0.86 0.99,-1.76 0.99,-4.99 0,-3.22 -0.17,-4.12 -0.99,-4.98zm1.92 11.43c-1.15,1.1 -2.63,1.72 -4.42,1.72 -1.79,0 -3.24,-0.62 -4.4,-1.72 -1.65,-1.57 -1.62,-3.36 -1.62,-6.45 0,-3.09 -0.03,-4.87 1.62,-6.45 1.16,-1.1 2.61,-1.71 4.4,-1.71 1.79,0 3.27,0.61 4.42,1.71 1.65,1.58 1.61,3.36 1.61,6.45 0,3.09 0.04,4.88 -1.61,6.45z"/>
   <path class="fil1" d="M277.86 108.11c-3.41,0 -6,-2.24 -6,-5.55l0 -10.64 2.54 0 0 10.53c0,2.14 1.37,3.47 3.46,3.47 2.09,0 3.49,-1.33 3.49,-3.47l0 -10.53 2.54 0 0 10.64c0,3.31 -2.61,5.55 -6.03,5.55z"/>
   <path class="fil1" d="M294.29 94.1l-3.67 0 0 5.35 3.67 0c1.77,0 2.97,-0.97 2.97,-2.67 0,-1.69 -1.2,-2.68 -2.97,-2.68zm0.14 7.56l-3.81 0 0 6.31 -2.54 0 0 -16.05 6.35 0c3.28,0 5.37,2.07 5.37,4.86 0,2.81 -2.09,4.88 -5.37,4.88z"/>
   <polygon class="fil2" points="199.34,64.9 207.55,64.9 207.55,26.22 199.34,26.22 "/>
   <polygon class="fil2" points="217.89,64.9 207.67,51.31 217.73,38.7 227.65,38.7 217.51,51.31 227.76,64.9 "/>
   <path class="fil2" d="M175.95 63.49l0 -5.83c1.67,0.75 3.19,1.33 4.61,1.75 1.41,0.42 2.6,0.62 3.55,0.62 1.31,0 2.29,-0.17 2.96,-0.5 0.66,-0.33 0.99,-0.83 0.99,-1.49 0,-0.56 -0.24,-1.04 -0.75,-1.48 -0.49,-0.43 -1.62,-1.01 -3.39,-1.75 -0.19,-0.07 -0.48,-0.19 -0.89,-0.35 -5.03,-2.09 -7.55,-4.77 -7.55,-8.03 0,-2.49 0.94,-4.49 2.79,-6 1.85,-1.51 4.3,-2.26 7.36,-2.26 1.64,0 3.19,0.18 4.66,0.53 1.47,0.34 2.88,0.87 4.27,1.57l0 5.77c-1.73,-0.91 -3.27,-1.58 -4.63,-2.02 -1.35,-0.42 -2.6,-0.63 -3.75,-0.63 -1,0 -1.75,0.19 -2.29,0.53 -0.54,0.35 -0.8,0.83 -0.8,1.49 0,0.85 1.49,1.89 4.48,3.12 1.21,0.49 2.17,0.88 2.87,1.19 1.91,0.83 3.31,1.82 4.19,2.99 0.87,1.15 1.31,2.6 1.31,4.31 0,2.7 -0.94,4.79 -2.81,6.25 -1.87,1.45 -4.52,2.18 -7.97,2.18 -1.71,0 -3.33,-0.16 -4.88,-0.48 -1.54,-0.32 -2.97,-0.83 -4.33,-1.48z"/>
   <path class="fil2" d="M141.15 42.09c1.79,0 3.12,-0.37 4,-1.12 0.87,-0.75 1.3,-1.87 1.3,-3.41 0,-1.46 -0.45,-2.56 -1.36,-3.33 -0.91,-0.75 -2.23,-1.15 -3.94,-1.15l-4.65 0 0 9.01 4.65 0zm-14.34 22.81l0 -38.68 14.28 0c5.25,0 9.13,0.92 11.64,2.74 2.51,1.83 3.76,4.64 3.76,8.49 0,2.14 -0.56,3.96 -1.66,5.48 -1.12,1.53 -2.79,2.81 -5.09,3.86 0.96,0.35 1.81,0.93 2.58,1.75 0.77,0.82 1.44,1.86 2.01,3.12l6.17 13.24 -10.92 0 -4.91 -11.14c-0.8,-1.77 -1.7,-2.98 -2.72,-3.65 -1.01,-0.68 -2.45,-1 -4.31,-1 -0.14,0 -0.35,0.01 -0.58,0.03 -0.24,0.02 -0.43,0.03 -0.56,0.03l0 15.73 -9.69 0zm44.22 0l-8.26 0 0 -26.2 8.26 0 0 26.2zm-8.57 -34.69c0,-1.24 0.41,-2.29 1.27,-3.15 0.86,-0.86 1.92,-1.28 3.15,-1.28 1.26,0 2.29,0.42 3.15,1.27 0.85,0.85 1.27,1.89 1.27,3.16 0,1.23 -0.42,2.27 -1.27,3.12 -0.86,0.85 -1.89,1.27 -3.15,1.27 -1.23,0 -2.29,-0.42 -3.15,-1.28 -0.86,-0.86 -1.27,-1.9 -1.27,-3.11z"/>
   <path class="fil2" d="M101.56 64.9l0 -26.2 8.26 0 0 7.01c1.4,-2.65 2.75,-4.55 4.05,-5.7 1.28,-1.16 2.7,-1.73 4.22,-1.73 0.76,0 1.55,0.16 2.4,0.47 0.82,0.31 1.77,0.8 2.8,1.46l-2.2 7.52c-0.84,-0.64 -1.6,-1.11 -2.31,-1.41 -0.7,-0.28 -1.38,-0.43 -2.07,-0.43 -1.56,0 -2.98,0.68 -4.21,2.07 -1.25,1.38 -2.13,3.27 -2.68,5.66l0 11.28 -8.26 0z"/>
   <path class="fil2" d="M96.46 62.03c-1.79,1.15 -3.67,2.01 -5.66,2.59 -1.98,0.55 -4.1,0.83 -6.35,0.83 -4.52,0 -8.05,-1.23 -10.61,-3.71 -2.56,-2.46 -3.85,-5.88 -3.85,-10.25 0,-4.03 1.26,-7.27 3.76,-9.69 2.51,-2.43 5.85,-3.63 10.02,-3.63 4.1,0 7.35,1.31 9.72,3.93 2.38,2.63 3.57,6.25 3.57,10.87l0 0.27 -18.55 0 0 0.11c0,2.08 0.71,3.73 2.13,4.93 1.41,1.21 3.36,1.81 5.84,1.81 1.66,0 3.32,-0.3 4.98,-0.89 1.65,-0.59 3.31,-1.47 5,-2.63l0 5.46zm-17.89 -12.8l10.17 -0.04c-0.15,-1.69 -0.66,-3.01 -1.54,-3.98 -0.87,-0.95 -2,-1.43 -3.37,-1.43 -1.43,0 -2.6,0.48 -3.54,1.43 -0.93,0.97 -1.51,2.3 -1.72,4.02z"/>
   <path class="fil2" d="M50.08 44.41l-3.75 0 0 -1.77 10.69 -11.6 1.25 0 0 7.66 8.95 0 0 5.71 -8.95 0 0 9.68c0,2.01 0.28,3.36 0.86,4.02 0.57,0.67 1.61,1.01 3.12,1.01 0.73,0 1.51,-0.1 2.33,-0.33 0.82,-0.2 1.7,-0.53 2.64,-0.97l0.06 6.17c-1.33,0.49 -2.66,0.87 -3.98,1.1 -1.33,0.24 -2.64,0.36 -3.96,0.36 -3.33,0 -5.7,-0.86 -7.12,-2.58 -1.42,-1.7 -2.14,-4.67 -2.14,-8.84l0 -9.62z"/>
   <path class="fil2" d="M17.02 64.9l0 -26.2 8.21 0 0 3.28c1.29,-1.32 2.64,-2.29 4.07,-2.9 1.41,-0.61 3.04,-0.91 4.86,-0.91 2.88,0 5.08,0.86 6.61,2.62 1.54,1.73 2.29,4.25 2.29,7.51l0 16.6 -8.26 0 0 -15.47c0,-1.85 -0.3,-3.22 -0.89,-4.07 -0.61,-0.87 -1.54,-1.31 -2.83,-1.31 -1.14,0 -2.2,0.35 -3.18,1.04 -0.99,0.72 -1.88,1.74 -2.67,3.1l0 16.71 -8.21 0z"/>
   <polygon class="fil2" points="0.03,64.9 10.01,64.9 10.01,26.22 0.03,26.22 "/>
   <path class="fil3" d="M262.37 26.65c0,0 20.65,-4.62 30.66,14.84 1.61,2.74 5.5,19.01 -4.35,23.33 0,0 -11.26,3.9 -21.12,-8.32 0,0 -9.88,-13.07 -5.19,-29.85z"/>
   <path class="fil3" d="M266.25 12.62c-6.54,-8.51 -16.54,-12.51 -28.06,-12.51 -0.38,0 -0.77,0.01 -1.14,0.03 -0.71,2.03 -1.22,4.15 -1.51,6.35 -0.18,1.39 -0.29,2.81 -0.29,4.25 0,8.44 3.27,16.12 8.59,21.85 4.47,-4.81 10.39,-8.26 17.07,-9.61 1.61,-4.44 3.09,-7.19 5.34,-10.36z"/>
   <path class="fil2" d="M299.19 6.49c-0.13,-1.07 -0.33,-2.13 -0.58,-3.17 -0.26,-1.12 -0.59,-2.22 -0.96,-3.28 -0.37,-0.02 -0.73,-0.04 -1.1,-0.04 -6.56,0 -12.71,1.83 -17.94,5.02 -4.58,2.78 -8.45,6.61 -11.31,11.15 -0.16,0.25 -0.33,0.53 -0.49,0.79 -1.03,1.74 -1.92,3.59 -2.64,5.52 0.16,-0.01 0.32,-0.02 0.48,-0.03 0.9,-0.08 1.8,-0.12 2.72,-0.12 0.91,0 1.82,0.04 2.72,0.12 0.11,0 0.23,0.01 0.36,0.03 8.05,0.76 15.24,4.5 20.44,10.11 5.33,-5.73 8.59,-13.41 8.59,-21.85 0,-1.44 -0.1,-2.86 -0.29,-4.25z"/>
   <path class="fil3" d="M265.43 57.6c-10.9,-15.44 -5.93,-30.69 -5.93,-30.69 -9.26,2.02 -14.28,8.07 -14.28,8.07 -4.02,4.56 -5.97,8.92 -6.63,12.9 -0.19,1.04 -0.3,2.13 -0.3,3.24 0,0.09 0.01,0.42 0.04,0.91 0.04,0.79 0.14,1.55 0.29,2.25 0.75,4.17 3.15,11 10.79,11 0.28,0 0.57,-0.02 0.85,-0.05 0.05,0 0.09,0 0.15,0 4.04,-0.26 9.44,-2.04 15.02,-7.63z"/>
  </g>
 </g>
</svg>
