<svg xmlns="http://www.w3.org/2000/svg" viewBox="0 0 648 70"><defs><style>.a,.c{fill:#be4237;}.a,.b{fill-rule:evenodd;}.b{fill:#26456b;}</style></defs><title>Artboard 1 copy 7</title><path class="a" d="M55.87,27.08c-3.72,2.44-5.23,6.75-3.36,9.59s6.42,3.17,10.14.73,5.23-6.75,3.36-9.59-6.42-3.17-10.14-.73"/><path class="a" d="M56.33,46C40.66,48.28,37.81,32.56,45.22,21.3c7.39-11.43-.82-9.76-11.63-3.85-.45.23-1.26.79-.6.74,2.92-.23,5.25.48,6.31,2.19,1.42,2.27.26,5.77-2.63,9.14a20.93,20.93,0,0,1-4.11,3.79c-.64.48-1.32.94-2,1.39-7,4.37-14.52,5.08-16.71,1.57-.84-1.35-.78-3.13,0-5.05.09-.19,0-.18-.11-.11C5.46,38.16,1.63,44.25,12,42.7c9.61-1.09,17.69,4,23.51,7.25,19.58,11,35.9-.81,44.85-18,1.06-2-1.15-3.58-2.49-1.51C72.94,38,65.67,44.72,56.33,46"/><path class="b" d="M24.89,25.63c3-1.85,6.13-2.14,7.05-.66s-.74,4.19-3.7,6-6.13,2.14-7.05.66.74-4.19,3.7-6"/><path class="c" d="M108.25,36.17a10.22,10.22,0,0,1-.6,3.62,7.37,7.37,0,0,1-1.69,2.7,7.1,7.1,0,0,1-2.68,1.67,10.68,10.68,0,0,1-3.6.57,10.15,10.15,0,0,1-3.36-.53,7.14,7.14,0,0,1-2.6-1.57A6.85,6.85,0,0,1,92.06,40a10.2,10.2,0,0,1-.59-3.61V22.57a.43.43,0,0,1,.07-.24.45.45,0,0,1,.24-.16,2.55,2.55,0,0,1,.45-.1A4.67,4.67,0,0,1,93,22a4.75,4.75,0,0,1,.7,0,2.47,2.47,0,0,1,.46.1.44.44,0,0,1,.23.16.43.43,0,0,1,.07.24V36a8.84,8.84,0,0,0,.38,2.7,5,5,0,0,0,1.1,1.92A4.54,4.54,0,0,0,97.6,41.8a6.29,6.29,0,0,0,2.27.39,6.49,6.49,0,0,0,2.3-.38,4.37,4.37,0,0,0,1.7-1.14,5.09,5.09,0,0,0,1.07-1.87,8.37,8.37,0,0,0,.37-2.61V22.57a.42.42,0,0,1,.06-.24.47.47,0,0,1,.24-.16,2.71,2.71,0,0,1,.46-.1,4.73,4.73,0,0,1,.71,0,4.62,4.62,0,0,1,.7,0,2.31,2.31,0,0,1,.45.1.48.48,0,0,1,.24.16.4.4,0,0,1,.08.24m19,13.44a13.72,13.72,0,0,1-.44,3.62,8,8,0,0,1-1.29,2.74,5.72,5.72,0,0,1-2.09,1.74,6.47,6.47,0,0,1-2.84.6,6.28,6.28,0,0,1-1.37-.15A5,5,0,0,1,118,44.1a7.43,7.43,0,0,1-1.2-.82,13.83,13.83,0,0,1-1.27-1.21V44a.43.43,0,0,1-.07.24.48.48,0,0,1-.22.16,2,2,0,0,1-.39.09,4.89,4.89,0,0,1-1.17,0,2.21,2.21,0,0,1-.4-.09.4.4,0,0,1-.21-.16A.53.53,0,0,1,113,44V21a.45.45,0,0,1,.06-.24.42.42,0,0,1,.22-.18,1.9,1.9,0,0,1,.43-.1,5.63,5.63,0,0,1,.69,0,5.85,5.85,0,0,1,.71,0,1.85,1.85,0,0,1,.43.1.53.53,0,0,1,.22.18.4.4,0,0,1,.07.24v9.28a10.82,10.82,0,0,1,1.33-1.19,8.17,8.17,0,0,1,1.26-.79,5.5,5.5,0,0,1,1.24-.43,5.9,5.9,0,0,1,1.31-.14,5.8,5.8,0,0,1,2.88.67,5.62,5.62,0,0,1,1.94,1.8,7.87,7.87,0,0,1,1.09,2.64A14.12,14.12,0,0,1,127.24,36Zm-3,.33a14.83,14.83,0,0,0-.18-2.31,6.76,6.76,0,0,0-.63-2,3.85,3.85,0,0,0-1.19-1.38,3.07,3.07,0,0,0-1.84-.53,3.81,3.81,0,0,0-1.09.16,3.91,3.91,0,0,0-1.08.51,7.74,7.74,0,0,0-1.14.93,13,13,0,0,0-1.26,1.43v6.18a11.38,11.38,0,0,0,2.24,2.17,3.81,3.81,0,0,0,2.21.75,3.18,3.18,0,0,0,1.83-.52,3.89,3.89,0,0,0,1.23-1.37,6.69,6.69,0,0,0,.69-1.91A10.9,10.9,0,0,0,124.25,36.34Zm19.68-.79a1.2,1.2,0,0,1-.33,1,1.15,1.15,0,0,1-.76.28H132.67a9.7,9.7,0,0,0,.26,2.33,4.4,4.4,0,0,0,.86,1.77A3.87,3.87,0,0,0,135.36,42a6.22,6.22,0,0,0,2.36.39,9.4,9.4,0,0,0,2-.18,10.62,10.62,0,0,0,1.49-.41c.42-.15.76-.28,1-.4a1.63,1.63,0,0,1,.61-.18.37.37,0,0,1,.21.06.38.38,0,0,1,.15.18,1.29,1.29,0,0,1,.08.34c0,.14,0,.32,0,.52a3.65,3.65,0,0,1,0,.39c0,.11,0,.21,0,.29a.75.75,0,0,1-.09.23,1.18,1.18,0,0,1-.15.19,2.43,2.43,0,0,1-.56.31,8.6,8.6,0,0,1-1.2.42q-.74.2-1.71.37a12.89,12.89,0,0,1-2.07.16,9.67,9.67,0,0,1-3.35-.53,6.29,6.29,0,0,1-2.42-1.59A6.79,6.79,0,0,1,130.18,40a12.4,12.4,0,0,1-.5-3.68,11.76,11.76,0,0,1,.52-3.59,7.62,7.62,0,0,1,1.49-2.7,6.49,6.49,0,0,1,2.35-1.7,7.73,7.73,0,0,1,3.08-.59,7.4,7.4,0,0,1,3.11.59,5.9,5.9,0,0,1,2.11,1.57,6.28,6.28,0,0,1,1.21,2.32,10.17,10.17,0,0,1,.39,2.85Zm-2.85-.84a5.16,5.16,0,0,0-1-3.51A3.74,3.74,0,0,0,137,29.92a4.06,4.06,0,0,0-1.84.4,3.87,3.87,0,0,0-1.32,1,4.77,4.77,0,0,0-.83,1.52,6.5,6.5,0,0,0-.33,1.82ZM157,43.19a2.48,2.48,0,0,1-.05.56,2.32,2.32,0,0,1-.12.38.44.44,0,0,1-.19.21.54.54,0,0,1-.26.06h-9.53a.8.8,0,0,1-.59-.24,1.15,1.15,0,0,1-.23-.81v-.58a2.46,2.46,0,0,1,0-.43,2.28,2.28,0,0,1,.1-.38,3.46,3.46,0,0,1,.19-.41l.29-.49,6.83-10.64h-6.63a.48.48,0,0,1-.43-.28,1.9,1.9,0,0,1-.17-.92,3.69,3.69,0,0,1,0-.54,1.18,1.18,0,0,1,.11-.38.49.49,0,0,1,.19-.21.54.54,0,0,1,.26-.06h8.88a1,1,0,0,1,.34.05.57.57,0,0,1,.25.17,1,1,0,0,1,.17.31,1.83,1.83,0,0,1,.06.48v.55a2.7,2.7,0,0,1,0,.45,2.33,2.33,0,0,1-.11.4,2.23,2.23,0,0,1-.19.42c-.08.15-.18.32-.29.5L149.1,42h7.26a.51.51,0,0,1,.25.06.47.47,0,0,1,.19.2,1.26,1.26,0,0,1,.13.37A2.48,2.48,0,0,1,157,43.19ZM174.47,36a13.88,13.88,0,0,1-.44,3.65,8,8,0,0,1-1.29,2.75,5.85,5.85,0,0,1-2.11,1.74,6.54,6.54,0,0,1-2.88.61,5.39,5.39,0,0,1-1.27-.14,4.66,4.66,0,0,1-1.14-.43,6.27,6.27,0,0,1-1.11-.74c-.37-.3-.76-.65-1.17-1.05v7.75a.43.43,0,0,1-.07.24.58.58,0,0,1-.22.17,1.53,1.53,0,0,1-.43.11c-.19,0-.42,0-.71,0s-.5,0-.69,0a1.6,1.6,0,0,1-.43-.11.44.44,0,0,1-.22-.17.49.49,0,0,1-.06-.24V28.47a.48.48,0,0,1,.05-.25.44.44,0,0,1,.21-.16,1.33,1.33,0,0,1,.4-.09,5.92,5.92,0,0,1,1.17,0,1.25,1.25,0,0,1,.39.09.48.48,0,0,1,.22.16.43.43,0,0,1,.06.25v2.09a14.38,14.38,0,0,1,1.36-1.26,7.74,7.74,0,0,1,1.32-.89,6,6,0,0,1,1.36-.53,5.75,5.75,0,0,1,1.48-.18,5.83,5.83,0,0,1,2.87.66A5.37,5.37,0,0,1,173,30.14a8,8,0,0,1,1.09,2.64A14,14,0,0,1,174.47,36Zm-3,.33a14.64,14.64,0,0,0-.18-2.3,6.78,6.78,0,0,0-.62-2,3.74,3.74,0,0,0-1.18-1.37,3.15,3.15,0,0,0-1.84-.52,3.61,3.61,0,0,0-1.09.16,4.53,4.53,0,0,0-1.08.52,7.91,7.91,0,0,0-1.16.93,14.66,14.66,0,0,0-1.27,1.42v6.16a12,12,0,0,0,2.22,2.19,3.71,3.71,0,0,0,2.2.76,3.23,3.23,0,0,0,1.83-.52,4,4,0,0,0,1.24-1.38,6.91,6.91,0,0,0,.69-1.93A10.14,10.14,0,0,0,171.48,36.3ZM180.79,44a.36.36,0,0,1-.07.23.57.57,0,0,1-.22.16,1.57,1.57,0,0,1-.43.11,5.85,5.85,0,0,1-.71,0,5.62,5.62,0,0,1-.69,0,1.6,1.6,0,0,1-.43-.11.43.43,0,0,1-.22-.16.4.4,0,0,1-.06-.23V28.47a.43.43,0,0,1,.06-.22.38.38,0,0,1,.22-.17,1.61,1.61,0,0,1,.43-.11,5.63,5.63,0,0,1,.69,0,5.85,5.85,0,0,1,.71,0,1.57,1.57,0,0,1,.43.11.48.48,0,0,1,.22.17.38.38,0,0,1,.07.22Zm.32-20.73a1.87,1.87,0,0,1-.38,1.36,2,2,0,0,1-1.39.36A2,2,0,0,1,178,24.6a1.83,1.83,0,0,1-.37-1.33,1.87,1.87,0,0,1,.38-1.36,2,2,0,0,1,1.39-.36,2,2,0,0,1,1.37.35A1.83,1.83,0,0,1,181.11,23.24Zm17.34,12.31a1.2,1.2,0,0,1-.34,1,1.15,1.15,0,0,1-.76.28H187.2a9.75,9.75,0,0,0,.26,2.33,4.42,4.42,0,0,0,.86,1.77A3.88,3.88,0,0,0,189.88,42a6.22,6.22,0,0,0,2.36.39,9.4,9.4,0,0,0,2-.18,10.62,10.62,0,0,0,1.49-.41c.42-.15.76-.28,1-.4a1.63,1.63,0,0,1,.61-.18.37.37,0,0,1,.21.06.38.38,0,0,1,.15.18,1.28,1.28,0,0,1,.08.34c0,.14,0,.32,0,.52a3.67,3.67,0,0,1,0,.39c0,.11,0,.21,0,.29a.75.75,0,0,1-.09.23,1.19,1.19,0,0,1-.15.19,2.45,2.45,0,0,1-.56.31,8.63,8.63,0,0,1-1.2.42q-.74.2-1.71.37a12.89,12.89,0,0,1-2.07.16,9.67,9.67,0,0,1-3.35-.53,6.3,6.3,0,0,1-2.42-1.59A6.8,6.8,0,0,1,184.7,40a12.41,12.41,0,0,1-.5-3.68,11.74,11.74,0,0,1,.52-3.59,7.64,7.64,0,0,1,1.49-2.7,6.5,6.5,0,0,1,2.35-1.7,7.73,7.73,0,0,1,3.08-.59,7.4,7.4,0,0,1,3.11.59,5.9,5.9,0,0,1,2.11,1.57,6.3,6.3,0,0,1,1.21,2.32,10.18,10.18,0,0,1,.39,2.85Zm-2.85-.84a5.17,5.17,0,0,0-1-3.51,3.74,3.74,0,0,0-3.08-1.27,4.07,4.07,0,0,0-1.84.4,3.89,3.89,0,0,0-1.32,1,4.77,4.77,0,0,0-.83,1.52,6.47,6.47,0,0,0-.33,1.82Zm17.51,6.9c0,.2,0,.36,0,.51a2.28,2.28,0,0,1-.06.36,1.14,1.14,0,0,1-.11.26,1.51,1.51,0,0,1-.28.33,4.34,4.34,0,0,1-.73.53,7.15,7.15,0,0,1-1.16.56,8,8,0,0,1-1.4.41,7.64,7.64,0,0,1-1.57.16,7.5,7.5,0,0,1-3-.55,5.62,5.62,0,0,1-2.16-1.61,7.34,7.34,0,0,1-1.33-2.6,12.74,12.74,0,0,1-.45-3.55,12.19,12.19,0,0,1,.56-3.94A7.33,7.33,0,0,1,203,29.78a6,6,0,0,1,2.29-1.56,7.82,7.82,0,0,1,2.85-.51,7.24,7.24,0,0,1,1.44.14,7.67,7.67,0,0,1,1.28.36,5.54,5.54,0,0,1,1,.52,3.7,3.7,0,0,1,.66.5,1.66,1.66,0,0,1,.28.33.9.9,0,0,1,.13.28,1.69,1.69,0,0,1,.07.37c0,.13,0,.31,0,.52a2.05,2.05,0,0,1-.15.93.44.44,0,0,1-.38.27,1,1,0,0,1-.59-.28,8.35,8.35,0,0,0-.85-.63,6.3,6.3,0,0,0-1.25-.63,4.68,4.68,0,0,0-1.73-.29,3.59,3.59,0,0,0-3.14,1.57,8,8,0,0,0-1.09,4.57,10.89,10.89,0,0,0,.28,2.63,5.46,5.46,0,0,0,.83,1.89,3.46,3.46,0,0,0,1.35,1.13,4.33,4.33,0,0,0,1.83.37,4.45,4.45,0,0,0,1.72-.31,7,7,0,0,0,1.28-.68q.55-.37.92-.67a1.07,1.07,0,0,1,.58-.3.36.36,0,0,1,.21.06.52.52,0,0,1,.15.23,1.69,1.69,0,0,1,.08.41A5.79,5.79,0,0,1,213.11,41.6ZM226,43.19a2.48,2.48,0,0,1-.05.56,2.3,2.3,0,0,1-.12.38.44.44,0,0,1-.19.21.54.54,0,0,1-.26.06H215.8a.8.8,0,0,1-.59-.24,1.15,1.15,0,0,1-.23-.81v-.58a2.46,2.46,0,0,1,0-.43,2.13,2.13,0,0,1,.1-.38,3.41,3.41,0,0,1,.19-.41l.29-.49,6.83-10.64H215.8a.48.48,0,0,1-.43-.28,1.9,1.9,0,0,1-.16-.92,3.7,3.7,0,0,1,0-.54,1.19,1.19,0,0,1,.11-.38.5.5,0,0,1,.19-.21.54.54,0,0,1,.26-.06h8.88a1,1,0,0,1,.34.05.57.57,0,0,1,.25.17,1,1,0,0,1,.16.31,1.79,1.79,0,0,1,.06.48v.55a2.78,2.78,0,0,1,0,.45,2.33,2.33,0,0,1-.11.4,2.18,2.18,0,0,1-.19.42c-.08.15-.18.32-.29.5L218.07,42h7.26a.52.52,0,0,1,.25.06.48.48,0,0,1,.19.2,1.28,1.28,0,0,1,.13.37A2.47,2.47,0,0,1,226,43.19Zm15.67-7.64a1.19,1.19,0,0,1-.33,1,1.15,1.15,0,0,1-.76.28H230.37a9.69,9.69,0,0,0,.26,2.33,4.41,4.41,0,0,0,.86,1.77A3.88,3.88,0,0,0,233.05,42a6.21,6.21,0,0,0,2.36.39,9.4,9.4,0,0,0,2-.18,10.58,10.58,0,0,0,1.49-.41c.42-.15.76-.28,1-.4a1.64,1.64,0,0,1,.61-.18.37.37,0,0,1,.21.06.39.39,0,0,1,.15.18,1.26,1.26,0,0,1,.08.34c0,.14,0,.32,0,.52a3.67,3.67,0,0,1,0,.39c0,.11,0,.21,0,.29a.76.76,0,0,1-.09.23,1.2,1.2,0,0,1-.15.19,2.42,2.42,0,0,1-.56.31,8.62,8.62,0,0,1-1.2.42q-.74.2-1.71.37a12.9,12.9,0,0,1-2.07.16,9.66,9.66,0,0,1-3.35-.53,6.29,6.29,0,0,1-2.42-1.59A6.8,6.8,0,0,1,227.87,40a12.43,12.43,0,0,1-.5-3.68,11.74,11.74,0,0,1,.52-3.59,7.62,7.62,0,0,1,1.49-2.7,6.5,6.5,0,0,1,2.35-1.7,7.74,7.74,0,0,1,3.08-.59,7.4,7.4,0,0,1,3.11.59A5.91,5.91,0,0,1,240,29.86a6.3,6.3,0,0,1,1.21,2.32,10.2,10.2,0,0,1,.39,2.85Zm-2.85-.84a5.17,5.17,0,0,0-1-3.51,3.74,3.74,0,0,0-3.08-1.27,4.06,4.06,0,0,0-1.84.4,3.87,3.87,0,0,0-1.32,1,4.77,4.77,0,0,0-.83,1.52,6.53,6.53,0,0,0-.33,1.82ZM258.48,44a.36.36,0,0,1-.07.23.52.52,0,0,1-.22.16,1.55,1.55,0,0,1-.43.11,5.64,5.64,0,0,1-.69,0,5.82,5.82,0,0,1-.71,0,1.56,1.56,0,0,1-.43-.11.57.57,0,0,1-.22-.16.36.36,0,0,1-.07-.23V34.89a8.68,8.68,0,0,0-.21-2.13,4.39,4.39,0,0,0-.6-1.4,2.6,2.6,0,0,0-1-.89,3.23,3.23,0,0,0-1.45-.31,3.66,3.66,0,0,0-2.13.76A11.3,11.3,0,0,0,248,33.13V44a.37.37,0,0,1-.07.23.57.57,0,0,1-.22.16,1.57,1.57,0,0,1-.43.11,5.85,5.85,0,0,1-.71,0,5.64,5.64,0,0,1-.69,0,1.6,1.6,0,0,1-.43-.11.43.43,0,0,1-.22-.16.4.4,0,0,1-.06-.23V28.47a.48.48,0,0,1,.05-.23.51.51,0,0,1,.21-.17,1.17,1.17,0,0,1,.4-.1,5.9,5.9,0,0,1,.63,0,6,6,0,0,1,.63,0,1,1,0,0,1,.39.1.65.65,0,0,1,.2.17.48.48,0,0,1,.06.23v2.05a9.43,9.43,0,0,1,2.61-2.14,5.6,5.6,0,0,1,2.62-.68,5.79,5.79,0,0,1,2.61.53,4.7,4.7,0,0,1,1.72,1.4,5.64,5.64,0,0,1,.93,2.06,12,12,0,0,1,.29,2.83Zm7.22,0a.37.37,0,0,1-.07.23.58.58,0,0,1-.22.16,1.55,1.55,0,0,1-.43.11,5.84,5.84,0,0,1-.71,0,5.63,5.63,0,0,1-.69,0,1.6,1.6,0,0,1-.43-.11.43.43,0,0,1-.22-.16.4.4,0,0,1-.06-.23V28.47a.43.43,0,0,1,.06-.22.38.38,0,0,1,.22-.17,1.6,1.6,0,0,1,.43-.11,5.63,5.63,0,0,1,.69,0,5.84,5.84,0,0,1,.71,0,1.56,1.56,0,0,1,.43.11.49.49,0,0,1,.22.17.39.39,0,0,1,.07.22ZM266,23.24a1.87,1.87,0,0,1-.38,1.36,2,2,0,0,1-1.39.36,2,2,0,0,1-1.37-.35,1.83,1.83,0,0,1-.37-1.33,1.86,1.86,0,0,1,.38-1.36,2,2,0,0,1,1.39-.36,2,2,0,0,1,1.37.35A1.83,1.83,0,0,1,266,23.24ZM281.82,44a.35.35,0,0,1-.14.31.93.93,0,0,1-.38.16,3.57,3.57,0,0,1-.7.05,3.84,3.84,0,0,1-.72-.05.86.86,0,0,1-.39-.16.37.37,0,0,1-.12-.31V42.43a7.66,7.66,0,0,1-2.27,1.69,6,6,0,0,1-2.64.6,7,7,0,0,1-2.21-.32,4.8,4.8,0,0,1-1.69-.92A4.22,4.22,0,0,1,269.49,42a5,5,0,0,1-.38-2,4.66,4.66,0,0,1,.53-2.27,4.48,4.48,0,0,1,1.53-1.6,7.39,7.39,0,0,1,2.44-1,15.28,15.28,0,0,1,3.25-.32H279v-1.2a6.13,6.13,0,0,0-.19-1.59,2.7,2.7,0,0,0-.61-1.14,2.67,2.67,0,0,0-1.09-.69,5.15,5.15,0,0,0-1.65-.23,6.63,6.63,0,0,0-1.89.25,10.56,10.56,0,0,0-1.46.55c-.42.2-.77.38-1.05.55a1.44,1.44,0,0,1-.63.25.48.48,0,0,1-.24-.06.6.6,0,0,1-.18-.21,1.15,1.15,0,0,1-.11-.35,2.86,2.86,0,0,1,0-.47,2.92,2.92,0,0,1,.07-.68,1,1,0,0,1,.29-.48,3.64,3.64,0,0,1,.8-.52,9.21,9.21,0,0,1,1.3-.55,12.57,12.57,0,0,1,1.62-.41,9.41,9.41,0,0,1,1.77-.16,9.28,9.28,0,0,1,2.84.38,4.59,4.59,0,0,1,1.89,1.11A4.3,4.3,0,0,1,281.49,31a8.77,8.77,0,0,1,.33,2.53ZM279,36.91h-2.43a9.36,9.36,0,0,0-2,.19,4.33,4.33,0,0,0-1.43.59,2.46,2.46,0,0,0-.83.93,2.81,2.81,0,0,0-.27,1.25,2.5,2.5,0,0,0,.76,1.92,3,3,0,0,0,2.14.72,4,4,0,0,0,2.07-.57,8.9,8.9,0,0,0,2-1.74Z"/><path class="c" d="M309,28.64a7.81,7.81,0,0,1-.55,3,6.4,6.4,0,0,1-1.57,2.29,7.11,7.11,0,0,1-2.51,1.46,10.92,10.92,0,0,1-3.55.52h-2.53v8a.43.43,0,0,1-.08.24.53.53,0,0,1-.24.16,2.37,2.37,0,0,1-.45.1,4.61,4.61,0,0,1-.71,0,4.75,4.75,0,0,1-.72,0,2.48,2.48,0,0,1-.45-.1.4.4,0,0,1-.31-.41V23.39a1.19,1.19,0,0,1,.36-1,1.26,1.26,0,0,1,.81-.29h4.77c.48,0,.94,0,1.38.06a13.58,13.58,0,0,1,1.57.26,6.64,6.64,0,0,1,1.84.74,6,6,0,0,1,1.59,1.33,5.8,5.8,0,0,1,1,1.83,7.14,7.14,0,0,1,.35,2.3m-3.11.24a4.57,4.57,0,0,0-.51-2.27,3.49,3.49,0,0,0-1.26-1.36,4.09,4.09,0,0,0-1.55-.56,10.15,10.15,0,0,0-1.56-.12h-2.74v8.93H301a6.19,6.19,0,0,0,2.23-.34,4.17,4.17,0,0,0,1.49-1,4,4,0,0,0,.91-1.46A5.37,5.37,0,0,0,305.89,28.88ZM326.1,36a11.47,11.47,0,0,1-.5,3.48,7.65,7.65,0,0,1-1.48,2.75,6.71,6.71,0,0,1-2.48,1.8,8.64,8.64,0,0,1-3.45.65,9,9,0,0,1-3.33-.57,6,6,0,0,1-2.37-1.65,7.06,7.06,0,0,1-1.41-2.64,12.13,12.13,0,0,1-.46-3.51,11.9,11.9,0,0,1,.49-3.48,7.63,7.63,0,0,1,1.48-2.75,6.62,6.62,0,0,1,2.47-1.79,8.6,8.6,0,0,1,3.45-.64,8.86,8.86,0,0,1,3.33.57,6,6,0,0,1,2.37,1.65,7.09,7.09,0,0,1,1.42,2.63A11.94,11.94,0,0,1,326.1,36Zm-3,.19a11.84,11.84,0,0,0-.23-2.37,5.91,5.91,0,0,0-.76-2,3.85,3.85,0,0,0-1.44-1.33,4.75,4.75,0,0,0-2.27-.49,4.81,4.81,0,0,0-2.16.45,3.91,3.91,0,0,0-1.49,1.26,5.64,5.64,0,0,0-.87,1.94,10,10,0,0,0-.28,2.44,11.85,11.85,0,0,0,.23,2.39,5.51,5.51,0,0,0,.77,2,3.9,3.9,0,0,0,1.45,1.33,4.74,4.74,0,0,0,2.27.49,4.79,4.79,0,0,0,2.15-.45,4,4,0,0,0,1.5-1.26,5.37,5.37,0,0,0,.86-1.93A10.38,10.38,0,0,0,323.11,36.23Zm17.51,5.37c0,.2,0,.36,0,.51a2.3,2.3,0,0,1-.06.36,1.14,1.14,0,0,1-.11.26,1.49,1.49,0,0,1-.28.33,4.34,4.34,0,0,1-.73.53,7.11,7.11,0,0,1-1.16.56,8,8,0,0,1-1.4.41,7.64,7.64,0,0,1-1.57.16,7.5,7.5,0,0,1-3-.55,5.62,5.62,0,0,1-2.16-1.61,7.33,7.33,0,0,1-1.33-2.6,12.76,12.76,0,0,1-.45-3.55,12.2,12.2,0,0,1,.56-3.94,7.32,7.32,0,0,1,1.53-2.69,6,6,0,0,1,2.29-1.56,7.81,7.81,0,0,1,2.85-.51,7.24,7.24,0,0,1,1.44.14,7.67,7.67,0,0,1,1.28.36,5.56,5.56,0,0,1,1,.52,3.72,3.72,0,0,1,.66.5,1.65,1.65,0,0,1,.28.33.92.92,0,0,1,.13.28,1.65,1.65,0,0,1,.07.37c0,.13,0,.31,0,.52a2,2,0,0,1-.15.93.44.44,0,0,1-.38.27,1,1,0,0,1-.59-.28,8.37,8.37,0,0,0-.85-.63,6.32,6.32,0,0,0-1.24-.63,4.68,4.68,0,0,0-1.73-.29,3.59,3.59,0,0,0-3.14,1.57,8,8,0,0,0-1.09,4.57,10.9,10.9,0,0,0,.28,2.63,5.48,5.48,0,0,0,.83,1.89,3.46,3.46,0,0,0,1.35,1.13,4.33,4.33,0,0,0,1.83.37,4.45,4.45,0,0,0,1.72-.31,7,7,0,0,0,1.28-.68q.55-.37.92-.67a1.07,1.07,0,0,1,.58-.3.36.36,0,0,1,.21.06.53.53,0,0,1,.15.23,1.72,1.72,0,0,1,.08.41A5.6,5.6,0,0,1,340.63,41.6Zm12.85,1.59a2.47,2.47,0,0,1-.05.56,2.18,2.18,0,0,1-.12.38.45.45,0,0,1-.19.21.55.55,0,0,1-.26.06h-9.53a.8.8,0,0,1-.59-.24,1.16,1.16,0,0,1-.23-.81v-.58a2.39,2.39,0,0,1,0-.43,2.13,2.13,0,0,1,.1-.38,3.74,3.74,0,0,1,.19-.41l.29-.49,6.83-10.64h-6.63a.48.48,0,0,1-.43-.28,1.91,1.91,0,0,1-.17-.92,3.58,3.58,0,0,1,0-.54,1.2,1.2,0,0,1,.11-.38.5.5,0,0,1,.19-.21.54.54,0,0,1,.26-.06h8.88a1,1,0,0,1,.34.05.57.57,0,0,1,.25.17,1,1,0,0,1,.16.31A1.79,1.79,0,0,1,353,29v.55a2.68,2.68,0,0,1,0,.45,2.43,2.43,0,0,1-.11.4,2.15,2.15,0,0,1-.19.42c-.08.15-.18.32-.29.5L345.59,42h7.26a.51.51,0,0,1,.25.06.47.47,0,0,1,.19.2,1.24,1.24,0,0,1,.13.37A2.47,2.47,0,0,1,353.47,43.19Zm11.3-.36a4,4,0,0,1-.06.79.86.86,0,0,1-.21.43,1.2,1.2,0,0,1-.41.26,3.31,3.31,0,0,1-.63.2c-.23.05-.48.09-.75.13a6.61,6.61,0,0,1-2.86-.26,3.43,3.43,0,0,1-1.41-1,4,4,0,0,1-.8-1.64,9.71,9.71,0,0,1-.25-2.33V30.38h-2.17a.46.46,0,0,1-.41-.28,1.89,1.89,0,0,1-.15-.89,3.06,3.06,0,0,1,0-.55,1.7,1.7,0,0,1,.11-.37.44.44,0,0,1,.18-.21.5.5,0,0,1,.25-.06h2.16V24.34a.42.42,0,0,1,.06-.22.48.48,0,0,1,.22-.18,1.41,1.41,0,0,1,.44-.11,5.51,5.51,0,0,1,.69,0,5.72,5.72,0,0,1,.71,0,1.31,1.31,0,0,1,.43.11.56.56,0,0,1,.22.18.39.39,0,0,1,.07.22V28h4a.47.47,0,0,1,.24.06.51.51,0,0,1,.18.21,1.06,1.06,0,0,1,.11.37,3.75,3.75,0,0,1,0,.55,1.9,1.9,0,0,1-.15.89.46.46,0,0,1-.41.28h-4V39a5,5,0,0,0,.47,2.42,1.8,1.8,0,0,0,1.7.82,3.16,3.16,0,0,0,.71-.08l.55-.16.41-.16a.75.75,0,0,1,.31-.08.33.33,0,0,1,.16,0,.28.28,0,0,1,.12.16,1.55,1.55,0,0,1,.08.32A3.25,3.25,0,0,1,364.77,42.82Zm17-6.78a11.52,11.52,0,0,1-.5,3.48,7.67,7.67,0,0,1-1.49,2.75,6.71,6.71,0,0,1-2.48,1.8,8.63,8.63,0,0,1-3.45.65,9,9,0,0,1-3.33-.57,6,6,0,0,1-2.37-1.65,7.06,7.06,0,0,1-1.41-2.64,12.14,12.14,0,0,1-.46-3.51,11.93,11.93,0,0,1,.49-3.48,7.66,7.66,0,0,1,1.48-2.75,6.63,6.63,0,0,1,2.47-1.79,8.61,8.61,0,0,1,3.45-.64,8.86,8.86,0,0,1,3.33.57,6,6,0,0,1,2.37,1.65,7.09,7.09,0,0,1,1.42,2.63A11.91,11.91,0,0,1,381.78,36Zm-3,.19a11.82,11.82,0,0,0-.23-2.37,5.91,5.91,0,0,0-.76-2,3.85,3.85,0,0,0-1.44-1.33,4.75,4.75,0,0,0-2.27-.49,4.82,4.82,0,0,0-2.16.45,3.91,3.91,0,0,0-1.49,1.26,5.64,5.64,0,0,0-.87,1.94,10,10,0,0,0-.28,2.44,11.85,11.85,0,0,0,.23,2.39,5.51,5.51,0,0,0,.77,2,3.9,3.9,0,0,0,1.45,1.33,4.74,4.74,0,0,0,2.27.49,4.79,4.79,0,0,0,2.15-.45,4,4,0,0,0,1.5-1.26,5.36,5.36,0,0,0,.86-1.93A10.39,10.39,0,0,0,378.79,36.23Zm27.91-7.8a1.57,1.57,0,0,1,0,.29,3.26,3.26,0,0,1-.12.43L402,43.87a.71.71,0,0,1-.17.31.73.73,0,0,1-.31.19,2.16,2.16,0,0,1-.54.09c-.23,0-.52,0-.86,0s-.66,0-.9,0a2.79,2.79,0,0,1-.58-.11.64.64,0,0,1-.47-.48l-3.25-11.24,0-.15,0,.15-3,11.24a.71.71,0,0,1-.16.31.76.76,0,0,1-.34.19,2.73,2.73,0,0,1-.58.09c-.23,0-.52,0-.87,0a8.69,8.69,0,0,1-.87,0,2.6,2.6,0,0,1-.55-.11.63.63,0,0,1-.32-.19.8.8,0,0,1-.16-.29l-4.52-14.72a3.43,3.43,0,0,1-.12-.43,1.51,1.51,0,0,1,0-.29.4.4,0,0,1,.07-.25.49.49,0,0,1,.24-.16,1.54,1.54,0,0,1,.44-.08l.67,0c.32,0,.58,0,.77,0a1.71,1.71,0,0,1,.45.08.46.46,0,0,1,.22.18,1.48,1.48,0,0,1,.12.26L390,41.26l0,.15,0-.15,3.42-12.77a.58.58,0,0,1,.11-.26.47.47,0,0,1,.23-.18,1.68,1.68,0,0,1,.42-.08c.18,0,.41,0,.7,0s.5,0,.68,0a1.56,1.56,0,0,1,.42.08.44.44,0,0,1,.22.16.76.76,0,0,1,.11.24l3.7,12.81,0,.15v-.15l3.68-12.77a.81.81,0,0,1,.11-.26.51.51,0,0,1,.24-.18,1.84,1.84,0,0,1,.45-.08c.19,0,.43,0,.73,0l.66,0a1.09,1.09,0,0,1,.39.09.46.46,0,0,1,.21.15A.42.42,0,0,1,406.7,28.43Zm15.63,7.11a1.2,1.2,0,0,1-.34,1,1.15,1.15,0,0,1-.76.28H411.08a9.74,9.74,0,0,0,.26,2.33,4.41,4.41,0,0,0,.86,1.77A3.87,3.87,0,0,0,413.76,42a6.22,6.22,0,0,0,2.36.39,9.38,9.38,0,0,0,2-.18,10.56,10.56,0,0,0,1.49-.41c.42-.15.76-.28,1-.4a1.63,1.63,0,0,1,.61-.18.37.37,0,0,1,.21.06.38.38,0,0,1,.15.18,1.28,1.28,0,0,1,.08.34c0,.14,0,.32,0,.52a3.67,3.67,0,0,1,0,.39c0,.11,0,.21,0,.29a.76.76,0,0,1-.09.23,1.15,1.15,0,0,1-.15.19,2.42,2.42,0,0,1-.56.31,8.67,8.67,0,0,1-1.2.42q-.74.2-1.71.37a12.9,12.9,0,0,1-2.07.16,9.66,9.66,0,0,1-3.35-.53,6.29,6.29,0,0,1-2.42-1.59A6.8,6.8,0,0,1,408.58,40a12.43,12.43,0,0,1-.5-3.68,11.76,11.76,0,0,1,.52-3.59,7.65,7.65,0,0,1,1.49-2.7,6.5,6.5,0,0,1,2.35-1.7,7.74,7.74,0,0,1,3.08-.59,7.4,7.4,0,0,1,3.11.59,5.9,5.9,0,0,1,2.11,1.57,6.29,6.29,0,0,1,1.21,2.32,10.17,10.17,0,0,1,.39,2.85Zm-2.85-.84a5.17,5.17,0,0,0-1-3.51,3.74,3.74,0,0,0-3.08-1.27,4.06,4.06,0,0,0-1.84.4,3.87,3.87,0,0,0-1.32,1,4.77,4.77,0,0,0-.83,1.52,6.47,6.47,0,0,0-.33,1.82Z"/></svg>