<?xml version="1.0" encoding="UTF-8"?>
<!DOCTYPE svg PUBLIC "-//W3C//DTD SVG 1.1//EN" "http://www.w3.org/Graphics/SVG/1.1/DTD/svg11.dtd">
<!-- Creator: CorelDRAW 2018 (64-Bit) -->
<svg xmlns="http://www.w3.org/2000/svg" xml:space="preserve" width="300px" height="114px" version="1.1" style="shape-rendering:geometricPrecision; text-rendering:geometricPrecision; image-rendering:optimizeQuality; fill-rule:evenodd; clip-rule:evenodd"
viewBox="0 0 300.1 113.97"
 xmlns:xlink="http://www.w3.org/1999/xlink"
 enable-background="new 0 0 164.838 79.461">
 <defs>
  <style type="text/css">
   <![CDATA[
    .fil3 {fill:#0064A7}
    .fil1 {fill:#232021}
    .fil0 {fill:#E42313}
    .fil2 {fill:#FBBA00}
   ]]>
  </style>
 </defs>
 <g id="Warstwa_x0020_1">
  <metadata id="CorelCorpID_0Corel-Layer"/>
  <g id="_2178210910640">
   <g>
    <rect class="fil0" y="83.93" width="299.71" height="4.57"/>
    <g>
     <path class="fil1" d="M7.54 113.83l-1.97 0 -5.51 -16.04 2.64 0 3.85 11.67 3.86 -11.67 2.68 0 -5.55 16.04zm7.93 -16.04l2.54 0 0 16.04 -2.54 0 0 -16.04zm6.99 16.04l0 -16.04 10.7 0 0 2.18 -8.16 0 0 4.69 6.96 0 0 2.17 -6.96 0 0 4.81 8.16 0 0 2.19 -10.7 0zm24.54 0l-7.74 -11.29 0 11.29 -2.54 0 0 -16.04 2.33 0 7.74 11.26 0 -11.26 2.54 0 0 16.04 -2.33 0zm17.05 0l-7.74 -11.29 0 11.29 -2.54 0 0 -16.04 2.33 0 7.74 11.26 0 -11.26 2.54 0 0 16.04 -2.33 0zm16.4 0l-1.15 -3.22 -6.61 0 -1.16 3.22 -2.7 0 6.14 -16.04 2.05 0 6.14 16.04 -2.71 0zm-4.4 -12.41l-2.61 7.12 5.15 0 -2.54 -7.12zm15.25 -3.63l2.54 0 0 16.04 -2.54 0 0 -16.04zm17.27 16.04l-7.74 -11.29 0 11.29 -2.55 0 0 -16.04 2.33 0 7.74 11.26 0 -11.26 2.55 0 0 16.04 -2.33 0zm11.22 0.14c-2.52,0 -4.33,-0.56 -5.93,-2.12l1.69 -1.6c1.22,1.17 2.56,1.53 4.28,1.53 2.19,0 3.46,-0.9 3.46,-2.46 0,-0.69 -0.21,-1.28 -0.66,-1.66 -0.42,-0.39 -0.84,-0.54 -1.83,-0.68l-1.98 -0.27c-1.36,-0.18 -2.45,-0.63 -3.17,-1.28 -0.83,-0.75 -1.23,-1.76 -1.23,-3.07 0,-2.79 2.12,-4.71 5.6,-4.71 2.21,0 3.76,0.54 5.2,1.83l-1.63 1.53c-1.03,-0.95 -2.23,-1.24 -3.64,-1.24 -1.98,0 -3.06,1.08 -3.06,2.5 0,0.59 0.19,1.11 0.64,1.49 0.42,0.36 1.1,0.63 1.88,0.74l1.9 0.27c1.56,0.23 2.43,0.59 3.14,1.2 0.91,0.76 1.36,1.91 1.36,3.29 0,2.95 -2.52,4.71 -6.02,4.71l0 0zm15.22 0c-3.41,0 -6,-2.23 -6,-5.55l0 -10.63 2.54 0 0 10.52c0,2.14 1.36,3.47 3.46,3.47 2.09,0 3.48,-1.33 3.48,-3.47l0 -10.52 2.54 0 0 10.63c0,3.32 -2.61,5.55 -6.02,5.55l0 0zm19.45 -0.14l-3.53 -6.76 -3.17 0 0 6.76 -2.54 0 0 -16.04 6.49 0c3.18,0 5.2,1.96 5.2,4.68 0,2.3 -1.46,3.77 -3.34,4.26l3.86 7.1 -2.97 0zm-2.93 -13.86l-3.77 0 0 5.03 3.77 0c1.69,0 2.84,-0.93 2.84,-2.51 0,-1.57 -1.15,-2.52 -2.84,-2.52l0 0zm18.77 13.86l-1.15 -3.22 -6.61 0 -1.16 3.22 -2.7 0 6.14 -16.04 2.05 0 6.13 16.04 -2.7 0zm-4.4 -12.41l-2.61 7.12 5.15 0 -2.54 -7.12zm19.81 12.41l-7.74 -11.29 0 11.29 -2.55 0 0 -16.04 2.34 0 7.74 11.26 0 -11.26 2.54 0 0 16.04 -2.33 0zm12.18 0.14c-1.73,0 -3.24,-0.61 -4.4,-1.71 -1.65,-1.58 -1.62,-3.36 -1.62,-6.45 0,-3.09 -0.03,-4.87 1.62,-6.45 1.15,-1.1 2.67,-1.71 4.4,-1.71 2.09,0 3.44,0.72 4.69,1.89l-1.7 1.65c-0.87,-0.83 -1.6,-1.35 -2.99,-1.35 -0.98,0 -1.87,0.36 -2.46,0.97 -0.83,0.85 -0.99,1.78 -0.99,5 0,3.22 0.16,4.15 0.99,5 0.59,0.61 1.48,0.97 2.46,0.97 1.39,0 2.12,-0.52 2.99,-1.35l1.7 1.64c-1.25,1.17 -2.59,1.9 -4.69,1.9l0 0zm8.17 -0.14l0 -16.04 10.7 0 0 2.18 -8.16 0 0 4.69 6.96 0 0 2.17 -6.96 0 0 4.81 8.16 0 0 2.19 -10.7 0zm29.92 -1.71c-1.17,1.2 -2.73,1.85 -4.56,1.85 -1.74,0 -3.25,-0.61 -4.4,-1.71 -1.65,-1.58 -1.62,-3.36 -1.62,-6.45 0,-3.09 -0.03,-4.87 1.62,-6.45 1.15,-1.1 2.61,-1.71 4.4,-1.71 2.28,0 3.55,0.68 5.06,2.12l-1.72 1.65c-1.06,-1.02 -1.84,-1.58 -3.34,-1.58 -0.99,0 -1.91,0.38 -2.49,0.99 -0.83,0.86 -0.99,1.76 -0.99,4.98 0,3.22 0.16,4.14 0.99,5 0.58,0.61 1.5,0.97 2.49,0.97 1.11,0 2.02,-0.41 2.68,-1.13 0.62,-0.65 0.83,-1.55 0.83,-2.55l0 -0.87 -3.51 0 0 -2.08 6.05 0 0 2.42c-0.01,2.07 -0.38,3.42 -1.49,4.55l0 0zm14.43 1.71l-3.54 -6.76 -3.17 0 0 6.76 -2.54 0 0 -16.04 6.5 0c3.17,0 5.19,1.96 5.19,4.68 0,2.3 -1.45,3.77 -3.34,4.26l3.86 7.1 -2.96 0zm-2.95 -13.86l-3.76 0 0 5.03 3.76 0c1.7,0 2.85,-0.93 2.85,-2.51 0,-1.57 -1.15,-2.52 -2.85,-2.52l0 0zm19.01 12.29c-1.15,1.1 -2.63,1.71 -4.42,1.71 -1.78,0 -3.24,-0.61 -4.4,-1.71 -1.65,-1.58 -1.62,-3.36 -1.62,-6.45 0,-3.09 -0.02,-4.87 1.62,-6.45 1.15,-1.1 2.61,-1.71 4.4,-1.71 1.79,0 3.27,0.61 4.42,1.71 1.66,1.58 1.6,3.36 1.6,6.45 0,3.09 0.05,4.87 -1.6,6.45l0 0zm-1.93 -11.43c-0.58,-0.61 -1.5,-0.99 -2.49,-0.99 -0.99,0 -1.9,0.38 -2.49,0.99 -0.83,0.86 -0.99,1.76 -0.99,4.98 0,3.22 0.16,4.12 0.99,4.98 0.59,0.61 1.5,0.99 2.49,0.99 0.99,0 1.91,-0.38 2.49,-0.99 0.83,-0.86 0.99,-1.76 0.99,-4.98 0,-3.22 -0.16,-4.12 -0.99,-4.98l0 0zm13.09 13.14c-3.42,0 -6,-2.23 -6,-5.55l0 -10.63 2.54 0 0 10.52c0,2.14 1.36,3.47 3.46,3.47 2.09,0 3.48,-1.33 3.48,-3.47l0 -10.52 2.54 0 0 10.63c0,3.32 -2.62,5.55 -6.02,5.55l0 0zm16.56 -6.45l-3.81 0 0 6.31 -2.54 0 0 -16.04 6.35 0c3.27,0 5.36,2.07 5.36,4.86 0,2.8 -2.09,4.87 -5.36,4.87l0 0zm-0.14 -7.55l-3.67 0 0 5.35 3.67 0c1.76,0 2.96,-0.97 2.96,-2.67 0,-1.68 -1.2,-2.68 -2.96,-2.68z"/>
    </g>
    <g>
     <path class="fil2" d="M265 64.26l0 3.04c2.93,-0.27 5.2,-0.89 6.45,-1.25 1.64,-0.46 4.72,-1.32 8.81,-1.32 2.78,0 5.12,0.38 6.84,0.82 0.89,-0.79 1.79,-1.61 2.61,-2.46 -1.83,-0.51 -5.11,-1.41 -9.45,-1.41 -4.52,0 -7.84,0.94 -9.64,1.45 -1.21,0.31 -3.12,0.86 -5.62,1.13l0 0zm0 5.7l0 3.04c2.93,-0.31 5.2,-0.94 6.45,-1.25 1.59,-0.47 4.52,-1.28 8.42,-1.33 1.6,-0.81 3.09,-1.75 4.53,-2.77 -1.24,-0.16 -2.61,-0.27 -4.14,-0.27 -4.52,0 -7.84,0.94 -9.64,1.45 -1.21,0.3 -3.12,0.85 -5.62,1.13l0 0zm0 -28.11l0 3.08c2.93,-0.31 5.2,-0.93 6.45,-1.28 1.64,-0.47 4.72,-1.29 8.81,-1.29 4.07,0 7.15,0.82 8.83,1.29 1.76,0.5 5.11,1.44 9.6,1.44 0.2,0 0.39,0 0.59,-0.04 0.23,-0.98 0.39,-1.99 0.5,-3.04 -0.35,0.04 -0.7,0.04 -1.09,0.04 -4.06,0 -7.14,-0.86 -8.82,-1.33 -1.41,-0.39 -3.79,-1.06 -6.96,-1.29l-5.34 0c-3.16,0.23 -5.54,0.9 -6.95,1.29 -1.21,0.35 -3.12,0.86 -5.62,1.13l0 0zm0 11.56l0 3.04c2.93,-0.31 5.2,-0.94 6.45,-1.29 1.64,-0.43 4.72,-1.29 8.81,-1.29 4.07,0 7.15,0.86 8.83,1.29 1.21,0.35 3.16,0.9 5.74,1.21 0.54,-0.94 1.09,-1.91 1.56,-2.89 -2.93,-0.23 -5.19,-0.86 -6.52,-1.25 -1.79,-0.46 -5.11,-1.4 -9.6,-1.4 -4.53,0 -7.85,0.94 -9.64,1.4 -1.22,0.35 -3.13,0.86 -5.63,1.18l0 0zm0 5.27l0 3.04c2.93,-0.31 5.2,-0.94 6.45,-1.25 1.64,-0.47 4.72,-1.33 8.81,-1.33 4.07,0 7.15,0.86 8.83,1.33 0.62,0.15 1.44,0.39 2.42,0.59 0.7,-0.86 1.4,-1.76 2.03,-2.66 -1.56,-0.27 -2.81,-0.62 -3.67,-0.86 -1.8,-0.5 -5.11,-1.44 -9.61,-1.44 -4.52,0 -7.84,0.94 -9.63,1.44 -1.22,0.32 -3.13,0.86 -5.63,1.14l0 0zm0 -11.01l0 3.08c2.89,-0.31 5.08,-0.9 6.45,-1.28 1.64,-0.48 4.72,-1.33 8.81,-1.33 4.07,0 7.15,0.86 8.83,1.33 1.6,0.46 4.53,1.24 8.43,1.4 0.39,-0.98 0.74,-1.99 1.05,-3.01 -4.02,-0.04 -7.06,-0.86 -8.7,-1.32 -1.8,-0.51 -5.11,-1.41 -9.61,-1.41 -4.52,0 -7.84,0.89 -9.64,1.41 -1.21,0.34 -3.12,0.85 -5.62,1.13l0 0zm0 -47.47l0 3.04c2.89,-0.27 5.08,-0.9 6.45,-1.25 0.54,-0.15 1.28,-0.39 2.14,-0.58 -2.31,-0.71 -4.72,-1.17 -7.19,-1.41 -0.42,0.08 -0.93,0.12 -1.4,0.2l0 0zm0 5.27l0 3.04c2.93,-0.27 5.2,-0.9 6.45,-1.25 1.64,-0.47 4.72,-1.33 8.81,-1.33 1.18,0 2.23,0.08 3.24,0.2 -1.79,-1.22 -3.66,-2.27 -5.65,-3.12 -3.33,0.23 -5.78,0.93 -7.23,1.32 -1.21,0.32 -3.12,0.86 -5.62,1.14l0 0zm0 5.46l0 3.01c2.93,-0.23 5.2,-0.86 6.45,-1.21 1.64,-0.47 4.72,-1.33 8.81,-1.33 4.07,0 7.15,0.86 8.83,1.33 0.62,0.15 1.44,0.39 2.42,0.62 -1.25,-1.48 -2.58,-2.89 -4.06,-4.17 -1.84,-0.4 -4.26,-0.83 -7.19,-0.83 -4.52,0 -7.84,0.94 -9.63,1.45 -1.22,0.31 -3.13,0.86 -5.63,1.13l0 0zm0 5.42l0 3.09c2.93,-0.31 5.2,-0.94 6.45,-1.29 1.64,-0.43 4.72,-1.29 8.81,-1.29 4.07,0 7.15,0.86 8.83,1.29 1.33,0.4 3.59,1.02 6.56,1.29 -0.63,-1.13 -1.29,-2.26 -2.03,-3.32 -1.6,-0.27 -2.86,-0.63 -3.75,-0.9 -1.8,-0.47 -5.11,-1.36 -9.61,-1.36 -4.52,0 -7.84,0.89 -9.64,1.36 -1.21,0.36 -3.12,0.86 -5.62,1.13l0 0zm0 5.74l0 3.05c2.93,-0.31 5.2,-0.94 6.45,-1.24 1.64,-0.47 4.72,-1.33 8.81,-1.33 4.07,0 7.15,0.86 8.83,1.33 1.72,0.46 4.88,1.32 9.1,1.4 -0.36,-1.06 -0.75,-2.07 -1.17,-3.09 -3.24,-0.19 -5.71,-0.85 -7.15,-1.25 -1.79,-0.5 -5.11,-1.44 -9.6,-1.44 -4.53,0 -7.85,0.94 -9.64,1.44 -1.22,0.32 -3.13,0.86 -5.63,1.13l0 0zm0 11.56l0 1.76 6.48 0c1.69,-0.47 4.73,-1.29 8.78,-1.29 4.03,0 7.07,0.82 8.75,1.29l11.09 0c-0.04,-0.55 -0.08,-1.09 -0.12,-1.64 -0.43,0.04 -0.86,0.04 -1.29,0.04 -4.06,0 -7.14,-0.86 -8.82,-1.33 -1.8,-0.47 -5.12,-1.4 -9.61,-1.4 -4.52,0 -7.84,0.93 -9.64,1.4 -1.21,0.35 -3.12,0.9 -5.62,1.17l0 0zm0 -5.85l0 3.04c2.93,-0.27 5.2,-0.9 6.45,-1.25 1.64,-0.47 4.72,-1.33 8.81,-1.33 4.07,0 7.15,0.86 8.83,1.33 1.79,0.51 5.11,1.41 9.6,1.41l0.9 0c-0.16,-1.02 -0.36,-2.03 -0.63,-3.05 -0.07,0.04 -0.15,0.04 -0.27,0.04 -4.06,0 -7.14,-0.86 -8.82,-1.33 -1.8,-0.5 -5.12,-1.4 -9.61,-1.4 -4.52,0 -7.84,0.9 -9.64,1.4 -1.21,0.32 -3.12,0.86 -5.62,1.14l0 0zm-4.02 -19.13l0 -3.05c-3.71,-0.07 -6.52,-0.86 -8.04,-1.29 -1.25,-0.35 -3.17,-0.86 -5.7,-1.17 -1.8,0.78 -3.48,1.75 -5.08,2.81 0.36,-0.04 0.75,-0.04 1.14,-0.04 4.06,0 7.14,0.86 8.82,1.33 1.56,0.43 4.72,1.29 8.86,1.41l0 0zm-22.52 0.08c-1.45,1.21 -2.78,2.53 -4.03,3.98l0.04 0c1.64,-0.47 4.73,-1.33 8.83,-1.33 4.06,0 7.14,0.86 8.82,1.33 1.56,0.43 4.72,1.25 8.86,1.37l0 -3.01c-3.71,-0.08 -6.51,-0.86 -8.04,-1.29 -1.79,-0.51 -5.15,-1.45 -9.64,-1.45 -1.8,0 -3.44,0.16 -4.84,0.4l0 0zm-6.33 6.91c-0.82,1.13 -1.56,2.3 -2.23,3.55 2,-0.32 3.52,-0.75 4.57,-1.06 1.64,-0.43 4.73,-1.29 8.83,-1.29 4.06,0 7.14,0.86 8.82,1.29 1.56,0.43 4.72,1.33 8.86,1.45l0 -3.05c-3.71,-0.12 -6.52,-0.9 -8.04,-1.33 -1.79,-0.47 -5.15,-1.36 -9.64,-1.36 -4.49,0 -7.85,0.89 -9.65,1.36 -0.43,0.12 -0.93,0.27 -1.52,0.44l0 0zm-3.63 6.36c-0.47,1.05 -0.9,2.11 -1.25,3.2 3.27,-0.24 5.78,-0.94 7.22,-1.33 1.64,-0.47 4.73,-1.33 8.83,-1.33 4.1,0 7.14,0.86 8.82,1.33 1.56,0.43 4.72,1.29 8.86,1.41l0 -3.05c-3.71,-0.12 -6.51,-0.86 -8.04,-1.29 -1.79,-0.51 -5.15,-1.44 -9.64,-1.44 -4.49,0 -7.85,0.93 -9.65,1.44 -1.09,0.32 -2.89,0.79 -5.15,1.06l0 0zm-2.03 5.89c-0.27,1.01 -0.47,2.03 -0.66,3.09 4.02,-0.12 6.99,-0.94 8.66,-1.41 1.64,-0.47 4.73,-1.33 8.83,-1.33 4.1,0 7.14,0.86 8.82,1.33 1.56,0.43 4.72,1.29 8.86,1.41l0 -3.05c-3.71,-0.08 -6.52,-0.86 -8.04,-1.29 -1.79,-0.5 -5.15,-1.4 -9.64,-1.4 -4.49,0 -7.85,0.9 -9.65,1.4 -1.4,0.39 -3.9,1.09 -7.18,1.25l0 0zm16.83 3.16c-4.49,0 -7.85,0.94 -9.65,1.41 -1.56,0.47 -4.41,1.25 -8.2,1.33 -0.04,0.54 -0.07,1.05 -0.11,1.6l9.17 -0.01c1.68,-0.46 4.72,-1.28 8.78,-1.28 4.03,0 7.11,0.82 8.75,1.28l8.94 0 0 -1.59c-3.71,-0.12 -6.52,-0.9 -8.04,-1.33 -1.79,-0.47 -5.15,-1.41 -9.64,-1.41l0 0zm17.68 -30.72c-1.09,-0.04 -2.11,-0.12 -3,-0.23 -2.42,0.31 -4.73,0.82 -6.95,1.56 0.38,0.12 0.78,0.19 1.09,0.31 1.68,0.47 4.76,1.29 8.86,1.41l0 -3.05z"/>
    </g>
    <g>
     <path class="fil3" d="M239.36 7.99c-9.21,6.41 -15.38,16.9 -15.96,28.85l35.64 0 0 -1.44 -33.69 0c0.51,-11.13 5.89,-20.96 14.01,-27.41l0 0zm25.66 -6.48c-0.67,-0.08 -1.3,-0.15 -1.96,-0.19l0 35.52 35.1 0c-0.04,-0.46 -0.08,-0.97 -0.12,-1.44l-33.02 0 0 -33.89zm0 39.23l-1.96 0 0 35.1c7.15,-0.43 13.75,-2.85 19.25,-6.71 -5.12,3.12 -11.01,5.07 -17.29,5.46l0 -0.2 0 -33.65z"/>
    </g>
    <g>
     <path class="fil3" d="M82.02 74.64l-7.33 0 0 -31.94 7.33 0 0 31.94zm81.1 -38.79c0,2.25 -1.84,4.09 -4.14,4.09 -2.24,0 -4.08,-1.84 -4.08,-4.19 0,-2.19 1.84,-4.04 4.18,-4.04 2.2,0 4.04,1.9 4.04,4.14l0 0zm-140.45 18.19c0,6.31 -4.69,11.86 -11.01,11.86 -0.32,0 -1.26,-0.05 -1.58,-0.05l-2.67 0 0 8.89 -7.3 0 0 -31.93 10.7 0c7.04,0.02 11.86,3.89 11.86,11.23l0 0zm-7.31 -0.05c0,-2.98 -1.04,-4.52 -5.01,-4.52l-2.94 0 0 9.4 1.49 0 2.53 0c2.85,0.01 3.93,-2.26 3.93,-4.88l0 0zm41.91 20.63c5.18,0.01 10.37,0.01 15.56,0.02l0 -6.86 -8.28 0 0 -25.08 -7.29 0 0 19.49 0.01 12.43zm32.83 -17.66c-1.35,-1.49 -2.3,-3.48 -2.3,-5.69 0,-4.64 3.84,-8.43 8.48,-8.43l10.44 -0.05 0 6.84 -9.44 0c-1.63,0 -2.26,1.82 -1,2.95l9.54 7.89c1.89,1.56 2.41,3.88 2.41,5.96 0,4.59 -3.74,8.21 -8.34,8.21l-1.67 0 -10.51 0 0 -6.82 9.75 0c2.12,0.32 2.52,-2.16 1.48,-3.15 -0.99,-1.04 -5.54,-4.82 -6.54,-5.6l-2.3 -2.11zm39.98 17.68c-0.48,-1.64 -0.96,-3.28 -1.45,-4.91l-11.44 0 -1.41 4.91 -7.45 0 7.71 -26.84c0.03,-0.12 0.06,-0.24 0.09,-0.37 1.13,-3.33 3.06,-5.67 6.77,-5.67 3.65,0 5.68,2.34 6.8,5.67l0.09 0.37 7.67 26.84 -7.38 0zm-7.16 -25.52l-3.79 13.77 7.6 0 -3.81 -13.77zm62.04 25.52l0 -12.49 9.98 -19.31 -8.12 0 -5.37 11.19 -0.05 0 -5.41 -11.19 -8.12 0 9.96 19.31 0 12.49 7.13 0zm53.31 -31.89l18.4 0 0 6.82 -11.01 0 0 5.29 10.33 0 0 7.04 -10.73 0 0 6.05 11.41 0 0 6.73 -18.4 0 0 -31.93 0 0zm-89.72 17.91l0 -7.04 -11.81 0 2.08 7.04 9.73 0zm3.49 13.98c-3.99,0 -5.48,-4.38 -3.53,-7.45l11.25 -17.72 -10.97 0 0 -6.63 15 -0.03c4.92,-0.01 6.06,4.37 4.37,7.07l-11.16 17.83 11.8 0 0 6.93 -16.76 0zm59.84 -10.83c0.02,2.68 -2.2,4.54 -4.34,4.51 -4.43,-0.06 -5.57,-4.24 -5.57,-9.61 0,-5.36 0.92,-9.49 5.58,-9.51 1.32,-0.01 4.37,0.93 4.37,4.46l7.41 0c0.09,-8.42 -5.99,-11.41 -11.9,-11.41 -8.93,0 -13.02,7.36 -13.02,16.46 0,9.16 3.9,16.71 13.05,16.56 6.19,-0.11 11.76,-4.01 11.86,-11.47l-7.44 0.01zm-160.01 -5.08c0,8.75 -4.19,16.45 -13.16,16.45 -9.2,0 -13.76,-7.45 -13.76,-16.56 0,-9.2 4.47,-16.46 13.8,-16.46 9.25,0 13.12,7.19 13.12,16.57l0 0zm-19.55 -0.11c0,5.28 1.16,9.52 6.34,9.52 5.01,0 5.89,-4.5 5.89,-9.51 0,-5.36 -0.65,-9.44 -5.84,-9.44 -5.28,0 -6.39,4.11 -6.39,9.43l0 0zm198.71 16.02l-7.32 0 0 -31.94 7.32 0 0 31.94z"/>
    </g>
   </g>
  </g>
 </g>
</svg>
