<?xml version="1.0" encoding="UTF-8"?>
<!DOCTYPE svg PUBLIC "-//W3C//DTD SVG 1.1//EN" "http://www.w3.org/Graphics/SVG/1.1/DTD/svg11.dtd">
<!-- Creator: CorelDRAW 2018 (64-Bit) -->
<svg xmlns="http://www.w3.org/2000/svg" xml:space="preserve" width="300px" height="119px" version="1.1" style="shape-rendering:geometricPrecision; text-rendering:geometricPrecision; image-rendering:optimizeQuality; fill-rule:evenodd; clip-rule:evenodd"
viewBox="0 0 299.83 118.64"
 xmlns:xlink="http://www.w3.org/1999/xlink">
 <defs>
  <style type="text/css">
   <![CDATA[
    .fil1 {fill:#ED6E00;fill-rule:nonzero}
    .fil2 {fill:#006338;fill-rule:nonzero}
    .fil3 {fill:#7DBA00;fill-rule:nonzero}
    .fil0 {fill:#003659;fill-rule:nonzero}
   ]]>
  </style>
 </defs>
 <g id="Warstwa_x0020_1">
  <metadata id="CorelCorpID_0Corel-Layer"/>
  <g id="_2178210258208">
   <path class="fil0" d="M10.11 91.85c1.05,0.1 1.98,0.18 2.77,0.22 0.79,0.05 1.95,0.08 3.47,0.08 2.04,0 4.08,-0.16 6.09,-0.49 2.02,-0.32 3.82,-0.9 5.4,-1.74 1.59,-0.84 2.86,-1.99 3.82,-3.45 0.95,-1.46 1.43,-3.35 1.43,-5.68 0,-2.02 -0.41,-3.73 -1.23,-5.12 -0.83,-1.38 -1.97,-2.5 -3.42,-3.34 -1.46,-0.84 -3.21,-1.43 -5.25,-1.78 -2.05,-0.34 -4.27,-0.52 -6.64,-0.52 -2.45,0 -4.59,0.08 -6.44,0.23l0 21.59zm-10.11 -27.53c0.99,-0.1 2.16,-0.2 3.52,-0.3 1.35,-0.1 2.77,-0.19 4.26,-0.26 1.49,-0.07 2.97,-0.13 4.46,-0.18 1.48,-0.05 2.92,-0.08 4.31,-0.08 3.63,0 7.08,0.27 10.35,0.82 3.27,0.54 6.14,1.49 8.62,2.82 2.48,1.33 4.44,3.1 5.9,5.3 1.45,2.21 2.18,4.97 2.18,8.28 0,3.46 -0.78,6.35 -2.33,8.65 -1.55,2.29 -3.6,4.14 -6.14,5.52 -2.55,1.39 -5.44,2.37 -8.68,2.94 -3.23,0.56 -6.53,0.85 -9.9,0.85 -1.26,0 -2.37,-0.01 -3.32,-0.04 -0.96,-0.02 -2,-0.08 -3.12,-0.18l0 19.29c-1.59,0.15 -3.27,0.22 -5.06,0.22 -0.79,0 -1.63,-0.01 -2.52,-0.04 -0.9,-0.02 -1.74,-0.08 -2.53,-0.18l0 -53.43z"/>
   <path class="fil0" d="M51.23 79.68c0.72,-0.1 1.42,-0.17 2.08,-0.22 0.66,-0.05 1.35,-0.08 2.08,-0.08 0.73,0 1.45,0.03 2.18,0.08 0.72,0.05 1.39,0.12 1.98,0.22 0.2,0.74 0.4,1.72 0.59,2.93 0.2,1.21 0.3,2.24 0.3,3.08 1.39,-1.68 3.22,-3.14 5.5,-4.38 2.28,-1.23 5.2,-1.85 8.77,-1.85 0.53,0 1.07,0.01 1.64,0.04 0.56,0.02 1.04,0.06 1.43,0.11 0.14,0.44 0.23,0.91 0.3,1.41 0.07,0.49 0.1,1.01 0.1,1.56 0,0.59 -0.05,1.21 -0.15,1.85 -0.1,0.64 -0.22,1.26 -0.34,1.86 -0.54,-0.1 -1.08,-0.15 -1.64,-0.15l-1.34 0c-1.78,0 -3.48,0.18 -5.1,0.55 -1.62,0.38 -3.08,1.03 -4.36,1.97 -1.29,0.94 -2.31,2.23 -3.07,3.86 -0.76,1.63 -1.14,3.73 -1.14,6.31l0 18.92c-0.73,0.1 -1.54,0.17 -2.43,0.22 -0.89,0.05 -1.7,0.08 -2.43,0.08 -0.73,0 -1.53,-0.03 -2.43,-0.08 -0.89,-0.05 -1.73,-0.12 -2.52,-0.22l0 -38.07z"/>
   <path class="fil0" d="M103.15 112.78c4.55,0 7.92,-1.24 10.1,-3.71 2.18,-2.47 3.28,-5.91 3.28,-10.32 0,-4.4 -1.1,-7.83 -3.28,-10.28 -2.18,-2.45 -5.55,-3.67 -10.1,-3.67 -4.56,0 -7.91,1.22 -10.06,3.67 -2.15,2.45 -3.22,5.88 -3.22,10.28 0,4.41 1.07,7.85 3.22,10.32 2.15,2.47 5.5,3.71 10.06,3.71zm0 5.86c-3.96,0 -7.43,-0.51 -10.4,-1.52 -2.98,-1.01 -5.46,-2.41 -7.44,-4.19 -1.98,-1.79 -3.45,-3.89 -4.41,-6.31 -0.96,-2.43 -1.43,-5.05 -1.43,-7.87 0,-2.82 0.47,-5.44 1.43,-7.86 0.96,-2.43 2.43,-4.53 4.41,-6.31 1.98,-1.78 4.46,-3.19 7.44,-4.23 2.97,-1.04 6.44,-1.56 10.4,-1.56 3.96,0 7.43,0.52 10.4,1.56 2.98,1.04 5.45,2.45 7.44,4.23 1.98,1.78 3.45,3.88 4.4,6.31 0.96,2.42 1.44,5.04 1.44,7.86 0,2.82 -0.48,5.44 -1.44,7.87 -0.95,2.42 -2.42,4.52 -4.4,6.31 -1.99,1.78 -4.46,3.18 -7.44,4.19 -2.97,1.01 -6.44,1.52 -10.4,1.52z"/>
   <path class="fil0" d="M162.5 99.87c-0.99,-0.1 -2.24,-0.2 -3.77,-0.3 -1.52,-0.1 -2.8,-0.15 -3.86,-0.15 -4.09,0 -7.22,0.57 -9.36,1.71 -2.15,1.14 -3.22,2.87 -3.22,5.19 0,1.49 0.36,2.65 1.09,3.49 0.72,0.84 1.63,1.48 2.72,1.93 1.09,0.45 2.3,0.71 3.62,0.82 1.32,0.09 2.58,0.14 3.76,0.14 1.52,0 3.09,-0.06 4.71,-0.18 1.62,-0.13 3.05,-0.31 4.31,-0.56l0 -12.09zm0 -7.2c0,-2.92 -0.99,-4.95 -2.97,-6.09 -1.98,-1.14 -4.85,-1.71 -8.62,-1.71 -2.32,0 -4.48,0.14 -6.49,0.41 -2.02,0.27 -3.98,0.64 -5.9,1.08 -1.25,-1.63 -1.88,-3.58 -1.88,-5.86 2.24,-0.55 4.72,-0.97 7.43,-1.27 2.71,-0.29 5.32,-0.44 7.83,-0.44 6.6,0 11.63,1.12 15.06,3.38 3.43,2.25 5.15,5.85 5.15,10.79l0 23.82c-2.31,0.4 -5.12,0.81 -8.42,1.23 -3.3,0.42 -6.67,0.63 -10.1,0.63 -3.25,0 -6.17,-0.22 -8.78,-0.67 -2.61,-0.45 -4.82,-1.16 -6.63,-2.15 -1.82,-0.99 -3.22,-2.25 -4.22,-3.79 -0.99,-1.53 -1.48,-3.38 -1.48,-5.56 0,-2.13 0.58,-3.99 1.73,-5.6 1.16,-1.61 2.73,-2.95 4.71,-4.01 1.98,-1.06 4.26,-1.85 6.84,-2.38 2.57,-0.51 5.28,-0.78 8.12,-0.78 2.12,0 3.85,0.04 5.2,0.12 1.35,0.07 2.49,0.16 3.42,0.26l0 -1.41z"/>
   <path class="fil0" d="M182.82 79.68c0.72,-0.1 1.43,-0.17 2.13,-0.22 0.69,-0.05 1.4,-0.08 2.12,-0.08 0.73,0 1.41,0.03 2.04,0.08 0.62,0.05 1.3,0.12 2.03,0.22 0.19,0.74 0.4,1.72 0.59,2.93 0.2,1.21 0.3,2.24 0.3,3.08 0.6,-0.89 1.34,-1.74 2.23,-2.56 0.89,-0.82 1.95,-1.54 3.17,-2.19 1.22,-0.64 2.62,-1.16 4.21,-1.56 1.58,-0.39 3.33,-0.59 5.25,-0.59 3.97,0 7.02,0.61 9.17,1.82 2.14,1.21 3.78,2.91 4.9,5.08 0.66,-0.84 1.47,-1.68 2.43,-2.52 0.96,-0.84 2.03,-1.58 3.22,-2.23 1.19,-0.64 2.54,-1.16 4.06,-1.56 1.52,-0.39 3.24,-0.59 5.16,-0.59 5.88,0 10.15,1.24 12.83,3.71 2.67,2.47 4.01,6.14 4.01,10.98l0 24.27c-0.72,0.1 -1.55,0.17 -2.48,0.22 -0.92,0.05 -1.75,0.08 -2.48,0.08 -0.72,0 -1.53,-0.03 -2.42,-0.08 -0.89,-0.05 -1.7,-0.12 -2.43,-0.22l0 -22.11c0,-3.42 -0.69,-5.98 -2.08,-7.68 -1.39,-1.71 -3.66,-2.57 -6.84,-2.57 -3.37,0 -6.09,0.92 -8.17,2.75 -2.08,1.83 -3.12,4.53 -3.12,8.09l0 21.52c-0.73,0.1 -1.54,0.17 -2.43,0.22 -0.89,0.05 -1.7,0.08 -2.43,0.08 -0.72,0 -1.54,-0.03 -2.43,-0.08 -0.89,-0.05 -1.7,-0.12 -2.42,-0.22l0 -22.63c0,-3.32 -0.66,-5.8 -1.99,-7.46 -1.32,-1.66 -3.43,-2.49 -6.34,-2.49 -1.65,0 -3.2,0.27 -4.65,0.82 -1.46,0.54 -2.73,1.36 -3.82,2.45 -1.09,1.09 -1.95,2.46 -2.58,4.11 -0.62,1.66 -0.93,3.58 -0.93,5.76l0 19.44c-0.73,0.1 -1.54,0.17 -2.43,0.22 -0.9,0.05 -1.71,0.08 -2.44,0.08 -0.72,0 -1.55,-0.03 -2.47,-0.08 -0.92,-0.05 -1.75,-0.12 -2.47,-0.22l0 -38.07z"/>
   <path class="fil0" d="M290.22 99.87c-0.99,-0.1 -2.24,-0.2 -3.76,-0.3 -1.52,-0.1 -2.81,-0.15 -3.87,-0.15 -4.09,0 -7.22,0.57 -9.36,1.71 -2.14,1.14 -3.22,2.87 -3.22,5.19 0,1.49 0.36,2.65 1.09,3.49 0.73,0.84 1.64,1.48 2.72,1.93 1.09,0.45 2.3,0.71 3.63,0.82 1.31,0.09 2.57,0.14 3.75,0.14 1.53,0 3.09,-0.06 4.71,-0.18 1.62,-0.13 3.06,-0.31 4.31,-0.56l0 -12.09zm0 -7.2c0,-2.92 -0.99,-4.95 -2.97,-6.09 -1.98,-1.14 -4.86,-1.71 -8.62,-1.71 -2.31,0 -4.47,0.14 -6.49,0.41 -2.01,0.27 -3.98,0.64 -5.89,1.08 -1.26,-1.63 -1.89,-3.58 -1.89,-5.86 2.25,-0.55 4.73,-0.97 7.43,-1.27 2.71,-0.29 5.32,-0.44 7.83,-0.44 6.61,0 11.63,1.12 15.06,3.38 3.44,2.25 5.15,5.85 5.15,10.79l0 23.82c-2.31,0.4 -5.11,0.81 -8.42,1.23 -3.3,0.42 -6.67,0.63 -10.1,0.63 -3.24,0 -6.17,-0.22 -8.77,-0.67 -2.61,-0.45 -4.82,-1.16 -6.64,-2.15 -1.82,-0.99 -3.22,-2.25 -4.21,-3.79 -0.99,-1.53 -1.49,-3.38 -1.49,-5.56 0,-2.13 0.58,-3.99 1.73,-5.6 1.16,-1.61 2.73,-2.95 4.71,-4.01 1.98,-1.06 4.26,-1.85 6.84,-2.38 2.58,-0.51 5.28,-0.78 8.13,-0.78 2.11,0 3.84,0.04 5.2,0.12 1.35,0.07 2.49,0.16 3.41,0.26l0 -1.41z"/>
   <path class="fil1" d="M172.45 36.49c5.65,2.88 10.48,3.79 14.34,3.79 4.6,0.03 7.91,-1.35 9.42,-2.15 -18.32,-10.73 -27.36,-15.06 -38.8,-15.05l0 0c-2.94,0.69 -6.1,1.51 -9.54,2.42 7.01,2.38 14.82,6 24.58,10.99z"/>
   <path class="fil2" d="M164.2 21.52c9.61,1.57 19.7,7.03 35.56,16.36 5.33,3.14 9.98,4.11 13.78,4.12 4.56,0.02 7.94,-1.47 9.56,-2.39 -21.15,-13.74 -32.41,-19.58 -45.47,-19.58 -4.06,-0.01 -8.42,0.52 -13.43,1.49z"/>
   <path class="fil3" d="M252.98 40.09c-6.3,2.66 -14.37,7.03 -27.6,-1.52 -49.14,-31.76 -40,-22.7 -143.78,1.97 -19.07,4.53 -27.17,3 -30.01,1.34 132.81,-48.62 137.38,-58.93 201.39,-1.79z"/>
   <path class="fil2" d="M127.49 7.65c-24.8,10.22 -43.36,18.95 -53.71,23.66 0,0 14.93,-5.51 45.27,-16.75 30.33,-11.23 48.41,-14.18 48.41,-14.18 0,0 -16.25,-2.88 -39.97,7.27z"/>
  </g>
 </g>
</svg>
