<?xml version="1.0" encoding="UTF-8"?>
<!DOCTYPE svg PUBLIC "-//W3C//DTD SVG 1.1//EN" "http://www.w3.org/Graphics/SVG/1.1/DTD/svg11.dtd">
<!-- Creator: CorelDRAW 2018 (64-Bit) -->
<svg xmlns="http://www.w3.org/2000/svg" xml:space="preserve" width="300px" height="56px" version="1.1" style="shape-rendering:geometricPrecision; text-rendering:geometricPrecision; image-rendering:optimizeQuality; fill-rule:evenodd; clip-rule:evenodd"
viewBox="0 0 299.9 55.66"
 xmlns:xlink="http://www.w3.org/1999/xlink">
 <defs>
  <style type="text/css">
   <![CDATA[
    .fil0 {fill:#E42425;fill-rule:nonzero}
    .fil1 {fill:#65777F;fill-rule:nonzero}
   ]]>
  </style>
 </defs>
 <g id="Warstwa_x0020_1">
  <metadata id="CorelCorpID_0Corel-Layer"/>
  <g id="_2178137990784">
   <path class="fil0" d="M255.2 10.74c1.51,1.67 3.04,1.84 5.04,1.53 4.57,-1.27 8.21,-2.17 12.7,-2.37 3.55,-0.06 8,0.36 10.66,1.44 1.14,0.56 1.7,1.37 1.26,2.33 -0.74,1.18 -1.44,1.36 -1.27,3.92 -0.02,0.2 -0.51,0.35 -0.54,-0.17 0.08,-0.81 0.08,-1.25 -0.36,-1.76 -1.05,-1.05 -3.65,-1.34 -5.65,-1.76 -6.7,-1.34 -14.21,-0.51 -20.8,0.5 -1.42,0.04 -2.39,-0.64 -2.95,-1.44 -0.53,-1.41 0.88,-1.06 0.31,-2.84 -0.04,-0.17 -0.05,-0.31 -0.04,-0.44 -0.02,-0.17 0.29,-0.55 0.55,-0.59 0.59,0.22 0.22,0.75 1.09,1.65z"/>
   <path class="fil0" d="M254.11 15.74c0.3,0.26 0.6,0.19 0.62,0.34 0.18,0.38 -0.54,1.21 -1.07,1.72 -0.44,0.18 -2.3,0.87 -3.5,1.99 -2.82,1.78 -6.95,0.09 -10.38,0.02 -1.55,0.13 -2.22,0.63 -3.32,2.13 -0.55,0.55 -0.76,0.69 -1.32,0.52 -0.36,-0.16 -0.1,-0.41 0,-0.56 0.32,-0.35 0.95,-0.49 0.88,-1.12 0,-0.73 -0.65,-1.18 0.01,-2.17 3.01,-3.71 9.96,-1 14.8,-1.42 1.38,-0.3 1.43,-0.8 1.02,-0.77 -4.25,0.39 -6.17,-3.97 -10.7,-2.68 -3.5,0.74 -8.39,5.2 -11.12,1.18 -1.18,-2.2 1.82,-1.08 1.27,-3.17 -0.04,-0.58 1.02,-1.03 1.05,-0.33 0.32,1.02 0.87,1.93 2.07,2.25 5.26,0.5 9.4,-4.55 14.7,-1.6 1.74,1.17 3.16,2.61 4.99,3.67z"/>
   <path class="fil1" d="M249.13 52.42c-0.13,0.43 -0.35,0.22 -0.41,-0.02l0.17 -0.25 0.24 0.27z"/>
   <path class="fil1" d="M275.4 5.37c-0.36,-0.36 -0.54,-0.45 -0.74,-0.58 -0.42,-0.26 -0.93,-0.53 -1.31,-0.77 -1.51,-0.97 -3.08,-1.91 -3.66,-3.48 -0.04,-0.65 0.68,-0.69 1.06,-0.25 0.73,0.81 1.5,1.68 2.8,2 1.44,0.15 2.91,0.46 3.44,1.51 0.3,1.03 0.64,2.66 0.14,3.42 -0.83,0.65 -0.97,-1.07 -1.73,-1.85z"/>
   <path class="fil1" d="M259.48 1.4c0.84,-0.32 2,-0.46 2.88,-0.14 1.78,0.78 2.69,4.03 5.23,2.6 0.11,-0.06 0.23,-0.13 0.34,-0.21 0.72,-0.3 1.49,0.12 1.83,0.81 0.6,1.63 1.76,3.84 1.75,4.07 -0.25,0.63 -0.88,0.07 -1.2,-0.15 -1.3,-1.35 -2.68,-1.53 -4.18,-2.38 -1.12,-0.64 -1.82,-1.54 -2.65,-1.97 -2.34,-0.98 -5.76,-0.53 -6.56,-2.88 -0.02,-0.42 0.14,-0.59 0.43,-0.67 0.39,0.03 1.02,1.1 2.13,0.92z"/>
   <path class="fil1" d="M281.3 5.43c0.8,0.63 2.3,1.05 2.26,2.02 -0.13,0.74 -0.62,0.95 -1.18,1.17 -0.67,0.12 -0.97,0.14 -1.26,-0.71 -0.08,-1.37 -0.61,-1.89 -1.15,-2.61 -0.27,-0.42 -0.29,-0.62 0.02,-0.97 0.72,-0.48 0.67,0.75 1.31,1.1z"/>
   <path class="fil1" d="M299.24 18.7c0.4,0.93 1.07,3.03 0.31,3.61 -0.69,0.01 0.21,-1.15 -0.97,-1.21 -2.59,0.69 -3.87,4.44 -4.34,5.47 -1.96,4.39 -2.74,5.98 -2.78,11.47 0.04,0.33 0.28,1.05 0.07,1.12 -1.4,-0.18 -1.08,-5.13 -0.83,-7.07 1.06,-5.64 2.15,-9.19 5.21,-13.47 0.35,-0.38 0.98,-0.8 1.64,-0.8 0.74,0 1.3,0.12 1.69,0.88z"/>
   <path class="fil1" d="M272.71 19.22c0,0 0.16,0.04 0.13,0.2 -0.02,0.15 -0.13,0.12 -0.13,0.12 -2.36,-0.05 -4.57,0.3 -6.56,1.05 -2.59,0.83 -2.94,1.59 -3.32,1.65 -1.07,-0.3 0.71,-1.06 -0.18,-1.98 -0.38,-0.57 0.25,-0.74 0.63,-0.81 2.84,-0.83 6.49,-0.83 9.43,-0.23z"/>
   <path class="fil1" d="M283.48 20.74c0.23,0.44 -0.65,0.25 -1.58,0.6 -1.1,0.54 -1.32,0.84 -1.43,1.54 -0.05,0.36 0.78,-0.03 1.64,0.7 0.25,0.25 0.66,0.7 0.25,1.16 -0.6,0.31 -1.57,1.09 -1.97,0.41 -0.36,-0.64 0.69,-0.38 0.15,-1.04 -0.15,-0.14 -0.39,-0.13 -0.56,-0.08 -1.1,2.39 -0.65,5.79 -1.28,8.49 -0.39,0.87 -1.41,1.39 -2.35,1.89 -0.31,-0.09 -1.27,-0.95 -2.07,-0.57 -0.76,0.69 -1.37,0.49 -2,0.31 -0.4,-0.23 -0.98,-0.28 -0.88,-0.8 0.46,-0.39 1.29,0.39 2.07,0.03 0.42,-0.34 0.58,-0.45 1.37,-0.35 0.87,0.15 2.14,0.29 2.88,-0.13 1.07,-0.99 0.28,-1.62 0,-6 -0.05,-0.27 -0.61,-3.93 1.7,-5.36 1.12,-0.69 3.9,-1.12 4.06,-0.8z"/>
   <path class="fil1" d="M272.55 22.66c0.9,0.81 -2.21,-0.31 -2.64,0.24 -0.08,0.56 1.19,1.05 0.17,1.54 -0.6,0.39 -1.4,0.84 -2.18,0.56 -0.59,-0.7 1.09,-0.59 0.5,-1.29 -0.95,-0.78 -1.97,0.34 -2.81,0.69 -0.63,-0.05 0.03,-0.42 -0.18,-0.87 -0.1,-0.53 -0.42,-0.95 0.25,-1.2 2,-0.45 5.99,-0.48 6.89,0.33z"/>
   <path class="fil1" d="M252.36 23.7c0.19,0.27 0.32,0.09 0.87,0.4 0.24,0.2 0.24,0.61 0.42,0.81 0.27,0.31 0.75,0.09 0.43,1.26 -0.36,1.87 -0.34,4.4 0.1,6.15 0.09,0.36 0.31,0.83 0.14,1 -0.24,0.07 -0.33,-0.09 -0.56,-0.52 -0.67,-1.47 -2.63,-5.76 -1.99,-9.61 0.24,-0.21 0.48,-0.34 0.59,0.51z"/>
   <path class="fil1" d="M284.25 25.48c0.03,0.16 0.08,2.19 -0.27,4.6 -0.47,3.28 -1.39,4.81 -2.03,6.4 -1.68,2.81 -3.23,5.85 -5.06,8.48 -0.46,0.49 -0.12,0.25 -0.46,0.49 -1.01,0.63 -2.24,1.01 -3.68,0.76 -1.54,-0.21 -3.23,-0.46 -4.56,-1.02 0,0 -5.99,-2.88 -7.92,-4.64 0,0 -0.24,-0.21 -0.17,-0.27 0.06,-0.07 0.17,-0.04 0.17,-0.04 4,2.21 8.59,4.67 13.92,4.08 2.99,-0.84 3.65,-3.57 5.21,-5.53 2.42,-3.78 4.52,-8.67 4.5,-13.31 0,-0.29 0.29,-0.31 0.35,0z"/>
   <path class="fil1" d="M276.03 36.09c0.34,-0.44 0.74,-0.33 0.93,0.06 0,0 0.3,1.06 0.33,1.18 0.04,0.12 -0.05,0.31 -0.23,0.12 -0.17,-0.16 -1.59,-0.81 -2.11,0.22 -0.13,0.01 -0.13,-0.03 -0.23,-0.08 -0.44,-0.24 -1.09,-1.31 -2.09,-0.53 -0.67,0.36 -1.59,1.16 -2.74,0.77 -0.3,-0.15 -0.47,-0.32 -0.25,-0.46 1.61,0.08 2.56,-1.08 3.76,-1.67 0.98,-0.14 1.81,1.65 2.63,0.39z"/>
   <path class="fil1" d="M276.46 38.38c0.06,0.01 0.12,0.09 0.12,0.09 -0.1,1.09 -0.67,1.82 -1.75,2.17 -1.44,0.03 -2.63,-0.89 -3.19,-1.79 0,0 -0.12,-0.13 -0.14,-0.25 -0.02,-0.13 0.14,-0.1 0.14,-0.1 1.36,0.5 3.4,1.09 4.63,-0.03 0,0 0.12,-0.09 0.19,-0.09z"/>
   <path class="fil1" d="M289.45 42.13c0,0 0.42,0.16 0.32,0.39 -0.06,0.14 -0.19,0.21 -0.35,0.26 -2.49,1.19 -1.95,4.08 -2.75,6.64 -0.56,2.46 -3.26,3.33 -3.62,5.99 0,0.16 -0.17,0.46 -0.42,0.04 -0.74,-1.09 -0.31,-2.95 0.11,-4.04 0.85,-1.89 3.96,-2.09 3.51,-4.86 -0.13,-2.07 -0.41,-3.97 0.75,-5.33 0.42,-0.31 1.07,-0.66 1.44,0 0.04,0.8 0.29,0.7 1.01,0.91z"/>
   <path class="fil1" d="M292.82 44.35c0.33,0.18 -0.95,0.93 -1.35,1.52 -0.59,0.9 -0.71,1.65 -1.22,1.34 -0.13,-0.1 0.01,-0.5 -0.12,-0.82 -0.14,-0.16 -0.77,-0.09 -0.26,-0.78 0.23,-0.26 1.88,-1.5 2.95,-1.26z"/>
   <path class="fil1" d="M292.32 48.35c0.05,0.1 -0.15,0.18 -0.15,0.18 -1.52,0.98 -2.17,2.51 -2.8,4.05 0,0 -0.09,0.19 -0.22,0.21 -0.24,0.04 -0.3,-0.24 -0.3,-0.24 0.05,-1.66 -1.34,-0.45 -1.09,-1.58 0.41,-0.95 2.35,-2.84 4.42,-2.7 0,0 0.09,-0.04 0.14,0.08z"/>
   <path class="fil1" d="M250.44 26.12c0.07,-0.29 -0.15,-0.6 -0.39,-0.17l-0.02 0.08c-0.8,1.2 -1.68,2.44 -3.25,3 -1.07,0.43 0.28,1.02 -0.75,1.96 -0.2,0.22 -0.2,1.2 0.43,0.81 1.97,-1.39 3.22,-3.17 3.93,-5.56l0.05 -0.12z"/>
   <path class="fil1" d="M252.86 39.35c0.21,0.62 0.24,1.52 -0.56,2.21 -0.63,0.67 -0.76,0.7 -1.28,0.96 0.1,-1.33 0.25,-2.95 0.39,-4.25 0.77,0.06 1.27,0.65 1.45,1.08zm-3.73 13.07c0.79,-2.53 1.21,-5.36 1.56,-8.24 2.17,-1.01 4.12,-2.82 4.25,-4.44 0.16,-2.01 -1.79,-2.87 -3.36,-3.86 -0.07,-1.96 -0.28,-3.68 -0.72,-5.37 0,0 -0.04,-0.21 -0.18,-0.25 -0.09,-0.02 -0.24,0.1 -0.24,0.1 -1.03,1.12 -1.21,2.79 -1.74,4.36 -0.95,-0.46 -2.24,-0.43 -3.33,-0.26 -0.42,0.22 -0.85,0.64 -0.49,1.13 0.56,1.23 2.06,1.89 3.64,1.96 -0.14,1.66 -0.23,2.41 -0.33,4.02 -0.01,0.01 -0.05,1.21 0.01,2.3 -1.86,0.9 -3.8,1.78 -4.32,3.74 -0.11,1.26 0.52,2 1.36,2.59 0.92,0.77 0.24,1.78 0.38,2.05 0.32,0.23 0.47,-0.05 0.92,-0.47 0.88,-1.47 -0.52,-2.38 -0.24,-3.99 0.12,-0.68 0.91,-1.96 1.93,-2.24 0.17,2.27 0.17,4.7 0.49,6.85l0.41 0.02z"/>
   <path class="fil0" d="M198.53 34.13l-7.01 0 3.43 -9.48 3.58 9.48zm-1.06 -15.64l-5 0 -10.01 25.17 5.53 0 1.79 -4.79 10.49 0 1.79 4.79 5.58 0 -10.17 -25.17z"/>
   <path class="fil0" d="M92.81 33.71c-0.16,0.89 -0.53,1.69 -0.95,2.47 -0.42,0.69 -1.05,1.32 -1.84,1.85 -0.42,0.26 -1.11,0.52 -1.9,0.68 -0.79,0.16 -1.68,0.26 -2.68,0.26l-4.64 0 0 -15.8 4.64 0c1,0 1.89,0.06 2.68,0.27 0.85,0.15 1.48,0.37 1.9,0.68 0.79,0.47 1.42,1.05 1.84,1.84 0.42,0.74 0.79,1.53 0.95,2.43 0.26,0.84 0.32,1.74 0.32,2.68 0,0.9 -0.11,1.79 -0.32,2.64zm-3.69 -14.91c-1.1,-0.26 -2.58,-0.31 -4.26,-0.31l-9.17 0 0 25.17 9.17 0c1.68,0 3.16,-0.1 4.26,-0.31 1.16,-0.21 2.11,-0.53 2.95,-0.95 1.95,-0.9 3.48,-2.32 4.59,-4.21 1.1,-1.95 1.63,-4.33 1.68,-7.12 -0.05,-2.84 -0.58,-5.21 -1.68,-7.11 -1.11,-1.95 -2.64,-3.37 -4.59,-4.32 -0.84,-0.37 -1.79,-0.63 -2.95,-0.84z"/>
   <polygon class="fil0" points="120.57,23.17 121.57,18.49 101.29,18.49 101.29,43.66 122.52,43.66 120.99,38.97 106.45,38.97 106.45,33.08 118.62,33.08 118.62,28.33 106.45,28.33 106.45,23.17 "/>
   <polygon class="fil0" points="174.46,43.66 179.57,43.66 179.57,18.49 174.46,18.49 "/>
   <polygon class="fil0" points="229.34,43.66 227.87,38.97 215.7,38.97 215.7,18.49 210.59,18.49 210.59,43.66 "/>
   <polygon class="fil0" points="148.59,43.66 148.59,18.49 143.48,18.49 143.48,34.66 130.84,18.49 125.26,18.49 125.26,43.66 130.37,43.66 130.37,25.91 143.9,43.66 "/>
   <path class="fil0" d="M16.96 26.91c0,0.74 -0.16,1.37 -0.42,1.95 -0.32,0.53 -0.79,1 -1.48,1.27 -0.26,0.1 -0.53,0.15 -0.79,0.26 -0.31,0.05 -0.74,0.16 -1.26,0.16 -0.53,0.05 -1.21,0.1 -2.11,0.1l-5.74 0 0 -7.48 5.74 0c0.9,0 1.58,0 2.11,0 0.52,0.11 0.95,0.11 1.26,0.21 0.26,0.06 0.53,0.16 0.79,0.27 0.69,0.31 1.16,0.73 1.48,1.31 0.26,0.58 0.42,1.27 0.42,1.95zm3.9 -4.69c-0.79,-1.31 -2.01,-2.31 -3.59,-2.95 -0.47,-0.21 -1,-0.37 -1.63,-0.47 -0.58,-0.16 -1.32,-0.21 -2.16,-0.26 -0.79,-0.05 -1.84,-0.05 -3.16,-0.05l-10.32 0 0 25.17 5.16 0 0 -8.37 5.16 0c1.32,0 2.37,0 3.16,-0.05 0.84,-0.06 1.58,-0.16 2.16,-0.32 0.63,-0.11 1.16,-0.26 1.63,-0.42 1.58,-0.69 2.8,-1.64 3.59,-2.9 0.84,-1.32 1.26,-2.9 1.26,-4.74 0,-1.84 -0.42,-3.37 -1.26,-4.64z"/>
   <path class="fil0" d="M41.4 26.6c0,0.63 -0.16,1.21 -0.42,1.73 -0.32,0.53 -0.79,1.01 -1.37,1.27 -0.26,0.16 -0.63,0.26 -1.05,0.31 -0.48,0.11 -1.06,0.11 -1.85,0.11l-6.79 0 0 -6.85 6.79 0c0.79,0 1.37,0 1.85,0.11 0.42,0.05 0.79,0.16 1.05,0.31 0.58,0.27 1.05,0.74 1.37,1.27 0.26,0.47 0.42,1.05 0.42,1.74zm-1.26 -7.85c-0.85,-0.21 -1.95,-0.26 -3.32,-0.26l-12.07 0 0 25.17 5.17 0 0 -8.9 3.05 0c0.69,0 1.27,0 1.69,0.11 0.52,0.05 1,0.15 1.37,0.31 1.1,0.48 2.1,1.37 2.95,2.74 0.94,1.32 1.79,3.27 2.63,5.74l5.95 0c-0.47,-1.52 -1.05,-2.89 -1.63,-4.26 -0.63,-1.32 -1.32,-2.53 -2.06,-3.59 -0.68,-1.05 -1.47,-1.84 -2.37,-2.52l0 -0.11c1.59,-0.42 2.75,-1.16 3.69,-2.32 0.9,-1.1 1.32,-2.68 1.37,-4.58 0,-1.42 -0.32,-2.74 -1.05,-4 -0.74,-1.21 -1.79,-2.16 -3.22,-2.85 -0.57,-0.31 -1.31,-0.53 -2.15,-0.68z"/>
   <polygon class="fil0" points="163.87,23.17 171.3,23.17 172.82,18.49 150.59,18.49 150.59,23.17 158.76,23.17 158.76,43.66 163.87,43.66 "/>
   <path class="fil0" d="M71.63 33.71l0 -15.22 -5.16 0 0 15.22c0,0.79 0,1.42 -0.1,1.9 -0.11,0.47 -0.21,0.84 -0.37,1.21 -0.48,1.1 -1.21,1.84 -2.21,2.31 -1,0.53 -2.06,0.79 -3.32,0.79 -1.21,0 -2.32,-0.26 -3.32,-0.79 -0.95,-0.47 -1.69,-1.21 -2.21,-2.31 -0.11,-0.37 -0.27,-0.74 -0.32,-1.21 -0.1,-0.48 -0.1,-1.11 -0.1,-1.9l0 -15.22 -5.17 0 0 15.22c0,1.16 0.06,2.1 0.16,2.74 0.11,0.73 0.27,1.31 0.42,1.74 0.53,1.42 1.27,2.52 2.32,3.42 1.05,0.95 2.27,1.58 3.63,2.05 1.43,0.48 2.96,0.69 4.59,0.69 1.68,0 3.21,-0.21 4.58,-0.69 1.42,-0.47 2.69,-1.1 3.69,-2.05 1,-0.9 1.79,-2 2.26,-3.42 0.21,-0.43 0.32,-1.01 0.48,-1.74 0.05,-0.64 0.1,-1.58 0.15,-2.74z"/>
  </g>
 </g>
</svg>
