<?xml version="1.0" encoding="UTF-8"?>
<!DOCTYPE svg PUBLIC "-//W3C//DTD SVG 1.1//EN" "http://www.w3.org/Graphics/SVG/1.1/DTD/svg11.dtd">
<!-- Creator: CorelDRAW 2018 (64-Bit) -->
<svg xmlns="http://www.w3.org/2000/svg" xml:space="preserve" width="300px" height="133px" version="1.1" style="shape-rendering:geometricPrecision; text-rendering:geometricPrecision; image-rendering:optimizeQuality; fill-rule:evenodd; clip-rule:evenodd"
viewBox="0 0 299.86 132.89"
 xmlns:xlink="http://www.w3.org/1999/xlink">
 <defs>
  <style type="text/css">
   <![CDATA[
    .fil8 {fill:#B2B3B3;fill-rule:nonzero}
    .fil7 {fill:#1D68B0;fill-rule:nonzero}
    .fil4 {fill:#C2BFB8;fill-rule:nonzero}
    .fil0 {fill:#426BBA;fill-rule:nonzero}
    .fil2 {fill:url(#id0)}
    .fil6 {fill:url(#id1)}
    .fil5 {fill:url(#id2)}
    .fil1 {fill:url(#id3)}
    .fil3 {fill:url(#id4)}
   ]]>
  </style>
  <linearGradient id="id0" gradientUnits="userSpaceOnUse" x1="182.97" y1="104.75" x2="182.97" y2="-0.05">
   <stop offset="0" style="stop-opacity:1; stop-color:#ABADB0"/>
   <stop offset="0.301961" style="stop-opacity:1; stop-color:#FEFEFE"/>
   <stop offset="1" style="stop-opacity:1; stop-color:#FEFEFE"/>
  </linearGradient>
  <linearGradient id="id1" gradientUnits="userSpaceOnUse" xlink:href="#id0" x1="287.65" y1="105.1" x2="287.65" y2="1.13">
  </linearGradient>
  <linearGradient id="id2" gradientUnits="userSpaceOnUse" x1="256.47" y1="64.49" x2="256.47" y2="1.12">
   <stop offset="0" style="stop-opacity:1; stop-color:#ABADB0"/>
   <stop offset="0.25098" style="stop-opacity:1; stop-color:#FEFEFE"/>
   <stop offset="1" style="stop-opacity:1; stop-color:#FEFEFE"/>
  </linearGradient>
  <linearGradient id="id3" gradientUnits="userSpaceOnUse" x1="229.1" y1="67.15" x2="241.22" y2="-1.56">
   <stop offset="0" style="stop-opacity:1; stop-color:#BDBFC1"/>
   <stop offset="0.301961" style="stop-opacity:1; stop-color:#FEFEFE"/>
   <stop offset="1" style="stop-opacity:1; stop-color:#FEFEFE"/>
  </linearGradient>
  <linearGradient id="id4" gradientUnits="userSpaceOnUse" xlink:href="#id0" x1="235.24" y1="104.65" x2="235.24" y2="1.46">
  </linearGradient>
 </defs>
 <g id="Warstwa_x0020_1">
  <metadata id="CorelCorpID_0Corel-Layer"/>
  <path class="fil0" d="M263.51 3.42c-4.56,-4.56 -11.96,-4.56 -16.52,0l-41.13 41.13c-4.56,4.57 -4.56,11.96 0,16.52 2.28,2.28 5.27,3.42 8.25,3.42 3,0 5.99,-1.14 8.27,-3.42l21.18 -21.18 -0.03 65.2 23.37 0.01 0.03 -93.41c0,-3 -1.14,-5.99 -3.42,-8.27z"/>
  <path class="fil0" d="M23.01 79.36c-0.41,0 -0.87,-0.05 -1.34,-0.16 -0.47,-0.1 -1.02,-0.26 -1.65,-0.47 -5.47,-1.15 -8.2,-2.58 -8.2,-4.26 0,-1.26 0.48,-2.2 1.42,-2.84 1.05,-0.63 2.63,-0.94 4.72,-0.94 2.22,0 3.95,0.47 5.21,1.42 0.42,0.42 0.84,0.84 1.26,1.26 1.05,1.79 2.58,2.68 4.57,2.68l6.78 0c-0.21,-4.2 -1.84,-7.62 -4.89,-10.25 -3.26,-2.42 -7.61,-3.62 -13.08,-3.62 -5.04,0 -9.14,1.2 -12.29,3.62 -3.05,2.63 -4.58,5.94 -4.58,9.93 0,3.15 1.05,5.68 3.16,7.57 1.89,1.9 5.62,3.52 11.19,4.88 0.95,0.32 2.36,0.63 4.26,0.95 4.41,0.95 6.61,2.37 6.61,4.26 0,1.27 -0.62,2.26 -1.89,2.99 -1.36,0.74 -2.99,1.11 -4.89,1.11 -2.62,0 -4.72,-0.52 -6.3,-1.59 -1.47,-1.04 -2.25,-2.62 -2.36,-4.71l-10.72 0 0 0.47c0,4.62 1.52,8.14 4.57,10.55 2.94,2.42 7.41,3.63 13.39,3.63 6.31,0 11.04,-1.16 14.2,-3.47 3.36,-2.51 5.04,-6.09 5.04,-10.71 0,-3.16 -1,-5.68 -2.99,-7.57 -2.11,-1.79 -5.84,-3.36 -11.2,-4.73z"/>
  <path class="fil0" d="M97.3 65.8c-3.89,-2.41 -8.14,-3.62 -12.77,-3.62 -2.31,0.1 -4.54,0.44 -6.69,1.02 -2.16,0.58 -4.02,1.56 -5.6,2.92 -1.89,-1.58 -4,-2.63 -6.3,-3.15 -2.32,-0.53 -4.68,-0.79 -7.1,-0.79 -4.52,0.21 -8.65,1.52 -12.38,3.94 -3.73,2.42 -5.59,7.2 -5.59,14.34l0 24.59 11.03 0 0 -26.79c0,-2.53 0.74,-4.36 2.21,-5.52 1.47,-1.15 3.15,-1.73 5.05,-1.73 1.88,0 3.59,0.58 5.12,1.73 1.51,1.16 2.28,2.99 2.28,5.52l0 2.2 0 24.59 10.88 0 0 -24.59 0 -2.2c0,-2.53 0.76,-4.36 2.28,-5.52 1.53,-1.15 3.23,-1.73 5.12,-1.73 1.9,0 3.61,0.58 5.13,1.73 1.53,1.16 2.28,2.99 2.28,5.52l0 21.43c0,1.58 0.5,2.87 1.5,3.87 1,1 2.29,1.49 3.86,1.49l5.52 0 0 -24.59c0,-7.36 -1.94,-12.24 -5.83,-14.66z"/>
  <path class="fil0" d="M132.06 87.87c0,2.95 -0.85,5.25 -2.53,6.94 -1.67,1.68 -3.99,2.52 -6.92,2.52 -1.8,0 -3.17,-0.42 -4.11,-1.27 -0.94,-0.93 -1.42,-2.2 -1.42,-3.77 0,-1.16 0.37,-2.32 1.11,-3.48 0.84,-0.83 2.21,-1.51 4.1,-2.04l3.62 -0.79c2.63,-0.63 4.68,-1.32 6.15,-2.05l0 3.94zm5.67 -22.69c-2.93,-2.01 -7.35,-3 -13.23,-3 -5.27,0 -9.31,1.21 -12.15,3.62 -2.52,2.1 -3.99,4.79 -4.4,8.04l10.55 0c0.53,-1.16 1.37,-1.94 2.52,-2.36 1.16,-0.43 2.48,-0.63 3.95,-0.63 1.36,0 2.86,0.23 4.49,0.71 1.63,0.47 2.44,1.5 2.44,3.07 0,2.1 -2.31,3.47 -6.93,4.1 -0.95,0.11 -1.79,0.23 -2.52,0.39 -0.75,0.15 -1.37,0.24 -1.9,0.24 -3.99,0.63 -7.27,1.89 -9.85,3.78 -2.57,1.9 -3.86,5.04 -3.86,9.46 0,4.73 1.41,8.12 4.25,10.17 2.84,2.05 6.15,3.07 9.93,3.07 1.89,0 4.07,-0.13 6.55,-0.39 2.47,-0.26 4.8,-0.98 7.01,-2.13 2.11,-1.05 3.91,-2.76 5.44,-5.13 1.52,-2.36 2.28,-5.64 2.28,-9.85l0 -14.34c0,-3.78 -1.52,-6.72 -4.57,-8.82z"/>
  <path class="fil0" d="M168.15 63.12c-2.83,0 -5.59,0.37 -8.27,1.11 -2.68,0.74 -5.01,1.88 -7.01,3.46 -2.1,1.69 -3.76,3.92 -4.97,6.7 -1.2,2.79 -1.81,6.23 -1.81,10.34l0 20.33 11.03 0 0 -21.6c0,-3.16 0.75,-5.47 2.21,-6.94 1.48,-1.47 3.73,-2.21 6.78,-2.21l3.62 0 0 -11.19 -0.79 0 -0.79 0z"/>
  <path class="fil0" d="M185.18 56.19c0,-1.48 -0.53,-2.73 -1.58,-3.79 -1.05,-1.04 -2.26,-1.57 -3.63,-1.57l-5.67 0 0 46.34c0,4.84 2.03,7.41 6.07,7.72 4.04,0.33 7.8,0.37 11.27,0.17l0 -8.2 -3.32 0c-2.1,0 -3.14,-0.9 -3.14,-2.69l0 -23.32 1.1 0c1.47,0 2.73,-0.5 3.78,-1.5 1.05,-1 1.58,-2.28 1.58,-3.86l0 -2.21 -6.46 0 0 -7.09z"/>
  <path class="fil1" d="M263.51 3.42c-4.56,-4.56 -11.96,-4.56 -16.52,0l-41.14 41.13c-4.55,4.57 -4.55,11.96 0,16.52 2.29,2.28 5.28,3.42 8.27,3.42 2.99,0 5.98,-1.14 8.26,-3.42l21.18 -21.18 23.37 -28.21c0,-2.98 -1.14,-5.98 -3.42,-8.26l0 0z"/>
  <path class="fil2" d="M191.63 105.06l0 -8.2 -3.3 0c-2.1,0 -3.16,-0.9 -3.16,-2.68l0 -23.33 1.11 0c1.47,0 2.73,-0.5 3.78,-1.5 1.03,-0.98 1.56,-2.24 1.57,-3.79l0 -2.29 -6.46 0 0 -7.09c0,-1.47 -0.52,-2.73 -1.57,-3.78 -1.03,-1.03 -2.23,-1.55 -3.57,-1.57l-0.06 0 -5.67 0 0 46.34c0,4.84 2.03,7.41 6.07,7.72 4.04,0.33 7.8,0.38 11.26,0.17z"/>
  <path class="fil3" d="M263.51 3.42c-4.56,-4.56 -11.96,-4.56 -16.52,0l-41.14 41.13c-4.55,4.57 -4.55,11.96 0,16.52 2.29,2.28 5.28,3.42 8.27,3.42 2.99,0 5.98,-1.14 8.26,-3.42l21.18 -21.18 -0.03 65.2 23.37 0.01 0.03 -93.42c0,-2.98 -1.14,-5.98 -3.42,-8.26l0 0z"/>
  <path class="fil4" d="M295.93 3.42c-4.56,-4.56 -11.96,-4.56 -16.52,0l-57.58 57.65c-2.84,2.83 -6.26,3.42 -8.22,3.42l32.93 0c2.99,0 5.98,-1.14 8.26,-3.42l21.18 -21.18 -0.02 65.2 23.36 0.01 0.03 -93.41c0.01,-3 -1.13,-5.99 -3.42,-8.27z"/>
  <path class="fil5" d="M295.93 3.42c-4.56,-4.56 -11.96,-4.56 -16.52,0l-57.58 57.65c-2.84,2.83 -6.26,3.42 -8.22,3.42l32.94 0c2.98,0 5.97,-1.14 8.25,-3.42l21.18 -21.18 23.37 -28.21c0,-2.98 -1.13,-5.98 -3.42,-8.26l0 0z"/>
  <path class="fil6" d="M295.93 3.42c-4.56,-4.56 -11.96,-4.56 -16.52,0l-3.43 36.47 -0.02 65.2 23.36 0.01 0.03 -93.42c0,-2.98 -1.13,-5.98 -3.42,-8.26l0 0z"/>
  <path class="fil7" d="M107.15 117.66l-1.32 0 0 4 1.16 0c1.34,0 2.1,-0.58 2.1,-2.07 0,-1.28 -0.68,-1.93 -1.94,-1.93zm2.25 11.81c-0.27,-0.39 -0.33,-0.91 -0.35,-1.46l-0.08 -2.66c-0.03,-1.08 -0.52,-1.74 -1.65,-1.74l-1.49 0 0 5.86 -2.8 0 0 -13.86 5.17 0c2.29,0 3.69,1.2 3.69,3.57 0,1.84 -0.74,3.09 -2.32,3.41l0 0.04c1.91,0.26 2.2,1.31 2.24,4.24 0.02,1.46 0.09,2.21 0.62,2.48l0 0.12 -3.03 0z"/>
  <path class="fil7" d="M119.22 124.25c-0.37,0.27 -0.82,0.44 -1.15,0.52 -1.08,0.24 -1.51,0.76 -1.51,1.69 0,0.8 0.29,1.46 1.01,1.46 0.72,0 1.65,-0.47 1.65,-1.61l0 -2.06zm0.33 5.22c-0.18,-0.32 -0.25,-0.73 -0.33,-1.09l-0.04 0c-0.62,1.09 -1.38,1.36 -2.66,1.36 -1.86,0 -2.53,-1.59 -2.53,-2.99 0,-1.96 0.8,-2.75 2.64,-3.26l1.52 -0.41c0.8,-0.21 1.07,-0.52 1.07,-1.22 0,-0.8 -0.35,-1.28 -1.24,-1.28 -0.82,0 -1.25,0.54 -1.25,1.36l0 0.29 -2.41 0 0 -0.25c0,-2.41 1.65,-3.23 3.68,-3.23 3.18,0 3.78,1.32 3.78,3.21l0 5.49c0,0.97 0.06,1.42 0.33,2.02l-2.56 0z"/>
  <path class="fil7" d="M127.35 129.59c-2.1,0 -2.49,-0.64 -2.49,-2.76l0 -5.98 -1.35 0 0 -1.82 1.35 0 0 -2.99 2.68 0 0 2.99 1.56 0 0 1.82 -1.56 0 0 5.65c0,0.81 0.18,1.15 0.96,1.15 0.21,0 0.42,-0.02 0.6,-0.05l0 1.87c-0.58,0.06 -1.13,0.12 -1.75,0.12z"/>
  <path class="fil7" d="M135.72 128.77c-0.92,3.61 -1.53,4.12 -4.02,4.12l-1.08 0 0 -2c0.23,0.04 0.47,0.06 0.7,0.06 0.99,0 1.36,-0.55 1.43,-1.48l-2.92 -10.45 2.79 0 1.55 7.23 0.04 0 1.36 -7.23 2.68 0 -2.53 9.75z"/>
  <polygon class="fil7" points="155.48,129.47 152.43,129.47 151.05,122.05 151.01,122.05 149.71,129.47 146.6,129.47 144.33,119.02 147.01,119.02 148.23,126.44 148.28,126.44 149.58,119.02 152.49,119.02 153.87,126.44 153.9,126.44 155.16,119.02 157.73,119.02 "/>
  <path class="fil7" d="M169.97 129.47l0 -1.22 -0.04 0c-0.56,1.03 -1.53,1.49 -2.66,1.49 -1.67,0 -2.66,-0.91 -2.66,-2.97l0 -7.75 2.68 0 0 7.21c0,1.05 0.35,1.45 1.15,1.45 0.91,0 1.41,-0.56 1.41,-1.72l0 -6.94 2.68 0 0 10.45 -2.56 0z"/>
  <path class="fil7" d="M179.02 120.81c-1.19,0 -1.42,1.17 -1.42,3.44 0,2.27 0.23,3.43 1.42,3.43 1.16,0 1.39,-1.16 1.39,-3.43 0,-2.27 -0.23,-3.44 -1.39,-3.44zm0.87 8.93c-1.05,0 -1.78,-0.41 -2.37,-1.38l-0.04 0 0 1.11 -2.56 0 0 -13.86 2.68 0 0 4.38 0.04 0c0.56,-0.83 1.24,-1.24 2.25,-1.24 2.19,0 3.21,1.62 3.21,5.5 0,3.88 -1.02,5.49 -3.21,5.49z"/>
  <path class="fil7" d="M188.89 120.58c-1.06,0 -1.37,1.11 -1.37,2.08l0 0.41 2.73 0c-0.06,-1.6 -0.25,-2.49 -1.36,-2.49zm-1.37 4.08l0 0.83c0,1.22 0.33,2.43 1.32,2.43 0.89,0 1.26,-0.68 1.41,-1.96l2.41 0c-0.1,2.43 -1.26,3.78 -3.79,3.78 -3.88,0 -4.03,-2.99 -4.03,-5.59 0,-2.8 0.54,-5.4 4.15,-5.4 3.12,0 3.82,2.1 3.82,5.3l0 0.61 -5.29 0z"/>
  <polygon class="fil7" points="194.38,129.47 194.38,127.41 198.56,121.2 194.58,121.2 194.58,119.02 201.72,119.02 201.72,121.08 197.54,127.29 201.72,127.29 201.72,129.47 "/>
  <path class="fil7" d="M207.77 120.81c-1.18,0 -1.41,1.17 -1.41,3.44 0,2.27 0.23,3.43 1.41,3.43 1.17,0 1.4,-1.16 1.4,-3.43 0,-2.27 -0.23,-3.44 -1.4,-3.44zm0.88 8.93c-1.01,0 -1.69,-0.41 -2.25,-1.24l-0.04 0 0 4.39 -2.69 0 0 -13.87 2.57 0 0 1.11 0.04 0c0.59,-0.97 1.32,-1.38 2.37,-1.38 2.19,0 3.2,1.62 3.2,5.5 0,3.88 -1.01,5.49 -3.2,5.49z"/>
  <path class="fil7" d="M214.08 119.02l2.68 0 0 10.45 -2.68 0 0 -10.45zm0 -3.57l2.68 0 0 2.3 -2.68 0 0 -2.3z"/>
  <path class="fil7" d="M222.9 120.58c-1.06,0 -1.37,1.11 -1.37,2.08l0 0.41 2.74 0c-0.07,-1.6 -0.26,-2.49 -1.37,-2.49zm-1.37 4.08l0 0.83c0,1.22 0.33,2.43 1.32,2.43 0.89,0 1.26,-0.68 1.42,-1.96l2.4 0c-0.1,2.43 -1.26,3.78 -3.79,3.78 -3.88,0 -4.03,-2.99 -4.03,-5.59 0,-2.8 0.54,-5.4 4.15,-5.4 3.13,0 3.83,2.1 3.83,5.3l0 0.61 -5.3 0z"/>
  <path class="fil7" d="M232.43 129.74c-2.68,0 -4,-1.3 -4,-5.49 0,-4.29 1.77,-5.5 4.23,-5.5 2.47,0 3.75,1.58 3.75,4.04l-2.56 0c0,-1.01 -0.2,-2.1 -1.2,-2.1 -1.32,0 -1.54,1.17 -1.54,3.58 0,2.58 0.24,3.65 1.44,3.65 0.89,0 1.3,-0.76 1.3,-2.45l2.56 0c0,2.74 -1.14,4.27 -3.98,4.27z"/>
  <polygon class="fil7" points="237.98,129.47 237.98,127.41 242.16,121.2 238.18,121.2 238.18,119.02 245.32,119.02 245.32,121.08 241.15,127.29 245.32,127.29 245.32,129.47 "/>
  <path class="fil7" d="M250.94 120.58c-1.06,0 -1.37,1.11 -1.37,2.08l0 0.41 2.74 0c-0.07,-1.6 -0.26,-2.49 -1.37,-2.49zm-1.37 4.08l0 0.83c0,1.22 0.33,2.43 1.32,2.43 0.89,0 1.26,-0.68 1.42,-1.96l2.4 0c-0.09,2.43 -1.26,3.78 -3.79,3.78 -3.88,0 -4.03,-2.99 -4.03,-5.59 0,-2.8 0.54,-5.4 4.15,-5.4 3.13,0 3.83,2.1 3.83,5.3l0 0.61 -5.3 0z"/>
  <path class="fil7" d="M262.11 129.47l0 -7.2c0,-1.05 -0.35,-1.46 -1.15,-1.46 -0.91,0 -1.41,0.56 -1.41,1.73l0 6.93 -2.68 0 0 -10.45 2.56 0 0 1.23 0.03 0c0.57,-1.03 1.54,-1.5 2.67,-1.5 1.67,0 2.66,0.92 2.66,2.98l0 7.74 -2.68 0z"/>
  <path class="fil7" d="M267.26 119.02l2.68 0 0 10.45 -2.68 0 0 -10.45zm0 -3.57l2.68 0 0 2.3 -2.68 0 0 -2.3z"/>
  <path class="fil7" d="M277.3 124.25c-0.37,0.27 -0.82,0.44 -1.15,0.52 -1.09,0.24 -1.52,0.76 -1.52,1.69 0,0.8 0.3,1.46 1.01,1.46 0.72,0 1.66,-0.47 1.66,-1.61l0 -2.06zm0.32 5.22c-0.17,-0.32 -0.25,-0.73 -0.32,-1.09l-0.05 0c-0.62,1.09 -1.37,1.36 -2.65,1.36 -1.87,0 -2.53,-1.59 -2.53,-2.99 0,-1.96 0.8,-2.75 2.64,-3.26l1.52 -0.41c0.8,-0.21 1.07,-0.52 1.07,-1.22 0,-0.8 -0.36,-1.28 -1.25,-1.28 -0.81,0 -1.24,0.54 -1.24,1.36l0 0.29 -2.41 0 0 -0.25c0,-2.41 1.65,-3.23 3.67,-3.23 3.19,0 3.79,1.32 3.79,3.21l0 5.49c0,0.97 0.06,1.42 0.33,2.02l-2.57 0z"/>
  <path class="fil7" d="M285.97 129.74c-2.68,0 -4,-1.3 -4,-5.49 0,-4.29 1.76,-5.5 4.23,-5.5 2.46,0 3.74,1.58 3.74,4.04l-2.56 0c0,-1.01 -0.19,-2.1 -1.2,-2.1 -1.32,0 -1.53,1.17 -1.53,3.58 0,2.58 0.23,3.65 1.43,3.65 0.9,0 1.3,-0.76 1.3,-2.45l2.56 0c0,2.74 -1.14,4.27 -3.97,4.27z"/>
  <path class="fil7" d="M297.18 129.47l0 -7.2c0,-1.05 -0.35,-1.46 -1.14,-1.46 -0.91,0 -1.42,0.56 -1.42,1.73l0 6.93 -2.68 0 0 -13.86 2.68 0 0 4.48 0.04 0c0.51,-0.89 1.42,-1.34 2.55,-1.34 1.67,0 2.65,0.92 2.65,2.98l0 7.74 -2.68 0z"/>
  <path class="fil8" d="M297.18 129.47l0 -7.2c0,-1.05 -0.35,-1.46 -1.14,-1.46 -0.91,0 -1.42,0.56 -1.42,1.73l0 6.93 -2.68 0 0 -13.86 2.68 0 0 4.48 0.04 0c0.51,-0.89 1.42,-1.34 2.55,-1.34 1.67,0 2.65,0.92 2.65,2.98l0 7.74 -2.68 0z"/>
 </g>
</svg>
