<?xml version="1.0" encoding="UTF-8"?>
<!DOCTYPE svg PUBLIC "-//W3C//DTD SVG 1.1//EN" "http://www.w3.org/Graphics/SVG/1.1/DTD/svg11.dtd">
<!-- Creator: CorelDRAW 2018 (64-Bit) -->
<svg xmlns="http://www.w3.org/2000/svg" xml:space="preserve" width="300px" height="301px" version="1.1" style="shape-rendering:geometricPrecision; text-rendering:geometricPrecision; image-rendering:optimizeQuality; fill-rule:evenodd; clip-rule:evenodd"
viewBox="0 0 297.35 298.63"
 xmlns:xlink="http://www.w3.org/1999/xlink">
 <defs>
  <style type="text/css">
   <![CDATA[
    .fil0 {fill:#171796}
    .fil1 {fill:#FEFEFE;fill-rule:nonzero}
   ]]>
  </style>
 </defs>
 <g id="Warstwa_x0020_1">
  <metadata id="CorelCorpID_0Corel-Layer"/>
  <g id="_2178138029248">
   <path class="fil0" d="M117.59 74.92l15.43 0 0 11.68c0,9.3 -15.41,9.3 -15.42,-0.14l-0.01 -11.54zm-98.32 69.32l0 -4.93 -17.28 0 0 4.93 0.91 -0.54 0.96 -2.78 5.09 -0.62 0 24.62 6.51 0 -0.29 -0.75 -2.86 -0.87 0 -23 5.1 0.62 0.95 2.78 0.91 0.54zm29.16 7.87c-0.01,-1.35 -0.22,-2.67 -0.62,-3.94 -0.4,-1.27 -0.97,-2.47 -1.7,-3.57 -0.73,-1.1 -1.58,-2.08 -2.57,-2.91 -0.98,-0.84 -2.06,-1.49 -3.22,-1.96 -1.17,-0.47 -2.38,-0.71 -3.66,-0.71 -1.27,0 -2.48,0.24 -3.64,0.71 -1.17,0.47 -2.24,1.12 -3.23,1.96 -0.98,0.83 -1.84,1.81 -2.57,2.91 -0.73,1.1 -1.3,2.3 -1.71,3.57 -0.41,1.27 -0.61,2.59 -0.62,3.94 0.01,1.34 0.21,2.65 0.62,3.92 0.41,1.27 0.98,2.47 1.71,3.57 0.74,1.11 1.6,2.08 2.59,2.92 0.98,0.84 2.06,1.49 3.23,1.96 1.17,0.48 2.39,0.72 3.66,0.72 1.26,0 2.48,-0.24 3.64,-0.72 1.16,-0.47 2.23,-1.12 3.21,-1.96 0.98,-0.84 1.84,-1.81 2.56,-2.92 0.74,-1.1 1.3,-2.3 1.7,-3.57 0.4,-1.27 0.61,-2.58 0.62,-3.92zm-3.69 0c0,0.79 -0.06,1.64 -0.19,2.53 -0.13,0.89 -0.33,1.78 -0.6,2.68 -0.27,0.89 -0.62,1.74 -1.04,2.55 -0.43,0.81 -0.94,1.53 -1.54,2.16 -0.59,0.63 -1.28,1.13 -2.07,1.5 -0.78,0.36 -1.66,0.55 -2.64,0.56 -0.99,-0.01 -1.87,-0.2 -2.66,-0.56 -0.79,-0.37 -1.48,-0.87 -2.08,-1.5 -0.6,-0.63 -1.12,-1.35 -1.55,-2.16 -0.42,-0.81 -0.78,-1.66 -1.05,-2.55 -0.27,-0.9 -0.47,-1.79 -0.6,-2.68 -0.12,-0.89 -0.18,-1.74 -0.18,-2.53 0,-0.79 0.06,-1.64 0.18,-2.53 0.13,-0.89 0.33,-1.78 0.6,-2.68 0.27,-0.89 0.63,-1.74 1.05,-2.55 0.43,-0.81 0.95,-1.53 1.55,-2.16 0.6,-0.63 1.29,-1.13 2.08,-1.5 0.79,-0.36 1.67,-0.55 2.66,-0.56 0.98,0.01 1.86,0.2 2.64,0.56 0.79,0.37 1.48,0.87 2.07,1.5 0.6,0.63 1.11,1.35 1.54,2.16 0.42,0.81 0.77,1.66 1.04,2.55 0.27,0.9 0.47,1.79 0.6,2.68 0.13,0.89 0.19,1.74 0.19,2.53zm40.01 -12.8l-6.67 0 0.29 0.78 2.9 0.91c0.11,1.41 0.04,2.97 -0.2,4.66 -0.23,1.69 -0.61,3.46 -1.14,5.3 -0.53,1.84 -1.19,3.68 -1.97,5.54 -0.79,1.84 -1.69,3.63 -2.7,5.35l-6.46 -22.54 -6.09 0 0.29 0.74 2.86 0.91 3.44 11.85c-0.52,1.54 -1.13,3.08 -1.82,4.6 -0.69,1.52 -1.45,3 -2.29,4.44l-6.46 -22.54 -6.09 0 0.29 0.74 2.86 0.91 6.96 23.96 1.16 0c1.05,-1.32 2.09,-2.77 3.14,-4.36 1.06,-1.58 2.05,-3.28 2.99,-5.09l2.78 9.45 1.16 0c0.99,-1.24 1.97,-2.61 2.97,-4.09 0.99,-1.49 1.95,-3.08 2.85,-4.77 0.9,-1.68 1.72,-3.45 2.45,-5.28 0.71,-1.83 1.3,-3.7 1.74,-5.63 0.44,-1.93 0.7,-3.88 0.76,-5.84zm25.26 25.61l-9.2 -25.61 -2.77 0 -9 25.61 5.89 0 -0.29 -0.75 -2.9 -0.91 2.4 -7.79 9.08 0 2.77 7.79 -2.9 0.91 -0.29 0.75 7.21 0zm-7.42 -11.15l-7.91 0 3.69 -11.94 4.22 11.94zm35.29 11.15l-0.29 -0.75 -1.99 -0.62 -7.46 -10.03c0.21,-0.1 0.52,-0.3 0.92,-0.58 0.39,-0.28 0.82,-0.64 1.29,-1.07 0.47,-0.44 0.92,-0.93 1.36,-1.49 0.43,-0.55 0.79,-1.15 1.06,-1.79 0.28,-0.65 0.42,-1.33 0.43,-2.03 -0.01,-1.71 -0.46,-3.1 -1.37,-4.17 -0.9,-1.07 -2.2,-1.85 -3.89,-2.35 -1.69,-0.49 -3.73,-0.74 -6.09,-0.73l-6.51 0 0.29 0.74 2.9 0.87 0 22.38 -2.94 0.87 -0.29 0.75 6.55 0 0 -24.33c1.14,-0.14 2.2,-0.12 3.17,0.06 0.98,0.18 1.83,0.52 2.56,1.02 0.72,0.49 1.29,1.15 1.69,1.97 0.41,0.82 0.61,1.81 0.61,2.96 0,1 -0.15,1.92 -0.45,2.75 -0.3,0.82 -0.7,1.56 -1.19,2.2 -0.5,0.64 -1.04,1.19 -1.64,1.65 -0.6,0.45 -1.21,0.8 -1.81,1.07l8 10.65 5.09 0zm20.7 -25.61l-15.54 0 0 7.33 0.83 -0.37 1.58 -5.22 9.24 -0.67 -13.01 24.54 15.87 0 0 -7.26 -0.83 0.38 -1.58 5.18 -9.69 0.7 13.13 -24.61zm25.93 0l-6.47 0 0.29 0.7 2.9 0.91 -5.63 14.01 -7.01 -15.62 -5.96 0 0.29 0.7 2.9 0.91 6.84 15.5 0 8.5 6.5 0 -0.29 -0.71 -2.9 -0.91 0 -6.88 8.54 -17.11zm21.32 19.26c-0.01,-0.84 -0.17,-1.62 -0.47,-2.3 -0.3,-0.69 -0.68,-1.31 -1.16,-1.85 -0.48,-0.55 -1,-1.03 -1.56,-1.46 -0.56,-0.43 -1.12,-0.8 -1.67,-1.13 -0.55,-0.33 -1.04,-0.62 -1.48,-0.88 -0.45,-0.26 -0.93,-0.54 -1.46,-0.84 -0.53,-0.31 -1.06,-0.64 -1.57,-1.02 -0.53,-0.38 -1.01,-0.8 -1.45,-1.27 -0.43,-0.46 -0.78,-0.99 -1.04,-1.57 -0.26,-0.58 -0.4,-1.22 -0.41,-1.93 0.01,-0.73 0.18,-1.36 0.52,-1.91 0.35,-0.54 0.79,-1 1.36,-1.37 0.57,-0.37 1.2,-0.64 1.9,-0.81 0.7,-0.18 1.4,-0.25 2.13,-0.23 0.72,0.02 1.4,0.15 2.05,0.38l1.57 6.39 0.87 0.37 0 -7.92c-2.02,-0.3 -3.79,-0.41 -5.3,-0.31 -1.51,0.11 -2.79,0.35 -3.84,0.75 -1.04,0.4 -1.89,0.9 -2.53,1.5 -0.65,0.59 -1.11,1.23 -1.41,1.9 -0.29,0.68 -0.43,1.35 -0.43,2.01 0,1.05 0.2,2 0.59,2.83 0.38,0.85 0.97,1.63 1.75,2.35 0.78,0.72 1.75,1.44 2.93,2.15 0.78,0.48 1.52,0.91 2.2,1.29 0.68,0.38 1.3,0.76 1.85,1.13 0.55,0.37 1.02,0.76 1.4,1.19 0.4,0.42 0.7,0.91 0.9,1.47 0.22,0.56 0.32,1.21 0.32,1.97 -0.01,0.96 -0.24,1.8 -0.71,2.5 -0.47,0.71 -1.13,1.27 -1.97,1.67 -0.84,0.42 -1.83,0.66 -2.97,0.74 -1.13,0.08 -2.37,-0.02 -3.72,-0.31l-2.11 -6.92 -0.91 -0.38 0.54 7.96c1.71,0.45 3.33,0.7 4.87,0.74 1.54,0.05 2.94,-0.08 4.21,-0.39 1.27,-0.3 2.38,-0.77 3.3,-1.38 0.93,-0.61 1.65,-1.35 2.16,-2.21 0.5,-0.86 0.75,-1.83 0.75,-2.9zm22.07 -14.33l0 -4.93 -17.28 0 0 4.93 0.91 -0.54 0.95 -2.78 5.1 -0.62 0 24.62 6.51 0 -0.3 -0.75 -2.85 -0.87 0 -23 5.09 0.62 0.96 2.78 0.91 0.54zm35.99 -4.93l-6.67 0 0.29 0.78 2.9 0.91c0.1,1.41 0.03,2.97 -0.2,4.66 -0.23,1.69 -0.61,3.46 -1.14,5.3 -0.53,1.84 -1.19,3.68 -1.98,5.54 -0.78,1.84 -1.68,3.63 -2.69,5.35l-6.46 -22.54 -6.1 0 0.3 0.74 2.85 0.91 3.44 11.85c-0.51,1.54 -1.12,3.08 -1.81,4.6 -0.69,1.52 -1.45,3 -2.29,4.44l-6.46 -22.54 -6.1 0 0.29 0.74 2.86 0.91 6.97 23.96 1.16 0c1.05,-1.32 2.09,-2.77 3.14,-4.36 1.06,-1.58 2.05,-3.28 2.99,-5.09l2.78 9.45 1.16 0c0.98,-1.24 1.97,-2.61 2.97,-4.09 0.99,-1.49 1.94,-3.08 2.85,-4.77 0.9,-1.68 1.72,-3.45 2.44,-5.28 0.72,-1.83 1.31,-3.7 1.75,-5.63 0.44,-1.93 0.7,-3.88 0.76,-5.84zm30.56 12.8c0,-1.35 -0.21,-2.67 -0.61,-3.94 -0.41,-1.27 -0.97,-2.47 -1.7,-3.57 -0.73,-1.1 -1.59,-2.08 -2.58,-2.91 -0.98,-0.84 -2.05,-1.49 -3.21,-1.96 -1.17,-0.47 -2.39,-0.71 -3.66,-0.71 -1.27,0 -2.48,0.24 -3.64,0.71 -1.17,0.47 -2.24,1.12 -3.23,1.96 -0.98,0.83 -1.84,1.81 -2.58,2.91 -0.73,1.1 -1.29,2.3 -1.7,3.57 -0.41,1.27 -0.62,2.59 -0.62,3.94 0,1.34 0.21,2.65 0.62,3.92 0.41,1.27 0.97,2.47 1.71,3.57 0.73,1.11 1.6,2.08 2.58,2.92 0.99,0.84 2.07,1.49 3.24,1.96 1.16,0.48 2.39,0.72 3.66,0.72 1.26,0 2.48,-0.24 3.64,-0.72 1.16,-0.47 2.23,-1.12 3.21,-1.96 0.98,-0.84 1.84,-1.81 2.56,-2.92 0.73,-1.1 1.3,-2.3 1.7,-3.57 0.4,-1.27 0.61,-2.58 0.61,-3.92zm-3.68 0c0,0.79 -0.07,1.64 -0.19,2.53 -0.13,0.89 -0.33,1.78 -0.6,2.68 -0.27,0.89 -0.62,1.74 -1.04,2.55 -0.43,0.81 -0.94,1.53 -1.54,2.16 -0.6,0.63 -1.29,1.13 -2.07,1.5 -0.79,0.36 -1.66,0.55 -2.64,0.56 -0.99,-0.01 -1.88,-0.2 -2.66,-0.56 -0.79,-0.37 -1.48,-0.87 -2.08,-1.5 -0.6,-0.63 -1.12,-1.35 -1.55,-2.16 -0.43,-0.81 -0.78,-1.66 -1.05,-2.55 -0.27,-0.9 -0.47,-1.79 -0.6,-2.68 -0.12,-0.89 -0.19,-1.74 -0.19,-2.53 0,-0.79 0.07,-1.64 0.19,-2.53 0.13,-0.89 0.33,-1.78 0.6,-2.68 0.27,-0.89 0.62,-1.74 1.05,-2.55 0.43,-0.81 0.95,-1.53 1.55,-2.16 0.6,-0.63 1.29,-1.13 2.08,-1.5 0.78,-0.36 1.67,-0.55 2.66,-0.56 0.98,0.01 1.85,0.2 2.64,0.56 0.78,0.37 1.47,0.87 2.07,1.5 0.6,0.63 1.11,1.35 1.54,2.16 0.42,0.81 0.77,1.66 1.04,2.55 0.27,0.9 0.47,1.79 0.6,2.68 0.12,0.89 0.19,1.74 0.19,2.53zm-266.52 57.14l0 -25.62 -6.47 0 0.29 0.74 2.9 0.87 0 23.38c-2.29,0.25 -4.23,0.14 -5.83,-0.31 -1.6,-0.46 -2.89,-1.23 -3.88,-2.34 -0.98,-1.1 -1.69,-2.5 -2.12,-4.2 -0.43,-1.7 -0.62,-3.67 -0.56,-5.91l0.29 -12.23 -6.47 0 0.29 0.74 2.9 0.87 -0.29 10.91c-0.05,1.9 0.11,3.67 0.51,5.28 0.38,1.61 1.03,3.03 1.94,4.25 0.9,1.22 2.09,2.2 3.58,2.92 1.48,0.73 3.29,1.16 5.43,1.29 2.14,0.14 4.63,-0.08 7.49,-0.64zm261.48 -28.29l-1.24 0 3.11 -4.81 4.68 0 -6.55 4.81zm-229.32 20.2c0,-0.73 -0.13,-1.46 -0.4,-2.2 -0.27,-0.72 -0.68,-1.4 -1.23,-2.05 -0.55,-0.64 -1.25,-1.18 -2.09,-1.65 -0.85,-0.46 -1.85,-0.78 -2.99,-0.98 0.2,-0.03 0.46,-0.12 0.78,-0.28 0.33,-0.17 0.69,-0.39 1.06,-0.67 0.37,-0.28 0.73,-0.62 1.06,-1 0.34,-0.38 0.61,-0.81 0.83,-1.27 0.21,-0.47 0.32,-0.97 0.33,-1.5 0,-1.39 -0.36,-2.53 -1.1,-3.4 -0.74,-0.87 -1.9,-1.52 -3.48,-1.92 -1.59,-0.41 -3.64,-0.62 -6.16,-0.61l-6.46 0 0.29 0.74 2.9 0.87 0 24.01c1.9,0.31 3.68,0.42 5.36,0.34 1.68,-0.08 3.2,-0.34 4.59,-0.77 1.38,-0.42 2.57,-1.01 3.57,-1.74 1,-0.74 1.77,-1.61 2.32,-2.6 0.54,-1 0.81,-2.1 0.82,-3.32zm-3.61 0.29c0,1.06 -0.22,2 -0.62,2.82 -0.42,0.83 -0.97,1.53 -1.66,2.12 -0.69,0.59 -1.46,1.05 -2.31,1.38 -0.85,0.34 -1.72,0.55 -2.6,0.63 -0.9,0.07 -1.74,0.01 -2.55,-0.19l0 -23.34c1.12,-0.16 2.11,-0.15 2.99,0.02 0.87,0.18 1.63,0.47 2.24,0.89 0.62,0.43 1.09,0.93 1.41,1.52 0.33,0.58 0.49,1.21 0.49,1.88 0.01,1.47 -0.32,2.63 -0.98,3.49 -0.66,0.87 -1.67,1.47 -3.04,1.82l-0.33 0.66c0.25,0 0.59,0.03 1.02,0.11 0.43,0.07 0.91,0.18 1.43,0.35 0.52,0.18 1.05,0.41 1.58,0.72 0.52,0.3 1.01,0.69 1.45,1.15 0.44,0.46 0.8,1.02 1.07,1.68 0.27,0.66 0.41,1.41 0.41,2.29zm30.8 2.9l-0.91 0.13 -1.66 3.4 -7.79 0.37 0 -11.65 7.25 0 1.16 -1.65 -8.41 0 0 -10.33 7.09 0.62 0.95 2.78 0.91 0.54 0 -4.93 -15.46 0 0.29 0.74 2.9 0.87 0 24.01 12.73 0 0.95 -4.9zm26.11 -20.72l-15.54 0 0 7.34 0.83 -0.38 1.57 -5.22 9.25 -0.66 -13.02 24.54 15.88 0 0 -7.26 -0.83 0.37 -1.58 5.19 -9.7 0.7 13.14 -24.62zm28.93 8.74c0.01,-1.25 -0.22,-2.4 -0.69,-3.46 -0.47,-1.06 -1.2,-1.99 -2.21,-2.77 -1,-0.79 -2.3,-1.41 -3.91,-1.84 -1.61,-0.44 -3.55,-0.66 -5.83,-0.67l-6.51 0 0.29 0.74 2.91 0.87 0 24.01 6.5 0 -0.29 -0.75 -2.9 -0.87 0 -22.72c1.53,-0.16 2.83,-0.11 3.89,0.16 1.07,0.26 1.94,0.68 2.62,1.24 0.68,0.56 1.21,1.2 1.58,1.91 0.38,0.72 0.64,1.45 0.78,2.19 0.15,0.74 0.22,1.42 0.21,2.05 0,1.05 -0.17,2.06 -0.5,3.02 -0.34,0.96 -0.84,1.82 -1.5,2.59 -0.66,0.78 -1.48,1.41 -2.44,1.92 -0.97,0.5 -2.09,0.82 -3.35,0.97l0.45 0.99c0.94,-0.07 1.9,-0.26 2.9,-0.57 1.01,-0.32 1.98,-0.75 2.93,-1.3 0.94,-0.54 1.8,-1.2 2.56,-1.96 0.77,-0.76 1.37,-1.62 1.82,-2.59 0.45,-0.96 0.68,-2.01 0.69,-3.16zm18.95 16.88l-0.29 -0.75 -2.91 -0.87 0 -24 -6.5 0 0.29 0.74 2.9 0.87 0 24.01 6.51 0zm26.4 -4.9l-0.91 0.13 -1.66 3.4 -7.79 0.37 0 -11.65 7.25 0 1.16 -1.65 -8.41 0 0 -10.33 7.08 0.62 0.96 2.78 0.91 0.54 0 -4.93 -15.46 0 0.29 0.74 2.9 0.87 0 24.01 12.72 0 0.96 -4.9zm26.94 -12.85l0 -7.91c-2.06,-0.22 -3.98,-0.16 -5.76,0.19 -1.78,0.35 -3.39,0.91 -4.82,1.69 -1.44,0.78 -2.66,1.72 -3.69,2.81 -1.02,1.1 -1.81,2.31 -2.35,3.6 -0.55,1.3 -0.82,2.64 -0.83,4.02 0.01,1.49 0.26,2.91 0.75,4.27 0.49,1.37 1.21,2.62 2.14,3.76 0.94,1.14 2.06,2.12 3.38,2.95 1.33,0.83 2.81,1.46 4.47,1.89 1.65,0.43 3.45,0.61 5.38,0.56l0.46 -1.12c-2.16,-0.01 -4.04,-0.33 -5.66,-0.95 -1.62,-0.63 -2.96,-1.51 -4.04,-2.63 -1.08,-1.13 -1.89,-2.43 -2.42,-3.92 -0.54,-1.5 -0.81,-3.11 -0.81,-4.85 0,-1.41 0.2,-2.72 0.6,-3.9 0.39,-1.19 0.94,-2.24 1.66,-3.17 0.71,-0.93 1.54,-1.7 2.49,-2.34 0.95,-0.62 2,-1.09 3.12,-1.39 1.13,-0.3 2.3,-0.42 3.53,-0.35l1.53 6.42 0.87 0.37zm26.49 -7.87l-15.55 0 0 7.34 0.83 -0.38 1.58 -5.22 9.24 -0.66 -13.02 24.54 15.88 0 0 -7.26 -0.83 0.37 -1.57 5.19 -9.7 0.7 13.14 -24.62zm26.65 20.72l-0.91 0.13 -1.66 3.4 -7.8 0.37 0 -11.65 7.26 0 1.16 -1.65 -8.42 0 0 -10.33 7.09 0.62 0.96 2.78 0.91 0.54 0 -4.93 -15.46 0 0.29 0.74 2.9 0.87 0 24.01 12.72 0 0.96 -4.9zm30.34 -20.72l-5.56 0 0.29 0.74 2.86 0.83 0.71 17.33 -12.15 -18.9 -6.96 0 0.29 0.74 2.9 0.92 -0.62 23.96 5.47 0 -0.29 -0.75 -2.9 -0.87 -0.54 -22.14 15.34 23.84 0.45 0 0.71 -25.7zm-262.29 44.26l-6.67 0 0.29 0.79 2.9 0.91c0.11,1.41 0.04,2.96 -0.2,4.66 -0.23,1.69 -0.61,3.46 -1.14,5.3 -0.53,1.84 -1.19,3.68 -1.97,5.54 -0.79,1.84 -1.69,3.63 -2.7,5.35l-6.46 -22.55 -6.1 0 0.29 0.75 2.86 0.91 3.44 11.85c-0.51,1.54 -1.12,3.08 -1.81,4.6 -0.69,1.52 -1.45,3 -2.29,4.44l-6.47 -22.55 -6.09 0 0.29 0.75 2.86 0.91 6.96 23.96 1.16 0c1.06,-1.32 2.1,-2.77 3.15,-4.36 1.06,-1.58 2.05,-3.28 2.99,-5.09l2.78 9.45 1.16 0c0.99,-1.24 1.97,-2.61 2.97,-4.09 0.99,-1.49 1.95,-3.08 2.85,-4.77 0.91,-1.69 1.72,-3.45 2.45,-5.28 0.72,-1.83 1.3,-3.71 1.75,-5.64 0.44,-1.92 0.69,-3.87 0.75,-5.84zm27.22 0l-15.54 0 0 7.34 0.83 -0.38 1.57 -5.22 9.25 -0.66 -13.02 24.54 15.88 0 0 -7.26 -0.83 0.38 -1.58 5.18 -9.7 0.7 13.14 -24.62zm29.29 25.62l-9.2 -25.62 -2.78 0 -8.99 25.62 5.88 0 -0.29 -0.75 -2.9 -0.91 2.4 -7.79 9.08 0 2.78 7.79 -2.9 0.91 -0.29 0.75 7.21 0zm-7.42 -11.15l-7.92 0 3.69 -11.94 4.23 11.94zm22.82 2.07l0 -16.54 -6.5 0 0.29 0.75 2.9 0.87 0 19.35c-0.01,1.96 -0.22,3.69 -0.63,5.21 -0.41,1.52 -0.99,2.87 -1.74,4.05 -0.75,1.19 -1.63,2.26 -2.65,3.22l0.58 0.46c1.64,-1.29 2.97,-2.63 4,-4.02 1.02,-1.39 1.81,-2.82 2.35,-4.28 0.55,-1.46 0.92,-2.96 1.12,-4.48 0.2,-1.51 0.3,-3.04 0.28,-4.59zm29.17 4.19l-0.91 0.12 -1.66 3.4 -7.79 0.37 0 -11.65 7.25 0 1.16 -1.65 -8.41 0 0 -10.32 7.08 0.62 0.96 2.77 0.91 0.54 0 -4.93 -15.46 0 0.29 0.75 2.9 0.87 0 24 12.73 0 0.95 -4.89zm39.03 -20.73l-7.46 0 -6.76 18.82 -7.13 -18.82 -7.33 0 0.29 0.75 2.9 0.87 -2.37 24 5.68 0 -0.29 -0.75 -2.9 -0.91 1.29 -22.18 9.2 24.17 8.5 -24.21 2.65 22.22 -2.9 0.91 -0.29 0.75 6.59 0 -2.86 -24 2.9 -0.87 0.29 -0.75zm32.23 0l-5.55 0 0.29 0.75 2.86 0.83 0.7 17.32 -12.14 -18.9 -6.97 0 0.29 0.75 2.91 0.91 -0.63 23.96 5.48 0 -0.29 -0.75 -2.91 -0.87 -0.53 -22.13 15.33 23.83 0.46 0 0.7 -25.7zm32.4 0l-6.47 0 0.29 0.7 2.91 0.92 -5.64 14.01 -7.01 -15.63 -5.97 0 0.29 0.7 2.91 0.92 6.84 15.5 0 8.5 6.5 0 -0.29 -0.71 -2.9 -0.91 0 -6.88 8.54 -17.12zm25.68 7.88l0 -7.92c-2.06,-0.22 -3.98,-0.15 -5.76,0.19 -1.78,0.35 -3.38,0.91 -4.82,1.69 -1.44,0.78 -2.66,1.72 -3.68,2.82 -1.03,1.09 -1.81,2.3 -2.36,3.59 -0.54,1.3 -0.82,2.64 -0.83,4.02 0.01,1.49 0.26,2.92 0.76,4.28 0.49,1.36 1.2,2.61 2.14,3.75 0.93,1.14 2.06,2.13 3.38,2.95 1.32,0.83 2.81,1.46 4.46,1.89 1.66,0.44 3.45,0.62 5.39,0.56l0.45 -1.12c-2.15,-0.01 -4.04,-0.33 -5.65,-0.95 -1.62,-0.63 -2.97,-1.51 -4.05,-2.63 -1.07,-1.12 -1.88,-2.43 -2.42,-3.92 -0.54,-1.49 -0.81,-3.11 -0.81,-4.85 0.01,-1.41 0.21,-2.72 0.6,-3.9 0.4,-1.19 0.95,-2.24 1.66,-3.17 0.71,-0.92 1.54,-1.7 2.49,-2.33 0.96,-0.63 2,-1.1 3.13,-1.4 1.12,-0.3 2.3,-0.41 3.52,-0.35l1.53 6.42 0.87 0.38zm34.81 17.74l-0.29 -0.75 -2.91 -0.87 0 -24 -6.5 0 0.29 0.75 2.9 0.87 0 9.7 -12.06 0 0 -11.32 -6.51 0 0.29 0.75 2.9 0.87 0 24 6.51 0 -0.29 -0.75 -2.9 -0.87 0 -11.03 12.06 0 0 12.65 6.51 0zm-206.98 -178.58l27.34 -22.77 0 13.02 34.34 0.04 0 10.09c0.04,8.14 -1.32,18.58 9.01,18.61 8.63,-0.17 15.72,-10.15 15.82,-26.58 -0.12,-16.25 -9.47,-29.49 -28.65,-28.35 -12.64,1.05 -20.68,6.23 -29.97,12.18l-15.22 -48.93c20.13,-3.18 44.45,-3.62 60.67,2.96 17.41,7.55 32.1,25.39 31.91,46.64l-1.21 38.29c0.03,4.43 1.5,9.53 2.31,13.52l-18.46 0 -0.27 -6.2c-5.75,4.24 -13.16,8.2 -19.4,8.19 -7.83,-0.01 -15.67,-2.93 -20.66,-8.08 -4.32,4.06 -12.05,7.27 -17.47,7.42 -15.08,0 -18.97,-9.08 -19.01,-17.05l0 -13.01 -11.08 0.01z"/>
   <polygon class="fil0" points="1.74,272.04 294.21,272.04 294.21,298.63 1.74,298.63 "/>
   <path class="fil1" d="M105.75 279.02l-0.84 -2.11 -3.54 -0.23 0 16.53 2.1 0.63 0.21 0.54 -4.68 0 0 -17.73 -3.66 0.24 -0.75 2.13 -0.66 0.39 0 -3.57 12.48 0 0 3.57 -0.66 -0.39zm30.27 5.86l0.21 -7.84 -2.1 -0.66 -0.21 -0.54 4.68 0 -0.21 8.83c0,3.06 0.55,5.34 1.65,6.86 1.2,1.64 3.1,2.46 5.7,2.46 0.5,0 1.04,-0.03 1.62,-0.09l0 -16.86 -2.1 -0.66 -0.21 -0.54 4.68 0 0 18.51c-1.62,0.32 -3.13,0.48 -4.53,0.48 -3.22,0 -5.6,-0.94 -7.14,-2.82 -1.36,-1.68 -2.04,-4.05 -2.04,-7.13zm58.2 9.59l-0.84 0 -1.95 -6.75c-0.68,1.28 -1.4,2.5 -2.16,3.64 -0.68,1.03 -1.44,2.06 -2.28,3.11l-0.9 0 -5.04 -17.4 -2.1 -0.68 -0.21 -0.55 4.49 0 4.64 16.35c0.58,-1 1.13,-2.04 1.64,-3.12 0.52,-1.08 0.97,-2.19 1.38,-3.33l-2.55 -8.67 -2.07 -0.68 -0.21 -0.55 4.4 0 4.67 16.35c1.37,-2.32 2.45,-4.95 3.26,-7.89 0.74,-2.68 1.11,-5.09 1.11,-7.23l-2.1 -0.66 -0.21 -0.57 4.83 0c0,2.22 -0.41,4.55 -1.23,7 -0.7,2.06 -1.69,4.2 -2.97,6.4 -1.04,1.76 -2.24,3.5 -3.6,5.23z"/>
  </g>
 </g>
</svg>
