<?xml version="1.0" encoding="UTF-8"?>
<!DOCTYPE svg PUBLIC "-//W3C//DTD SVG 1.1//EN" "http://www.w3.org/Graphics/SVG/1.1/DTD/svg11.dtd">
<!-- Creator: CorelDRAW 2018 (64-Bit) -->
<svg xmlns="http://www.w3.org/2000/svg" xml:space="preserve" width="300px" height="118px" version="1.1" style="shape-rendering:geometricPrecision; text-rendering:geometricPrecision; image-rendering:optimizeQuality; fill-rule:evenodd; clip-rule:evenodd"
viewBox="0 0 300.14 118.45"
 xmlns:xlink="http://www.w3.org/1999/xlink">
 <defs>
  <style type="text/css">
   <![CDATA[
    .fil1 {fill:#E31E24;fill-rule:nonzero}
    .fil0 {fill:#323782;fill-rule:nonzero}
   ]]>
  </style>
 </defs>
 <g id="Warstwa_x0020_1">
  <metadata id="CorelCorpID_0Corel-Layer"/>
  <g id="_2177958918784">
   <path class="fil0" d="M6.48 90.85l0 15.59c0,4.72 1.91,7.1 5.19,7.1 3.41,0 5.29,-2.26 5.29,-7.1l0 -15.59 6.47 0 0 15.23c0,8.38 -4.47,12.37 -11.97,12.37 -7.24,0 -11.46,-3.83 -11.46,-12.45l0 -15.15 6.48 0z"/>
   <path class="fil0" d="M35.49 113.66c0.64,0.08 1.4,0.08 2.51,0.08 2.94,0 5.54,-1.09 5.54,-3.95 0,-2.7 -2.6,-3.79 -5.83,-3.79l-2.22 0 0 7.66zm0 -12.05l2.13 0c3.45,0 5.24,-1.33 5.24,-3.35 0,-2.05 -1.66,-3.14 -4.6,-3.14 -1.45,0 -2.26,0.08 -2.77,0.16l0 6.33zm-6.43 -10.4c1.7,-0.28 5.11,-0.56 8.39,-0.56 3.96,0 6.39,0.36 8.52,1.53 2,1.01 3.41,2.86 3.41,5.36 0,2.37 -1.49,4.59 -4.73,5.76l0 0.08c3.28,0.81 5.71,3.18 5.71,6.65 0,2.5 -1.2,4.43 -2.98,5.8 -2.09,1.57 -5.58,2.46 -11.29,2.46 -3.2,0 -5.58,-0.2 -7.03,-0.4l0 -26.68z"/>
   <polygon class="fil0" points="71.87,106.52 61.31,106.52 61.31,112.97 73.11,112.97 73.11,118.01 54.83,118.01 54.83,90.85 72.51,90.85 72.51,95.89 61.31,95.89 61.31,101.53 71.87,101.53 "/>
   <polygon class="fil0" points="75.75,114.7 89.43,96.09 89.43,95.93 76.98,95.93 76.98,90.85 97.82,90.85 97.82,94.39 84.44,112.77 84.44,112.93 98.03,112.93 98.03,118.01 75.75,118.01 "/>
   <path class="fil0" d="M108.55 103.54c0.56,0.12 1.2,0.16 2.18,0.16 3.45,0 5.58,-1.65 5.58,-4.39 0,-2.5 -1.83,-3.99 -5.11,-3.99 -1.28,0 -2.18,0.08 -2.65,0.2l0 8.02zm-6.43 -12.33c2,-0.32 4.82,-0.56 8.78,-0.56 4,0 6.86,0.72 8.77,2.17 1.88,1.37 3.07,3.63 3.07,6.29 0,2.66 -0.89,4.96 -2.64,6.45 -2.21,1.93 -5.5,2.86 -9.33,2.86 -0.85,0 -1.62,-0.04 -2.22,-0.16l0 9.75 -6.43 0 0 -26.8z"/>
   <polygon class="fil0" points="133.39,118.01 126.92,118.01 126.92,90.85 133.39,90.85 "/>
   <polygon class="fil0" points="156.1,106.52 145.53,106.52 145.53,112.97 157.33,112.97 157.33,118.01 139.06,118.01 139.06,90.85 156.73,90.85 156.73,95.89 145.53,95.89 145.53,101.53 156.1,101.53 "/>
   <path class="fil0" d="M182.81 117.28c-1.15,0.53 -3.88,1.17 -7.33,1.17 -9.93,0 -15.04,-5.88 -15.04,-13.62 0,-9.27 6.99,-14.39 15.68,-14.39 3.36,0 5.92,0.61 7.07,1.21l-1.36 4.84c-1.28,-0.52 -3.11,-1.01 -5.45,-1.01 -5.12,0 -9.12,2.94 -9.12,8.99 0,5.44 3.41,8.86 9.16,8.86 2,0 4.13,-0.36 5.45,-0.88l0.94 4.83z"/>
   <polygon class="fil0" points="185.32,114.7 199,96.09 199,95.93 186.56,95.93 186.56,90.85 207.39,90.85 207.39,94.39 194.01,112.77 194.01,112.93 207.6,112.93 207.6,118.01 185.32,118.01 "/>
   <polygon class="fil0" points="228.78,106.52 218.21,106.52 218.21,112.97 230.01,112.97 230.01,118.01 211.74,118.01 211.74,90.85 229.42,90.85 229.42,95.89 218.21,95.89 218.21,101.53 228.78,101.53 "/>
   <path class="fil0" d="M234.44 118.01l0 -27.16 7.59 0 5.96 9.95c1.71,2.86 3.37,6.25 4.69,9.31l0.08 0c-0.38,-3.59 -0.51,-7.25 -0.51,-11.36l0 -7.9 5.97 0 0 27.16 -6.82 0 -6.13 -10.48c-1.71,-2.9 -3.63,-6.41 -4.99,-9.59l-0.17 0c0.21,3.63 0.3,7.46 0.3,11.89l0 8.18 -5.97 0z"/>
   <polygon class="fil0" points="270.36,118.01 263.88,118.01 263.88,90.85 270.36,90.85 "/>
   <path class="fil0" d="M289.96 106.44l-1.79 -5.76c-0.51,-1.61 -1.03,-3.63 -1.45,-5.24l-0.09 0c-0.42,1.61 -0.85,3.67 -1.32,5.24l-1.7 5.76 6.35 0zm-7.29 4.6l-2.05 6.97 -6.68 0 8.73 -27.16 8.52 0 8.95 27.16 -7.03 0 -2.22 -6.97 -8.22 0z"/>
   <polygon class="fil1" points="254.32,53.82 298.62,21.71 298.62,0 211.98,0 211.98,23.17 254.67,23.17 210.12,55.26 210.12,77.19 299.81,77.19 299.81,53.82 "/>
   <polygon class="fil1" points="0,0 0,23.36 29.8,23.36 29.8,77.19 57.46,77.19 57.46,23.36 87.24,23.36 87.24,0 "/>
   <path class="fil1" d="M168.97 0l0 44.36c0,2.66 -0.4,6.13 -2.29,7.5 -0.88,0.63 -3.38,1.7 -10.14,1.7l-12.34 0c-8.68,0 -11.43,-1.17 -12.24,-1.7 -2.04,-1.29 -2.35,-5.25 -2.35,-7.5l0 -44.36 -27.66 0 0 51.12c0,9.85 2.98,16.8 8.87,20.66 5.56,3.65 14.84,5.42 28.38,5.42l24.29 0c11.56,0 19.71,-1.85 24.91,-5.64 5.46,-3.97 8.23,-10.85 8.23,-20.44l0 -51.12 -27.66 0z"/>
  </g>
 </g>
</svg>
