<?xml version="1.0" encoding="UTF-8"?>
<!DOCTYPE svg PUBLIC "-//W3C//DTD SVG 1.1//EN" "http://www.w3.org/Graphics/SVG/1.1/DTD/svg11.dtd">
<!-- Creator: CorelDRAW 2018 (64-Bit) -->
<svg xmlns="http://www.w3.org/2000/svg" xml:space="preserve" width="300px" height="300px" version="1.1" style="shape-rendering:geometricPrecision; text-rendering:geometricPrecision; image-rendering:optimizeQuality; fill-rule:evenodd; clip-rule:evenodd"
viewBox="0 0 300.21 300.21"
 xmlns:xlink="http://www.w3.org/1999/xlink">
 <defs>
  <style type="text/css">
   <![CDATA[
    .fil1 {fill:#FEFEFE;fill-rule:nonzero}
    .fil0 {fill:#0060AA;fill-rule:nonzero}
   ]]>
  </style>
 </defs>
 <g id="Warstwa_x0020_1">
  <metadata id="CorelCorpID_0Corel-Layer"/>
  <g id="_2178206025616">
   <polygon class="fil0" points="0,300.21 300.21,300.21 300.21,0 0,0 "/>
   <path class="fil1" d="M24.73 191.23l10.24 0 0 30.2c0,9.97 5.96,15.95 13.79,15.95 7.91,0 13.78,-5.98 13.78,-15.95l0 -30.2 10.25 0 0 32.37c0,12.57 -9.42,23.31 -24.03,23.31 -14.61,0 -24.03,-10.74 -24.03,-23.31l0 -32.37z"/>
   <polygon class="fil1" points="129.67,245.74 129.67,191.23 119.53,191.23 119.53,225.24 89.78,191.23 84.25,191.23 84.25,245.64 94.39,245.64 94.39,211.78 124.06,245.74 "/>
   <polygon class="fil1" points="141.79,191.23 152.32,191.23 152.32,245.65 141.79,245.65 "/>
   <path class="fil1" d="M219.79 218.44c0,-16 -13.09,-28.96 -29.24,-28.96 -16.15,0 -29.25,12.96 -29.25,28.96 0,15.99 13.1,28.96 29.25,28.96 6.14,0 11.84,-1.89 16.55,-5.09l4.77 4.77 6.67 -6.67 -4.6 -4.6c3.68,-4.84 5.85,-10.85 5.85,-17.37zm-29.24 19.87c-10.49,0 -18.99,-8.9 -18.99,-19.87 0,-10.98 8.5,-19.87 18.99,-19.87 10.48,0 18.99,8.89 18.99,19.87 0,3.75 -1,7.25 -2.72,10.25l-6.29 -6.29 -6.67 6.67 6.42 6.42c-2.84,1.79 -6.17,2.82 -9.73,2.82z"/>
   <path class="fil1" d="M262.94 245.65l11.22 0 -23.18 -54.42 -7.06 0 -23.78 54.42 10.92 0 4.28 -10.25 23.45 0 4.15 10.25zm-23.87 -19.2l8.18 -19.58 7.92 19.58 -16.1 0z"/>
   <path class="fil1" d="M117.45 163.5l-66.94 0 6.98 -12.44 39.4 0c0.89,0.76 1.81,1.51 2.74,2.23 5.3,4.07 11.32,7.74 17.82,10.21z"/>
   <path class="fil1" d="M131.24 149.06c-8.38,-6.11 -14.18,-12.88 -18.47,-19.41 -4.82,-7.33 -15.35,-25.13 -7.73,-43.76 3.16,-4.23 7.35,-7.75 10.44,-10.01 5.14,-3.78 8.81,-5.52 15.02,-7.21 -5.52,2.98 -13.6,11.86 -12.76,28.93 0.39,8.02 4.2,17.42 8.02,23.23 9.72,14.8 21.94,21.13 34.52,24.37 5.89,1.52 14.97,2.26 26.68,2.89 9.49,0.51 28.91,0.63 32.3,0.62l3.62 0.01 8.32 15.85c0,0 -28.23,0.1 -41.34,-0.59 -21.26,-1.13 -41.05,-2.12 -58.62,-14.92z"/>
   <path class="fil1" d="M147.31 161.86c-4.6,1.14 -9.13,1.65 -13.28,1.65 -11.93,-0.03 -23.17,-5.62 -32.44,-12.76 -11.14,-8.57 -19.28,-20.48 -21.33,-33.46 -0.31,-1.5 -0.44,-3.04 -0.66,-5.18 -0.83,-8.89 0.44,-20.06 6.68,-30.75 5.39,-9.23 13.43,-17.24 26.66,-22.78 5.53,-2.31 17.39,-4.91 31.12,-1.26 14.43,3.98 27.04,12.93 35.15,24.68 0,0 -12.44,-16.17 -33.73,-18.02 -0.96,-0.09 -1.93,-0.14 -2.89,-0.15 -10.52,-0.21 -20.59,3.41 -28.97,9.44 -5.35,3.79 -10.05,8.58 -13.69,14.1 -0.8,1.21 -8.63,12.66 -8.84,29.22 -0.18,14.4 6.27,24.78 8.69,28.28 0.06,0.09 6.07,4.15 15.16,5.88 5.25,1 11.1,0.78 13.75,0.4 0.22,0.17 0.44,0.33 0.67,0.49 6.22,4.54 12.69,7.64 19.34,9.82l-1.39 0.4z"/>
   <path class="fil1" d="M187.89 109.98c0.98,13.23 -7.13,27.77 -11.88,34.19 -6.32,-0.5 -11.32,-1.14 -14.93,-2.07 -1.82,-0.47 -3.64,-1.01 -5.43,-1.63 5.53,-4.7 13,-13.58 16.63,-25.79 5.25,-17.67 -0.83,-33.95 -8.18,-41.58 17.94,11.53 23.16,26.13 23.79,36.88z"/>
  </g>
 </g>
</svg>
