<?xml version="1.0" encoding="UTF-8"?>
<!DOCTYPE svg PUBLIC "-//W3C//DTD SVG 1.1//EN" "http://www.w3.org/Graphics/SVG/1.1/DTD/svg11.dtd">
<!-- Creator: CorelDRAW 2018 (64-Bit) -->
<svg xmlns="http://www.w3.org/2000/svg" xml:space="preserve" width="300px" height="150px" version="1.1" style="shape-rendering:geometricPrecision; text-rendering:geometricPrecision; image-rendering:optimizeQuality; fill-rule:evenodd; clip-rule:evenodd"
viewBox="0 0 300.08 150.55"
 xmlns:xlink="http://www.w3.org/1999/xlink">
 <defs>
  <style type="text/css">
   <![CDATA[
    .fil5 {fill:black;fill-rule:nonzero}
    .fil4 {fill:#F70000;fill-rule:nonzero}
    .fil7 {fill:url(#id0)}
    .fil6 {fill:url(#id1)}
    .fil2 {fill:url(#id2)}
    .fil10 {fill:url(#id3)}
    .fil9 {fill:url(#id4)}
    .fil8 {fill:url(#id5)}
    .fil3 {fill:url(#id6)}
    .fil1 {fill:url(#id7);fill-rule:nonzero}
    .fil0 {fill:url(#id8);fill-rule:nonzero}
   ]]>
  </style>
  <linearGradient id="id0" gradientUnits="userSpaceOnUse" x1="-39.15" y1="194.69" x2="298.1" y2="-142.56">
   <stop offset="0" style="stop-opacity:1; stop-color:#006D7A"/>
   <stop offset="0" style="stop-opacity:1; stop-color:#006D7A"/>
   <stop offset="1" style="stop-opacity:1; stop-color:#00D4E7"/>
  </linearGradient>
  <linearGradient id="id1" gradientUnits="userSpaceOnUse" xlink:href="#id0" x1="7.39" y1="103.53" x2="150.14" y2="-39.22">
  </linearGradient>
  <linearGradient id="id2" gradientUnits="userSpaceOnUse" xlink:href="#id0" x1="47.15" y1="215.33" x2="202.91" y2="59.58">
  </linearGradient>
  <linearGradient id="id3" gradientUnits="userSpaceOnUse" x1="188.38" y1="37.35" x2="299.52" y2="37.53">
   <stop offset="0" style="stop-opacity:1; stop-color:#FF2500"/>
   <stop offset="0.0313725" style="stop-opacity:1; stop-color:#FF5600"/>
   <stop offset="0.321569" style="stop-opacity:1; stop-color:#FFB100"/>
   <stop offset="1" style="stop-opacity:1; stop-color:#FF6600"/>
  </linearGradient>
  <linearGradient id="id4" gradientUnits="userSpaceOnUse" xlink:href="#id0" x1="-20.98" y1="309.27" x2="211.28" y2="77.01">
  </linearGradient>
  <linearGradient id="id5" gradientUnits="userSpaceOnUse" xlink:href="#id0" x1="16.84" y1="205.7" x2="201.1" y2="21.44">
  </linearGradient>
  <linearGradient id="id6" gradientUnits="userSpaceOnUse" xlink:href="#id0" x1="26.12" y1="159.4" x2="181.88" y2="3.65">
  </linearGradient>
  <linearGradient id="id7" gradientUnits="userSpaceOnUse" x1="267.57" y1="9.72" x2="286.14" y2="102.66">
   <stop offset="0" style="stop-opacity:1; stop-color:#FF4D00"/>
   <stop offset="0.458824" style="stop-opacity:1; stop-color:#EF7A1B"/>
   <stop offset="0.729412" style="stop-opacity:1; stop-color:#F6A30A"/>
   <stop offset="1" style="stop-opacity:1; stop-color:#FCC300"/>
  </linearGradient>
  <linearGradient id="id8" gradientUnits="userSpaceOnUse" x1="195.26" y1="22" x2="259.75" y2="107.21">
   <stop offset="0" style="stop-opacity:1; stop-color:#FCC300"/>
   <stop offset="0.270588" style="stop-opacity:1; stop-color:#F59F0E"/>
   <stop offset="0.458824" style="stop-opacity:1; stop-color:#EA5B21"/>
   <stop offset="0.858824" style="stop-opacity:1; stop-color:#F49C0F"/>
   <stop offset="1" style="stop-opacity:1; stop-color:#FAB500"/>
  </linearGradient>
 </defs>
 <g id="Warstwa_x0020_1">
  <metadata id="CorelCorpID_0Corel-Layer"/>
  <g id="nowe_x0020_WIENER_x0020_LOGO_x0020_KOLOR.cdr">
   <path class="fil0" d="M198.84 18.63c4.37,1.78 8.64,3.84 12.76,6.18 4.12,2.32 8.05,4.99 11.8,7.88 7.46,5.84 14.01,12.81 19.33,20.55 1.32,1.94 2.58,3.92 3.77,5.94 1.17,2.03 2.28,4.09 3.31,6.19 2.06,4.19 3.81,8.51 5.27,12.92 1.14,3.44 2.09,6.93 2.87,10.45l0 0c0.62,2.81 2.28,11.13 2.26,16.92 -0.03,0.18 -0.07,0.35 -0.1,0.53l-0.02 0.12c-0.3,1.51 -1.75,2.49 -3.26,2.2 -1.33,-0.26 -2.25,-1.42 -2.25,-2.72l0 -0.01 -0.05 -0.73 -0.08 -0.79c-0.06,-0.53 -0.12,-1.07 -0.19,-1.6 -0.14,-1.07 -0.3,-2.14 -0.49,-3.21 -0.37,-2.14 -0.82,-4.27 -1.33,-6.38 -1.04,-4.23 -2.35,-8.38 -3.93,-12.42 -1.57,-4.04 -3.41,-7.96 -5.52,-11.72 -1.05,-1.88 -2.16,-3.72 -3.33,-5.52 -1.18,-1.8 -2.43,-3.54 -3.73,-5.24 -5.21,-6.8 -11.42,-12.73 -18.37,-17.6 -3.5,-2.42 -7.13,-4.62 -10.94,-6.51 -3.79,-1.9 -7.72,-3.54 -11.74,-4.95l0 0c-2.93,-1.02 -4.47,-4.21 -3.45,-7.14 1.02,-2.92 4.22,-4.47 7.14,-3.45 0.09,0.03 0.19,0.07 0.27,0.11z"/>
   <path class="fil1" d="M258.01 88.73c0.22,1 0.43,2 0.62,3.01 0.43,2.27 0.79,4.56 1.07,6.86 0.13,1.15 0.25,2.31 0.34,3.47 0.04,0.58 0.08,1.17 0.11,1.76l0.04 0.88c0.07,1.81 -4.1,0.65 -5.51,0.54 0.38,-2.31 0.79,-4.51 1.24,-6.74 0.44,-2.23 0.9,-4.45 1.4,-6.66 0.25,-1.16 0.52,-2.32 0.78,-3.47l0 0 0 0c0.76,-3.26 1.57,-6.51 2.42,-9.75 2.3,-8.77 4.93,-17.46 7.89,-26.05 2.98,-8.58 6.28,-17.07 10.01,-25.39 3.7,-8.33 7.89,-16.48 12.52,-24.4 1.23,-2.12 3.95,-2.83 6.06,-1.59 2.12,1.23 2.83,3.95 1.6,6.06 -0.02,0.04 -0.04,0.07 -0.06,0.1l-0.03 0.05c-4.67,7.46 -8.95,15.2 -12.79,23.18 -3.88,7.97 -7.35,16.14 -10.52,24.45 -3.16,8.31 -6,16.76 -8.52,25.3 -1.26,4.28 -2.45,8.57 -3.54,12.89 -0.55,2.15 -1.07,4.32 -1.58,6.48 -0.49,2.16 -0.98,4.36 -1.39,6.48l-0.02 0.12c-0.29,1.51 -1.75,2.49 -3.26,2.2 -1.32,-0.26 -2.25,-1.42 -2.25,-2.73l0 0 -0.05 -0.73c-0.43,-4.37 2.29,-11.85 3.42,-16.32z"/>
   <path class="fil2" d="M164.71 73.61c2.16,-0.91 4.49,-1.37 7,-1.37 2.36,0 4.53,0.41 6.48,1.23 1.96,0.82 3.63,1.93 5.02,3.34 1.39,1.42 2.46,3.08 3.21,4.99 0.75,1.91 1.13,3.96 1.13,6.14 0,0.96 -0.07,1.89 -0.21,2.8 -0.13,0.92 -0.27,1.67 -0.41,2.26l-23.76 0c0.59,2.18 1.73,3.84 3.42,4.98 1.68,1.14 3.75,1.71 6.21,1.71 1.82,0 3.49,-0.31 5.02,-0.92 1.52,-0.62 2.99,-1.45 4.4,-2.5l3.76 6.29c-1.91,1.59 -3.99,2.83 -6.22,3.72 -2.23,0.88 -4.64,1.33 -7.23,1.33 -2.69,0 -5.17,-0.46 -7.45,-1.37 -2.27,-0.91 -4.23,-2.16 -5.87,-3.75 -1.64,-1.59 -2.92,-3.46 -3.85,-5.6 -0.94,-2.14 -1.4,-4.46 -1.4,-6.97 0,-2.5 0.45,-4.82 1.36,-6.96 0.91,-2.14 2.16,-4 3.76,-5.6 1.59,-1.59 3.47,-2.84 5.63,-3.75zm1.47 7.88c-1.46,1.21 -2.46,2.88 -3.01,5.02l15.5 0c-0.09,-2.18 -0.84,-3.87 -2.25,-5.05 -1.41,-1.19 -3.1,-1.78 -5.05,-1.78 -2.01,0 -3.74,0.61 -5.19,1.81z"/>
   <path class="fil3" d="M87.74 73.61c2.16,-0.91 4.5,-1.37 7,-1.37 2.37,0 4.53,0.41 6.49,1.23 1.95,0.82 3.63,1.93 5.02,3.34 1.38,1.42 2.45,3.08 3.2,4.99 0.76,1.91 1.13,3.96 1.13,6.14 0,0.96 -0.07,1.89 -0.2,2.8 -0.14,0.92 -0.28,1.67 -0.41,2.26l-23.76 0c0.59,2.18 1.73,3.84 3.41,4.98 1.68,1.14 3.76,1.71 6.21,1.71 1.82,0 3.5,-0.31 5.02,-0.92 1.53,-0.62 2.99,-1.45 4.4,-2.5l3.76 6.29c-1.91,1.59 -3.98,2.83 -6.21,3.72 -2.23,0.88 -4.65,1.33 -7.24,1.33 -2.69,0 -5.17,-0.46 -7.44,-1.37 -2.28,-0.91 -4.24,-2.16 -5.87,-3.75 -1.64,-1.59 -2.93,-3.46 -3.86,-5.6 -0.93,-2.14 -1.4,-4.46 -1.4,-6.97 0,-2.5 0.45,-4.82 1.36,-6.96 0.92,-2.14 2.17,-4 3.76,-5.6 1.59,-1.59 3.47,-2.84 5.63,-3.75zm1.47 7.88c-1.46,1.21 -2.46,2.88 -3,5.02l15.49 0c-0.09,-2.18 -0.84,-3.87 -2.25,-5.05 -1.41,-1.19 -3.09,-1.78 -5.05,-1.78 -2,0 -3.73,0.61 -5.19,1.81z"/>
   <polygon class="fil4" points="0.16,123.55 300.08,123.56 300.08,118.99 0.16,118.99 "/>
   <path class="fil5" d="M293.68 136.57l-3.67 0 0 5.33 3.67 0c1.76,0 2.96,-0.97 2.96,-2.65 0,-1.69 -1.2,-2.68 -2.96,-2.68zm0.14 7.54l-3.81 0 0 6.3 -2.53 0 0 -16.03 6.34 0c3.27,0 5.36,2.08 5.36,4.87 0,2.79 -2.09,4.86 -5.36,4.86zm-16.54 6.44c-3.41,0 -6,-2.23 -6,-5.54l0 -10.63 2.54 0 0 10.52c0,2.13 1.36,3.46 3.46,3.46 2.09,0 3.47,-1.33 3.47,-3.46l0 -10.52 2.54 0 0 10.63c0,3.31 -2.61,5.54 -6.01,5.54zm-13.07 -13.13c-0.59,-0.6 -1.5,-0.99 -2.49,-0.99 -0.99,0 -1.91,0.39 -2.49,0.99 -0.82,0.86 -0.99,1.76 -0.99,4.98 0,3.22 0.17,4.12 0.99,4.97 0.58,0.61 1.5,0.99 2.49,0.99 0.99,0 1.9,-0.38 2.49,-0.99 0.82,-0.85 0.99,-1.75 0.99,-4.97 0,-3.22 -0.17,-4.12 -0.99,-4.98zm1.93 11.41c-1.15,1.11 -2.63,1.72 -4.42,1.72 -1.79,0 -3.24,-0.61 -4.4,-1.72 -1.64,-1.57 -1.62,-3.35 -1.62,-6.43 0,-3.09 -0.02,-4.86 1.62,-6.44 1.16,-1.1 2.61,-1.71 4.4,-1.71 1.79,0 3.27,0.61 4.42,1.71 1.64,1.58 1.6,3.35 1.6,6.44 0,3.08 0.04,4.86 -1.6,6.43zm-18.99 -12.26l-3.76 0 0 5.02 3.76 0c1.69,0 2.84,-0.93 2.84,-2.5 0,-1.58 -1.15,-2.52 -2.84,-2.52zm2.94 13.84l-3.53 -6.75 -3.17 0 0 6.75 -2.54 0 0 -16.03 6.49 0c3.17,0 5.19,1.96 5.19,4.69 0,2.29 -1.46,3.76 -3.34,4.25l3.86 7.09 -2.96 0zm-14.41 -1.71c-1.17,1.19 -2.73,1.85 -4.56,1.85 -1.74,0 -3.24,-0.61 -4.39,-1.72 -1.65,-1.57 -1.62,-3.35 -1.62,-6.43 0,-3.09 -0.03,-4.86 1.62,-6.44 1.15,-1.1 2.61,-1.71 4.39,-1.71 2.28,0 3.55,0.67 5.06,2.12l-1.72 1.64c-1.06,-1.01 -1.83,-1.58 -3.34,-1.58 -0.99,0 -1.9,0.39 -2.49,0.99 -0.82,0.86 -0.99,1.76 -0.99,4.98 0,3.22 0.17,4.14 0.99,4.99 0.59,0.61 1.5,0.97 2.49,0.97 1.11,0 2.02,-0.4 2.68,-1.12 0.61,-0.65 0.82,-1.56 0.82,-2.55l0 -0.87 -3.5 0 0 -2.08 6.04 0 0 2.41c0,2.07 -0.37,3.42 -1.48,4.55zm-29.89 1.71l0 -16.03 10.69 0 0 2.19 -8.15 0 0 4.68 6.95 0 0 2.16 -6.95 0 0 4.82 8.15 0 0 2.18 -10.69 0zm-8.16 0.14c-1.74,0 -3.24,-0.61 -4.39,-1.72 -1.65,-1.57 -1.62,-3.35 -1.62,-6.43 0,-3.09 -0.03,-4.86 1.62,-6.44 1.15,-1.1 2.65,-1.71 4.39,-1.71 2.1,0 3.43,0.72 4.68,1.89l-1.69 1.64c-0.87,-0.83 -1.6,-1.35 -2.99,-1.35 -0.98,0 -1.88,0.36 -2.46,0.97 -0.83,0.86 -0.99,1.78 -0.99,5 0,3.22 0.16,4.14 0.99,4.99 0.58,0.61 1.48,0.97 2.46,0.97 1.39,0 2.12,-0.51 2.99,-1.35l1.69 1.64c-1.25,1.18 -2.58,1.9 -4.68,1.9zm-12.17 -0.14l-7.73 -11.28 0 11.28 -2.54 0 0 -16.03 2.33 0 7.73 11.26 0 -11.26 2.54 0 0 16.03 -2.33 0zm-19.79 -12.4l-2.6 7.11 5.14 0 -2.54 -7.11zm4.4 12.4l-1.15 -3.22 -6.61 0 -1.15 3.22 -2.7 0 6.13 -16.03 2.05 0 6.13 16.03 -2.7 0zm-18.76 -13.84l-3.76 0 0 5.02 3.76 0c1.7,0 2.85,-0.93 2.85,-2.5 0,-1.58 -1.15,-2.52 -2.85,-2.52zm2.94 13.84l-3.52 -6.75 -3.18 0 0 6.75 -2.53 0 0 -16.03 6.48 0c3.17,0 5.2,1.96 5.2,4.69 0,2.29 -1.46,3.76 -3.34,4.25l3.86 7.09 -2.97 0zm-19.43 0.14c-3.41,0 -5.99,-2.23 -5.99,-5.54l0 -10.63 2.53 0 0 10.52c0,2.13 1.37,3.46 3.46,3.46 2.09,0 3.48,-1.33 3.48,-3.46l0 -10.52 2.53 0 0 10.63c0,3.31 -2.6,5.54 -6.01,5.54zm-15.21 0c-2.51,0 -4.32,-0.57 -5.92,-2.12l1.69 -1.6c1.23,1.17 2.56,1.53 4.28,1.53 2.19,0 3.45,-0.9 3.45,-2.45 0,-0.7 -0.21,-1.28 -0.65,-1.67 -0.43,-0.38 -0.85,-0.54 -1.84,-0.67l-1.97 -0.27c-1.36,-0.18 -2.44,-0.63 -3.17,-1.28 -0.83,-0.75 -1.23,-1.76 -1.23,-3.07 0,-2.79 2.12,-4.7 5.6,-4.7 2.21,0 3.76,0.54 5.19,1.82l-1.62 1.53c-1.03,-0.94 -2.23,-1.23 -3.64,-1.23 -1.98,0 -3.06,1.08 -3.06,2.49 0,0.59 0.19,1.11 0.64,1.49 0.42,0.36 1.1,0.63 1.88,0.74l1.9 0.27c1.55,0.23 2.42,0.59 3.13,1.2 0.91,0.76 1.36,1.91 1.36,3.28 0,2.95 -2.52,4.71 -6.02,4.71zm-11.21 -0.14l-7.73 -11.28 0 11.28 -2.54 0 0 -16.03 2.33 0 7.73 11.26 0 -11.26 2.54 0 0 16.03 -2.33 0zm-17.25 -16.03l2.54 0 0 16.03 -2.54 0 0 -16.03zm-15.22 3.63l-2.61 7.11 5.15 0 -2.54 -7.11zm4.39 12.4l-1.15 -3.22 -6.6 0 -1.16 3.22 -2.7 0 6.14 -16.03 2.04 0 6.13 16.03 -2.7 0zm-16.38 0l-7.73 -11.28 0 11.28 -2.54 0 0 -16.03 2.33 0 7.73 11.26 0 -11.26 2.54 0 0 16.03 -2.33 0zm-17.03 0l-7.74 -11.28 0 11.28 -2.54 0 0 -16.03 2.33 0 7.73 11.26 0 -11.26 2.54 0 0 16.03 -2.32 0zm-24.52 0l0 -16.03 10.7 0 0 2.19 -8.16 0 0 4.68 6.96 0 0 2.16 -6.96 0 0 4.82 8.16 0 0 2.18 -10.7 0zm-6.98 -16.03l2.54 0 0 16.03 -2.54 0 0 -16.03zm-7.92 16.03l-1.97 0 -5.5 -16.03 2.63 0 3.86 11.66 3.85 -11.66 2.68 0 -5.55 16.03z"/>
   <polygon class="fil6" points="29.97,72.24 39.33,91.84 47.18,72.99 56.94,72.99 41.24,107.61 38.17,107.61 28.4,87.94 18.71,107.61 15.7,107.61 0,72.99 9.76,72.99 17.75,92.31 26.97,72.24 "/>
   <polygon class="fil7" points="61.04,106.79 70.26,106.79 70.26,72.99 61.04,72.99 "/>
   <path class="fil8" d="M129.81 73.3c-1.63,0.71 -3.05,1.65 -4.23,2.83l0 -3.14 -8.47 0 0 33.8 9.22 0 0 -19.73c0,-1.96 0.59,-3.54 1.78,-4.75 1.18,-1.2 2.73,-1.81 4.64,-1.81 1.91,0 3.44,0.61 4.57,1.81 1.14,1.21 1.71,2.79 1.71,4.75l0 19.73 9.15 0 0 -20.96c0,-2.05 -0.3,-3.91 -0.89,-5.57 -0.59,-1.66 -1.43,-3.08 -2.52,-4.26 -1.1,-1.19 -2.44,-2.11 -4.03,-2.77 -1.6,-0.66 -3.37,-0.99 -5.33,-0.99 -2.09,0 -3.96,0.35 -5.6,1.06z"/>
   <path class="fil9" d="M206.35 73.71c-1.59,0.75 -2.96,1.85 -4.1,3.31l0 -4.03 -8.46 0 0 33.8 9.21 0 0 -16.87c0,-3.04 0.85,-5.28 2.53,-6.69 1.68,-1.41 3.85,-2.11 6.49,-2.11l2.45 0 0 -8.13c-0.81,-0.27 -1.79,-0.41 -2.93,-0.41 -1.87,0 -3.6,0.38 -5.19,1.13z"/>
   <path class="fil10" d="M292.69 0.49c-3.74,1.79 -7.38,3.77 -10.89,5.94l0 0c-3.51,2.18 -6.9,4.54 -10.14,7.07l0 0c-6.48,5.05 -12.41,10.75 -17.74,16.91l0 0c-5.33,6.15 -10.09,12.76 -14.28,19.68l0 0c-2.09,3.46 -4.03,7.01 -5.83,10.63l0 0c-0.89,1.81 -1.75,3.64 -2.56,5.5l0 0c-0.17,0.38 -0.34,0.76 -0.5,1.15l0 0 -29.91 -46.77c-0.1,-0.15 -0.21,-0.3 -0.32,-0.45l0 0c-1.89,-2.39 -5.36,-2.79 -7.75,-0.9l0 0c-2.38,1.89 -2.79,5.36 -0.9,7.75l0 0 37.39 47.22 0.16 0.2c0.29,0.37 0.69,0.66 1.18,0.81l0 0c1.27,0.39 2.61,-0.32 3,-1.59l0 0 0 0 0.26 -0.62 0.29 -0.66c0.19,-0.43 0.39,-0.87 0.6,-1.3l0 0c0.4,-0.88 0.83,-1.75 1.26,-2.61l0 0c0.87,-1.73 1.78,-3.44 2.73,-5.13l0 0c1.9,-3.38 3.95,-6.69 6.12,-9.89l0 0c4.35,-6.42 9.22,-12.46 14.55,-18.01l0 0c5.34,-5.55 11.16,-10.58 17.41,-14.94l0 0c3.12,-2.19 6.36,-4.19 9.68,-6.02l0 0c3.32,-1.83 6.74,-3.46 10.22,-4.91l0 0 0.03 -0.01c0.08,-0.03 0.15,-0.07 0.23,-0.1l0 0c2.47,-1.18 3.51,-4.15 2.33,-6.62l0 0c-0.85,-1.78 -2.63,-2.82 -4.48,-2.82l0 0c-0.72,0 -1.45,0.16 -2.14,0.49l0 0z"/>
  </g>
 </g>
</svg>
