<?xml version="1.0" encoding="UTF-8"?>
<!DOCTYPE svg PUBLIC "-//W3C//DTD SVG 1.1//EN" "http://www.w3.org/Graphics/SVG/1.1/DTD/svg11.dtd">
<!-- Creator: CorelDRAW 2018 (64-Bit) -->
<svg xmlns="http://www.w3.org/2000/svg" xml:space="preserve" width="300px" height="82px" version="1.1" style="shape-rendering:geometricPrecision; text-rendering:geometricPrecision; image-rendering:optimizeQuality; fill-rule:evenodd; clip-rule:evenodd"
viewBox="0 0 298.87 81.86"
 xmlns:xlink="http://www.w3.org/1999/xlink">
 <defs>
  <style type="text/css">
   <![CDATA[
    .fil2 {fill:#B0CB1F}
    .fil4 {fill:#034439}
    .fil3 {fill:#B0CB1F;fill-rule:nonzero}
    .fil1 {fill:#B0CB1F;fill-rule:nonzero}
    .fil5 {fill:#034439;fill-rule:nonzero}
    .fil0 {fill:#034439;fill-rule:nonzero}
   ]]>
  </style>
    <mask id="id0">
  <linearGradient id="id1" gradientUnits="userSpaceOnUse" x1="81.76" y1="37.23" x2="-43.24" y2="81.03">
   <stop offset="0" style="stop-opacity:1; stop-color:white"/>
   <stop offset="1" style="stop-opacity:0; stop-color:white"/>
  </linearGradient>
     <rect style="fill:url(#id1)" x="0.23" width="71.61" height="81.75"/>
    </mask>
 </defs>
 <g id="Warstwa_x0020_1">
  <metadata id="CorelCorpID_0Corel-Layer"/>
  <g id="_2178206008016">
   <polygon class="fil0" points="0,81.86 65.32,11.93 76.35,66.39 "/>
   <polygon class="fil1" style="mask:url(#id0)" points="0.23,81.75 49.97,0 71.84,51.08 "/>
  </g>
  <path class="fil2" d="M115.47 34.04c-0.13,0.88 -0.52,1.6 -1.16,2.17 -0.64,0.58 -1.42,0.86 -2.33,0.86 -0.74,0 -1.41,-0.22 -2.02,-0.65 -0.61,-0.44 -1.06,-0.96 -1.36,-1.57l-5.97 -14.82 -6.02 14.82c-0.3,0.61 -0.75,1.13 -1.36,1.57 -0.61,0.43 -1.28,0.65 -2.02,0.65 -0.91,0 -1.69,-0.28 -2.33,-0.86 -0.64,-0.57 -1.03,-1.29 -1.16,-2.17l-4.15 -30.84c0,-0.47 0.14,-0.84 0.43,-1.11 0.29,-0.27 0.6,-0.41 0.94,-0.41 0.37,0 0.68,0.12 0.93,0.36 0.25,0.23 0.41,0.5 0.48,0.8l3.95 30.85c0.03,0.2 0.12,0.38 0.27,0.53 0.16,0.15 0.37,0.22 0.64,0.22 0.47,0 0.77,-0.18 0.91,-0.55l6.92 -16.69c0.1,-0.27 0.29,-0.5 0.56,-0.7 0.27,-0.21 0.61,-0.31 1.01,-0.31 0.34,0 0.65,0.1 0.94,0.31 0.28,0.2 0.49,0.43 0.63,0.7l6.87 16.69c0.14,0.37 0.44,0.55 0.91,0.55 0.27,0 0.48,-0.07 0.64,-0.22 0.15,-0.15 0.24,-0.33 0.27,-0.53l4.05 -31c0.07,-0.27 0.22,-0.5 0.45,-0.71 0.24,-0.2 0.54,-0.3 0.91,-0.3 0.37,0 0.69,0.14 0.96,0.41 0.27,0.27 0.41,0.59 0.41,0.96 0,0 -0.01,0.06 -0.03,0.17 -0.01,0.12 -0.05,0.47 -0.12,1.07 -0.07,0.58 -0.19,1.5 -0.36,2.73 -0.17,1.23 -0.41,2.99 -0.73,5.28 -0.32,2.29 -0.72,5.21 -1.19,8.75 -0.47,3.54 -1.06,7.87 -1.77,12.99zm22.55 -13.09l0 14.76c0,0.37 -0.12,0.69 -0.38,0.96 -0.25,0.27 -0.58,0.4 -0.98,0.4 -0.41,0 -0.74,-0.13 -0.99,-0.4 -0.25,-0.27 -0.38,-0.59 -0.38,-0.96l0 -14.76 -10.36 -17.09c-0.07,-0.17 -0.12,-0.32 -0.15,-0.46 -0.04,-0.13 -0.06,-0.25 -0.06,-0.35 0,-0.37 0.13,-0.69 0.38,-0.96 0.26,-0.27 0.59,-0.41 0.99,-0.41 0.51,0 0.89,0.22 1.16,0.66l9.41 15.87 9.25 -15.82c0.3,-0.47 0.69,-0.71 1.16,-0.71 0.41,0 0.74,0.14 0.99,0.41 0.25,0.27 0.38,0.59 0.38,0.96 0,0.13 -0.01,0.25 -0.03,0.35 -0.01,0.1 -0.06,0.22 -0.12,0.35l-10.27 17.2zm27.1 -0.61c0,-0.34 0.13,-0.64 0.38,-0.91 0.25,-0.27 0.57,-0.41 0.94,-0.41l6.57 0c0.68,0 1.22,0.22 1.64,0.66 0.42,0.44 0.64,0.98 0.64,1.62l0 13.5c0,0.67 -0.22,1.22 -0.64,1.64 -0.42,0.42 -0.96,0.63 -1.64,0.63l-10.47 0c-1.92,0 -3.61,-0.28 -5.08,-0.86 -1.46,-0.57 -2.7,-1.38 -3.71,-2.42 -1.01,-1.05 -1.78,-2.3 -2.3,-3.77 -0.53,-1.47 -0.79,-3.09 -0.79,-4.88l0 -11.22c0,-2.23 0.27,-4.12 0.81,-5.67 0.54,-1.55 1.32,-2.81 2.35,-3.79 1.03,-0.98 2.28,-1.68 3.74,-2.12 1.47,-0.44 3.13,-0.66 4.98,-0.66l9.66 0c0.34,0 0.64,0.14 0.91,0.41 0.27,0.27 0.41,0.57 0.41,0.91 0,0.37 -0.14,0.69 -0.41,0.96 -0.27,0.27 -0.57,0.4 -0.91,0.4l-9.66 0c-2.83,0 -5.05,0.74 -6.67,2.23 -1.62,1.48 -2.43,3.92 -2.43,7.33l0 11.22c0,1.35 0.21,2.59 0.61,3.72 0.4,1.13 0.99,2.1 1.74,2.93 0.76,0.83 1.71,1.47 2.84,1.95 1.12,0.47 2.43,0.7 3.91,0.7l10.02 0 0 -12.74 -6.02 0c-0.44,0 -0.79,-0.13 -1.04,-0.4 -0.25,-0.27 -0.38,-0.59 -0.38,-0.96zm29.43 -18.66c1.85,0 3.51,0.22 4.98,0.66 1.47,0.44 2.71,1.14 3.74,2.12 1.03,0.98 1.81,2.24 2.35,3.79 0.54,1.55 0.81,3.44 0.81,5.67l0 11.22c0,1.79 -0.26,3.41 -0.78,4.88 -0.52,1.47 -1.29,2.72 -2.3,3.77 -1.01,1.04 -2.25,1.85 -3.72,2.42 -1.47,0.58 -3.16,0.86 -5.08,0.86l-2.33 0c-1.88,0 -3.57,-0.28 -5.05,-0.86 -1.49,-0.57 -2.73,-1.38 -3.74,-2.42 -1.02,-1.05 -1.78,-2.3 -2.3,-3.77 -0.53,-1.47 -0.79,-3.09 -0.79,-4.88l0 -11.22c0,-2.23 0.28,-4.12 0.84,-5.67 0.55,-1.55 1.34,-2.81 2.37,-3.79 1.03,-0.98 2.28,-1.68 3.74,-2.12 1.47,-0.44 3.11,-0.66 4.93,-0.66l2.33 0zm-11.38 23.46c0,1.35 0.2,2.59 0.58,3.72 0.39,1.13 0.97,2.1 1.75,2.93 0.77,0.83 1.72,1.47 2.83,1.95 1.11,0.47 2.41,0.7 3.89,0.7l2.33 0c1.48,0 2.79,-0.23 3.92,-0.7 1.13,-0.48 2.08,-1.12 2.85,-1.95 0.78,-0.83 1.36,-1.8 1.75,-2.93 0.39,-1.13 0.58,-2.37 0.58,-3.72l0 -11.22c0,-3.41 -0.81,-5.85 -2.43,-7.33 -1.61,-1.49 -3.84,-2.23 -6.67,-2.23l-2.33 0c-2.79,0 -5,0.74 -6.62,2.23 -1.62,1.48 -2.43,3.92 -2.43,7.33l0 11.22zm49.5 -11.22c0,-3.41 -0.81,-5.85 -2.42,-7.33 -1.62,-1.49 -3.85,-2.23 -6.68,-2.23l-9.35 0 0 30.08 9.35 0c1.48,0 2.79,-0.23 3.92,-0.7 1.13,-0.48 2.08,-1.12 2.86,-1.95 0.77,-0.83 1.35,-1.8 1.74,-2.93 0.39,-1.13 0.58,-2.37 0.58,-3.72l0 -11.22zm-21.18 -9.96c0,-0.68 0.21,-1.23 0.63,-1.65 0.42,-0.42 0.97,-0.63 1.64,-0.63l9.81 0c1.85,0 3.52,0.22 4.98,0.66 1.47,0.44 2.72,1.14 3.74,2.12 1.03,0.98 1.81,2.24 2.35,3.79 0.54,1.55 0.81,3.44 0.81,5.67l0 11.22c0,1.79 -0.26,3.41 -0.78,4.88 -0.52,1.47 -1.29,2.72 -2.3,3.77 -1.01,1.04 -2.25,1.85 -3.72,2.42 -1.46,0.58 -3.16,0.86 -5.08,0.86l-9.81 0c-0.67,0 -1.22,-0.21 -1.64,-0.63 -0.42,-0.42 -0.63,-0.97 -0.63,-1.64l0 -30.84zm51.82 -0.91c0,-0.37 0.14,-0.69 0.41,-0.96 0.27,-0.27 0.59,-0.41 0.96,-0.41 0.4,0 0.74,0.14 1.01,0.41 0.27,0.27 0.4,0.59 0.4,0.96l0 30.23c0,1.08 -0.36,1.98 -1.08,2.71 -0.73,0.72 -1.63,1.08 -2.71,1.08 -0.77,0 -1.47,-0.2 -2.07,-0.6 -0.61,-0.41 -1.06,-0.95 -1.37,-1.62l-13.6 -29.78c-0.06,-0.17 -0.18,-0.32 -0.35,-0.46 -0.17,-0.13 -0.37,-0.2 -0.61,-0.2 -0.3,0 -0.55,0.1 -0.76,0.31 -0.2,0.2 -0.3,0.45 -0.3,0.75l0 30.24c0,0.37 -0.13,0.69 -0.38,0.96 -0.25,0.27 -0.58,0.4 -0.98,0.4 -0.38,0 -0.7,-0.13 -0.97,-0.4 -0.27,-0.27 -0.4,-0.59 -0.4,-0.96l0 -30.24c0,-1.08 0.36,-1.98 1.09,-2.7 0.72,-0.73 1.62,-1.09 2.7,-1.09 0.78,0 1.47,0.2 2.07,0.61 0.61,0.4 1.07,0.94 1.37,1.62l13.6 29.78c0.07,0.17 0.19,0.32 0.35,0.45 0.17,0.14 0.37,0.2 0.61,0.2 0.27,0 0.49,-0.1 0.66,-0.3 0.17,-0.2 0.28,-0.45 0.35,-0.76l0 -30.23zm22.5 2.42c-0.13,-0.27 -0.32,-0.5 -0.55,-0.7 -0.24,-0.21 -0.49,-0.31 -0.76,-0.31 -0.27,0 -0.52,0.11 -0.76,0.33 -0.24,0.22 -0.42,0.45 -0.56,0.68 -0.87,2.97 -1.79,6.03 -2.75,9.18 -0.96,3.15 -1.9,6.21 -2.81,9.18l13.75 0 -5.56 -18.36zm11.98 29.99c0,0.03 0.01,0.08 0.03,0.15 0.02,0.06 0.03,0.12 0.03,0.15 0,0.34 -0.14,0.64 -0.41,0.91 -0.27,0.27 -0.59,0.4 -0.96,0.4 -0.27,0 -0.52,-0.1 -0.76,-0.3 -0.23,-0.2 -0.4,-0.4 -0.5,-0.61l-3.09 -9.65 -15.37 0 -2.93 9.65c-0.1,0.24 -0.28,0.45 -0.53,0.64 -0.25,0.18 -0.53,0.27 -0.84,0.27 -0.33,0 -0.64,-0.13 -0.91,-0.4 -0.27,-0.27 -0.4,-0.57 -0.4,-0.91 0,-0.2 0.02,-0.36 0.05,-0.46 1.52,-5.12 3.06,-10.23 4.63,-15.32 1.56,-5.09 3.12,-10.21 4.67,-15.37 0.27,-0.87 0.77,-1.58 1.49,-2.12 0.73,-0.54 1.56,-0.81 2.51,-0.81 0.97,0 1.82,0.27 2.53,0.81 0.7,0.54 1.19,1.25 1.46,2.12l9.3 30.85z"/>
  <path class="fil3" d="M115.93 34.11c-0.07,0.49 -0.22,0.94 -0.44,1.35 -0.22,0.41 -0.51,0.78 -0.87,1.1 -0.36,0.33 -0.77,0.57 -1.21,0.74 -0.44,0.16 -0.92,0.24 -1.43,0.24 -0.41,0 -0.82,-0.06 -1.2,-0.19 -0.39,-0.12 -0.75,-0.31 -1.09,-0.55 -0.33,-0.25 -0.63,-0.51 -0.88,-0.8 -0.25,-0.29 -0.46,-0.6 -0.63,-0.94l-0.02 -0.04 -5.53 -13.74 -5.58 13.75 -0.02 0.03c-0.17,0.34 -0.38,0.65 -0.63,0.94 -0.25,0.29 -0.54,0.55 -0.88,0.79 -0.34,0.25 -0.7,0.44 -1.09,0.56 -0.38,0.13 -0.79,0.19 -1.2,0.19 -1.03,0 -1.91,-0.32 -2.64,-0.98 -0.36,-0.32 -0.65,-0.69 -0.87,-1.1 -0.22,-0.41 -0.37,-0.86 -0.45,-1.35 0,-7.11 -3.08,-22.95 -4.15,-30.89l0 -0.02c0,-0.29 0.05,-0.56 0.14,-0.8 0.1,-0.26 0.25,-0.47 0.44,-0.65 0.18,-0.18 0.38,-0.31 0.59,-0.4l0 0c0.21,-0.09 0.43,-0.14 0.67,-0.14 0.49,0 0.91,0.16 1.25,0.48 0.16,0.15 0.29,0.31 0.39,0.49 0.11,0.17 0.18,0.36 0.23,0.56 1.89,8.42 2.79,21.82 3.95,30.87 0.01,0.05 0.02,0.1 0.04,0.14 0.03,0.05 0.06,0.09 0.11,0.14 0.02,0.02 0.06,0.05 0.09,0.06l0.01 0c0.05,0.02 0.11,0.03 0.2,0.03 0.15,0 0.26,-0.03 0.33,-0.07 0.06,-0.04 0.11,-0.1 0.14,-0.18l6.93 -16.71c0.07,-0.17 0.16,-0.34 0.28,-0.48 0.12,-0.15 0.26,-0.29 0.43,-0.42 0.18,-0.13 0.38,-0.23 0.6,-0.3 0.21,-0.06 0.44,-0.1 0.69,-0.1 0.22,0 0.43,0.04 0.63,0.1 0.2,0.07 0.39,0.17 0.58,0.29 0.17,0.13 0.32,0.26 0.45,0.4l0 0c0.13,0.16 0.24,0.32 0.33,0.48 2.3,5.57 4.65,11.15 6.89,16.74 0.03,0.08 0.08,0.14 0.14,0.18 0.07,0.04 0.19,0.07 0.33,0.07 0.09,0 0.15,-0.01 0.21,-0.03l0 0c0.03,-0.01 0.07,-0.04 0.1,-0.06 0.04,-0.05 0.07,-0.09 0.1,-0.14l0 0c0.02,-0.04 0.03,-0.09 0.04,-0.14l4.05 -31.01 0 -0.02c0.05,-0.19 0.13,-0.36 0.23,-0.52 0.1,-0.16 0.23,-0.3 0.38,-0.43 0.16,-0.14 0.35,-0.24 0.56,-0.31 0.2,-0.07 0.42,-0.11 0.65,-0.11 0.25,0 0.48,0.05 0.7,0.14l0 0c0.22,0.09 0.42,0.23 0.6,0.4 0.36,0.36 0.54,0.8 0.54,1.3l0 0.02c-0.01,0.06 -0.03,0.17 -0.03,0.22 -0.01,0.06 -0.03,0.17 -0.05,0.34l-0.08 0.71c-0.03,0.26 -0.07,0.63 -0.14,1.13 -0.06,0.51 -0.14,1.04 -0.21,1.61l-0.34 2.44 -0.4 2.84c-0.16,1.19 -0.34,2.5 -0.53,3.91 -0.21,1.52 -0.43,3.14 -0.65,4.84 -0.25,1.82 -0.51,3.79 -0.8,5.9 -0.31,2.26 -0.63,4.62 -0.97,7.09l-0.01 0.01zm-1.26 0.91c0.17,-0.31 0.28,-0.66 0.34,-1.04 0.37,-2.65 0.69,-5.02 0.97,-7.09 0.31,-2.22 0.57,-4.19 0.8,-5.9 0.24,-1.85 0.46,-3.46 0.65,-4.85 0.2,-1.5 0.38,-2.8 0.54,-3.9l0.39 -2.85 0.34 -2.44c0.09,-0.66 0.16,-1.2 0.21,-1.6 0.06,-0.41 0.1,-0.78 0.14,-1.12l0.08 -0.71c0.03,-0.18 0.04,-0.3 0.05,-0.37l0.02 -0.13c0,-0.23 -0.09,-0.43 -0.27,-0.6 -0.09,-0.1 -0.19,-0.16 -0.29,-0.21l0 0c-0.1,-0.04 -0.21,-0.06 -0.34,-0.06 -0.13,0 -0.25,0.02 -0.35,0.05l-0.01 0c-0.09,0.03 -0.17,0.08 -0.24,0.14 -0.09,0.07 -0.15,0.15 -0.2,0.23 -0.05,0.07 -0.08,0.14 -0.1,0.22l-4.04 30.98c-0.03,0.14 -0.08,0.29 -0.15,0.42 -0.07,0.13 -0.16,0.25 -0.26,0.36l0 0c-0.13,0.12 -0.28,0.21 -0.45,0.28 -0.16,0.06 -0.33,0.08 -0.52,0.08 -0.32,0 -0.59,-0.07 -0.82,-0.21 -0.24,-0.14 -0.42,-0.36 -0.52,-0.65l-6.86 -16.64c-0.05,-0.1 -0.11,-0.19 -0.19,-0.28l0 0c-0.08,-0.09 -0.18,-0.17 -0.29,-0.25 -0.11,-0.08 -0.22,-0.13 -0.33,-0.17l0 0c-0.1,-0.03 -0.22,-0.05 -0.34,-0.05 -0.16,0 -0.3,0.02 -0.42,0.06 -0.12,0.03 -0.22,0.08 -0.31,0.15 -0.1,0.08 -0.19,0.16 -0.25,0.24l0 0c-0.07,0.09 -0.12,0.17 -0.15,0.26l-6.93 16.7c-0.11,0.28 -0.28,0.49 -0.52,0.63 -0.23,0.14 -0.5,0.21 -0.82,0.21 -0.19,0 -0.36,-0.02 -0.52,-0.08 -0.17,-0.07 -0.32,-0.16 -0.45,-0.28l0 0c-0.1,-0.11 -0.19,-0.23 -0.26,-0.36 -0.07,-0.14 -0.12,-0.28 -0.15,-0.42l-3.94 -30.84c-0.02,-0.1 -0.06,-0.19 -0.11,-0.28 -0.06,-0.09 -0.13,-0.19 -0.23,-0.27 -0.16,-0.15 -0.37,-0.23 -0.61,-0.23 -0.11,0 -0.21,0.02 -0.31,0.06l0 0c-0.1,0.05 -0.2,0.12 -0.31,0.22 -0.09,0.08 -0.16,0.19 -0.21,0.3 -0.04,0.13 -0.07,0.28 -0.07,0.45l4.14 30.79c0.06,0.39 0.17,0.74 0.34,1.05 0.17,0.32 0.39,0.6 0.67,0.85 0.55,0.49 1.22,0.73 2.02,0.73 0.32,0 0.63,-0.04 0.91,-0.14 0.29,-0.09 0.57,-0.23 0.83,-0.42l0.01 0c0.27,-0.2 0.51,-0.42 0.71,-0.65 0.2,-0.22 0.36,-0.46 0.49,-0.72l6.45 -15.88 6.4 15.87c0.13,0.26 0.29,0.5 0.49,0.73 0.2,0.23 0.44,0.45 0.71,0.65l0.01 0c0.26,0.19 0.54,0.33 0.83,0.42 0.29,0.1 0.59,0.14 0.91,0.14 0.4,0 0.77,-0.06 1.11,-0.18 0.33,-0.12 0.63,-0.31 0.91,-0.55 0.28,-0.25 0.5,-0.53 0.67,-0.85zm23.82 -13.95l0 14.64c0,0.24 -0.04,0.47 -0.13,0.69 -0.08,0.21 -0.21,0.41 -0.37,0.59l-0.01 0c-0.17,0.18 -0.37,0.32 -0.6,0.41 -0.22,0.1 -0.46,0.14 -0.72,0.14 -0.26,0 -0.51,-0.04 -0.73,-0.14 -0.23,-0.09 -0.43,-0.23 -0.6,-0.41 -0.17,-0.18 -0.29,-0.38 -0.38,-0.59 -0.08,-0.22 -0.13,-0.45 -0.13,-0.69l0 -14.64 -10.31 -17.01 -0.02 -0.03c-0.03,-0.08 -0.06,-0.17 -0.09,-0.26 -0.04,-0.1 -0.06,-0.18 -0.08,-0.25l0 -0.01c-0.04,-0.17 -0.06,-0.33 -0.06,-0.46 0,-0.25 0.04,-0.48 0.12,-0.69 0.09,-0.22 0.22,-0.42 0.38,-0.59 0.18,-0.19 0.37,-0.33 0.6,-0.42 0.23,-0.09 0.47,-0.14 0.73,-0.14 0.33,0 0.63,0.08 0.9,0.23 0.26,0.15 0.48,0.37 0.66,0.65l9.01 15.2 8.86 -15.15c0.19,-0.3 0.41,-0.52 0.67,-0.68 0.27,-0.16 0.56,-0.25 0.88,-0.25 0.26,0 0.51,0.05 0.73,0.14 0.23,0.09 0.43,0.23 0.6,0.42 0.17,0.18 0.29,0.37 0.38,0.59l0 0c0.08,0.21 0.13,0.44 0.13,0.69 0,0.07 -0.01,0.14 -0.01,0.22 -0.01,0.07 -0.01,0.14 -0.03,0.21 -0.01,0.08 -0.03,0.16 -0.06,0.24 -0.03,0.07 -0.06,0.15 -0.1,0.24l-10.22 17.11zm-0.94 14.64l0 -14.89 10.32 -17.29c0.02,-0.04 0.04,-0.08 0.06,-0.12 0.01,-0.04 0.02,-0.07 0.02,-0.09 0.01,-0.03 0.01,-0.07 0.01,-0.12 0.01,-0.04 0.01,-0.09 0.01,-0.15 0,-0.13 -0.02,-0.25 -0.06,-0.35 -0.04,-0.11 -0.11,-0.2 -0.19,-0.29l0 -0.01c-0.08,-0.08 -0.17,-0.14 -0.28,-0.19 -0.1,-0.04 -0.22,-0.06 -0.37,-0.06 -0.15,0 -0.28,0.04 -0.4,0.11 -0.13,0.08 -0.25,0.21 -0.37,0.38l-9.64 16.5 -9.81 -16.56c-0.09,-0.15 -0.2,-0.26 -0.32,-0.33 -0.12,-0.07 -0.27,-0.1 -0.44,-0.1 -0.14,0 -0.27,0.02 -0.37,0.06 -0.1,0.05 -0.19,0.11 -0.28,0.2 -0.08,0.09 -0.14,0.18 -0.18,0.29 -0.04,0.1 -0.07,0.22 -0.07,0.35 0,0.06 0.02,0.14 0.04,0.23 0.02,0.07 0.03,0.14 0.05,0.19l0 0c0.02,0.05 0.04,0.11 0.07,0.18l10.41 17.17 0 14.89c0,0.13 0.02,0.24 0.06,0.34l0 0.01c0.04,0.1 0.11,0.2 0.19,0.29l0 0c0.08,0.09 0.17,0.15 0.28,0.19 0.1,0.04 0.22,0.06 0.37,0.06 0.14,0 0.27,-0.02 0.37,-0.06 0.1,-0.04 0.19,-0.1 0.27,-0.19 0.09,-0.09 0.15,-0.19 0.19,-0.29l0 -0.01c0.04,-0.1 0.06,-0.21 0.06,-0.34zm27.1 -15.37c0,-0.23 0.05,-0.45 0.14,-0.66 0.08,-0.21 0.21,-0.4 0.37,-0.57l0 0c0.17,-0.18 0.37,-0.32 0.58,-0.41 0.22,-0.1 0.45,-0.14 0.7,-0.14l6.57 0c0.4,0 0.76,0.06 1.09,0.19 0.34,0.14 0.63,0.34 0.89,0.61 0.25,0.26 0.45,0.56 0.57,0.88 0.13,0.33 0.19,0.68 0.19,1.06l0 13.5c0,0.39 -0.06,0.75 -0.19,1.08 -0.13,0.34 -0.32,0.64 -0.57,0.89l0 0c-0.26,0.26 -0.56,0.45 -0.9,0.58 -0.33,0.13 -0.69,0.19 -1.08,0.19l-10.47 0c-1.97,0 -3.72,-0.3 -5.25,-0.89 -0.76,-0.3 -1.46,-0.66 -2.11,-1.08 -0.65,-0.42 -1.24,-0.91 -1.77,-1.46l0 0c-0.53,-0.54 -0.99,-1.15 -1.4,-1.8 -0.4,-0.66 -0.73,-1.37 -1,-2.13 -0.27,-0.76 -0.48,-1.56 -0.61,-2.41 -0.14,-0.84 -0.21,-1.72 -0.21,-2.63l0 -11.22c0,-1.13 0.07,-2.18 0.21,-3.15 0.14,-0.98 0.35,-1.86 0.63,-2.67 0.28,-0.81 0.63,-1.54 1.04,-2.2 0.41,-0.67 0.89,-1.26 1.43,-1.78 0.54,-0.51 1.14,-0.96 1.8,-1.33 0.65,-0.37 1.36,-0.67 2.13,-0.9 0.75,-0.22 1.56,-0.39 2.42,-0.51 0.86,-0.11 1.76,-0.17 2.69,-0.17l9.66 0c0.24,0 0.46,0.05 0.67,0.14l0 0.01c0.21,0.09 0.4,0.22 0.57,0.4 0.18,0.17 0.31,0.36 0.4,0.57 0.1,0.21 0.14,0.43 0.14,0.67 0,0.24 -0.04,0.47 -0.13,0.7 -0.1,0.21 -0.23,0.41 -0.41,0.59l0 0c-0.17,0.17 -0.36,0.3 -0.57,0.4 -0.21,0.09 -0.44,0.14 -0.67,0.14l-9.66 0c-1.36,0 -2.58,0.18 -3.64,0.53 -1.05,0.35 -1.95,0.87 -2.71,1.57 -0.75,0.69 -1.32,1.6 -1.7,2.75 -0.38,1.17 -0.58,2.59 -0.58,4.24l0 11.22c0,0.66 0.05,1.28 0.15,1.87 0.09,0.58 0.24,1.15 0.43,1.69 0.19,0.54 0.43,1.04 0.7,1.5 0.28,0.46 0.59,0.89 0.95,1.27 0.35,0.39 0.75,0.74 1.2,1.04l0 0c0.44,0.3 0.93,0.57 1.47,0.79 0.53,0.23 1.11,0.4 1.73,0.51 0.61,0.11 1.28,0.17 2,0.17l9.55 0 0 -11.81 -5.55 0c-0.28,0 -0.53,-0.04 -0.76,-0.13 -0.24,-0.1 -0.44,-0.24 -0.62,-0.42 -0.17,-0.18 -0.29,-0.38 -0.38,-0.59 -0.08,-0.22 -0.13,-0.45 -0.13,-0.69zm1 -0.3c-0.04,0.09 -0.06,0.19 -0.06,0.3 0,0.12 0.02,0.24 0.06,0.34l0 0.01c0.04,0.1 0.11,0.2 0.19,0.29 0.08,0.08 0.17,0.15 0.28,0.19l0 0c0.12,0.04 0.26,0.06 0.42,0.06l6.48 0 0 13.68 -10.48 0c-0.76,0 -1.48,-0.06 -2.17,-0.18 -0.69,-0.13 -1.33,-0.31 -1.92,-0.56 -0.59,-0.25 -1.14,-0.54 -1.64,-0.89l0 0c-0.5,-0.34 -0.96,-0.73 -1.36,-1.17l0 -0.01c-0.4,-0.43 -0.76,-0.91 -1.06,-1.42 -0.31,-0.52 -0.57,-1.07 -0.78,-1.67 -0.21,-0.58 -0.37,-1.2 -0.48,-1.85 -0.1,-0.65 -0.16,-1.32 -0.16,-2.02l0 -11.22c0,-1.76 0.22,-3.27 0.64,-4.54 0.43,-1.29 1.07,-2.34 1.94,-3.14 0.86,-0.78 1.88,-1.37 3.06,-1.77 1.16,-0.38 2.47,-0.58 3.93,-0.58l9.66 0c0.11,0 0.2,-0.02 0.29,-0.06l0 0c0.1,-0.04 0.2,-0.11 0.29,-0.2 0.09,-0.1 0.16,-0.19 0.21,-0.3 0.04,-0.1 0.06,-0.21 0.06,-0.33 0,-0.11 -0.02,-0.21 -0.06,-0.3 -0.04,-0.09 -0.11,-0.19 -0.21,-0.28l0 0c-0.09,-0.1 -0.19,-0.17 -0.29,-0.21l0 0c-0.09,-0.04 -0.18,-0.06 -0.29,-0.06l-9.66 0c-0.91,0 -1.77,0.05 -2.57,0.16 -0.8,0.1 -1.56,0.26 -2.27,0.48 -0.7,0.21 -1.35,0.48 -1.94,0.82 -0.59,0.33 -1.13,0.73 -1.61,1.19 -0.49,0.46 -0.92,0.99 -1.29,1.59 -0.37,0.6 -0.69,1.28 -0.95,2.02l0 0c-0.26,0.74 -0.45,1.57 -0.58,2.49 -0.13,0.92 -0.2,1.92 -0.2,3.02l0 11.22c0,0.88 0.07,1.71 0.19,2.49 0.12,0.78 0.31,1.52 0.57,2.23l0 0c0.25,0.71 0.56,1.36 0.92,1.96 0.37,0.6 0.79,1.15 1.27,1.64 0.49,0.5 1.02,0.94 1.61,1.33 0.59,0.38 1.24,0.71 1.94,0.99 1.41,0.55 3.05,0.82 4.91,0.82l10.47 0c0.28,0 0.53,-0.04 0.75,-0.12 0.21,-0.08 0.4,-0.2 0.56,-0.37 0.17,-0.16 0.29,-0.35 0.37,-0.56 0.08,-0.22 0.13,-0.47 0.13,-0.75l0 -13.5c0,-0.26 -0.05,-0.5 -0.13,-0.72 -0.08,-0.21 -0.21,-0.4 -0.37,-0.58 -0.17,-0.16 -0.36,-0.29 -0.57,-0.38 -0.21,-0.08 -0.46,-0.13 -0.74,-0.13l-6.57 0c-0.13,0 -0.23,0.02 -0.33,0.06 -0.09,0.04 -0.18,0.11 -0.27,0.2 -0.08,0.09 -0.15,0.19 -0.19,0.29zm28.9 -18.83c0.94,0 1.84,0.06 2.7,0.17 0.85,0.12 1.66,0.29 2.41,0.51 0.77,0.23 1.48,0.53 2.14,0.9 0.65,0.37 1.25,0.82 1.79,1.33 0.55,0.52 1.02,1.11 1.44,1.78 0.41,0.66 0.75,1.39 1.03,2.2 0.28,0.81 0.49,1.69 0.63,2.67 0.14,0.97 0.21,2.02 0.21,3.15l0 11.22c0,0.91 -0.07,1.79 -0.2,2.63 -0.14,0.85 -0.34,1.65 -0.61,2.41 -0.27,0.76 -0.61,1.47 -1.01,2.13 -0.4,0.65 -0.87,1.26 -1.4,1.8l0 0c-0.53,0.55 -1.12,1.04 -1.77,1.46 -0.64,0.42 -1.35,0.78 -2.11,1.08 -0.76,0.3 -1.58,0.52 -2.46,0.67 -0.88,0.15 -1.81,0.22 -2.79,0.22l-2.33 0c-1.94,0 -3.68,-0.3 -5.22,-0.89 -0.77,-0.3 -1.48,-0.66 -2.13,-1.08 -0.66,-0.42 -1.25,-0.91 -1.78,-1.46 -0.53,-0.54 -1,-1.15 -1.4,-1.8 -0.4,-0.66 -0.73,-1.37 -1.01,-2.13l0 0c-0.27,-0.76 -0.47,-1.56 -0.6,-2.41 -0.14,-0.84 -0.21,-1.72 -0.21,-2.63l0 -11.22c0,-1.14 0.07,-2.19 0.22,-3.16 0.14,-0.97 0.36,-1.85 0.65,-2.66 0.29,-0.81 0.64,-1.54 1.05,-2.2 0.42,-0.67 0.9,-1.26 1.44,-1.78 0.54,-0.51 1.14,-0.96 1.8,-1.33 0.65,-0.37 1.37,-0.67 2.13,-0.9 0.75,-0.22 1.56,-0.39 2.41,-0.51 0.84,-0.11 1.73,-0.17 2.65,-0.17l2.33 0zm2.58 1.1c-0.81,-0.11 -1.67,-0.16 -2.58,-0.16l-2.33 0c-0.89,0 -1.74,0.05 -2.53,0.16 -0.8,0.1 -1.55,0.26 -2.26,0.48 -0.7,0.21 -1.35,0.48 -1.94,0.82 -0.59,0.33 -1.13,0.73 -1.61,1.19 -0.49,0.46 -0.92,0.99 -1.3,1.59 -0.37,0.6 -0.7,1.28 -0.96,2.02 -0.27,0.74 -0.47,1.57 -0.61,2.49 -0.13,0.92 -0.2,1.92 -0.2,3.02l0 11.22c0,0.88 0.06,1.71 0.19,2.49 0.12,0.78 0.31,1.52 0.57,2.23 0.25,0.71 0.56,1.36 0.92,1.96 0.37,0.6 0.79,1.14 1.27,1.64 0.48,0.5 1.02,0.94 1.62,1.33 0.59,0.38 1.25,0.71 1.96,0.99 1.42,0.55 3.05,0.82 4.88,0.82l2.33 0c0.94,0 1.82,-0.06 2.63,-0.2 0.82,-0.14 1.58,-0.35 2.28,-0.62l0 0c0.7,-0.27 1.35,-0.61 1.94,-0.99 0.59,-0.39 1.13,-0.83 1.61,-1.33 0.48,-0.49 0.91,-1.04 1.27,-1.64 0.37,-0.6 0.68,-1.25 0.93,-1.96l0 0c0.25,-0.71 0.44,-1.45 0.56,-2.23 0.13,-0.78 0.19,-1.61 0.19,-2.49l0 -11.22c0,-1.1 -0.06,-2.1 -0.19,-3.02 -0.14,-0.92 -0.33,-1.75 -0.59,-2.49l0 0c-0.26,-0.74 -0.57,-1.42 -0.95,-2.02 -0.37,-0.6 -0.79,-1.13 -1.28,-1.59 -0.49,-0.46 -1.03,-0.86 -1.62,-1.19 -0.59,-0.34 -1.23,-0.61 -1.93,-0.82 -0.72,-0.22 -1.47,-0.38 -2.27,-0.48zm-13.49 22.83c0,1.3 0.19,2.49 0.56,3.57 0.18,0.53 0.41,1.03 0.68,1.49 0.28,0.46 0.6,0.88 0.96,1.27 0.37,0.39 0.77,0.74 1.21,1.04 0.45,0.31 0.93,0.57 1.46,0.8l0 0c0.53,0.22 1.1,0.39 1.71,0.5 0.62,0.11 1.28,0.17 2,0.17l2.33 0c0.72,0 1.39,-0.06 2.01,-0.17 0.62,-0.11 1.19,-0.28 1.73,-0.51 0.53,-0.22 1.03,-0.48 1.48,-0.79 0.44,-0.3 0.85,-0.65 1.21,-1.04 0.37,-0.39 0.69,-0.81 0.96,-1.27 0.27,-0.46 0.5,-0.96 0.69,-1.49 0.18,-0.55 0.32,-1.11 0.41,-1.7 0.09,-0.59 0.14,-1.21 0.14,-1.87l0 -11.22c0,-1.65 -0.19,-3.07 -0.58,-4.24 -0.38,-1.15 -0.94,-2.06 -1.69,-2.75 -0.76,-0.7 -1.67,-1.22 -2.71,-1.57 -1.07,-0.35 -2.28,-0.53 -3.65,-0.53l-2.33 0c-1.35,0 -2.55,0.18 -3.6,0.53 -1.04,0.35 -1.94,0.87 -2.7,1.57 -0.75,0.69 -1.32,1.6 -1.69,2.75 -0.39,1.17 -0.59,2.59 -0.59,4.24l0 11.22zm-0.33 3.87c-0.4,-1.18 -0.61,-2.47 -0.61,-3.87l0 -11.22c0,-1.76 0.21,-3.27 0.64,-4.54 0.42,-1.29 1.07,-2.34 1.94,-3.14l0 0c0.86,-0.79 1.88,-1.37 3.04,-1.77 1.16,-0.38 2.46,-0.58 3.9,-0.58l2.33 0c1.46,0 2.77,0.2 3.94,0.58 1.17,0.4 2.19,0.99 3.05,1.77l0 0c0.87,0.8 1.52,1.85 1.95,3.14 0.42,1.27 0.63,2.78 0.63,4.54l0 11.22c0,0.69 -0.05,1.36 -0.15,2.01 -0.11,0.66 -0.26,1.28 -0.46,1.86 -0.2,0.59 -0.46,1.15 -0.77,1.67 -0.3,0.51 -0.66,0.99 -1.07,1.43 -0.42,0.44 -0.87,0.83 -1.38,1.17 -0.5,0.35 -1.05,0.64 -1.64,0.89 -0.59,0.25 -1.24,0.43 -1.93,0.56 -0.68,0.12 -1.41,0.18 -2.17,0.18l-2.33 0c-0.76,0 -1.48,-0.06 -2.16,-0.18 -0.69,-0.13 -1.33,-0.32 -1.91,-0.56 -0.58,-0.25 -1.13,-0.55 -1.62,-0.89 -0.51,-0.35 -0.96,-0.74 -1.37,-1.17 -0.41,-0.44 -0.77,-0.92 -1.08,-1.43 -0.31,-0.52 -0.56,-1.08 -0.77,-1.67zm48.89 -15.09c0,-1.65 -0.19,-3.07 -0.58,-4.24 -0.38,-1.15 -0.94,-2.06 -1.69,-2.75 -0.76,-0.7 -1.67,-1.22 -2.71,-1.57 -1.06,-0.35 -2.28,-0.53 -3.65,-0.53l-8.88 0 0 29.15 8.88 0c0.72,0 1.39,-0.06 2.01,-0.17 0.62,-0.11 1.19,-0.28 1.73,-0.51 1.07,-0.44 1.97,-1.05 2.7,-1.83 0.36,-0.39 0.68,-0.81 0.95,-1.27l0 0c0.27,-0.46 0.5,-0.95 0.69,-1.49 0.19,-0.55 0.32,-1.11 0.42,-1.7 0.09,-0.59 0.13,-1.21 0.13,-1.87l0 -11.22zm0.31 -4.54c0.42,1.27 0.63,2.78 0.63,4.54l0 11.22c0,0.69 -0.05,1.36 -0.15,2.01 -0.1,0.65 -0.25,1.27 -0.45,1.86l0 0c-0.21,0.59 -0.46,1.14 -0.77,1.67l0 0c-0.31,0.51 -0.67,0.99 -1.08,1.43 -0.82,0.88 -1.83,1.56 -3.02,2.06 -0.59,0.25 -1.24,0.43 -1.92,0.56 -0.69,0.12 -1.42,0.18 -2.18,0.18l-9.82 0 0 -31.02 9.82 0c1.46,0 2.78,0.2 3.94,0.58 1.18,0.4 2.2,0.99 3.05,1.77 0.87,0.8 1.52,1.85 1.95,3.14zm-21.49 -5.42c0,-0.39 0.06,-0.76 0.19,-1.09l0 0c0.13,-0.33 0.32,-0.63 0.58,-0.89 0.25,-0.25 0.55,-0.45 0.89,-0.58 0.33,-0.12 0.69,-0.19 1.08,-0.19l9.81 0c0.94,0 1.84,0.06 2.7,0.17 0.86,0.12 1.66,0.29 2.42,0.51 0.76,0.23 1.47,0.53 2.13,0.9 0.65,0.37 1.25,0.82 1.8,1.33 0.54,0.52 1.02,1.11 1.43,1.78 0.41,0.66 0.75,1.39 1.04,2.2 0.28,0.81 0.49,1.69 0.62,2.67 0.14,0.97 0.21,2.02 0.21,3.15l0 11.22c0,0.91 -0.07,1.79 -0.2,2.63 -0.14,0.85 -0.34,1.65 -0.61,2.41 -0.27,0.76 -0.61,1.47 -1.01,2.13 -0.4,0.65 -0.86,1.26 -1.39,1.8l-0.01 0c-0.53,0.55 -1.11,1.04 -1.77,1.46 -0.64,0.42 -1.35,0.78 -2.11,1.08 -0.76,0.3 -1.58,0.52 -2.46,0.67 -0.88,0.15 -1.81,0.22 -2.79,0.22l-9.81 0c-0.8,0 -1.46,-0.25 -1.97,-0.77l0 0c-0.26,-0.25 -0.45,-0.55 -0.58,-0.89 -0.13,-0.33 -0.19,-0.69 -0.19,-1.08l0 -30.84zm1.06 -0.75c-0.08,0.21 -0.12,0.46 -0.12,0.75l0 30.84c0,0.28 0.04,0.53 0.12,0.75 0.08,0.21 0.21,0.4 0.37,0.56 0.33,0.33 0.77,0.49 1.31,0.49l9.81 0c0.94,0 1.82,-0.06 2.64,-0.2 0.81,-0.14 1.57,-0.35 2.27,-0.62 0.71,-0.28 1.36,-0.61 1.95,-0.99 0.58,-0.39 1.12,-0.83 1.6,-1.33 0.48,-0.49 0.91,-1.04 1.27,-1.64 0.37,-0.6 0.68,-1.25 0.93,-1.96l0 0c0.25,-0.71 0.44,-1.45 0.57,-2.23 0.12,-0.78 0.18,-1.61 0.18,-2.49l0 -11.22c0,-1.1 -0.06,-2.1 -0.19,-3.02 -0.13,-0.92 -0.33,-1.75 -0.59,-2.49l0 0c-0.25,-0.74 -0.57,-1.42 -0.94,-2.02 -0.37,-0.6 -0.8,-1.13 -1.29,-1.59 -0.49,-0.46 -1.02,-0.86 -1.61,-1.19 -0.59,-0.34 -1.24,-0.61 -1.94,-0.82 -0.71,-0.22 -1.47,-0.38 -2.27,-0.48 -0.81,-0.11 -1.66,-0.16 -2.58,-0.16l-9.81 0c-0.28,0 -0.53,0.04 -0.75,0.13 -0.21,0.07 -0.39,0.2 -0.56,0.36l0 0c-0.16,0.17 -0.29,0.36 -0.37,0.57zm50.76 -0.16c0,-0.25 0.05,-0.48 0.14,-0.7 0.09,-0.22 0.23,-0.42 0.41,-0.59 0.17,-0.18 0.37,-0.32 0.59,-0.41l0 0c0.22,-0.09 0.45,-0.14 0.7,-0.14 0.26,0 0.5,0.05 0.73,0.14l0 0c0.23,0.09 0.43,0.23 0.61,0.4 0.36,0.36 0.54,0.8 0.54,1.3l0 30.23c0,0.6 -0.1,1.15 -0.3,1.66 -0.21,0.51 -0.52,0.97 -0.92,1.38 -0.41,0.4 -0.87,0.71 -1.38,0.92 -0.51,0.2 -1.06,0.3 -1.66,0.3 -0.43,0 -0.84,-0.06 -1.23,-0.17 -0.39,-0.11 -0.76,-0.29 -1.1,-0.51l0 0c-0.34,-0.23 -0.64,-0.5 -0.9,-0.8 -0.25,-0.3 -0.46,-0.64 -0.63,-1.02l-13.61 -29.8c-0.02,-0.04 -0.04,-0.08 -0.08,-0.12l0 -0.01c-0.03,-0.04 -0.08,-0.09 -0.13,-0.13 -0.05,-0.03 -0.09,-0.06 -0.14,-0.07 -0.05,-0.02 -0.11,-0.03 -0.18,-0.03 -0.09,0 -0.17,0.01 -0.24,0.04 -0.07,0.03 -0.13,0.07 -0.18,0.13 -0.06,0.05 -0.1,0.11 -0.13,0.18l0 0c-0.03,0.07 -0.04,0.15 -0.04,0.24l0 30.24c0,0.24 -0.04,0.47 -0.13,0.69 -0.08,0.21 -0.21,0.41 -0.38,0.59 -0.17,0.18 -0.37,0.32 -0.6,0.41 -0.22,0.1 -0.46,0.14 -0.72,0.14 -0.25,0 -0.48,-0.04 -0.7,-0.14l0 0c-0.22,-0.09 -0.42,-0.22 -0.6,-0.4l0 0c-0.17,-0.18 -0.31,-0.38 -0.4,-0.59 -0.09,-0.22 -0.14,-0.46 -0.14,-0.7l0 -30.24c0,-0.59 0.1,-1.15 0.31,-1.66 0.2,-0.51 0.51,-0.97 0.91,-1.37 0.41,-0.41 0.87,-0.72 1.38,-0.92 0.51,-0.2 1.06,-0.31 1.66,-0.31 0.43,0 0.84,0.06 1.23,0.17 0.39,0.12 0.76,0.29 1.1,0.52 0.34,0.22 0.64,0.49 0.9,0.79 0.25,0.31 0.47,0.65 0.64,1.03l13.6 29.79c0.02,0.04 0.05,0.09 0.08,0.13l0 0c0.03,0.05 0.08,0.09 0.14,0.14 0.04,0.03 0.08,0.06 0.13,0.07l0 0c0.05,0.02 0.11,0.03 0.18,0.03 0.07,0 0.13,-0.02 0.17,-0.04 0.05,-0.02 0.09,-0.05 0.13,-0.1 0.06,-0.07 0.11,-0.15 0.15,-0.24 0.04,-0.08 0.07,-0.17 0.09,-0.26l0 -30.19zm1 -0.34c-0.04,0.1 -0.06,0.21 -0.06,0.34l0 30.27 -0.01 0.06c-0.04,0.19 -0.1,0.36 -0.17,0.52 -0.08,0.16 -0.17,0.31 -0.28,0.44l0 0c-0.13,0.15 -0.28,0.27 -0.46,0.35 -0.17,0.08 -0.36,0.12 -0.56,0.12 -0.16,0 -0.32,-0.02 -0.48,-0.07 -0.15,-0.06 -0.29,-0.13 -0.42,-0.23 -0.11,-0.09 -0.21,-0.19 -0.29,-0.3l0 0c-0.08,-0.1 -0.15,-0.22 -0.2,-0.35l-13.6 -29.76c-0.13,-0.3 -0.3,-0.57 -0.5,-0.8 -0.2,-0.24 -0.43,-0.44 -0.69,-0.62l-0.01 0c-0.26,-0.18 -0.54,-0.31 -0.84,-0.4 -0.3,-0.09 -0.62,-0.13 -0.97,-0.13 -0.48,0 -0.92,0.08 -1.31,0.24 -0.39,0.15 -0.75,0.39 -1.06,0.71l0 0c-0.32,0.32 -0.56,0.67 -0.71,1.06 -0.16,0.4 -0.24,0.83 -0.24,1.31l0 30.24c0,0.12 0.02,0.24 0.06,0.34 0.04,0.1 0.11,0.2 0.2,0.29 0.1,0.09 0.19,0.16 0.3,0.2l0 0c0.1,0.04 0.21,0.06 0.34,0.06 0.14,0 0.26,-0.02 0.37,-0.06 0.1,-0.04 0.19,-0.1 0.27,-0.19l0 0c0.09,-0.09 0.15,-0.19 0.19,-0.29l0 -0.01c0.04,-0.1 0.06,-0.21 0.06,-0.34l0 -30.24c0,-0.21 0.04,-0.4 0.11,-0.59 0.08,-0.18 0.19,-0.35 0.33,-0.49l0 -0.01c0.15,-0.14 0.31,-0.25 0.5,-0.33 0.18,-0.07 0.38,-0.11 0.59,-0.11 0.17,0 0.32,0.03 0.48,0.08 0.15,0.05 0.29,0.13 0.42,0.23l0 0c0.11,0.09 0.21,0.19 0.29,0.29 0.09,0.11 0.16,0.23 0.21,0.35l13.59 29.77c0.13,0.29 0.3,0.56 0.5,0.8 0.2,0.23 0.43,0.44 0.7,0.62 0.26,0.17 0.54,0.31 0.84,0.39 0.3,0.09 0.63,0.13 0.97,0.13 0.48,0 0.92,-0.07 1.31,-0.23 0.39,-0.16 0.75,-0.4 1.07,-0.71l0 0c0.31,-0.32 0.55,-0.68 0.71,-1.07 0.16,-0.39 0.24,-0.83 0.24,-1.31l0 -30.23c0,-0.25 -0.1,-0.45 -0.27,-0.63 -0.09,-0.09 -0.19,-0.16 -0.3,-0.2 -0.11,-0.05 -0.24,-0.07 -0.38,-0.07 -0.12,0 -0.24,0.02 -0.34,0.06l0 0c-0.1,0.05 -0.2,0.11 -0.29,0.21l0 0c-0.09,0.09 -0.16,0.19 -0.21,0.29zm21.54 2.94c-0.05,-0.09 -0.11,-0.18 -0.18,-0.27 -0.07,-0.09 -0.15,-0.18 -0.25,-0.26 -0.08,-0.07 -0.16,-0.12 -0.23,-0.15l0 0c-0.07,-0.02 -0.15,-0.04 -0.22,-0.04 -0.08,0 -0.15,0.02 -0.21,0.04 -0.08,0.04 -0.16,0.09 -0.23,0.16 -0.11,0.1 -0.2,0.2 -0.27,0.29 -0.07,0.08 -0.13,0.16 -0.17,0.24 -0.46,1.54 -0.91,3.04 -1.34,4.48 -0.4,1.34 -0.87,2.88 -1.41,4.64l-1.42 4.66 -1.2 3.92 12.49 0 -5.36 -17.71zm0.56 -0.85c0.11,0.15 0.21,0.3 0.29,0.47l0.02 0.03c1.92,6.33 3.83,12.66 5.75,19l-15.01 0 1.57 -5.13 1.42 -4.66c0.42,-1.37 0.89,-2.92 1.4,-4.63 0.49,-1.61 0.94,-3.12 1.35,-4.54l0.02 -0.05 0.03 -0.05c0.08,-0.14 0.17,-0.27 0.28,-0.41 0.11,-0.13 0.23,-0.26 0.36,-0.38l0 0c0.16,-0.15 0.33,-0.26 0.5,-0.33 0.19,-0.09 0.38,-0.13 0.58,-0.13 0.19,0 0.38,0.04 0.56,0.11 0.18,0.08 0.34,0.18 0.5,0.31 0.14,0.12 0.27,0.25 0.38,0.39zm11.4 30.79l-0.01 -0.05 -9.29 -30.79c-0.12,-0.39 -0.29,-0.75 -0.5,-1.06 -0.22,-0.31 -0.48,-0.59 -0.8,-0.83 -0.31,-0.24 -0.65,-0.41 -1.02,-0.53 -0.37,-0.12 -0.78,-0.18 -1.22,-0.18 -0.43,0 -0.83,0.06 -1.19,0.18 -0.37,0.12 -0.72,0.3 -1.04,0.54 -0.32,0.23 -0.59,0.51 -0.81,0.82 -0.22,0.32 -0.39,0.67 -0.51,1.06 -0.7,2.33 -1.48,4.9 -2.33,7.71 -0.81,2.66 -1.59,5.22 -2.35,7.66 -0.74,2.4 -1.51,4.95 -2.33,7.65 -0.81,2.68 -1.57,5.23 -2.29,7.67l-0.01 0.01c0,0.02 -0.01,0.05 -0.01,0.1 -0.01,0.05 -0.01,0.12 -0.01,0.21 0,0.1 0.02,0.2 0.06,0.29 0.04,0.1 0.11,0.19 0.21,0.29l0 0c0.09,0.09 0.19,0.16 0.28,0.21 0.09,0.04 0.19,0.05 0.29,0.05 0.11,0 0.2,-0.01 0.29,-0.04 0.09,-0.03 0.18,-0.08 0.27,-0.14 0.1,-0.07 0.18,-0.15 0.24,-0.22 0.06,-0.07 0.1,-0.13 0.13,-0.2l3.03 -9.96 16.05 0 3.18 9.94c0.03,0.06 0.07,0.12 0.13,0.19 0.07,0.08 0.15,0.16 0.25,0.24 0.08,0.07 0.15,0.12 0.23,0.15l0 0c0.07,0.03 0.14,0.04 0.22,0.04 0.13,0 0.24,-0.02 0.34,-0.06 0.1,-0.04 0.2,-0.11 0.29,-0.2l0 0c0.1,-0.1 0.17,-0.2 0.21,-0.29 0.04,-0.09 0.06,-0.18 0.06,-0.28l-0.01 -0.05c-0.02,-0.05 -0.02,-0.09 -0.03,-0.12l0 -0.01zm0.92 -0.14l0.01 0.05c0.02,0.04 0.02,0.08 0.03,0.12 0.01,0.05 0.01,0.1 0.01,0.14 0,0.23 -0.04,0.46 -0.14,0.67 -0.09,0.21 -0.22,0.4 -0.4,0.57 -0.18,0.18 -0.37,0.31 -0.59,0.4 -0.22,0.1 -0.45,0.14 -0.7,0.14 -0.19,0 -0.38,-0.03 -0.57,-0.11 -0.17,-0.07 -0.34,-0.17 -0.49,-0.3 -0.14,-0.12 -0.26,-0.24 -0.36,-0.36l0 0c-0.11,-0.14 -0.2,-0.27 -0.26,-0.4l-0.01 -0.02 -3 -9.38 -14.68 0c-0.81,2.66 -1.84,6.99 -2.85,9.38 -0.07,0.16 -0.16,0.31 -0.28,0.45 -0.12,0.14 -0.25,0.26 -0.41,0.37 -0.16,0.12 -0.34,0.21 -0.52,0.28l0 0c-0.19,0.06 -0.39,0.09 -0.59,0.09 -0.23,0 -0.45,-0.05 -0.67,-0.14l0 0c-0.2,-0.09 -0.39,-0.22 -0.57,-0.4 -0.17,-0.17 -0.3,-0.36 -0.4,-0.57 -0.09,-0.21 -0.14,-0.44 -0.14,-0.67 0,-0.11 0.01,-0.22 0.02,-0.32 0.01,-0.11 0.03,-0.2 0.05,-0.28 0.8,-2.69 1.56,-5.24 2.3,-7.66 0.72,-2.41 1.5,-4.96 2.33,-7.65 0.81,-2.65 1.6,-5.2 2.34,-7.66 0.71,-2.31 1.49,-4.89 2.33,-7.71l0.01 0c0.15,-0.49 0.36,-0.93 0.64,-1.32 0.27,-0.4 0.61,-0.75 1.02,-1.04 0.4,-0.31 0.83,-0.53 1.3,-0.68 0.47,-0.15 0.96,-0.23 1.48,-0.23 0.53,0 1.03,0.08 1.5,0.23 0.48,0.15 0.91,0.38 1.31,0.68 0.39,0.3 0.72,0.64 1,1.04 0.27,0.39 0.48,0.83 0.63,1.32 2.56,5.12 7.28,24.13 9.32,30.91l0 0.06z"/>
  <path class="fil4" d="M99.58 63.86l-8.19 0 0 15.58c0,0.37 -0.13,0.69 -0.4,0.96 -0.27,0.27 -0.59,0.4 -0.96,0.4 -0.41,0 -0.74,-0.13 -0.99,-0.4 -0.25,-0.27 -0.38,-0.59 -0.38,-0.96l0 -31.76c0,-0.67 0.21,-1.22 0.63,-1.64 0.42,-0.42 0.96,-0.63 1.6,-0.63l11.42 0c1.28,0 2.49,0.24 3.62,0.73 1.13,0.49 2.1,1.16 2.93,2 0.83,0.84 1.48,1.82 1.97,2.93 0.49,1.11 0.74,2.29 0.74,3.54 0,1.25 -0.23,2.42 -0.69,3.51 -0.45,1.1 -1.08,2.06 -1.87,2.89 -0.79,0.82 -1.72,1.49 -2.78,1.99 -1.06,0.51 -2.2,0.8 -3.41,0.86l7.99 14.92c0.06,0.17 0.11,0.29 0.12,0.38 0.02,0.08 0.03,0.18 0.03,0.28 0,0.37 -0.14,0.69 -0.41,0.96 -0.27,0.27 -0.59,0.4 -0.96,0.4 -0.57,0 -0.97,-0.27 -1.21,-0.81l-8.8 -16.13zm2.73 -2.68c0.91,0 1.76,-0.17 2.56,-0.5 0.79,-0.34 1.49,-0.81 2.09,-1.42 0.61,-0.6 1.08,-1.3 1.42,-2.1 0.34,-0.79 0.51,-1.64 0.51,-2.55 0,-0.91 -0.17,-1.76 -0.51,-2.55 -0.34,-0.79 -0.81,-1.48 -1.42,-2.08 -0.6,-0.59 -1.3,-1.05 -2.09,-1.39 -0.8,-0.33 -1.65,-0.5 -2.56,-0.5l-10.92 0 0 13.09 10.92 0zm36.84 -11.98c-0.14,-0.27 -0.32,-0.5 -0.56,-0.71 -0.23,-0.2 -0.49,-0.3 -0.75,-0.3 -0.27,0 -0.53,0.11 -0.76,0.33 -0.24,0.22 -0.42,0.45 -0.56,0.68 -0.88,2.97 -1.8,6.03 -2.76,9.18 -0.96,3.15 -1.89,6.21 -2.8,9.17l13.75 0 -5.56 -18.35zm11.98 29.98c0,0.04 0.01,0.09 0.03,0.16 0.01,0.06 0.02,0.11 0.02,0.15 0,0.33 -0.13,0.64 -0.4,0.91 -0.27,0.27 -0.59,0.4 -0.96,0.4 -0.27,0 -0.52,-0.1 -0.76,-0.3 -0.24,-0.2 -0.41,-0.41 -0.51,-0.61l-3.08 -9.66 -15.37 0 -2.93 9.66c-0.1,0.24 -0.28,0.45 -0.53,0.63 -0.26,0.19 -0.54,0.28 -0.84,0.28 -0.34,0 -0.64,-0.13 -0.91,-0.4 -0.27,-0.27 -0.4,-0.58 -0.4,-0.91 0,-0.21 0.01,-0.36 0.05,-0.46 1.51,-5.12 3.06,-10.23 4.62,-15.32 1.57,-5.09 3.13,-10.21 4.68,-15.37 0.27,-0.88 0.77,-1.58 1.49,-2.12 0.73,-0.54 1.56,-0.81 2.51,-0.81 0.97,0 1.81,0.27 2.52,0.81 0.71,0.54 1.2,1.24 1.47,2.12l9.3 30.84zm17.02 -31.09l-10.21 0c-0.34,0 -0.64,-0.14 -0.91,-0.41 -0.27,-0.27 -0.41,-0.59 -0.41,-0.96 0,-0.33 0.14,-0.64 0.41,-0.91 0.27,-0.27 0.57,-0.4 0.91,-0.4l22.8 0c0.44,0 0.79,0.13 1.06,0.4 0.27,0.27 0.41,0.58 0.41,0.91 0,0.37 -0.14,0.69 -0.41,0.96 -0.27,0.27 -0.59,0.41 -0.96,0.41l-10.06 0 0 31.4c0,0.33 -0.14,0.64 -0.41,0.91 -0.27,0.27 -0.57,0.4 -0.91,0.4 -0.37,0 -0.68,-0.13 -0.93,-0.4 -0.25,-0.27 -0.38,-0.58 -0.38,-0.91l0 -31.4zm34.16 1.11c-0.14,-0.27 -0.32,-0.5 -0.56,-0.71 -0.24,-0.2 -0.49,-0.3 -0.76,-0.3 -0.27,0 -0.52,0.11 -0.76,0.33 -0.23,0.22 -0.42,0.45 -0.55,0.68 -0.88,2.97 -1.8,6.03 -2.76,9.18 -0.96,3.15 -1.89,6.21 -2.8,9.17l13.75 0 -5.56 -18.35zm11.98 29.98c0,0.04 0.01,0.09 0.02,0.16 0.02,0.06 0.03,0.11 0.03,0.15 0,0.33 -0.13,0.64 -0.4,0.91 -0.27,0.27 -0.6,0.4 -0.97,0.4 -0.27,0 -0.52,-0.1 -0.75,-0.3 -0.24,-0.2 -0.41,-0.41 -0.51,-0.61l-3.08 -9.66 -15.37 0 -2.94 9.66c-0.1,0.24 -0.28,0.45 -0.53,0.63 -0.25,0.19 -0.53,0.28 -0.83,0.28 -0.34,0 -0.64,-0.13 -0.91,-0.4 -0.27,-0.27 -0.41,-0.58 -0.41,-0.91 0,-0.21 0.02,-0.36 0.05,-0.46 1.52,-5.12 3.06,-10.23 4.63,-15.32 1.57,-5.09 3.13,-10.21 4.68,-15.37 0.27,-0.88 0.76,-1.58 1.49,-2.12 0.72,-0.54 1.56,-0.81 2.5,-0.81 0.98,0 1.82,0.27 2.53,0.81 0.71,0.54 1.2,1.24 1.47,2.12l9.3 30.84zm12.97 -1.77c0,-0.4 0.14,-0.75 0.41,-1.03 0.27,-0.29 0.62,-0.43 1.06,-0.43 0.37,0 0.7,0.14 0.98,0.43 0.29,0.28 0.43,0.63 0.43,1.03l0 1.82c0,0.48 -0.14,0.85 -0.43,1.14 -0.28,0.29 -0.61,0.43 -0.98,0.43 -0.44,0 -0.79,-0.13 -1.06,-0.4 -0.27,-0.27 -0.41,-0.63 -0.41,-1.06l0 -1.93zm15.8 -29.73c0,-0.67 0.22,-1.22 0.64,-1.64 0.42,-0.42 0.95,-0.63 1.59,-0.63l11.43 0c1.28,0 2.48,0.24 3.61,0.73 1.13,0.49 2.11,1.16 2.93,2 0.83,0.84 1.49,1.82 1.98,2.93 0.48,1.11 0.73,2.29 0.73,3.54 0,1.28 -0.25,2.49 -0.73,3.62 -0.49,1.13 -1.15,2.1 -1.98,2.93 -0.82,0.82 -1.8,1.48 -2.93,1.97 -1.13,0.49 -2.33,0.73 -3.61,0.73l-10.93 0 0 15.48c0,0.43 -0.13,0.79 -0.4,1.06 -0.27,0.27 -0.59,0.4 -0.96,0.4 -0.41,0 -0.73,-0.13 -0.99,-0.4 -0.25,-0.27 -0.38,-0.59 -0.38,-0.96l0 -31.76zm13.66 13.5c0.91,0 1.76,-0.17 2.55,-0.5 0.79,-0.34 1.49,-0.81 2.1,-1.42 0.6,-0.6 1.08,-1.3 1.41,-2.1 0.34,-0.79 0.51,-1.64 0.51,-2.55 0,-0.91 -0.17,-1.76 -0.51,-2.55 -0.33,-0.79 -0.81,-1.48 -1.41,-2.08 -0.61,-0.59 -1.31,-1.05 -2.1,-1.39 -0.79,-0.33 -1.64,-0.5 -2.55,-0.5l-10.93 0 0 13.09 10.93 0zm22.17 -14.41c0,-0.37 0.13,-0.69 0.4,-0.96 0.27,-0.27 0.59,-0.4 0.96,-0.4 0.41,0 0.75,0.13 1.02,0.4 0.27,0.27 0.4,0.59 0.4,0.96l0 31.3 15.27 0c0.44,0 0.79,0.13 1.06,0.38 0.27,0.25 0.41,0.58 0.41,0.99 0,0.37 -0.14,0.69 -0.41,0.96 -0.27,0.27 -0.59,0.4 -0.96,0.4l-15.88 0c-0.64,0 -1.18,-0.21 -1.61,-0.63 -0.44,-0.42 -0.66,-0.97 -0.66,-1.64l0 -31.76z"/>
  <path class="fil5" d="M99.31 64.33l-7.45 0 0 15.11c0,0.24 -0.05,0.48 -0.14,0.7 -0.09,0.21 -0.23,0.41 -0.4,0.59l0 0c-0.36,0.36 -0.79,0.54 -1.29,0.54 -0.26,0 -0.51,-0.05 -0.73,-0.14 -0.23,-0.09 -0.43,-0.23 -0.6,-0.41 -0.17,-0.18 -0.29,-0.38 -0.38,-0.59 -0.09,-0.22 -0.13,-0.45 -0.13,-0.69l0 -31.76c0,-0.39 0.07,-0.75 0.19,-1.08l0 0c0.13,-0.34 0.32,-0.63 0.58,-0.89l0 0c0.26,-0.26 0.55,-0.45 0.88,-0.58 0.32,-0.13 0.67,-0.19 1.05,-0.19l11.42 0c0.67,0 1.32,0.07 1.96,0.19 0.63,0.13 1.25,0.33 1.84,0.58 0.6,0.26 1.15,0.56 1.66,0.91 0.51,0.35 0.99,0.75 1.42,1.19 0.44,0.44 0.83,0.92 1.17,1.44 0.34,0.51 0.65,1.05 0.9,1.63 0.26,0.59 0.45,1.19 0.58,1.82 0.13,0.62 0.19,1.26 0.19,1.91 0,0.65 -0.06,1.29 -0.17,1.9 -0.13,0.62 -0.31,1.22 -0.54,1.79 -0.24,0.58 -0.53,1.12 -0.85,1.62 -0.33,0.51 -0.71,0.98 -1.12,1.41 -0.42,0.43 -0.87,0.82 -1.35,1.17 -0.49,0.36 -1.02,0.66 -1.57,0.93 -0.55,0.26 -1.13,0.47 -1.73,0.62 -0.37,0.09 -0.75,0.17 -1.14,0.22l7.67 14.32 0.01 0.02c0.03,0.08 0.06,0.16 0.09,0.24 0.03,0.09 0.05,0.16 0.06,0.22 0.03,0.12 0.04,0.24 0.04,0.37 0,0.24 -0.05,0.48 -0.14,0.7 -0.09,0.21 -0.23,0.41 -0.4,0.59l0 0c-0.18,0.17 -0.38,0.31 -0.6,0.4 -0.22,0.09 -0.45,0.14 -0.7,0.14 -0.38,0 -0.71,-0.09 -0.99,-0.28l0 0c-0.27,-0.19 -0.49,-0.45 -0.64,-0.8l-8.65 -15.86zm-7.92 -0.94l8.47 0 8.93 16.38 0.02 0.04c0.08,0.18 0.18,0.31 0.31,0.4 0.12,0.08 0.28,0.12 0.47,0.12 0.13,0 0.24,-0.02 0.34,-0.06 0.1,-0.04 0.2,-0.11 0.29,-0.2 0.1,-0.1 0.16,-0.19 0.21,-0.3 0.04,-0.1 0.06,-0.21 0.06,-0.33 0,-0.08 0,-0.14 -0.02,-0.18l0 -0.01c0,-0.03 -0.01,-0.07 -0.02,-0.1 -0.02,-0.05 -0.04,-0.1 -0.07,-0.18l-8.32 -15.53 0.73 -0.04c0.58,-0.04 1.14,-0.12 1.68,-0.26 0.53,-0.13 1.06,-0.32 1.56,-0.56 0.51,-0.24 0.98,-0.52 1.42,-0.83 0.44,-0.32 0.85,-0.67 1.23,-1.07 0.37,-0.39 0.71,-0.81 1,-1.27 0.3,-0.45 0.55,-0.94 0.77,-1.46 0.22,-0.52 0.38,-1.06 0.49,-1.61 0.1,-0.56 0.16,-1.13 0.16,-1.73 0,-0.6 -0.06,-1.17 -0.18,-1.72 -0.11,-0.56 -0.28,-1.1 -0.52,-1.63l0 0c-0.23,-0.53 -0.5,-1.03 -0.81,-1.49 -0.32,-0.47 -0.67,-0.9 -1.06,-1.3 -0.39,-0.4 -0.82,-0.76 -1.29,-1.08 -0.46,-0.31 -0.96,-0.59 -1.5,-0.82 -0.53,-0.23 -1.08,-0.41 -1.65,-0.52 -0.57,-0.11 -1.16,-0.17 -1.78,-0.17l-11.42 0c-0.27,0 -0.5,0.04 -0.71,0.12 -0.2,0.08 -0.39,0.21 -0.55,0.37l-0.01 0c-0.16,0.17 -0.28,0.35 -0.36,0.57 -0.09,0.21 -0.13,0.46 -0.13,0.74l0 31.76c0,0.12 0.02,0.24 0.06,0.34l0 0c0.04,0.11 0.11,0.21 0.19,0.3 0.08,0.08 0.17,0.15 0.27,0.19 0.11,0.04 0.23,0.06 0.38,0.06 0.24,0 0.45,-0.09 0.63,-0.26 0.09,-0.1 0.16,-0.19 0.2,-0.3 0.04,-0.1 0.06,-0.21 0.06,-0.33l0 -16.05 0.47 0zm10.92 -2.67c0.43,0 0.84,-0.04 1.23,-0.12 0.4,-0.08 0.78,-0.2 1.14,-0.35 0.37,-0.16 0.72,-0.35 1.04,-0.57 0.32,-0.22 0.63,-0.47 0.91,-0.75l0 0c0.28,-0.28 0.53,-0.58 0.75,-0.91 0.23,-0.33 0.41,-0.67 0.57,-1.04 0.15,-0.36 0.27,-0.74 0.35,-1.14 0.08,-0.39 0.12,-0.8 0.12,-1.23 0,-0.42 -0.04,-0.84 -0.12,-1.23 -0.08,-0.39 -0.2,-0.78 -0.35,-1.14 -0.16,-0.37 -0.34,-0.71 -0.56,-1.03 -0.22,-0.32 -0.47,-0.62 -0.75,-0.89 -0.28,-0.27 -0.59,-0.52 -0.91,-0.74 -0.33,-0.21 -0.68,-0.4 -1.05,-0.56 -0.36,-0.15 -0.74,-0.27 -1.14,-0.34 -0.39,-0.08 -0.8,-0.12 -1.23,-0.12l-10.45 0 0 12.16 10.45 0zm1.41 0.8c-0.45,0.09 -0.92,0.13 -1.41,0.13l-11.39 0 0 -14.03 11.39 0c0.49,0 0.96,0.05 1.41,0.14 0.46,0.09 0.9,0.22 1.33,0.4 0.42,0.18 0.82,0.4 1.19,0.64 0.38,0.25 0.73,0.53 1.05,0.85 0.33,0.32 0.62,0.66 0.87,1.03 0.25,0.37 0.47,0.77 0.65,1.2 0.18,0.42 0.32,0.86 0.41,1.32 0.09,0.46 0.13,0.93 0.13,1.41 0,0.48 -0.04,0.96 -0.13,1.41 -0.09,0.46 -0.23,0.9 -0.41,1.33 -0.18,0.42 -0.4,0.82 -0.65,1.19 -0.25,0.38 -0.54,0.73 -0.87,1.05 -0.32,0.33 -0.67,0.62 -1.04,0.87 -0.38,0.25 -0.78,0.47 -1.2,0.65 -0.43,0.18 -0.87,0.32 -1.33,0.41zm35 -12.14c-0.05,-0.09 -0.11,-0.18 -0.18,-0.27 -0.07,-0.09 -0.16,-0.18 -0.25,-0.26 -0.08,-0.07 -0.16,-0.12 -0.24,-0.15l0 0c-0.07,-0.03 -0.14,-0.04 -0.22,-0.04 -0.07,0 -0.14,0.01 -0.2,0.04 -0.08,0.03 -0.16,0.09 -0.24,0.16 -0.1,0.1 -0.19,0.19 -0.27,0.29 -0.06,0.08 -0.12,0.16 -0.17,0.24 -0.45,1.54 -0.9,3.04 -1.34,4.5 -0.4,1.33 -0.87,2.88 -1.4,4.62l-1.42 4.66 -1.2 3.92 12.49 0 -5.36 -17.71zm0.56 -0.85c0.11,0.15 0.21,0.3 0.29,0.46l0.01 0.03c1.91,6.34 3.84,12.67 5.76,19l-15.01 0 1.57 -5.12 1.42 -4.66c0.42,-1.38 0.88,-2.92 1.4,-4.62 0.48,-1.61 0.93,-3.13 1.35,-4.55l0.02 -0.05 0.02 -0.05c0.08,-0.14 0.18,-0.28 0.29,-0.41 0.11,-0.13 0.23,-0.26 0.36,-0.38l0 0c0.16,-0.15 0.32,-0.26 0.5,-0.34 0.19,-0.08 0.38,-0.12 0.57,-0.12 0.2,0 0.39,0.04 0.57,0.11 0.18,0.07 0.34,0.17 0.5,0.31 0.14,0.12 0.27,0.25 0.38,0.39zm11.4 30.79l-0.01 -0.05 -9.29 -30.8c-0.12,-0.39 -0.29,-0.74 -0.5,-1.05 -0.22,-0.31 -0.49,-0.59 -0.8,-0.83 -0.31,-0.24 -0.65,-0.42 -1.02,-0.53 -0.37,-0.12 -0.78,-0.18 -1.23,-0.18 -0.42,0 -0.82,0.06 -1.19,0.18 -0.36,0.11 -0.71,0.29 -1.03,0.53 -0.32,0.24 -0.59,0.52 -0.81,0.83 -0.22,0.31 -0.39,0.67 -0.51,1.05 -0.7,2.33 -1.48,4.9 -2.33,7.72 -0.82,2.66 -1.6,5.22 -2.35,7.66 -0.74,2.4 -1.52,4.95 -2.33,7.64 -0.81,2.68 -1.57,5.24 -2.29,7.67l-0.01 0.02c-0.01,0.02 -0.01,0.05 -0.02,0.09 0,0.06 0,0.13 0,0.22 0,0.1 0.02,0.2 0.05,0.29 0.05,0.09 0.12,0.19 0.21,0.29l0 0c0.1,0.09 0.19,0.16 0.29,0.2 0.09,0.04 0.18,0.06 0.29,0.06 0.1,0 0.2,-0.01 0.29,-0.04 0.09,-0.03 0.18,-0.08 0.27,-0.14 0.1,-0.08 0.18,-0.15 0.24,-0.22l0 -0.01c0.06,-0.06 0.1,-0.13 0.13,-0.2l3.02 -9.95 16.06 0 3.18 9.94c0.03,0.06 0.07,0.12 0.12,0.19 0.07,0.07 0.15,0.16 0.25,0.24 0.15,0.13 0.3,0.19 0.46,0.19 0.12,0 0.24,-0.02 0.34,-0.06 0.1,-0.04 0.19,-0.11 0.29,-0.2 0.09,-0.1 0.16,-0.19 0.21,-0.29l0 0c0.03,-0.09 0.05,-0.18 0.05,-0.28l-0.01 -0.05c-0.01,-0.05 -0.02,-0.09 -0.02,-0.13l0 0zm0.92 -0.14l0.01 0.04c0.01,0.05 0.02,0.09 0.03,0.12l0 0c0.01,0.06 0.01,0.1 0.01,0.15 0,0.23 -0.05,0.45 -0.14,0.67 -0.09,0.2 -0.23,0.39 -0.4,0.57l0 0c-0.18,0.17 -0.37,0.31 -0.59,0.4 -0.22,0.09 -0.46,0.14 -0.7,0.14 -0.39,0 -0.74,-0.14 -1.06,-0.42 -0.14,-0.11 -0.26,-0.23 -0.36,-0.36 -0.11,-0.13 -0.2,-0.26 -0.26,-0.39l-0.02 -0.03 -2.99 -9.37 -14.69 0 -2.84 9.36 0 0.01c-0.07,0.17 -0.17,0.32 -0.28,0.46 -0.12,0.13 -0.25,0.26 -0.41,0.37 -0.16,0.12 -0.34,0.21 -0.52,0.28 -0.19,0.06 -0.39,0.09 -0.59,0.09 -0.23,0 -0.45,-0.05 -0.67,-0.14 -0.2,-0.09 -0.39,-0.23 -0.57,-0.4 -0.17,-0.17 -0.31,-0.37 -0.4,-0.57 -0.09,-0.22 -0.14,-0.44 -0.14,-0.67 0,-0.11 0,-0.22 0.01,-0.32l0 0c0.02,-0.11 0.04,-0.21 0.06,-0.28 0.8,-2.69 1.56,-5.24 2.29,-7.67 0.73,-2.41 1.51,-4.95 2.34,-7.65 0.81,-2.64 1.59,-5.19 2.34,-7.65 0.7,-2.31 1.48,-4.89 2.33,-7.71l0 -0.01c0.15,-0.48 0.37,-0.92 0.64,-1.32 0.28,-0.39 0.62,-0.74 1.02,-1.04 0.41,-0.3 0.84,-0.52 1.31,-0.67 0.46,-0.15 0.96,-0.23 1.47,-0.23 0.54,0 1.04,0.08 1.51,0.23 0.48,0.15 0.91,0.38 1.31,0.68 0.39,0.29 0.72,0.64 1,1.04 0.27,0.39 0.48,0.83 0.63,1.31 2.56,5.14 7.27,24.12 9.32,30.92l0 0.06zm16.08 -30.62l-9.74 0c-0.23,0 -0.46,-0.05 -0.67,-0.15l-0.01 0c-0.2,-0.09 -0.39,-0.22 -0.56,-0.39l-0.01 -0.01c-0.17,-0.17 -0.31,-0.37 -0.4,-0.59 -0.09,-0.22 -0.14,-0.45 -0.14,-0.7 0,-0.23 0.05,-0.45 0.15,-0.67l0 0c0.09,-0.2 0.22,-0.39 0.39,-0.57 0.18,-0.17 0.37,-0.3 0.58,-0.4l0 0c0.21,-0.09 0.43,-0.14 0.67,-0.14l22.8 0c0.27,0 0.53,0.04 0.76,0.13l0 0c0.24,0.09 0.45,0.23 0.63,0.41 0.17,0.17 0.31,0.37 0.4,0.57 0.1,0.22 0.14,0.44 0.14,0.67 0,0.25 -0.04,0.48 -0.14,0.7 -0.09,0.22 -0.22,0.42 -0.4,0.59l0 0.01c-0.18,0.17 -0.37,0.31 -0.59,0.4 -0.22,0.09 -0.45,0.14 -0.7,0.14l-9.59 0 0 30.93c0,0.23 -0.05,0.45 -0.15,0.67 -0.09,0.2 -0.22,0.39 -0.4,0.57 -0.17,0.17 -0.36,0.31 -0.57,0.4 -0.21,0.09 -0.44,0.14 -0.67,0.14 -0.24,0 -0.47,-0.05 -0.69,-0.14 -0.22,-0.1 -0.41,-0.23 -0.58,-0.41l0 0c-0.17,-0.18 -0.29,-0.37 -0.38,-0.57 -0.09,-0.21 -0.13,-0.43 -0.13,-0.66l0 -30.93zm-9.74 -0.94l10.68 0 0 31.87c0,0.1 0.02,0.2 0.06,0.3 0.04,0.1 0.1,0.19 0.19,0.29 0.08,0.09 0.17,0.15 0.27,0.19 0.09,0.04 0.2,0.06 0.32,0.06 0.11,0 0.21,-0.02 0.29,-0.06 0.1,-0.04 0.2,-0.11 0.29,-0.2 0.1,-0.1 0.17,-0.19 0.21,-0.29l0 0c0.04,-0.09 0.06,-0.19 0.06,-0.29l0 -31.87 10.53 0c0.13,0 0.24,-0.02 0.34,-0.06 0.1,-0.05 0.2,-0.11 0.29,-0.21 0.09,-0.09 0.16,-0.19 0.2,-0.29 0.04,-0.1 0.07,-0.21 0.07,-0.34 0,-0.1 -0.02,-0.2 -0.06,-0.29 -0.05,-0.09 -0.11,-0.19 -0.21,-0.29l0 0c-0.09,-0.08 -0.19,-0.15 -0.3,-0.19 -0.13,-0.05 -0.27,-0.07 -0.43,-0.07l-22.8 0c-0.11,0 -0.21,0.02 -0.3,0.06l0 0c-0.09,0.04 -0.19,0.11 -0.28,0.2 -0.1,0.1 -0.17,0.2 -0.21,0.29 -0.04,0.09 -0.06,0.19 -0.06,0.29 0,0.13 0.02,0.24 0.06,0.34 0.05,0.1 0.11,0.2 0.21,0.29 0.09,0.1 0.19,0.17 0.29,0.21 0.08,0.04 0.18,0.06 0.29,0.06zm43.93 1.76c-0.05,-0.09 -0.11,-0.18 -0.17,-0.27 -0.08,-0.09 -0.16,-0.18 -0.25,-0.26 -0.08,-0.07 -0.16,-0.12 -0.24,-0.15l0 0c-0.07,-0.03 -0.14,-0.04 -0.22,-0.04 -0.07,0 -0.14,0.01 -0.21,0.04 -0.07,0.03 -0.15,0.09 -0.23,0.16 -0.1,0.1 -0.19,0.19 -0.27,0.29 -0.06,0.08 -0.12,0.16 -0.17,0.24 -0.46,1.54 -0.9,3.04 -1.34,4.5 -0.4,1.33 -0.87,2.88 -1.4,4.62l-1.42 4.66 -1.2 3.92 12.49 0 -5.37 -17.71zm0.56 -0.85c0.12,0.15 0.21,0.3 0.29,0.46l0.02 0.03c1.92,6.33 3.84,12.67 5.76,19l-15.02 0 1.57 -5.12 1.42 -4.66c0.43,-1.38 0.89,-2.92 1.4,-4.62 0.49,-1.61 0.94,-3.13 1.36,-4.55l0.01 -0.05 0.03 -0.05c0.08,-0.14 0.17,-0.28 0.28,-0.41 0.11,-0.13 0.23,-0.26 0.36,-0.38l0.01 -0.01c0.15,-0.14 0.32,-0.25 0.49,-0.33 0.19,-0.08 0.39,-0.12 0.58,-0.12 0.19,0 0.38,0.04 0.57,0.11 0.17,0.07 0.34,0.17 0.49,0.31 0.15,0.12 0.27,0.25 0.38,0.39zm11.4 30.79l0 -0.05 -9.29 -30.8c-0.12,-0.39 -0.29,-0.74 -0.51,-1.05 -0.22,-0.32 -0.48,-0.59 -0.79,-0.83l0 0c-0.32,-0.24 -0.66,-0.42 -1.02,-0.53 -0.38,-0.12 -0.78,-0.18 -1.23,-0.18 -0.42,0 -0.82,0.06 -1.19,0.18 -0.37,0.11 -0.71,0.29 -1.03,0.53 -0.32,0.24 -0.59,0.52 -0.81,0.83 -0.22,0.31 -0.39,0.67 -0.52,1.05 -0.69,2.32 -1.47,4.89 -2.32,7.69 -0.81,2.68 -1.6,5.24 -2.35,7.69 -0.74,2.4 -1.52,4.96 -2.34,7.66 -0.8,2.67 -1.57,5.22 -2.29,7.65l0 0.02c-0.01,0.02 -0.02,0.05 -0.02,0.09 -0.01,0.06 -0.01,0.13 -0.01,0.22 0,0.1 0.02,0.2 0.06,0.29 0.04,0.1 0.12,0.19 0.21,0.29 0.09,0.09 0.19,0.16 0.29,0.2 0.08,0.04 0.18,0.06 0.29,0.06 0.1,0 0.2,-0.01 0.29,-0.04 0.09,-0.03 0.18,-0.08 0.27,-0.14 0.09,-0.08 0.18,-0.15 0.24,-0.22l0 -0.01c0.05,-0.06 0.1,-0.13 0.13,-0.2l3.02 -9.95 16.06 0 3.17 9.94c0.04,0.06 0.08,0.12 0.13,0.19 0.07,0.07 0.15,0.16 0.25,0.24 0.15,0.13 0.3,0.19 0.45,0.19 0.13,0 0.24,-0.02 0.34,-0.06 0.1,-0.04 0.2,-0.11 0.29,-0.2l0 0c0.1,-0.1 0.17,-0.2 0.21,-0.29l0 0c0.04,-0.09 0.06,-0.19 0.06,-0.29l-0.01 -0.04c-0.01,-0.05 -0.02,-0.09 -0.03,-0.13l0 0zm0.93 -0.14l0.01 0.04c0.01,0.05 0.02,0.09 0.02,0.13 0.01,0.05 0.02,0.1 0.02,0.14 0,0.23 -0.05,0.45 -0.14,0.67l-0.01 0c-0.09,0.2 -0.22,0.4 -0.39,0.57 -0.18,0.18 -0.38,0.31 -0.6,0.4 -0.22,0.09 -0.45,0.14 -0.7,0.14 -0.38,0 -0.73,-0.14 -1.06,-0.42 -0.13,-0.11 -0.25,-0.23 -0.36,-0.36 -0.1,-0.13 -0.19,-0.26 -0.26,-0.39l-0.01 -0.03 -2.99 -9.37 -14.69 0c-0.81,2.69 -1.83,6.95 -2.85,9.37 -0.07,0.17 -0.16,0.32 -0.28,0.46 -0.11,0.13 -0.25,0.26 -0.4,0.37 -0.17,0.12 -0.34,0.21 -0.53,0.28 -0.19,0.06 -0.38,0.09 -0.58,0.09 -0.23,0 -0.46,-0.05 -0.67,-0.14 -0.21,-0.1 -0.4,-0.23 -0.57,-0.4 -0.18,-0.18 -0.31,-0.37 -0.4,-0.57 -0.1,-0.22 -0.15,-0.44 -0.15,-0.67 0,-0.12 0.01,-0.22 0.02,-0.32 0.01,-0.11 0.03,-0.2 0.06,-0.28 0.79,-2.68 1.55,-5.23 2.29,-7.65 0.72,-2.42 1.5,-4.97 2.33,-7.67 0.82,-2.66 1.61,-5.22 2.36,-7.68 0.7,-2.31 1.47,-4.86 2.32,-7.68l0 -0.01c0.15,-0.48 0.36,-0.92 0.64,-1.32 0.28,-0.39 0.62,-0.74 1.02,-1.04 0.4,-0.3 0.84,-0.52 1.3,-0.67 0.47,-0.15 0.96,-0.23 1.48,-0.23 0.54,0 1.04,0.08 1.51,0.23 0.47,0.15 0.91,0.38 1.3,0.68 0.4,0.3 0.73,0.64 1,1.04 0.27,0.39 0.48,0.83 0.63,1.31 2.57,5.14 7.27,24.12 9.33,30.92l0 0.06zm-0.89 0.32l0 0 0 0 0 0zm12.92 -2.09c0,-0.25 0.05,-0.5 0.14,-0.73 0.09,-0.23 0.22,-0.44 0.39,-0.62l0.01 0c0.18,-0.2 0.39,-0.34 0.63,-0.44 0.23,-0.09 0.49,-0.14 0.77,-0.14 0.25,0 0.48,0.05 0.71,0.15 0.22,0.09 0.42,0.23 0.6,0.42l0 0c0.19,0.18 0.33,0.39 0.43,0.62 0.09,0.24 0.14,0.48 0.14,0.74l0 1.82c0,0.3 -0.04,0.56 -0.14,0.81 -0.09,0.25 -0.24,0.47 -0.43,0.66 -0.18,0.19 -0.38,0.33 -0.6,0.42 -0.23,0.1 -0.46,0.15 -0.71,0.15 -0.28,0 -0.53,-0.04 -0.76,-0.13 -0.24,-0.09 -0.45,-0.23 -0.64,-0.41l0 0c-0.18,-0.19 -0.32,-0.4 -0.41,-0.63 -0.08,-0.24 -0.13,-0.49 -0.13,-0.76l0 -1.93zm1.01 -0.39c-0.05,0.12 -0.07,0.25 -0.07,0.39l0 1.93c0,0.16 0.02,0.3 0.07,0.42 0.04,0.12 0.11,0.22 0.2,0.31 0.08,0.08 0.19,0.15 0.3,0.19 0.12,0.05 0.26,0.07 0.43,0.07 0.12,0 0.23,-0.02 0.34,-0.06 0.11,-0.05 0.21,-0.13 0.31,-0.23 0.1,-0.09 0.17,-0.2 0.22,-0.33 0.05,-0.14 0.07,-0.29 0.07,-0.48l0 -1.82c0,-0.14 -0.02,-0.27 -0.07,-0.38 -0.04,-0.11 -0.12,-0.22 -0.22,-0.32 -0.1,-0.1 -0.2,-0.18 -0.31,-0.23 -0.11,-0.04 -0.22,-0.06 -0.34,-0.06 -0.16,0 -0.3,0.02 -0.42,0.07l0 0c-0.12,0.05 -0.22,0.11 -0.31,0.21l0.01 0c-0.1,0.1 -0.17,0.21 -0.21,0.32zm14.8 -29.34c0,-0.39 0.06,-0.75 0.19,-1.08 0.13,-0.34 0.32,-0.64 0.57,-0.89 0.26,-0.25 0.55,-0.45 0.88,-0.58 0.32,-0.13 0.67,-0.19 1.05,-0.19l11.43 0c0.66,0 1.31,0.07 1.95,0.19 0.64,0.13 1.25,0.33 1.85,0.58 0.59,0.26 1.14,0.56 1.65,0.91 0.52,0.35 0.99,0.75 1.43,1.19 0.43,0.44 0.82,0.92 1.16,1.43 0.35,0.52 0.65,1.07 0.9,1.64l0 0.01c0.26,0.58 0.45,1.18 0.58,1.81 0.13,0.62 0.2,1.26 0.2,1.91 0,0.67 -0.07,1.32 -0.2,1.96 -0.13,0.64 -0.32,1.25 -0.57,1.84l-0.01 0c-0.25,0.59 -0.55,1.15 -0.9,1.66 -0.34,0.51 -0.73,0.99 -1.17,1.42 -0.43,0.43 -0.9,0.82 -1.42,1.17 -0.51,0.34 -1.06,0.64 -1.65,0.9 -0.6,0.26 -1.21,0.45 -1.85,0.58 -0.64,0.13 -1.29,0.19 -1.95,0.19l-10.46 0 0 15.01c0,0.27 -0.04,0.52 -0.13,0.76 -0.09,0.23 -0.23,0.44 -0.41,0.63l0 0c-0.36,0.36 -0.79,0.54 -1.29,0.54 -0.26,0 -0.5,-0.05 -0.73,-0.14 -0.23,-0.09 -0.42,-0.23 -0.6,-0.41l0 0c-0.17,-0.18 -0.29,-0.38 -0.38,-0.59 -0.08,-0.22 -0.12,-0.45 -0.12,-0.69l0 -31.76zm1.06 -0.75c-0.09,0.22 -0.13,0.47 -0.13,0.75l0 31.76c0,0.12 0.02,0.24 0.06,0.34 0.05,0.11 0.11,0.21 0.2,0.3 0.08,0.08 0.17,0.15 0.27,0.19 0.1,0.04 0.23,0.06 0.37,0.06 0.24,0 0.45,-0.09 0.63,-0.26 0.09,-0.09 0.15,-0.19 0.2,-0.31 0.04,-0.12 0.07,-0.26 0.07,-0.42l0 -15.95 11.39 0c0.61,0 1.2,-0.05 1.77,-0.17 0.57,-0.11 1.12,-0.29 1.66,-0.52 0.53,-0.23 1.03,-0.5 1.5,-0.82 0.46,-0.31 0.89,-0.66 1.28,-1.05 0.4,-0.4 0.75,-0.83 1.06,-1.28 0.31,-0.47 0.59,-0.97 0.82,-1.51l-0.01 0c0.24,-0.54 0.41,-1.09 0.53,-1.66 0.11,-0.56 0.17,-1.15 0.17,-1.77 0,-0.6 -0.06,-1.17 -0.17,-1.72 -0.12,-0.56 -0.29,-1.1 -0.52,-1.63 -0.24,-0.53 -0.51,-1.03 -0.82,-1.49 -0.31,-0.47 -0.67,-0.9 -1.06,-1.3 -0.39,-0.4 -0.82,-0.76 -1.28,-1.08 -0.47,-0.31 -0.97,-0.59 -1.5,-0.82 -0.54,-0.23 -1.09,-0.41 -1.66,-0.52 -0.57,-0.11 -1.16,-0.17 -1.77,-0.17l-11.43 0c-0.26,0 -0.5,0.04 -0.71,0.12 -0.2,0.08 -0.39,0.21 -0.55,0.37 -0.17,0.17 -0.29,0.36 -0.37,0.56zm13.06 13.79c0.42,0 0.83,-0.04 1.23,-0.12 0.39,-0.08 0.77,-0.2 1.14,-0.35 0.36,-0.16 0.71,-0.35 1.03,-0.57 0.33,-0.22 0.64,-0.47 0.92,-0.75 0.28,-0.28 0.53,-0.58 0.75,-0.91 0.22,-0.33 0.41,-0.67 0.56,-1.04 0.16,-0.36 0.27,-0.74 0.35,-1.14 0.08,-0.39 0.12,-0.8 0.12,-1.23 0,-0.42 -0.04,-0.84 -0.12,-1.23 -0.08,-0.39 -0.19,-0.78 -0.35,-1.14 -0.15,-0.37 -0.34,-0.71 -0.56,-1.03 -0.22,-0.32 -0.47,-0.62 -0.75,-0.89 -0.28,-0.27 -0.59,-0.52 -0.91,-0.74 -0.33,-0.21 -0.68,-0.4 -1.04,-0.56 -0.37,-0.15 -0.75,-0.27 -1.14,-0.34 -0.4,-0.08 -0.81,-0.12 -1.23,-0.12l-10.46 0 0 12.16 10.46 0zm1.41 0.8c-0.46,0.09 -0.93,0.13 -1.41,0.13l-11.39 0 0 -14.03 11.39 0c0.48,0 0.95,0.05 1.41,0.14 0.45,0.09 0.89,0.22 1.32,0.4 0.42,0.18 0.82,0.4 1.19,0.64 0.38,0.25 0.73,0.53 1.05,0.85 0.33,0.32 0.62,0.66 0.87,1.03 0.26,0.37 0.47,0.77 0.65,1.2 0.19,0.42 0.32,0.86 0.41,1.32 0.09,0.46 0.14,0.93 0.14,1.41 0,0.48 -0.05,0.96 -0.14,1.41 -0.09,0.46 -0.22,0.9 -0.41,1.33 -0.18,0.42 -0.39,0.82 -0.65,1.19 -0.25,0.38 -0.54,0.73 -0.86,1.05 -0.33,0.33 -0.68,0.62 -1.05,0.87 -0.37,0.25 -0.77,0.47 -1.2,0.65 -0.42,0.18 -0.87,0.32 -1.32,0.41zm20.29 -14.75c0,-0.24 0.05,-0.47 0.14,-0.7 0.09,-0.21 0.23,-0.41 0.4,-0.59 0.18,-0.17 0.38,-0.31 0.6,-0.4l0 0c0.21,-0.09 0.45,-0.14 0.69,-0.14 0.26,0 0.51,0.05 0.73,0.14l0.01 0c0.22,0.09 0.43,0.22 0.61,0.4 0.17,0.18 0.31,0.38 0.4,0.59 0.09,0.23 0.14,0.46 0.14,0.7l0 30.83 14.8 0c0.56,0 1.02,0.17 1.38,0.51 0.19,0.17 0.32,0.37 0.42,0.6 0.09,0.22 0.13,0.47 0.13,0.73 0,0.24 -0.04,0.48 -0.13,0.7 -0.1,0.21 -0.23,0.41 -0.41,0.59 -0.17,0.18 -0.37,0.31 -0.59,0.4 -0.22,0.09 -0.45,0.14 -0.7,0.14l-15.87 0c-0.38,0 -0.73,-0.06 -1.06,-0.19 -0.33,-0.13 -0.62,-0.32 -0.89,-0.57 -0.26,-0.26 -0.47,-0.56 -0.6,-0.89 -0.13,-0.34 -0.2,-0.7 -0.2,-1.09l0 -31.76zm1 -0.33c-0.04,0.1 -0.06,0.21 -0.06,0.33l0 31.76c0,0.27 0.04,0.52 0.13,0.74 0.08,0.21 0.21,0.4 0.38,0.56 0.17,0.17 0.37,0.29 0.58,0.38 0.21,0.08 0.45,0.12 0.72,0.12l15.87 0c0.13,0 0.24,-0.02 0.34,-0.06 0.1,-0.04 0.2,-0.11 0.29,-0.2l0 0c0.09,-0.1 0.16,-0.2 0.2,-0.3 0.05,-0.1 0.07,-0.21 0.07,-0.33 0,-0.15 -0.02,-0.27 -0.07,-0.38 -0.04,-0.1 -0.1,-0.19 -0.19,-0.27 -0.18,-0.17 -0.42,-0.25 -0.74,-0.25l-15.74 0 0 -31.77c0,-0.12 -0.02,-0.23 -0.06,-0.33 -0.04,-0.1 -0.11,-0.2 -0.21,-0.3l0 0c-0.08,-0.09 -0.18,-0.15 -0.29,-0.2 -0.11,-0.04 -0.24,-0.06 -0.39,-0.06 -0.12,0 -0.23,0.02 -0.33,0.06l0 0c-0.1,0.04 -0.2,0.11 -0.29,0.2l-0.01 0c-0.09,0.1 -0.16,0.19 -0.2,0.3z"/>
 </g>
</svg>
