<?xml version="1.0" encoding="UTF-8"?>
<!DOCTYPE svg PUBLIC "-//W3C//DTD SVG 1.1//EN" "http://www.w3.org/Graphics/SVG/1.1/DTD/svg11.dtd">
<!-- Creator: CorelDRAW 2018 (64-Bit) -->
<svg xmlns="http://www.w3.org/2000/svg" xml:space="preserve" width="300px" height="96px" version="1.1" style="shape-rendering:geometricPrecision; text-rendering:geometricPrecision; image-rendering:optimizeQuality; fill-rule:evenodd; clip-rule:evenodd"
viewBox="0 0 299.23 96.02"
 xmlns:xlink="http://www.w3.org/1999/xlink">
 <defs>
  <style type="text/css">
   <![CDATA[
    .fil1 {fill:#727271}
    .fil0 {fill:#727271;fill-rule:nonzero}
   ]]>
  </style>
 </defs>
 <g id="Warstwa_x0020_1">
  <metadata id="CorelCorpID_0Corel-Layer"/>
  <g id="_2178138027584">
   <path class="fil0" d="M144.94 48.01c0,8.03 6.51,14.53 14.53,14.53 8.03,0 14.53,-6.5 14.53,-14.53 0,-8.02 -6.5,-14.53 -14.53,-14.53 -8.02,0 -14.53,6.51 -14.53,14.53z"/>
   <polygon class="fil0" points="27.16,0.26 20.2,10.68 13.32,0.26 0,0.26 14.73,21.62 14.73,34.01 25.76,34.01 25.76,21.62 40.49,0.26 "/>
   <path class="fil0" d="M55.54 9.33c3.05,0 5.06,0.8 6.01,2.42 0.95,1.61 1.47,3.5 1.56,5.66 -0.09,1.53 -0.27,2.84 -0.54,3.92 -0.28,1.08 -0.96,2.05 -2.06,2.89 -1.1,0.84 -2.76,1.26 -4.97,1.26 -2.87,0 -4.79,-0.8 -5.76,-2.41 -0.98,-1.6 -1.46,-3.49 -1.46,-5.66 0,-5.39 2.4,-8.08 7.22,-8.08zm-19.22 7.99c0,3.73 0.75,6.88 2.25,9.46 1.49,2.58 3.7,4.53 6.6,5.84 2.91,1.32 6.39,1.98 10.44,1.98 4.05,0 7.54,-0.66 10.46,-1.97 2.92,-1.31 5.16,-3.26 6.7,-5.86 1.54,-2.61 2.31,-5.76 2.31,-9.45 0,-3.69 -0.77,-6.84 -2.31,-9.43 -1.54,-2.59 -3.78,-4.56 -6.71,-5.89 -2.93,-1.33 -6.41,-2 -10.45,-2 -3.04,0 -5.76,0.38 -8.16,1.13 -2.4,0.76 -4.42,1.87 -6.08,3.33 -1.65,1.47 -2.9,3.27 -3.76,5.42 -0.86,2.14 -1.29,4.62 -1.29,7.44z"/>
   <path class="fil0" d="M99.16 0.26l0 19.96c0.06,2.21 -0.46,3.79 -1.57,4.72 -1.11,0.94 -2.49,1.42 -4.14,1.45 -2.06,-0.06 -3.57,-0.54 -4.53,-1.42 -0.97,-0.89 -1.41,-2.47 -1.31,-4.75l0 -19.96 -10.99 0 0 19.82c0,2.84 0.43,5.14 1.3,6.9 0.86,1.76 2.1,3.2 3.69,4.32 1.6,1.12 3.47,1.94 5.61,2.47 2.15,0.52 4.25,0.8 6.33,0.85 2.49,-0.06 4.75,-0.41 6.79,-1.03 2.03,-0.62 3.72,-1.5 5.07,-2.62 1.35,-1.12 2.46,-2.52 3.34,-4.19 0.88,-1.68 1.35,-3.92 1.39,-6.72l0 -19.8 -10.98 0z"/>
   <path class="fil0" d="M18.49 87.56c-0.37,0.65 -0.86,1.18 -1.46,1.59 -0.6,0.41 -1.39,0.62 -2.36,0.62l-4.33 0 0 -11.43 4.3 0c0.99,0 1.8,0.21 2.42,0.62 0.62,0.42 1.13,0.99 1.52,1.72 0.4,0.73 0.61,1.86 0.64,3.39 -0.11,1.68 -0.35,2.84 -0.73,3.49zm5.99 -12.18c-0.96,-0.81 -2.13,-1.47 -3.51,-1.95 -1.39,-0.48 -2.99,-0.72 -4.81,-0.72l-13.41 0 0 22.73 13.04 0c2.08,0.04 3.8,-0.17 5.18,-0.63 1.38,-0.46 2.55,-1.11 3.51,-1.95 0.95,-0.84 1.72,-1.98 2.3,-3.43 0.57,-1.45 0.92,-3.21 1.03,-5.28 0,-2.23 -0.31,-4.05 -0.95,-5.44 -0.63,-1.4 -1.43,-2.51 -2.38,-3.33z"/>
   <path class="fil0" d="M43.86 82.22c-0.36,0.23 -0.69,0.34 -0.99,0.34l-5.73 0 0 -4.19 5.71 0c0.25,0 0.56,0.14 0.94,0.42 0.37,0.28 0.58,0.85 0.63,1.72 -0.02,0.92 -0.21,1.49 -0.56,1.71zm9.15 6.45l-6.49 0 -1.7 -2.17c1.76,-0.42 3.11,-1 4.06,-1.73 0.94,-0.74 1.61,-1.65 1.98,-2.74 0.38,-1.09 0.36,-2.65 -0.06,-4.66 -0.55,-1.35 -1.41,-2.42 -2.58,-3.22 -1.18,-0.79 -2.68,-1.28 -4.5,-1.44l-14.8 0 0 22.73 8.22 0 0 -7.51 7.21 7.51 8.66 0 0.31 0 7.08 0 0 -22.73 -7.39 0 0 15.96z"/>
   <polygon class="fil0" points="75.37,90.17 70.21,72.71 61.54,72.71 69.53,95.44 81.61,95.44 89.72,72.71 80.6,72.71 "/>
   <polygon class="fil0" points="90.7,95.44 110.14,95.44 110.14,88.67 98.09,88.67 98.09,86.06 105.9,86.06 105.9,82.09 98.09,82.09 98.09,79.48 110.14,79.48 110.14,72.71 90.7,72.71 "/>
   <path class="fil0" d="M19.62 36.4c-2.65,0 -5.15,0.34 -7.49,1.02 -2.35,0.67 -4.43,1.7 -6.23,3.08 -1.81,1.38 -3.23,3.11 -4.25,5.19 -1.02,2.08 -1.53,4.45 -1.53,7.09 0,3.78 0.85,6.96 2.56,9.57 1.71,2.6 4.04,4.55 7,5.85 2.96,1.3 6.28,1.95 9.94,1.95l14.96 0 0 -10.05 -10.57 0c-2.15,0 -3.77,-0.05 -4.86,-0.16 -1.09,-0.11 -2.15,-0.3 -3.18,-0.59 -1.03,-0.28 -1.9,-0.85 -2.62,-1.7 -0.71,-0.86 -1.11,-2.28 -1.19,-4.28 0.11,-2.06 0.51,-3.49 1.19,-4.3 0.69,-0.81 1.48,-1.38 2.36,-1.71 0.89,-0.33 1.9,-0.56 3.04,-0.7 1.14,-0.14 2.89,-0.21 5.26,-0.21l10.57 0 0 -10.05 -5.71 0 -9.25 0z"/>
   <path class="fil0" d="M51.06 57.25l4.84 -13.37 4.46 13.37 -9.3 0zm-3.58 -20.85l-11.1 33.75 12.11 0 2.12 -6.07 10.03 0 2.13 6.07 12.76 0 -11.29 -33.75 -16.76 0z"/>
   <polygon class="fil0" points="98.99,49.02 88.94,36.4 77.95,36.4 77.95,70.15 88.94,70.15 88.94,57.53 98.99,70.15 109.98,70.15 109.98,36.4 98.99,36.4 "/>
   <path class="fil0" d="M159.47 16.74c13.74,0 25.4,8.85 29.6,21.16l17.34 0c-4.64,-21.66 -23.89,-37.9 -46.94,-37.9 -23.04,0 -42.29,16.24 -46.94,37.9l17.34 0c4.21,-12.31 15.87,-21.16 29.6,-21.16z"/>
   <path class="fil0" d="M159.47 79.28c-13.78,0 -25.48,-8.91 -29.64,-21.29l-17.33 0c4.6,21.73 23.88,38.03 46.97,38.03 23.1,0 42.38,-16.3 46.97,-38.03l-17.32 0c-4.17,12.38 -15.86,21.29 -29.65,21.29z"/>
   <path class="fil1" d="M292.98 13.3c0,-3.3 -1.6,-7.14 -5.76,-7.14 -3.76,0 -5.74,3.24 -5.74,7.14 0,4.39 2.44,7.15 5.74,7.15 4.16,0 5.76,-3.8 5.76,-7.15zm5.55 0c0,6.93 -4.61,11.9 -11.4,11.9 -6.4,0 -11.17,-4.57 -11.17,-11.9 0,-7.87 5.65,-11.92 11.39,-11.92 5.5,0 11.18,3.84 11.18,11.92z"/>
   <path class="fil1" d="M273.92 23.03c-1.35,0.91 -4.22,2.14 -8.1,2.14 -7.66,0 -11.44,-5.28 -11.44,-11.73 0,-7.27 5.13,-12.06 11.85,-12.06 3.33,0 5.47,0.55 7.36,1.48l-1.95 4.48c-1.43,-0.61 -3.1,-0.97 -5.08,-0.97 -4.85,0 -6.49,2.91 -6.49,6.92 0,4.33 2.21,7.14 6.06,7.14 1.4,0 2.44,-0.3 2.77,-0.51l0 -4.02 -3.92 0 0.01 -4.56 8.93 0 0 11.69z"/>
   <path class="fil1" d="M247.34 9.24c0,-0.96 -0.35,-1.73 -1.04,-2.26 -0.69,-0.54 -1.64,-0.81 -2.79,-0.82 -0.13,-0.01 -0.63,0 -0.93,0.01 -0.29,0 -1.07,0.07 -1.32,0.12l0 6.57c0.36,0.05 1.1,0.08 1.7,0.08 1.27,0 2.47,-0.35 3.22,-0.94 0.76,-0.61 1.16,-1.58 1.16,-2.76zm0.43 15.56c-0.75,-2.77 -2.03,-4.88 -3.07,-6.23 -0.89,-1.14 -1.58,-1.38 -1.58,-1.38 -0.71,0.01 -1.21,0.01 -1.86,-0.01l0 7.62 -5.35 0 0 -22.81c1.13,-0.18 1.94,-0.28 3.12,-0.39 1.08,-0.1 2.31,-0.16 3.68,-0.16 1.8,0 3.33,0.19 4.59,0.59 1.25,0.4 2.27,0.94 3.08,1.64 0.81,0.69 1.4,1.55 1.76,2.49 0.37,0.92 0.56,1.91 0.56,2.95 0,1.38 -0.34,2.72 -1.07,3.88 -0.65,1.01 -1.75,2.05 -2.89,2.77l0 0.1c2.54,1.16 3.98,4.9 5.38,8.94l-6.35 0z"/>
   <path class="fil1" d="M217.14 19.34l0 -17.58 15.69 0 0.01 4.9 -10.35 0 0 3.94 8.75 0 0.01 4.66 -8.76 0 0 2.46c0,1.55 0.9,2.21 2.09,2.21l8.68 0 0 4.87 -10.7 0c-4.01,0 -5.42,-1.85 -5.42,-5.46z"/>
   <path class="fil1" d="M296.89 28.12c0,0.08 -0.06,0.15 -0.13,0.15 -0.09,0 -0.14,-0.07 -0.14,-0.15 0,-0.07 0.05,-0.14 0.14,-0.14 0.07,0 0.13,0.07 0.13,0.14z"/>
   <path class="fil1" d="M296.2 29.2l0.66 0c0.43,0 0.65,0.14 0.65,0.45 0,0.21 -0.09,0.35 -0.26,0.42 -0.11,0.05 -0.3,0.07 -0.56,0.07l-0.49 0 0 -0.94zm0.59 1.22l0.77 1.2 0.38 0 -0.8 -1.2c0.45,-0.08 0.68,-0.33 0.68,-0.76 0,-0.5 -0.3,-0.74 -0.88,-0.74l-1.05 0 0 2.7 0.31 0 0 -1.2 0.59 0zm1.57 1.46c0.44,-0.45 0.66,-0.98 0.66,-1.62 0,-0.63 -0.22,-1.16 -0.66,-1.61 -0.45,-0.44 -0.98,-0.66 -1.61,-0.66 -0.63,0 -1.17,0.22 -1.62,0.66 -0.45,0.45 -0.67,0.98 -0.67,1.61 0,0.64 0.22,1.17 0.67,1.62 0.45,0.44 0.99,0.67 1.62,0.67 0.63,0 1.16,-0.23 1.61,-0.67zm-0.21 -0.19c-0.38,0.38 -0.85,0.58 -1.4,0.58 -0.56,0 -1.03,-0.19 -1.41,-0.57 -0.38,-0.39 -0.57,-0.87 -0.57,-1.44 0,-0.56 0.19,-1.03 0.57,-1.41 0.38,-0.39 0.85,-0.59 1.41,-0.59 0.55,0 1.02,0.2 1.4,0.59 0.38,0.38 0.56,0.85 0.56,1.41 0,0.57 -0.18,1.04 -0.56,1.43z"/>
   <path class="fil1" d="M221.53 37.27l8.42 0c0.09,0 0.13,-0.05 0.13,-0.15l0 -0.47c0,-2.63 -0.01,-4.18 -0.04,-4.67 -0.04,-0.7 -0.36,-1.12 -0.95,-1.25 -0.21,-0.04 -0.49,-0.07 -0.86,-0.07 -0.25,0 -0.37,-0.06 -0.37,-0.2 0,-0.12 0.15,-0.19 0.46,-0.19 0.44,0 1.04,0.01 1.81,0.03 0.76,0.02 1.22,0.03 1.36,0.03 0.15,0 0.57,-0.01 1.27,-0.03 0.7,-0.02 1.21,-0.03 1.51,-0.03 0.31,0 0.46,0.07 0.46,0.19 0,0.14 -0.13,0.2 -0.39,0.2 -0.18,0 -0.39,0.03 -0.64,0.07 -0.5,0.09 -0.77,0.5 -0.82,1.25 -0.03,0.49 -0.04,2.05 -0.04,4.67l0 3.89c0,2.49 0.04,4.06 0.11,4.71 0.08,0.72 0.37,1.11 0.86,1.19 0.42,0.06 0.8,0.08 1.12,0.08 0.24,0 0.36,0.07 0.36,0.18 0,0.15 -0.15,0.22 -0.44,0.22 -0.55,0 -1.22,-0.01 -2.04,-0.03 -0.8,-0.02 -1.27,-0.03 -1.41,-0.03 -0.12,0 -0.54,0.01 -1.23,0.03 -0.69,0.02 -1.2,0.03 -1.52,0.03 -0.31,0 -0.46,-0.07 -0.46,-0.22 0,-0.1 0.16,-0.17 0.48,-0.2 0.22,-0.02 0.45,-0.05 0.67,-0.06 0.33,-0.08 0.55,-0.48 0.63,-1.22 0.07,-0.57 0.11,-2.13 0.11,-4.68l0 -1.95c0,-0.08 -0.04,-0.13 -0.13,-0.13l-8.42 0c-0.09,0 -0.14,0.05 -0.14,0.13l0 1.95c0,2.49 0.04,4.06 0.11,4.71 0.09,0.72 0.39,1.11 0.87,1.19 0.42,0.06 0.8,0.08 1.13,0.08 0.23,0 0.34,0.07 0.34,0.18 0,0.15 -0.15,0.22 -0.44,0.22 -0.55,0 -1.21,-0.01 -2.03,-0.03 -0.8,-0.02 -1.28,-0.03 -1.41,-0.03 -0.13,0 -0.55,0.01 -1.24,0.03 -0.7,0.02 -1.21,0.03 -1.54,0.03 -0.29,0 -0.44,-0.07 -0.44,-0.22 0,-0.1 0.17,-0.17 0.49,-0.2 0.22,-0.02 0.44,-0.05 0.66,-0.06 0.34,-0.08 0.55,-0.48 0.64,-1.21 0.07,-0.58 0.11,-2.14 0.11,-4.69l0 -3.89c0,-2.62 -0.02,-4.18 -0.05,-4.67 -0.04,-0.7 -0.36,-1.12 -0.94,-1.25 -0.21,-0.04 -0.49,-0.07 -0.86,-0.07 -0.25,0 -0.38,-0.06 -0.38,-0.2 0,-0.12 0.15,-0.19 0.46,-0.19 0.45,0 1.05,0.01 1.81,0.03 0.77,0.02 1.22,0.03 1.37,0.03 0.15,0 0.57,-0.01 1.27,-0.03 0.7,-0.02 1.2,-0.03 1.51,-0.03 0.31,0 0.46,0.07 0.46,0.19 0,0.14 -0.13,0.2 -0.4,0.2 -0.17,0 -0.39,0.03 -0.63,0.07 -0.5,0.09 -0.78,0.5 -0.82,1.25 -0.03,0.49 -0.05,2.04 -0.05,4.67l0 0.47c0,0.1 0.05,0.15 0.14,0.15z"/>
   <path class="fil1" d="M238.2 40.41l0 -3.87c0,-2.63 -0.02,-4.18 -0.05,-4.67 -0.04,-0.71 -0.36,-1.13 -0.95,-1.26 -0.2,-0.04 -0.48,-0.06 -0.85,-0.06 -0.26,0 -0.38,-0.07 -0.38,-0.2 0,-0.13 0.16,-0.2 0.49,-0.2 0.44,0 1.03,0.01 1.79,0.03 0.76,0.02 1.22,0.03 1.38,0.03 3.49,0 5.32,-0.01 5.51,-0.02 0.39,-0.03 0.7,-0.07 0.95,-0.13 0.25,-0.06 0.37,-0.08 0.35,-0.08 0.09,0 0.13,0.06 0.13,0.19 0,0.02 -0.02,0.15 -0.06,0.4 -0.05,0.29 -0.08,0.63 -0.1,1.03 -0.03,0.4 -0.06,0.88 -0.12,1.45 -0.03,0.17 -0.1,0.24 -0.22,0.24 -0.1,0 -0.17,-0.07 -0.19,-0.24 -0.02,-0.16 -0.04,-0.31 -0.06,-0.46 -0.01,-0.15 -0.04,-0.27 -0.08,-0.39 -0.18,-0.43 -0.67,-0.7 -1.48,-0.8 -0.5,-0.06 -1.54,-0.09 -3.13,-0.09 -0.1,0 -0.15,0.07 -0.15,0.22l0 5.58c0,0.16 0.05,0.24 0.15,0.24 2.01,0 3.19,-0.02 3.53,-0.04 0.24,-0.02 0.44,-0.04 0.57,-0.07 0.23,-0.06 0.39,-0.15 0.48,-0.26 0.18,-0.19 0.3,-0.29 0.36,-0.29 0.1,0 0.15,0.06 0.15,0.18 0,0.01 -0.02,0.16 -0.06,0.44 -0.05,0.34 -0.09,0.72 -0.11,1.16 -0.06,0.85 -0.09,1.34 -0.09,1.48 0,0.28 -0.07,0.42 -0.2,0.42 -0.13,0 -0.2,-0.08 -0.2,-0.23 0,-0.16 -0.03,-0.41 -0.09,-0.76 -0.11,-0.5 -0.53,-0.79 -1.23,-0.87 -0.41,-0.04 -1.45,-0.06 -3.13,-0.06 -0.09,0 -0.13,0.07 -0.13,0.22l0 5.16c0.03,0.78 0.2,1.29 0.52,1.52 0.31,0.22 1.02,0.34 2.12,0.34 1,0 1.69,-0.09 2.08,-0.27 0.51,-0.24 0.84,-0.78 0.99,-1.63 0.05,-0.22 0.12,-0.33 0.24,-0.33 0.12,0 0.18,0.13 0.18,0.4 0,0.89 -0.1,1.71 -0.29,2.46 -0.08,0.27 -0.18,0.42 -0.31,0.48 -0.13,0.06 -0.43,0.09 -0.88,0.09 -1.28,0 -2.55,-0.02 -3.82,-0.07 -1.26,-0.05 -2.02,-0.08 -2.29,-0.08 -0.13,0 -0.55,0.01 -1.24,0.03 -0.7,0.02 -1.21,0.03 -1.53,0.03 -0.29,0 -0.44,-0.07 -0.44,-0.21 0,-0.11 0.16,-0.18 0.48,-0.21 0.22,-0.02 0.44,-0.05 0.66,-0.06 0.34,-0.08 0.55,-0.48 0.64,-1.21 0.07,-0.58 0.11,-2.14 0.11,-4.7z"/>
   <path class="fil1" d="M252.98 47c-1.28,0 -2.36,-0.19 -3.22,-0.57 -0.29,-0.12 -0.43,-0.37 -0.43,-0.75 0,-0.79 0.04,-1.76 0.12,-2.89 0.02,-0.38 0.12,-0.57 0.26,-0.57 0.15,0 0.22,0.12 0.22,0.37 0,0.31 0.07,0.68 0.2,1.13 0.44,1.48 1.49,2.22 3.15,2.22 0.93,0 1.67,-0.27 2.23,-0.81 0.49,-0.49 0.73,-1.05 0.73,-1.7 0,-1.23 -0.72,-2.4 -2.16,-3.53l-1.02 -0.79c-2.17,-1.71 -3.26,-3.45 -3.26,-5.23 0,-1.22 0.47,-2.22 1.41,-3 0.94,-0.77 2.17,-1.17 3.68,-1.17 0.97,0 1.95,0.13 2.93,0.38 0.21,0.06 0.31,0.15 0.31,0.27 0,-0.04 -0.01,0.23 -0.04,0.77 -0.03,0.56 -0.04,1.18 -0.04,1.87 0,0.44 -0.09,0.66 -0.25,0.66 -0.14,0 -0.21,-0.13 -0.21,-0.39 0,-0.5 -0.19,-0.98 -0.59,-1.46 -0.56,-0.72 -1.36,-1.08 -2.39,-1.08 -0.82,0 -1.45,0.21 -1.92,0.63 -0.47,0.42 -0.71,0.96 -0.71,1.64 0,0.52 0.17,1.01 0.5,1.46 0.34,0.47 0.94,1.03 1.84,1.72l0.62 0.46c1.32,1 2.26,1.92 2.8,2.77 0.54,0.84 0.82,1.8 0.82,2.85 0,1.66 -0.7,2.94 -2.08,3.84 -0.92,0.6 -2.09,0.9 -3.5,0.9z"/>
   <path class="fil1" d="M265.23 40.41l0 -9.04 -3.29 0.09c-1.16,0.03 -1.87,0.25 -2.14,0.64 -0.19,0.28 -0.31,0.54 -0.37,0.77 -0.05,0.18 -0.13,0.27 -0.24,0.27 -0.13,0 -0.2,-0.11 -0.2,-0.36 0,-0.39 0.15,-1.23 0.46,-2.52 0.07,-0.29 0.16,-0.43 0.26,-0.43 0.05,0 0.17,0.04 0.36,0.12 0.19,0.08 0.39,0.13 0.59,0.14 0.8,0.08 1.53,0.12 2.2,0.12l8.74 0c0.25,0 0.6,-0.04 1.08,-0.12 0.47,-0.07 0.81,-0.11 1.03,-0.11 0.12,0 0.18,0.16 0.18,0.46 0,0.15 -0.01,0.56 -0.03,1.24 -0.02,0.68 -0.05,1.13 -0.06,1.35 -0.01,0.22 -0.07,0.33 -0.17,0.33 -0.14,0 -0.22,-0.14 -0.24,-0.44l-0.03 -0.25c-0.07,-0.77 -0.94,-1.18 -2.6,-1.22l-2.78 -0.08 0 9.04c0,2.5 0.04,4.07 0.11,4.72 0.09,0.72 0.37,1.11 0.87,1.19 0.42,0.06 0.79,0.09 1.12,0.09 0.23,0 0.35,0.05 0.35,0.18 0,0.14 -0.14,0.21 -0.42,0.21 -0.56,0 -1.24,-0.01 -2.05,-0.03 -0.81,-0.02 -1.28,-0.03 -1.41,-0.03 -0.14,0 -0.55,0.01 -1.25,0.03 -0.69,0.02 -1.21,0.03 -1.53,0.03 -0.29,0 -0.44,-0.07 -0.44,-0.21 0,-0.11 0.16,-0.18 0.48,-0.21 0.22,-0.02 0.44,-0.05 0.67,-0.06 0.33,-0.08 0.55,-0.48 0.63,-1.22 0.08,-0.64 0.12,-2.21 0.12,-4.69z"/>
   <path class="fil1" d="M291.5 39.94l-4.06 0c-0.08,0 -0.12,-0.05 -0.08,-0.15l2.02 -5.43c0.03,-0.13 0.08,-0.2 0.14,-0.2 0.04,0 0.08,0.07 0.11,0.2l1.98 5.45c0.03,0.09 -0.01,0.13 -0.11,0.13zm7.45 6.46c-0.35,0 -0.66,-0.03 -0.93,-0.09 -0.67,-0.15 -1.32,-0.95 -1.93,-2.41 -2.3,-5.62 -4.12,-10.14 -5.47,-13.55 -0.21,-0.47 -0.39,-0.7 -0.56,-0.7 -0.17,0 -0.37,0.29 -0.61,0.88l-5.54 13.84c-0.25,0.63 -0.49,1.08 -0.73,1.37 -0.29,0.34 -0.67,0.55 -1.14,0.62 -0.23,0.02 -1.8,0.01 -2.23,-0.05 -0.52,-0.08 -0.82,-0.43 -0.88,-1.08 -0.06,-0.59 -0.09,-2.2 -0.09,-4.83l0 -3.87c0,-2.63 0.02,-4.19 0.05,-4.67 0.04,-0.75 0.32,-1.17 0.82,-1.26 0.24,-0.04 0.48,-0.06 0.69,-0.06 0.21,0 0.32,-0.08 0.32,-0.22 0,-0.12 -0.16,-0.18 -0.46,-0.18 -0.31,0 -0.8,0.01 -1.46,0.03 -0.66,0.02 -1.07,0.03 -1.23,0.03 -0.2,0 -0.65,-0.01 -1.36,-0.03 -0.71,-0.02 -1.21,-0.03 -1.51,-0.03 -0.35,0 -0.53,0.06 -0.53,0.18 0,0.14 0.13,0.22 0.39,0.22 0.25,0 0.51,0.03 0.76,0.09 0.45,0.11 0.71,0.52 0.75,1.23 0.03,0.48 0.04,2.04 0.04,4.67l0 3.87c0,2.56 -0.04,4.16 -0.1,4.82 -0.09,0.65 -0.29,1.01 -0.65,1.09 -0.22,0.02 -0.44,0.04 -0.66,0.06 -0.32,0.04 -0.49,0.1 -0.49,0.2 0,0.15 0.15,0.22 0.44,0.22 0.33,0 0.84,-0.01 1.54,-0.03 0.7,-0.02 1.11,-0.03 1.25,-0.03 0.13,0 0.59,0.01 1.39,0.03 0.81,0.02 1.48,0.03 2.04,0.03l0.64 0c0.46,0 1.33,-0.02 2.6,-0.06 0.22,0 0.61,0.01 1.16,0.03 0.55,0.02 0.94,0.03 1.18,0.03 0.25,0 0.38,-0.07 0.38,-0.21 0,-0.12 -0.11,-0.17 -0.33,-0.17l-0.34 0c-0.58,0 -0.88,-0.24 -0.88,-0.69 0,-0.31 0.11,-0.76 0.33,-1.35l1.2 -3.15c0.04,-0.12 0.11,-0.17 0.19,-0.17l4.92 0c0.1,0 0.17,0.05 0.22,0.15l1.76 4.66c0.1,0.27 0.04,0.44 -0.19,0.51 -0.22,0.02 -0.32,0.09 -0.32,0.2 0,0.11 0.22,0.16 0.67,0.18 0.95,0.02 2.34,0.04 4.16,0.04 0.39,0 0.65,-0.02 0.79,-0.04 0.15,-0.03 0.22,-0.09 0.22,-0.18 0,-0.11 -0.09,-0.17 -0.28,-0.17z"/>
  </g>
 </g>
</svg>
