<?xml version="1.0" encoding="UTF-8"?>
<!DOCTYPE svg PUBLIC "-//W3C//DTD SVG 1.1//EN" "http://www.w3.org/Graphics/SVG/1.1/DTD/svg11.dtd">
<!-- Creator: CorelDRAW 2018 (64-Bit) -->
<svg xmlns="http://www.w3.org/2000/svg" xml:space="preserve" width="38px" height="45px" version="1.1" style="shape-rendering:geometricPrecision; text-rendering:geometricPrecision; image-rendering:optimizeQuality; fill-rule:evenodd; clip-rule:evenodd"
viewBox="0 0 37.8 44.63"
 xmlns:xlink="http://www.w3.org/1999/xlink">
 <defs>
  <style type="text/css">
   <![CDATA[
    .fil0 {fill:url(#id0)}
    .fil1 {fill:url(#id1)}
   ]]>
  </style>
  <linearGradient id="id0" gradientUnits="userSpaceOnUse" x1="12.99" y1="1.03" x2="24.81" y2="43.59">
   <stop offset="0" style="stop-opacity:1; stop-color:#FECC00"/>
   <stop offset="1" style="stop-opacity:1; stop-color:#B9762E"/>
  </linearGradient>
  <linearGradient id="id1" gradientUnits="userSpaceOnUse" xlink:href="#id0" x1="16.32" y1="7.04" x2="21.59" y2="29.31">
  </linearGradient>
 </defs>
 <g id="Warstwa_x0020_1">
  <metadata id="CorelCorpID_0Corel-Layer"/>
  <g id="_2224108192384">
   <path class="fil0" d="M19.31 32.52c-2.1,0 -3.77,-0.15 -5.34,-0.64 -1.57,-0.49 -3.01,-1.31 -4.66,-2.64 -0.82,-0.65 -1.53,-1.39 -2.15,-2.2 -0.62,-0.81 -1.16,-1.68 -1.62,-2.59 -1.02,-2.04 -1.47,-4.47 -1.38,-6.86 0.09,-2.41 0.73,-4.8 1.9,-6.75 1.25,-2.09 3.01,-3.9 5.09,-5.16 1.96,-1.18 4.21,-1.88 6.59,-1.88l1.39 0c1.87,0 3.58,0.42 5.09,1.08 1.84,0.81 3.38,1.97 4.55,3.13 0.2,0.2 0.33,0.35 0.45,0.5 0.1,0.11 0.19,0.23 0.3,0.34l0 0c0.35,0.37 0.75,0.91 1.12,1.48 0.4,0.62 0.77,1.27 0.98,1.76 0.83,1.85 1.28,4.04 1.28,6.21 0,2.06 -0.41,4.12 -1.29,5.87 -0.61,1.2 -1.06,1.97 -1.59,2.66 -0.53,0.69 -1.13,1.3 -2.05,2.18 -0.23,0.23 -0.55,0.48 -0.88,0.72 -0.38,0.28 -0.79,0.55 -1.12,0.75 -0.97,0.58 -2.12,1.13 -3.35,1.51 -1.06,0.33 -2.18,0.53 -3.31,0.53zm-4.92 -1.97c1.4,0.43 2.95,0.57 4.92,0.57 0.99,0 1.97,-0.18 2.9,-0.46 1.12,-0.35 2.16,-0.85 3.05,-1.38 0.29,-0.17 0.66,-0.42 1.01,-0.67 0.28,-0.2 0.54,-0.42 0.74,-0.6 0.86,-0.84 1.42,-1.4 1.9,-2.03 0.48,-0.62 0.89,-1.32 1.45,-2.44 0.78,-1.54 1.14,-3.38 1.14,-5.24 0,-1.98 -0.41,-3.97 -1.15,-5.64 -0.19,-0.43 -0.52,-1.01 -0.88,-1.57 -0.33,-0.5 -0.67,-0.97 -0.96,-1.27 -0.16,-0.17 -0.26,-0.3 -0.37,-0.42 -0.11,-0.13 -0.22,-0.27 -0.35,-0.4 -1.06,-1.05 -2.46,-2.11 -4.13,-2.84 -1.34,-0.58 -2.86,-0.96 -4.53,-0.96l-1.39 0c-2.12,0 -4.12,0.62 -5.87,1.68 -1.89,1.14 -3.48,2.78 -4.62,4.67 -1.04,1.75 -1.62,3.91 -1.7,6.08 -0.08,2.18 0.32,4.37 1.24,6.19 0.42,0.84 0.91,1.64 1.47,2.37 0.56,0.72 1.2,1.38 1.92,1.97 1.51,1.21 2.81,1.95 4.21,2.39zm-12.62 -13.27c0,1.55 0.05,2.93 0.26,4.22 0.21,1.28 0.59,2.5 1.24,3.8 1.15,2.28 1.88,3.05 2.48,3.67 0.32,0.33 0.6,0.63 0.9,1.07l0.18 0.27 -0.08 0.3c-0.14,0.5 -1.35,2.26 -2.62,4.08 -0.95,1.37 -1.93,2.78 -2.41,3.53 2.05,-0.66 4.14,-1.21 6.22,-1.8l1.85 6.4c0.13,-0.31 0.31,-0.97 0.46,-1.28l0.07 -0.16c0.11,-0.21 0.22,-0.4 0.32,-0.58 0.09,-0.15 0.18,-0.3 0.27,-0.49l2.32 -4.38c0.82,-1.64 0.96,-1.6 2.17,-1.29 0.43,0.11 1.09,0.28 2.25,0.28l0.1 0c1.51,0 2.95,0 4.36,-0.35l0.36 -0.1c0.6,-0.17 0.88,-0.24 1.31,0.16 0.22,0.21 0.36,0.49 0.61,1.01 0.16,0.31 0.37,0.73 0.66,1.28l1.8 3.3 0.24 0.5c0.11,0.21 0.21,0.41 0.34,0.62l0 0.01c0.16,0.26 0.27,0.48 0.38,0.72l0.25 0.49c0.38,-1.4 0.78,-2.81 1.19,-4.19 0.13,-0.39 0.28,-0.87 0.3,-1.14l0.07 -0.85c1.5,0.42 3.02,0.81 4.5,1.28 0.54,0.18 1.35,0.44 1.96,0.57 -0.51,-0.79 -1.51,-2.24 -2.04,-3l-0.34 -0.49 -3.19 -4.79 2.75 -3.78c1.37,-2.53 2.06,-5.42 2.04,-8.3 -0.02,-2.83 -0.74,-5.64 -2.18,-8.07 -0.54,-0.92 -0.96,-1.44 -1.56,-2.21l-0.12 -0.15c-0.14,-0.19 -0.31,-0.36 -0.48,-0.52 -0.18,-0.18 -0.35,-0.35 -0.54,-0.59 -0.29,-0.37 -0.66,-0.68 -1.02,-0.98l-0.48 -0.4c-1.1,-0.99 -2.7,-1.89 -4.43,-2.53 -1.69,-0.63 -3.49,-1.02 -5.08,-1.02 -1.73,0 -3.03,0.03 -4.26,0.24 -1.22,0.21 -2.41,0.6 -3.94,1.3 -0.4,0.18 -0.82,0.43 -1.21,0.67l-0.03 0.02c-0.64,0.38 -1.2,0.77 -1.75,1.2 -0.53,0.42 -1.04,0.89 -1.58,1.43 -0.68,0.68 -1.29,1.38 -1.84,2.14 -0.56,0.76 -1.06,1.57 -1.5,2.46 -0.41,0.81 -0.82,1.95 -1.11,3.19 -0.25,1.06 -0.42,2.19 -0.42,3.23zm-1.12 4.44c-0.23,-1.4 -0.28,-2.83 -0.28,-4.44 0,-1.16 0.18,-2.39 0.46,-3.56 0.32,-1.34 0.77,-2.58 1.22,-3.49 0.48,-0.96 1.03,-1.84 1.62,-2.66 0.61,-0.82 1.26,-1.58 1.98,-2.3 0.57,-0.56 1.12,-1.06 1.71,-1.53 0.57,-0.46 1.19,-0.88 1.89,-1.3l0.03 -0.02c0.42,-0.26 0.86,-0.53 1.35,-0.75 1.65,-0.76 2.94,-1.18 4.29,-1.41 1.34,-0.22 2.7,-0.26 4.49,-0.26 1.75,0 3.72,0.42 5.56,1.11 1.89,0.71 3.65,1.7 4.88,2.8l0.44 0.37c0.42,0.35 0.86,0.71 1.23,1.19 0.12,0.15 0.28,0.31 0.43,0.46 0.19,0.19 0.38,0.38 0.59,0.65l0.11 0.14c0.65,0.82 1.08,1.37 1.67,2.37 1.57,2.64 2.35,5.7 2.37,8.77 0.02,3.12 -0.73,6.26 -2.22,9.01 -0.46,0.84 -1.65,2.27 -2.26,3.11l2.65 3.99 0.33 0.47c0.8,1.16 2.61,3.77 2.61,4.32 0,0.68 -0.44,0.94 -1.14,0.94 -0.78,0 -2.14,-0.44 -2.97,-0.71l-0.45 -0.14 -2.46 -0.69c-0.06,0.21 -0.13,0.43 -0.19,0.63l-0.12 0.37 -1.19 4.19c-0.15,0.52 -0.28,0.65 -0.58,0.91l-0.36 0.37 -0.46 -0.24c-0.6,-0.32 -0.62,-0.36 -1,-1.08l-0.33 -0.64c-0.1,-0.2 -0.19,-0.4 -0.31,-0.6 -0.16,-0.27 -0.28,-0.5 -0.4,-0.74l-0.22 -0.44 -1.79 -3.3c-0.31,-0.58 -0.53,-1.01 -0.69,-1.34 -0.18,-0.36 -0.28,-0.57 -0.31,-0.6l-0.04 -0.03 0.01 0.02c0.03,0.05 0.1,0.16 0.05,0.18l-0.4 0.1c-1.6,0.4 -3.11,0.4 -4.7,0.4l-0.1 0c-1.33,0 -2.1,-0.2 -2.59,-0.32 -0.24,-0.06 -0.27,-0.07 -0.58,0.57l-2.33 4.38c-0.09,0.19 -0.19,0.36 -0.3,0.54 -0.08,0.16 -0.17,0.31 -0.28,0.52l-0.06 0.13c-0.31,0.64 -1.07,2.23 -1.83,2.23 -0.94,0 -1.02,-0.33 -1.2,-1.07l-1.5 -5.15 -4.16 1.18 -0.26 0.09c-0.45,0.14 -1.02,0.33 -1.47,0.33 -0.65,0 -1.09,-0.25 -1.09,-0.99 0,-0.56 1.52,-2.75 2.98,-4.86 0.99,-1.42 1.94,-2.8 2.29,-3.39 -0.17,-0.2 -0.34,-0.38 -0.53,-0.57 -0.66,-0.7 -1.47,-1.55 -2.72,-4.01 -0.72,-1.43 -1.13,-2.79 -1.37,-4.21zm22.14 13.9l0.01 0.02 -0.01 -0.02zm0 0.02l0 -0.02 0 0.02z"/>
   <path class="fil1" d="M12.12 11.27c0.46,1.63 1.14,3.52 1.27,5.16 -1.6,0.37 -2.66,1.14 -4.09,1.9 1.25,0.66 2.89,1.74 4.18,2.04 -0.19,0.84 -1.77,4.82 -1.5,4.93 1.43,-0.57 3.5,-1.31 5.02,-1.31 0.3,1.3 1.44,2.8 2.15,3.97 0.65,-1.01 1.87,-2.85 2.11,-3.89 1.89,0.04 3.07,0.9 4.77,1.38 -0.36,-1.6 -1.02,-3.33 -1.15,-4.95l3.73 -2.1c-1.45,-0.85 -2.43,-1.74 -4.1,-2.12 0.74,-1.54 1.09,-3.18 1.45,-4.85 -1.38,0.23 -3.01,0.67 -4.38,0.99 -0.24,-0.39 -2.27,-4.25 -2.46,-4.14 -0.51,1.36 -1.5,2.97 -2.18,4.27 -0.46,-0.04 -3.35,-0.96 -4.82,-1.28zm4.05 -0.25c0.35,-0.69 1.9,-3.83 2.4,-4.13 0.67,-0.4 1.2,-0.1 1.96,1.16l1.71 2.78c0.8,-0.18 3.33,-0.83 4.04,-0.83 0.69,0 1.14,0.26 1.14,0.98 0,0.93 -0.76,3.3 -1.05,4.43 0.71,0.43 3.5,1.94 3.83,2.56 0.29,0.55 0.17,1.08 -0.71,1.54l-3.1 1.74c0.29,1.27 1.13,3.66 1.13,4.73 0,0.68 -0.39,0.95 -1.05,0.95 -1.11,0 -3.03,-1.03 -4.24,-1.37 -0.63,1.17 -1.99,3.86 -3.18,4.06 -1.09,-0.25 -2.49,-3.19 -3.01,-4.18 -1.04,0.23 -3.99,1.37 -4.76,1.08 -0.85,-0.32 -0.69,-0.89 -0.36,-2.03l0.9 -3.19c-0.8,-0.44 -3.78,-1.9 -4.12,-2.56 -0.3,-0.59 -0.13,-1.09 0.73,-1.53 1.12,-0.6 2.26,-1.26 3.41,-1.77 -0.29,-1.15 -1.19,-3.58 -1.19,-4.65 0,-0.7 0.43,-0.96 1.11,-0.96 0.75,0 3.41,0.89 4.41,1.19z"/>
  </g>
 </g>
</svg>
