<?xml version="1.0" encoding="UTF-8"?>
<!DOCTYPE svg PUBLIC "-//W3C//DTD SVG 1.1//EN" "http://www.w3.org/Graphics/SVG/1.1/DTD/svg11.dtd">
<!-- Creator: CorelDRAW 2018 (64-Bit) -->
<svg xmlns="http://www.w3.org/2000/svg" xml:space="preserve" width="49px" height="45px" version="1.1" style="shape-rendering:geometricPrecision; text-rendering:geometricPrecision; image-rendering:optimizeQuality; fill-rule:evenodd; clip-rule:evenodd"
viewBox="0 0 49 45.04"
 xmlns:xlink="http://www.w3.org/1999/xlink">
 <defs>
  <style type="text/css">
   <![CDATA[
    .fil0 {fill:url(#id0)}
   ]]>
  </style>
  <linearGradient id="id0" gradientUnits="userSpaceOnUse" x1="0" y1="22.52" x2="49" y2="22.52">
   <stop offset="0" style="stop-opacity:1; stop-color:#FECC00"/>
   <stop offset="1" style="stop-opacity:1; stop-color:#BA782D"/>
  </linearGradient>
 </defs>
 <g id="Warstwa_x0020_1">
  <metadata id="CorelCorpID_0Corel-Layer"/>
  <path class="fil0" d="M48.11 27.08c-0.24,0 -0.47,-0.1 -0.63,-0.27 -0.16,-0.16 -0.26,-0.38 -0.26,-0.62l0 -1.6 0 -0.01 0 -0.01 0 -5.42 -10.29 4.47c-0.98,0.43 -1.99,0.75 -3.01,0.96 -1.03,0.22 -2.08,0.33 -3.15,0.33l-1.93 0 0 4.9c0,0.69 -0.28,1.31 -0.73,1.76 -0.46,0.45 -1.08,0.73 -1.77,0.73l-3.68 0c-0.69,0 -1.31,-0.28 -1.77,-0.73 -0.45,-0.45 -0.73,-1.07 -0.73,-1.76l0 -4.9 -1.93 0c-1.06,0 -2.12,-0.11 -3.15,-0.33 -1.03,-0.21 -2.03,-0.53 -3.01,-0.96 -3.42,-1.48 -6.88,-2.95 -10.29,-4.46l0 22.56c0,0.43 0.17,0.81 0.45,1.09 0.28,0.28 0.66,0.45 1.08,0.45l42.38 0c0.42,0 0.8,-0.17 1.08,-0.45 0.28,-0.28 0.45,-0.66 0.45,-1.09l0 -5.4 0 -0.01 0 -0.01 0 -1.6c0,-0.24 0.1,-0.46 0.26,-0.63 0.16,-0.16 0.39,-0.26 0.63,-0.26 0.25,0 0.47,0.1 0.63,0.26 0.16,0.17 0.26,0.39 0.26,0.63l0 1.6 0 0.01 0 0.01 0 5.4c0,0.92 -0.37,1.75 -0.97,2.35 -0.6,0.6 -1.43,0.97 -2.34,0.97l-42.38 0c-0.91,0 -1.74,-0.37 -2.34,-0.97 -0.6,-0.6 -0.97,-1.43 -0.97,-2.35l0 -23.93 0 -0.01 0 -4.52c0,-0.91 0.37,-1.74 0.97,-2.34 0.6,-0.6 1.43,-0.97 2.34,-0.97l8.37 0 0 -7.46c0,-0.68 0.28,-1.31 0.73,-1.76 0.46,-0.45 1.08,-0.73 1.77,-0.73l20.64 0c0.69,0 1.31,0.28 1.77,0.73 0.45,0.45 0.73,1.08 0.73,1.76l0 7.46 8.37 0c0.91,0 1.74,0.37 2.34,0.97 0.6,0.6 0.97,1.43 0.97,2.34l0 4.52 0 0.01 0 6.78 0 0.01 0 0.01 0 1.6c0,0.24 -0.1,0.46 -0.26,0.62 -0.16,0.17 -0.38,0.27 -0.63,0.27zm-32.04 13.53l-10 0c-0.52,0 -0.98,-0.21 -1.32,-0.54 -0.33,-0.34 -0.54,-0.8 -0.54,-1.32l0 -11.03c0,-0.25 0.1,-0.47 0.26,-0.63 0.16,-0.16 0.38,-0.26 0.63,-0.26 0.24,0 0.46,0.1 0.62,0.26 0.17,0.16 0.26,0.38 0.26,0.63l0 11.03c0,0.03 0.01,0.05 0.03,0.06 0.01,0.02 0.03,0.02 0.06,0.02l10 0c0.25,0 0.47,0.1 0.63,0.26 0.16,0.17 0.26,0.39 0.26,0.63 0,0.25 -0.1,0.47 -0.26,0.63 -0.16,0.16 -0.38,0.26 -0.63,0.26zm10.99 -12l-5.12 0 0 1.2c0,0.2 0.08,0.38 0.21,0.51 0.13,0.12 0.31,0.21 0.51,0.21l3.68 0c0.2,0 0.38,-0.09 0.51,-0.21 0.13,-0.13 0.21,-0.31 0.21,-0.51l0 -1.2zm-5.12 -1.78l5.12 0 0 -1.92 -5.12 0 0 1.92zm9.29 -16.88l0 -4.45 -13.46 0 0 4.45 13.46 0zm-15.23 0l0 -4.54c0,-0.46 0.19,-0.89 0.49,-1.19 0.31,-0.31 0.73,-0.5 1.2,-0.5l13.62 0c0.47,0 0.89,0.19 1.2,0.5 0.3,0.3 0.49,0.73 0.49,1.19l0 4.54 2.54 0 0 -7.46c0,-0.19 -0.08,-0.37 -0.21,-0.5 -0.13,-0.13 -0.31,-0.21 -0.51,-0.21l-20.64 0c-0.2,0 -0.38,0.08 -0.51,0.21 -0.13,0.13 -0.21,0.31 -0.21,0.5l0 7.46 2.54 0zm31.22 7.26l0 -3.95c0,-0.42 -0.17,-0.81 -0.45,-1.08 -0.28,-0.28 -0.66,-0.45 -1.08,-0.45l-9.25 0 -0.01 0 -4.3 0 -0.02 0 -15.22 0 -0.02 0 -4.3 0 -0.01 0 -9.25 0c-0.42,0 -0.8,0.17 -1.08,0.45 -0.28,0.27 -0.45,0.66 -0.45,1.08l0 3.95 11 4.78c0.86,0.38 1.75,0.66 2.66,0.85 0.91,0.19 1.85,0.29 2.79,0.29l2.81 0 6.92 0 2.81 0c0.94,0 1.88,-0.1 2.79,-0.29 0.91,-0.19 1.8,-0.47 2.66,-0.85l11 -4.78zm0.89 15.54c-0.24,0 -0.47,-0.1 -0.63,-0.26 -0.16,-0.16 -0.26,-0.38 -0.26,-0.63l0 -2.84c0,-0.24 0.1,-0.46 0.26,-0.62 0.16,-0.16 0.39,-0.27 0.63,-0.27 0.25,0 0.47,0.11 0.63,0.27 0.16,0.16 0.26,0.38 0.26,0.62l0 2.84c0,0.25 -0.1,0.47 -0.26,0.63 -0.16,0.16 -0.38,0.26 -0.63,0.26z"/>
 </g>
</svg>
