<?xml version="1.0" encoding="UTF-8"?>
<!DOCTYPE svg PUBLIC "-//W3C//DTD SVG 1.1//EN" "http://www.w3.org/Graphics/SVG/1.1/DTD/svg11.dtd">
<!-- Creator: CorelDRAW 2018 (64-Bit) -->
<svg xmlns="http://www.w3.org/2000/svg" xml:space="preserve" width="59px" height="45px" version="1.1" style="shape-rendering:geometricPrecision; text-rendering:geometricPrecision; image-rendering:optimizeQuality; fill-rule:evenodd; clip-rule:evenodd"
viewBox="0 0 59 45.16"
 xmlns:xlink="http://www.w3.org/1999/xlink">
 <defs>
  <style type="text/css">
   <![CDATA[
    .fil0 {fill:url(#id0)}
   ]]>
  </style>
  <linearGradient id="id0" gradientUnits="userSpaceOnUse" x1="17.01" y1="15.68" x2="41.56" y2="15.68">
   <stop offset="0" style="stop-opacity:1; stop-color:#FECC00"/>
   <stop offset="1" style="stop-opacity:1; stop-color:#BA782D"/>
  </linearGradient>
 </defs>
 <g id="Warstwa_x0020_1">
  <metadata id="CorelCorpID_0Corel-Layer"/>
  <path class="fil0" d="M18.43 18.44c0,3.21 1.17,6.46 3.21,8.91 2.14,2.58 4.94,4 7.87,4 2.94,0 5.73,-1.42 7.86,-4 2.04,-2.45 3.2,-5.7 3.2,-8.9l0 -2.83c0.82,-3.53 0.99,-6.59 0.99,-8.55 0,-2.51 -0.28,-4.25 -0.53,-5.04 -0.13,-0.42 -0.55,-0.68 -0.97,-0.64 -0.06,0 -0.14,0 -0.21,0.01 -1.71,0.24 -3.82,-0.18 -6.04,-0.63 -3.61,-0.72 -7.69,-1.54 -10.8,0.62 -0.03,0 -0.06,0 -0.09,0 -1.75,0 -3.3,0.7 -4.38,1.97 -0.98,1.17 -1.53,2.78 -1.53,4.54 0,2.88 1.22,8.2 1.42,9.04l0 1.5 0 0zm6.7 -2.56c-0.53,0 -0.97,0.43 -0.97,0.97l0 1.11c0,0.53 0.44,0.97 0.97,0.97 0.54,0 0.97,-0.44 0.97,-0.97l0 -1.11c0,-0.54 -0.43,-0.97 -0.97,-0.97zm8.88 0c-0.54,0 -0.98,0.43 -0.98,0.97l0 1.11c0,0.53 0.44,0.97 0.98,0.97 0.53,0 0.96,-0.44 0.96,-0.97l0 -1.11c0,-0.54 -0.43,-0.97 -0.96,-0.97zm13.23 3.47c0,-0.39 -0.33,-0.72 -0.73,-0.72 -0.39,0 -0.72,0.33 -0.72,0.72 0,0.4 0.33,0.72 0.72,0.72 0.4,0 0.73,-0.32 0.73,-0.72zm-4.96 0c0,-0.39 -0.32,-0.72 -0.72,-0.72 -0.4,0 -0.72,0.33 -0.72,0.72 0,0.4 0.32,0.72 0.72,0.72 0.4,0 0.72,-0.32 0.72,-0.72zm-24.12 0c0,-0.39 -0.32,-0.72 -0.72,-0.72 -0.4,0 -0.72,0.33 -0.72,0.72 0,0.4 0.32,0.72 0.72,0.72 0.4,0 0.72,-0.32 0.72,-0.72zm-4.96 0c0,-0.39 -0.32,-0.72 -0.72,-0.72 -0.39,0 -0.72,0.33 -0.72,0.72 0,0.4 0.33,0.72 0.72,0.72 0.4,0 0.72,-0.32 0.72,-0.72zm13.01 5.31c0.82,0.56 2.05,0.89 3.36,0.89 1.31,0 2.53,-0.33 3.36,-0.89 0.32,-0.21 0.4,-0.65 0.18,-0.96 -0.21,-0.32 -0.65,-0.4 -0.96,-0.19 -0.59,0.4 -1.56,0.64 -2.58,0.64 -1.03,0 -1.99,-0.24 -2.58,-0.64 -0.32,-0.21 -0.75,-0.13 -0.97,0.19 -0.21,0.31 -0.13,0.75 0.19,0.96zm19.46 -2.27c-0.24,-0.2 -0.59,-0.16 -0.79,0.08 -0.22,0.28 -0.52,0.43 -0.84,0.43 -0.32,0 -0.62,-0.15 -0.85,-0.43 -0.19,-0.24 -0.54,-0.28 -0.79,-0.08 -0.24,0.19 -0.27,0.54 -0.08,0.79 0.44,0.53 1.06,0.84 1.72,0.84 0.65,0 1.28,-0.31 1.71,-0.84 0.2,-0.25 0.16,-0.6 -0.08,-0.79zm-29.08 0c-0.24,-0.2 -0.59,-0.16 -0.78,0.08 -0.23,0.28 -0.53,0.43 -0.85,0.43 -0.32,0 -0.62,-0.15 -0.84,-0.43 -0.2,-0.24 -0.55,-0.28 -0.79,-0.08 -0.24,0.19 -0.28,0.54 -0.09,0.79 0.44,0.53 1.07,0.84 1.72,0.84 0.66,0 1.28,-0.31 1.72,-0.84 0.19,-0.25 0.15,-0.6 -0.09,-0.79zm38.59 7.73c-0.02,0 -0.04,-0.01 -0.06,-0.01l-3.62 -0.76 -0.92 -1.39c-0.01,-0.02 -0.02,-0.03 -0.03,-0.05 -0.23,-0.3 -0.58,-0.5 -0.95,-0.55 -0.37,-0.04 -0.74,0.06 -1.03,0.29l-3.95 2.95c-0.41,0.3 -0.49,0.88 -0.19,1.29 0.31,0.4 0.88,0.49 1.29,0.19l3.6 -2.69 0.51 0.77 -1.73 2.5c-0.29,0.41 -0.18,0.99 0.23,1.28 0.16,0.11 0.35,0.16 0.53,0.16 0.29,0 0.58,-0.14 0.76,-0.39l1.73 -2.51 3.36 0.71c1.6,0.46 2.45,2.08 2.45,3.45l0 1.18c0,0.16 -0.22,0.33 -0.51,0.33l-4.1 0c-0.51,0 -0.93,0.41 -0.93,0.92 0,0.51 0.42,0.92 0.93,0.92l4.1 0c1.3,0 2.35,-0.97 2.35,-2.17l0 -1.18c0,-2.07 -1.31,-4.53 -3.82,-5.24zm-11.87 -21.83c1.35,0.03 2.85,0.27 4.3,0.5 1.1,0.18 2.15,0.35 3.06,0.41 -0.03,2.18 -0.18,4.14 -0.34,5.72 0,0 -0.01,0 -0.01,0 -0.01,-0.01 -0.03,-0.02 -0.04,-0.03 -0.01,0 -0.01,-0.01 -0.02,-0.01 -0.01,-0.01 -0.02,-0.01 -0.03,-0.02 0,0 0,0 0,0 -1.84,-1.11 -4.08,-1.75 -6.83,-1.96 -0.51,-0.04 -0.95,0.34 -0.99,0.85 -0.04,0.51 0.34,0.95 0.85,0.99 2.35,0.18 4.25,0.69 5.8,1.57 0.22,0.52 0.7,1.82 0.7,3.32l0 0.54c0,3.62 -2.5,6.56 -5.58,6.56 -1.09,0 -2.15,-0.37 -3.06,-1.07 -0.4,-0.31 -0.98,-0.23 -1.29,0.17 -0.31,0.4 -0.23,0.98 0.17,1.29 1.23,0.95 2.68,1.45 4.18,1.45 2,0 3.87,-0.88 5.28,-2.48 1.38,-1.58 2.15,-3.68 2.15,-5.92l0 -0.99c0.12,-0.69 0.89,-4.99 0.91,-10.66 0.02,-0.09 0.03,-0.19 0.02,-0.28 -0.02,-0.5 -0.43,-0.88 -0.92,-0.87 -0.01,0 -0.02,0 -0.02,0 -0.02,0 -0.04,0 -0.06,0 -0.89,0.05 -2.22,-0.17 -3.63,-0.4 -1.45,-0.23 -3.08,-0.49 -4.56,-0.52 -0.51,-0.02 -0.93,0.39 -0.95,0.9 0,0.51 0.4,0.93 0.91,0.94zm-36.86 28.58l-4.1 0c-0.29,0 -0.51,-0.17 -0.51,-0.33l0 -1.18c0,-1.37 0.84,-2.99 2.45,-3.45l3.36 -0.71 1.73 2.51c0.18,0.25 0.47,0.39 0.76,0.39 0.18,0 0.36,-0.05 0.53,-0.16 0.41,-0.29 0.52,-0.87 0.23,-1.28l-1.73 -2.5 0.51 -0.77 3.6 2.69c0.4,0.3 0.98,0.21 1.28,-0.19 0.31,-0.41 0.23,-0.99 -0.18,-1.29l-3.95 -2.95c-0.29,-0.23 -0.66,-0.33 -1.03,-0.29 -0.38,0.05 -0.72,0.25 -0.95,0.55 -0.01,0.02 -0.02,0.03 -0.03,0.05l-0.92 1.39 -3.62 0.76c-0.02,0 -0.04,0.01 -0.06,0.01 -2.51,0.71 -3.82,3.17 -3.82,5.24l0 1.18c0,1.2 1.05,2.17 2.35,2.17l4.1 0c0.51,0 0.92,-0.41 0.92,-0.92 0,-0.51 -0.41,-0.92 -0.92,-0.92zm0.94 -16.7c0,2.24 0.76,4.34 2.15,5.92 1.4,1.6 3.28,2.48 5.28,2.48 1.5,0 2.95,-0.5 4.18,-1.45 0.4,-0.31 0.48,-0.89 0.17,-1.29 -0.31,-0.4 -0.89,-0.48 -1.3,-0.17 -0.9,0.7 -1.96,1.07 -3.05,1.07 -3.08,0 -5.58,-2.94 -5.58,-6.56l0 -0.54c0,-1.46 0.6,-3.39 0.91,-4.3 1.99,-0.18 3.77,0.09 5.22,0.3l0.17 0.02c0.04,0.01 0.09,0.01 0.13,0.01 0.45,0 0.84,-0.33 0.91,-0.78 0.08,-0.51 -0.27,-0.98 -0.77,-1.05l-0.17 -0.02c-1.69,-0.25 -3.8,-0.56 -6.26,-0.25 -0.01,0 -0.01,0 -0.01,0 0,0 0,0 0,0 -0.01,0 -0.01,0 -0.01,0 -0.03,0.01 -0.05,0.01 -0.08,0.02 -0.02,0 -0.03,0.01 -0.04,0.01 -0.02,0 -0.03,0.01 -0.05,0.01 -0.01,0.01 -0.03,0.01 -0.05,0.02 -0.01,0.01 -0.02,0.01 -0.03,0.01 -0.02,0.01 -0.03,0.02 -0.05,0.03 -0.01,0 -0.02,0.01 -0.03,0.02 -0.02,0 -0.03,0.01 -0.05,0.02 0,0.01 -0.02,0.01 -0.03,0.02 -0.01,0.01 -0.02,0.02 -0.03,0.03 -0.01,0.01 -0.02,0.02 -0.04,0.03 -0.01,0.01 -0.02,0.01 -0.03,0.02 -0.01,0.02 -0.02,0.03 -0.03,0.04 -0.01,0.01 -0.02,0.02 -0.02,0.03 -0.02,0.01 -0.03,0.02 -0.04,0.04 -0.01,0.01 -0.01,0.02 -0.02,0.03 -0.01,0.01 -0.02,0.02 -0.03,0.04 -0.01,0.01 -0.02,0.03 -0.03,0.04 0,0.01 -0.01,0.02 -0.02,0.04 -0.01,0.02 -0.02,0.05 -0.03,0.07 0,0.01 0,0.01 0,0.01 0,0 0,0 0,0 0,0 -0.01,0 -0.01,0.01 -0.01,0.04 -0.08,0.21 -0.17,0.48 -0.08,-0.59 -0.13,-1.14 -0.13,-1.58 0,-1.99 0.97,-2.89 1.92,-2.89 0.04,0 0.09,0 0.13,-0.01 0.05,0.01 0.09,0.01 0.13,0.01 0.2,0 0.39,-0.06 0.56,-0.18 0.86,-0.66 1.97,-0.88 3.6,-0.72 0.51,0.06 0.96,-0.32 1.01,-0.82 0.05,-0.51 -0.32,-0.96 -0.83,-1.01 -1.25,-0.12 -3.06,-0.16 -4.63,0.89 -2.2,0.02 -3.73,1.96 -3.73,4.73 0,1.94 0.77,5.48 0.91,6.14l0 0.98zm38 13.23c-0.02,-0.01 -0.04,-0.01 -0.06,-0.02l-5.49 -1.14 -1.44 -2.2c-0.02,-0.02 -0.03,-0.03 -0.04,-0.05 -0.26,-0.35 -0.66,-0.58 -1.1,-0.64 -0.44,-0.05 -0.88,0.08 -1.22,0.36 -0.01,0 -0.01,0.01 -0.02,0.01l-6.52 5.62 -6.52 -5.62c-0.01,0 -0.01,-0.01 -0.02,-0.01 -0.34,-0.28 -0.79,-0.41 -1.22,-0.36 -0.44,0.06 -0.84,0.29 -1.1,0.64 -0.02,0.02 -0.02,0.03 -0.03,0.05l-1.46 2.2 -5.48 1.14c-0.02,0.01 -0.04,0.01 -0.06,0.02 -1.6,0.44 -2.95,1.43 -3.92,2.86 -0.89,1.3 -1.38,2.86 -1.38,4.41l0 1.74c0,1.52 1.36,2.75 3.02,2.75l16.07 0c0,0 0,0 0,0 0,0 0.01,0 0.01,0l4.18 0c0,0 0,0 0,0 0,0 0.01,0 0.01,0l16.07 0c1.66,0 3.02,-1.23 3.02,-2.75l0 -1.74c0,-1.55 -0.49,-3.11 -1.38,-4.41 -0.97,-1.43 -2.33,-2.42 -3.92,-2.86zm-8.37 -2.1l1.14 1.73 -4.58 6.3 -2.73 -2.73 6.17 -5.3zm-8.12 10.18l1.2 0 0.37 1.84 -1.94 0 0.37 -1.84zm1.52 -2.35c0,0.31 -0.18,0.51 -0.31,0.51l-1.22 0c-0.13,0 -0.31,-0.2 -0.31,-0.51l0 -0.35 0.92 -0.92 0.92 0.92 0 0.35 0 0zm-8.44 -7.83l6.16 5.3 -2.72 2.73 -4.58 -6.3 1.14 -1.73zm-11.83 11.11l0 -1.74c0,-2.17 1.35,-4.75 3.93,-5.49l5.24 -1.1 5.24 7.21c0.16,0.22 0.4,0.36 0.67,0.38 0.03,0 0.05,0 0.08,0 0.24,0 0.47,-0.1 0.65,-0.27l1.07 -1.08c0.05,0.09 0.1,0.18 0.17,0.26l-0.55 2.74 -15.32 0c-0.64,0 -1.18,-0.42 -1.18,-0.91zm38.69 0c0,0.49 -0.53,0.91 -1.17,0.91l-15.32 0 -0.55 -2.74c0.06,-0.08 0.12,-0.17 0.17,-0.26l1.07 1.08c0.17,0.17 0.41,0.27 0.65,0.27 0.03,0 0.05,0 0.07,0 0.27,-0.02 0.52,-0.16 0.68,-0.38l5.24 -7.21 5.24 1.1c2.58,0.74 3.92,3.32 3.92,5.49l0 1.74zm-12.89 -16.23c-1.78,2.15 -4.06,3.33 -6.44,3.33 -2.38,0 -4.67,-1.18 -6.45,-3.33 -1.77,-2.14 -2.78,-4.95 -2.78,-7.74l0 -1.1c0,-2.29 1.53,-5.38 2.11,-6.48 8.29,-0.95 13.84,1.34 15.1,1.93l1.24 2.91 0 2.75c0,2.78 -1.01,5.6 -2.78,7.73zm-13.03 -22.95c0.07,0 0.13,-0.01 0.2,-0.02 0.25,0.05 0.52,0 0.75,-0.17 2.48,-1.89 6.09,-1.16 9.57,-0.46 1.87,0.38 3.65,0.73 5.32,0.73 0.22,0 0.45,0 0.68,-0.02 0.27,1.56 0.5,4.92 -0.13,9.08l-0.26 -0.61c-0.08,-0.19 -0.22,-0.35 -0.4,-0.45 -0.27,-0.15 -6.59,-3.52 -16.88,-2.23 -0.3,0.01 -0.6,0.17 -0.76,0.46 -0.06,0.1 -0.86,1.5 -1.55,3.29 -0.32,-1.71 -0.61,-3.63 -0.61,-4.93 0,-3.22 2.04,-4.67 4.07,-4.67z"/>
 </g>
</svg>
