<?xml version="1.0" encoding="UTF-8"?>
<!DOCTYPE svg PUBLIC "-//W3C//DTD SVG 1.1//EN" "http://www.w3.org/Graphics/SVG/1.1/DTD/svg11.dtd">
<!-- Creator: CorelDRAW 2018 (64-Bit) -->
<svg xmlns="http://www.w3.org/2000/svg" xml:space="preserve" width="42px" height="45px" version="1.1" style="shape-rendering:geometricPrecision; text-rendering:geometricPrecision; image-rendering:optimizeQuality; fill-rule:evenodd; clip-rule:evenodd"
viewBox="0 0 42 44.76"
 xmlns:xlink="http://www.w3.org/1999/xlink">
 <defs>
  <style type="text/css">
   <![CDATA[
    .fil0 {fill:url(#id0)}
   ]]>
  </style>
  <linearGradient id="id0" gradientUnits="userSpaceOnUse" x1="0" y1="22.38" x2="42" y2="22.38">
   <stop offset="0" style="stop-opacity:1; stop-color:#FECC00"/>
   <stop offset="1" style="stop-opacity:1; stop-color:#BA782D"/>
  </linearGradient>
 </defs>
 <g id="Warstwa_x0020_1">
  <metadata id="CorelCorpID_0Corel-Layer"/>
  <path class="fil0" d="M16.63 15.92c-0.53,0 -0.96,0.43 -0.96,0.97l0 1.1c0,0.52 0.43,0.96 0.96,0.96 0.53,0 0.96,-0.44 0.96,-0.96l0 -1.1c0,-0.54 -0.43,-0.97 -0.96,-0.97zm1.09 8.7c0.81,0.55 2.02,0.87 3.31,0.87 1.29,0 2.49,-0.32 3.3,-0.87 0.31,-0.22 0.4,-0.64 0.18,-0.95 -0.21,-0.31 -0.63,-0.4 -0.95,-0.18 -0.58,0.39 -1.53,0.63 -2.54,0.63 -1,0 -1.95,-0.24 -2.53,-0.63 -0.31,-0.22 -0.74,-0.13 -0.95,0.18 -0.21,0.31 -0.13,0.73 0.18,0.95zm19.03 8.48c-0.02,-0.01 -0.04,-0.01 -0.06,-0.02l-5.44 -1.13 -1.43 -2.18c-0.02,-0.02 -0.03,-0.03 -0.04,-0.04 -0.26,-0.36 -0.66,-0.58 -1.09,-0.64 -0.43,-0.05 -0.87,0.08 -1.21,0.35 0,0.01 -0.01,0.01 -0.02,0.02l-6.46 5.56 -6.46 -5.56c-0.01,-0.01 -0.01,-0.01 -0.02,-0.02 -0.34,-0.27 -0.78,-0.4 -1.21,-0.35 -0.43,0.06 -0.83,0.28 -1.09,0.64 -0.01,0.01 -0.02,0.02 -0.03,0.04l-1.44 2.18 -5.44 1.13c-0.02,0.01 -0.04,0.01 -0.06,0.02 -1.58,0.44 -2.92,1.42 -3.89,2.83 -0.87,1.29 -1.36,2.85 -1.36,4.38l0 1.72c0,1.5 1.34,2.73 2.99,2.73l15.93 0c0,0 0,0 0,0 0,0 0,0 0.01,0l4.14 0c0,0 0,0 0.01,0 0,0 0,0 0,0l15.93 0c1.65,0 2.99,-1.23 2.99,-2.73l0 -1.72c0,-1.53 -0.49,-3.09 -1.36,-4.38 -0.97,-1.41 -2.31,-2.39 -3.89,-2.83zm-8.3 -2.08l1.13 1.72 -4.54 6.24 -2.7 -2.7 6.11 -5.26zm-8.05 10.09l1.2 0 0.36 1.82 -1.92 0 0.36 -1.82zm1.51 -2.32c0,0.3 -0.18,0.5 -0.3,0.5l-1.22 0c-0.12,0 -0.3,-0.2 -0.3,-0.5l0 -0.36 0.91 -0.91 0.91 0.91 0 0.36 0 0zm-8.36 -7.77l6.11 5.26 -2.71 2.7 -4.54 -6.24 1.14 -1.72zm-11.72 11.01l0 -1.72c0,-2.16 1.33,-4.71 3.89,-5.44l5.19 -1.09 5.2 7.14c0.15,0.22 0.4,0.36 0.66,0.38 0.03,0 0.05,0 0.07,0 0.25,0 0.48,-0.1 0.65,-0.27l1.07 -1.06c0.04,0.08 0.1,0.17 0.16,0.25l-0.55 2.71 -15.18 0c-0.63,0 -1.16,-0.41 -1.16,-0.9zm38.34 0c0,0.49 -0.53,0.9 -1.16,0.9l-15.18 0 -0.54 -2.71c0.05,-0.08 0.11,-0.17 0.15,-0.25l1.07 1.06c0.17,0.17 0.4,0.27 0.65,0.27 0.02,0 0.04,0 0.07,0 0.26,-0.02 0.51,-0.16 0.67,-0.38l5.19 -7.14 5.19 1.09c2.56,0.73 3.89,3.28 3.89,5.44l0 1.72zm-30.14 -23.75c0,3.17 1.16,6.4 3.18,8.83 2.12,2.56 4.89,3.97 7.8,3.97 2.91,0 5.68,-1.41 7.79,-3.97 2.02,-2.43 3.17,-5.65 3.17,-8.83l0 -2.8c0.81,-3.5 0.99,-6.53 0.99,-8.47 -0.01,-2.49 -0.28,-4.22 -0.53,-5 -0.14,-0.42 -0.54,-0.67 -0.96,-0.63 -0.07,-0.01 -0.14,0 -0.21,0.01 -1.7,0.24 -3.78,-0.18 -5.99,-0.62 -3.58,-0.72 -7.62,-1.53 -10.71,0.61 -0.02,0 -0.05,0 -0.08,0 -1.74,0 -3.27,0.69 -4.34,1.95 -0.98,1.16 -1.52,2.76 -1.52,4.5 0,2.85 1.21,8.13 1.41,8.97l0 1.48 0 0zm17.37 7.66c-1.77,2.14 -4.03,3.31 -6.39,3.31 -2.35,0 -4.62,-1.17 -6.39,-3.31 -1.76,-2.11 -2.76,-4.9 -2.76,-7.66l0 -1.1c0,-2.26 1.52,-5.33 2.1,-6.42 8.21,-0.93 13.71,1.33 14.96,1.92l1.22 2.89 0 2.71c0,2.76 -1,5.56 -2.74,7.66zm-12.92 -22.74c0.07,0 0.13,0 0.19,-0.02 0.25,0.06 0.52,0.01 0.75,-0.16 2.46,-1.87 6.03,-1.15 9.49,-0.46 1.85,0.37 3.62,0.72 5.26,0.72 0.23,0 0.46,0 0.68,-0.02 0.27,1.55 0.5,4.88 -0.12,9l-0.26 -0.61c-0.08,-0.19 -0.22,-0.34 -0.4,-0.44 -0.27,-0.14 -6.53,-3.49 -16.73,-2.21 -0.3,0.01 -0.59,0.18 -0.75,0.45 -0.06,0.1 -0.85,1.49 -1.54,3.27 -0.31,-1.7 -0.6,-3.6 -0.6,-4.89 0,-3.19 2.02,-4.63 4.03,-4.63zm10.94 12.72c-0.53,0 -0.96,0.43 -0.96,0.97l0 1.1c0,0.52 0.43,0.96 0.96,0.96 0.53,0 0.97,-0.44 0.97,-0.96l0 -1.1c0,-0.54 -0.44,-0.97 -0.97,-0.97z"/>
 </g>
</svg>
