<?xml version="1.0" encoding="UTF-8"?>
<!DOCTYPE svg PUBLIC "-//W3C//DTD SVG 1.1//EN" "http://www.w3.org/Graphics/SVG/1.1/DTD/svg11.dtd">
<!-- Creator: CorelDRAW 2018 (64-Bit) -->
<svg xmlns="http://www.w3.org/2000/svg" xml:space="preserve" width="58px" height="45px" version="1.1" style="shape-rendering:geometricPrecision; text-rendering:geometricPrecision; image-rendering:optimizeQuality; fill-rule:evenodd; clip-rule:evenodd"
viewBox="0 0 58 45.14"
 xmlns:xlink="http://www.w3.org/1999/xlink">
 <defs>
  <style type="text/css">
   <![CDATA[
    .fil0 {fill:url(#id0)}
   ]]>
  </style>
  <linearGradient id="id0" gradientUnits="userSpaceOnUse" x1="0" y1="22.57" x2="58" y2="22.57">
   <stop offset="0" style="stop-opacity:1; stop-color:#FECC00"/>
   <stop offset="1" style="stop-opacity:1; stop-color:#BA782D"/>
  </linearGradient>
 </defs>
 <g id="Warstwa_x0020_1">
  <metadata id="CorelCorpID_0Corel-Layer"/>
  <path class="fil0" d="M43.37 32.23c-0.25,0 -0.55,0.01 -0.86,0.02 -1.9,0.06 -4.14,0.14 -4.65,-1.91 -0.57,-2.3 1.51,-3.27 3.03,-3.97l1.08 -0.52c1.44,-0.71 3.1,-1.52 4.55,-1.73 1.84,-0.26 3.28,0.32 3.62,2.71l0 0.05 0 0.08c0.01,0.25 0.02,0.54 0.03,0.8 0.06,1.85 0.11,3.08 -1.91,3.92 -1.4,0.58 -3.29,0.57 -4.81,0.56l-0.08 -0.01zm-8.29 -19.47l0.73 0.13 0.05 -2.31 1.26 0.03 -0.06 2.93 0.27 0.81 1.98 -0.51 1.41 3.16c0.32,-0.04 0.63,-0.08 0.93,-0.12 1.84,-0.24 3.48,-0.53 4.47,-0.86 -0.24,-1.63 -0.97,-4.02 -2.05,-6 -0.85,-1.56 -1.88,-2.83 -2.97,-3.13 -0.83,-0.23 -1.69,-0.4 -2.57,-0.53 -0.87,-0.14 -1.78,-0.23 -2.71,-0.31 -2.38,-0.2 -9.47,-0.57 -14.9,0.01 -3.02,0.33 -5.47,0.91 -6.05,1.89 -0.52,0.89 -1.49,3 -2.26,5.04 -0.43,1.13 -0.78,2.23 -0.95,3.03 1.09,0.36 2.71,0.59 3.98,0.77l0.78 0.11c1.77,0.37 4.03,0.58 6.41,0.7 3.27,0.15 6.72,0.13 9.37,0.06 1.45,-0.04 4.33,-0.21 7.2,-0.51l-0.81 -1.82 -2.08 0.53 -0.57 -1.66 -1.07 -0.19 0.21 -1.25zm-15.97 -2.76l0.72 0.07 0.08 -2.27 1.27 0.05 -0.11 2.81 0.4 0.94 1.89 -0.53 0.98 2 1.57 0.57 -0.44 1.19 -1.23 -0.45 -0.54 1.27 -1.17 -0.49 0.66 -1.56 -0.5 -1.03 -1.95 0.54 -0.74 -1.74 -1.03 -0.11 0.14 -1.26zm23.35 20.42c0.31,-0.01 0.62,-0.02 0.92,-0.02l0.08 0.01c1.35,0.01 3.03,0.02 4.1,-0.42 0.84,-0.36 0.82,-1.08 0.77,-2.16 0,-0.24 -0.01,-0.49 -0.02,-0.78 -0.15,-0.98 -0.76,-1.22 -1.53,-1.11 -1.16,0.17 -2.68,0.91 -4.01,1.56 -0.24,0.11 -0.46,0.22 -0.95,0.45l-0.17 0.08c-0.93,0.44 -2.22,1.03 -2.01,1.87 0.15,0.61 1.59,0.56 2.82,0.52zm-24.35 -3.4c0.37,0.2 0.74,0.42 1.07,0.73 0.4,0.37 0.69,0.84 0.8,1.46 0.12,0.69 0.02,1.26 -0.26,1.73 -0.31,0.52 -0.79,0.87 -1.38,1.06 -0.95,0.32 -3.57,0.27 -5.11,0.25 -0.25,-0.01 -0.53,0 -0.78,-0.02l0 0c-1.78,-0.15 -4.15,-0.36 -4.68,-2.34 -0.25,-0.93 -0.32,-2.3 -0.08,-3.41 0.24,-1.05 0.76,-1.92 1.7,-2.21 0.91,-0.29 2.43,0.01 3.95,0.52 1.96,0.65 4.05,1.69 4.77,2.23zm-0.19 2.06c-0.17,-0.17 -0.44,-0.32 -0.72,-0.46l-0.1 -0.05 -0.09 -0.08c-0.46,-0.41 -2.38,-1.34 -4.25,-1.96 -1.21,-0.41 -2.33,-0.67 -2.83,-0.51 -0.2,0.06 -0.35,0.41 -0.45,0.86 -0.18,0.82 -0.13,1.84 0.06,2.54 0.2,0.73 1.84,0.87 3.07,0.98l0.02 0.01 0.63 0.01c1.42,0.02 3.85,0.06 4.5,-0.16 0.18,-0.06 0.31,-0.14 0.38,-0.25 0.06,-0.1 0.07,-0.26 0.03,-0.48 -0.03,-0.19 -0.12,-0.33 -0.25,-0.45zm29.6 -11.66c-1.03,0.53 -3.2,0.96 -5.63,1.28 -3.56,0.47 -7.76,0.74 -9.65,0.79 -2.69,0.07 -6.19,0.1 -9.5,-0.06 -2.43,-0.12 -4.77,-0.34 -6.64,-0.72l-0.71 -0.11c-1.67,-0.23 -3.89,-0.55 -5.15,-1.17l-0.54 -0.27 0.04 -0.61c0.06,-1 0.55,-2.59 1.16,-4.21 0.8,-2.12 1.83,-4.35 2.39,-5.31 0.93,-1.59 3.89,-2.41 7.44,-2.79 5.59,-0.6 12.82,-0.23 15.24,-0.02 0.97,0.08 1.91,0.18 2.84,0.32 0.92,0.14 1.84,0.32 2.77,0.58 1.65,0.46 3.04,2.07 4.1,4.02 1.35,2.5 2.22,5.62 2.34,7.41l0.04 0.6 -0.54 0.27zm-45.66 1.55c-0.09,0.99 0.21,1.27 0.71,1.32 0.38,0.04 0.86,0.03 1.38,0.01 0.27,-0.01 0.55,-0.02 0.86,-0.02l1.16 -0.01 -0.26 1.13c-0.29,1.27 -0.58,1.77 -0.82,2.2 -0.3,0.51 -0.5,0.87 -0.5,4.41l-0.01 8.1c0.01,0.89 -0.02,1.88 -0.04,2.74 -0.02,0.97 -0.04,1.76 -0.01,2.41 0.1,2.2 1.2,2.19 7.41,1.9 1.09,-0.58 1.06,-1.38 1,-2.76 -0.01,-0.41 -0.03,-0.87 -0.03,-1.4l0 -0.92c10.8,0 21.59,0 32.38,0l0 3.86c0.08,0.55 0.24,0.85 0.5,1 0.34,0.21 0.91,0.26 1.7,0.25 0.51,0 1.03,0.01 1.56,0.01 1.23,0.01 2.51,0.03 3.7,-0.06 0.97,-0.43 0.94,-1.34 0.89,-2.7 -0.01,-0.41 -0.03,-0.86 -0.03,-1.21l0.01 -12.87c-0.02,-1.52 -0.31,-2.19 -0.64,-2.94 -0.24,-0.55 -0.49,-1.13 -0.7,-2l-0.26 -1.12 1.15 -0.01c0.27,0 0.52,0.01 0.79,0.02 0.81,0.03 1.76,0.07 1.96,-0.16 0.19,-0.21 0.31,-0.46 0.38,-0.73 0.15,-0.6 0.04,-1.3 -0.21,-1.95 -0.26,-0.68 -0.68,-1.3 -1.14,-1.7 -0.22,-0.19 -0.45,-0.33 -0.65,-0.38 -1.1,-0.28 -1.85,-0.4 -2.38,-0.48 -0.72,-0.12 -1.13,-0.19 -1.55,-0.47 -0.57,-0.39 -0.76,-0.91 -1.2,-2.11l-0.28 -0.78c-0.24,-0.64 -0.44,-1.22 -0.64,-1.79 -0.99,-2.82 -1.86,-5.27 -3.72,-6.1 -2.01,-0.89 -4.59,-1.35 -7.29,-1.58 -2.74,-0.24 -5.6,-0.24 -8.14,-0.24l-0.03 0c-5.05,0 -11.23,0 -15.31,1.89 -1.83,0.85 -2.21,1.83 -2.93,3.65l-0.5 1.26c-0.73,1.76 -1.76,4.29 -2.18,5.98l-0.17 0.7 -0.72 -0.01c-3.97,-0.02 -4.1,0.35 -5.17,3.6l-0.03 0.06zm0.5 3.15c-1.61,-0.18 -2.59,-0.91 -2.31,-3.43l0.01 -0.09 0.09 -0.27c1.38,-4.17 1.59,-4.82 6.21,-4.85 0.51,-1.72 1.42,-3.93 2.07,-5.53l0.49 -1.24c0.89,-2.26 1.37,-3.48 3.87,-4.64 4.44,-2.07 10.84,-2.07 16.08,-2.07l0.03 0c2.57,0 5.48,0.01 8.3,0.25 2.86,0.25 5.63,0.75 7.87,1.74 2.59,1.15 3.58,3.95 4.71,7.17 0.2,0.59 0.42,1.19 0.62,1.75l0.3 0.79c0.29,0.82 0.42,1.17 0.51,1.23 0.07,0.05 0.34,0.09 0.8,0.17 0.58,0.09 1.39,0.22 2.54,0.51 0.49,0.12 0.97,0.4 1.4,0.78 0.68,0.59 1.28,1.47 1.65,2.42 0.38,0.98 0.53,2.07 0.28,3.06 -0.14,0.53 -0.39,1.04 -0.78,1.49 -0.67,0.75 -1.79,0.83 -2.86,0.8 0.07,0.19 0.15,0.36 0.22,0.53 0.41,0.93 0.77,1.76 0.79,3.66l-0.01 12.88c0.01,0.49 0.02,0.83 0.03,1.15 0.08,2.2 0.13,3.65 -2.2,4.52l-0.13 0.05 -0.12 0.01c-1.24,0.1 -2.63,0.09 -3.98,0.07 -0.53,0 -1.05,-0.01 -1.54,0 -1.11,0 -1.97,-0.11 -2.65,-0.51 -0.76,-0.45 -1.22,-1.18 -1.39,-2.37l0 -0.05 0 -2.18 -28.7 -0.01 0.01 0.42c0.09,2.22 0.14,3.47 -2.21,4.57l-0.16 0.07 -0.19 0.01c-7.93,0.37 -9.32,0.41 -9.51,-3.64 -0.03,-0.69 -0.01,-1.52 0.01,-2.53 0.02,-0.72 0.04,-1.54 0.04,-2.7l0 -8.1c0,-4.01 0.31,-4.55 0.75,-5.32 0.09,-0.15 0.18,-0.31 0.28,-0.55 -0.43,0.02 -0.84,0.02 -1.22,-0.02z"/>
 </g>
</svg>
