<?xml version="1.0" encoding="UTF-8"?>
<!DOCTYPE svg PUBLIC "-//W3C//DTD SVG 1.1//EN" "http://www.w3.org/Graphics/SVG/1.1/DTD/svg11.dtd">
<!-- Creator: CorelDRAW 2018 (64-Bit) -->
<svg xmlns="http://www.w3.org/2000/svg" xml:space="preserve" width="44px" height="45px" version="1.1" style="shape-rendering:geometricPrecision; text-rendering:geometricPrecision; image-rendering:optimizeQuality; fill-rule:evenodd; clip-rule:evenodd"
viewBox="0 0 44 45.49"
 xmlns:xlink="http://www.w3.org/1999/xlink">
 <defs>
  <style type="text/css">
   <![CDATA[
    .fil0 {fill:url(#id0)}
   ]]>
  </style>
  <linearGradient id="id0" gradientUnits="userSpaceOnUse" x1="12.69" y1="15.79" x2="30.99" y2="15.79">
   <stop offset="0" style="stop-opacity:1; stop-color:#FECC00"/>
   <stop offset="1" style="stop-opacity:1; stop-color:#BA782D"/>
  </linearGradient>
 </defs>
 <g id="Warstwa_x0020_1">
  <metadata id="CorelCorpID_0Corel-Layer"/>
  <path class="fil0" d="M41.04 43.8l1.27 0 0 -17.71 -21.11 0 0 17.71 1.27 0 0 -14.57c0,-0.23 0.09,-0.44 0.25,-0.59 0.15,-0.16 0.36,-0.25 0.6,-0.25l16.88 0c0.23,0 0.44,0.09 0.59,0.25 0.16,0.15 0.25,0.36 0.25,0.59l0 14.57zm-36.33 0l0 -15.55c0,-0.23 0.1,-0.45 0.25,-0.6 0.15,-0.15 0.37,-0.25 0.6,-0.25l10.14 0c0.23,0 0.44,0.1 0.6,0.25 0.15,0.15 0.24,0.37 0.24,0.6l0 15.55 2.97 0 0 -18.55c0,-0.24 0.1,-0.45 0.25,-0.6 0.15,-0.15 0.36,-0.25 0.6,-0.25l17.24 0 0 -17.71 -34.48 0 0 37.11 1.59 0zm10.14 0l0 -14.71 -8.45 0 0 14.71 8.45 0zm-1.55 -21.94l-7.54 0c-0.23,0 -0.44,-0.1 -0.59,-0.25 -0.16,-0.15 -0.25,-0.37 -0.25,-0.6l0 -10.93c0,-0.23 0.1,-0.45 0.25,-0.6 0.15,-0.15 0.36,-0.24 0.59,-0.24l7.54 0c0.23,0 0.44,0.09 0.6,0.24 0.15,0.15 0.25,0.37 0.25,0.6l0 10.93c0,0.24 -0.1,0.45 -0.25,0.6 -0.15,0.15 -0.37,0.25 -0.6,0.25zm-6.69 -1.69l5.85 0 0 -9.24 -5.85 0 0 9.24zm10.82 0l5.85 0 0 -9.24 -5.85 0 0 9.24zm10.83 0l5.84 0 0 -9.24 -5.84 0 0 9.24zm-25.99 -15.17l36.75 0 0 -3.31 -37.33 0 0 3.31 0.58 0zm37.08 28.16l0 -3.08 -15.19 0 0 3.08 15.19 0zm0 5.75l0 -4.06 -15.19 0 0 4.06 15.19 0zm-18.99 6.58l-18.09 0c-0.23,0 -0.44,-0.09 -0.6,-0.25 -0.15,-0.15 -0.24,-0.36 -0.24,-0.59l0 -37.96 -0.59 0c-0.23,0 -0.44,-0.1 -0.59,-0.25 -0.15,-0.15 -0.25,-0.36 -0.25,-0.6l0 -4.99c0,-0.24 0.1,-0.45 0.25,-0.6 0.15,-0.15 0.36,-0.25 0.59,-0.25l39.03 0c0.23,0 0.44,0.1 0.59,0.25 0.16,0.15 0.25,0.36 0.25,0.6l0 4.99c0,0.24 -0.09,0.45 -0.25,0.6 -0.15,0.15 -0.36,0.25 -0.59,0.25l-0.58 0 0 17.71 3.87 0c0.23,0 0.44,0.1 0.59,0.25 0.15,0.15 0.25,0.36 0.25,0.6l0 19.4c0,0.23 -0.1,0.44 -0.25,0.59 -0.15,0.16 -0.36,0.25 -0.59,0.25l-2.96 0c-0.24,0 -0.45,-0.09 -0.6,-0.25 -0.15,-0.15 -0.25,-0.36 -0.25,-0.59l0 -4.05 -15.19 0 0 4.05c0,0.23 -0.09,0.44 -0.25,0.59 -0.15,0.16 -0.36,0.25 -0.59,0.25l-2.96 0zm3.76 -23.63l-7.53 0c-0.23,0 -0.45,-0.1 -0.6,-0.25 -0.15,-0.15 -0.25,-0.36 -0.25,-0.6l0 -10.93c0,-0.23 0.1,-0.45 0.25,-0.6 0.15,-0.15 0.37,-0.24 0.6,-0.24l7.53 0c0.24,0 0.45,0.09 0.6,0.24 0.15,0.15 0.25,0.37 0.25,0.6l0 10.93c0,0.23 -0.1,0.45 -0.25,0.6 -0.15,0.15 -0.36,0.25 -0.6,0.25zm10.83 0l-7.54 0c-0.23,0 -0.44,-0.1 -0.59,-0.25 -0.16,-0.15 -0.25,-0.37 -0.25,-0.6l0 -10.93c0,-0.23 0.09,-0.45 0.25,-0.6 0.15,-0.15 0.36,-0.24 0.59,-0.24l7.54 0c0.23,0 0.44,0.09 0.6,0.24 0.15,0.15 0.24,0.37 0.24,0.6l0 10.93c0,0.23 -0.09,0.45 -0.24,0.6 -0.16,0.15 -0.37,0.25 -0.6,0.25z"/>
 </g>
</svg>
