<?xml version="1.0" encoding="UTF-8"?>
<!DOCTYPE svg PUBLIC "-//W3C//DTD SVG 1.1//EN" "http://www.w3.org/Graphics/SVG/1.1/DTD/svg11.dtd">
<!-- Creator: CorelDRAW 2018 (64-Bit) -->
<svg xmlns="http://www.w3.org/2000/svg" xml:space="preserve" width="37px" height="45px" version="1.1" style="shape-rendering:geometricPrecision; text-rendering:geometricPrecision; image-rendering:optimizeQuality; fill-rule:evenodd; clip-rule:evenodd"
viewBox="0 0 37 44.57"
 xmlns:xlink="http://www.w3.org/1999/xlink">
 <defs>
  <style type="text/css">
   <![CDATA[
    .fil0 {fill:url(#id0)}
   ]]>
  </style>
  <linearGradient id="id0" gradientUnits="userSpaceOnUse" x1="10.67" y1="15.47" x2="26.06" y2="15.47">
   <stop offset="0" style="stop-opacity:1; stop-color:#FECC00"/>
   <stop offset="1" style="stop-opacity:1; stop-color:#BA782D"/>
  </linearGradient>
 </defs>
 <g id="Warstwa_x0020_1">
  <metadata id="CorelCorpID_0Corel-Layer"/>
  <path class="fil0" d="M33.73 0l-30.47 0c-1.8,0 -3.26,1.46 -3.26,3.27l0 35.56c0,1.8 1.46,3.26 3.27,3.26 0.36,0 0.65,-0.29 0.65,-0.65 0,-0.36 -0.29,-0.65 -0.65,-0.65 -1.08,0 -1.96,-0.88 -1.96,-1.96l0 -35.56c0,-1.08 0.88,-1.96 1.96,-1.96l30.46 0c1.08,0 1.96,0.88 1.96,1.96l0 35.56c0,1.08 -0.88,1.96 -1.96,1.96 -0.86,0 -27.03,0 -27.91,0 -0.41,-0.01 -0.73,0.36 -0.64,0.78l0.28 1.43c0.18,0.91 0.99,1.57 1.92,1.57l3.96 0c0.93,0 1.73,-0.66 1.92,-1.57l0.18 -0.91 9.25 0 0.18 0.91c0.18,0.91 0.99,1.57 1.92,1.57l3.96 0c0.93,0 1.73,-0.66 1.92,-1.57l0.18 -0.91 2.88 0c1.81,0 3.27,-1.46 3.27,-3.26l0 -35.56c0,-1.81 -1.46,-3.27 -3.27,-3.27l0 0zm-2.61 5.23l-25.24 0c-0.36,-0.01 -0.65,0.29 -0.66,0.65l0.01 30.34c-0.01,0.35 0.29,0.65 0.65,0.65l25.24 0c0.36,0 0.65,-0.29 0.66,-0.66l0 -2.35 0.65 0.01c0.36,-0.01 0.65,-0.3 0.65,-0.66l0 -6.96c0,-0.36 -0.29,-0.66 -0.65,-0.66l-0.66 0 0 -9.09 0.66 0c0.36,0 0.65,-0.29 0.65,-0.66l0 -6.96c0,-0.36 -0.29,-0.65 -0.65,-0.65l-0.65 0 -0.01 -2.35c0.01,-0.36 -0.29,-0.66 -0.65,-0.65l0 0zm0.66 9.96l-1.31 0 0 -1.52c0,-0.36 -0.29,-0.65 -0.65,-0.65 -0.36,0 -0.66,0.29 -0.66,0.65l0 2.17c0,0.36 0.3,0.66 0.66,0.66l0.65 0 0 9.09 -0.65 0c-0.36,0 -0.66,0.3 -0.66,0.66l0 2.17c0,0.36 0.3,0.66 0.66,0.66 0.36,0 0.65,-0.3 0.65,-0.65l0 -1.53 1.31 0 -0.01 5.66 -1.3 0 0 -1.52c0,-0.37 -0.29,-0.66 -0.65,-0.66 -0.36,0 -0.66,0.29 -0.66,0.66l0 2.17c0,0.36 0.3,0.65 0.66,0.66l0.65 -0.01 0 1.7 -23.94 0 0 -29.03 23.94 0 0 1.7 -0.65 0c-0.36,0 -0.66,0.29 -0.66,0.65l0 2.18c0,0.36 0.3,0.65 0.66,0.65 0.36,0 0.65,-0.29 0.65,-0.65l0 -1.53 1.31 0 0 5.66zm-13.28 -2.63c-4.69,0 -8.49,3.79 -8.49,8.49 0,4.69 3.8,8.48 8.49,8.48 4.69,0 8.49,-3.79 8.49,-8.48 0,-4.7 -3.8,-8.49 -8.49,-8.49zm4.52 7.83c-0.11,-0.76 -0.41,-1.47 -0.86,-2.08l1.86 -1.86c0.94,1.12 1.5,2.49 1.63,3.94l-2.63 0zm-7.26 4.32c0.59,0.44 1.29,0.74 2.09,0.86l0 2.63c-1.46,-0.13 -2.83,-0.7 -3.95,-1.64l1.86 -1.85zm3.39 0.86c0.76,-0.11 1.48,-0.42 2.08,-0.86l1.87 1.86c-1.12,0.93 -2.49,1.5 -3.95,1.63l0 -2.63 0 0zm2.57 -3.98c-0.3,1.77 -1.99,2.97 -3.77,2.67 -1.77,-0.29 -2.97,-1.98 -2.67,-3.76 0.11,-0.65 0.41,-1.26 0.91,-1.76 0.24,-0.25 0.25,-0.63 0.04,-0.89 0,0 0,0 0,0l-2.33 -2.33c1.12,-0.93 2.49,-1.5 3.95,-1.63l0 3.29c0,0 0,0 0,0 0.03,0.34 0.31,0.6 0.65,0.6 2.03,0 3.55,1.83 3.22,3.81l0 0zm-0.48 -4.2c-0.6,-0.45 -1.3,-0.75 -2.09,-0.87l0 -2.62c1.46,0.12 2.83,0.69 3.95,1.63l-1.86 1.86zm-8.26 -0.94l1.86 1.86c-0.44,0.59 -0.74,1.29 -0.86,2.08l-2.63 0c0.13,-1.45 0.69,-2.82 1.63,-3.94zm-1.63 5.25l2.63 0c0.11,0.76 0.41,1.48 0.86,2.08l-1.86 1.86c-0.94,-1.12 -1.5,-2.48 -1.63,-3.94l0 0zm12.67 3.94l-1.86 -1.86c0.45,-0.6 0.75,-1.3 0.86,-2.08l2.63 0c-0.13,1.46 -0.69,2.82 -1.63,3.94zm-12.04 17.1c-0.06,0.31 -0.33,0.53 -0.64,0.53l-3.96 0c-0.31,0 -0.58,-0.22 -0.64,-0.53l-0.13 -0.65 5.5 0 -0.13 0.65zm17.41 0c-0.06,0.31 -0.33,0.52 -0.64,0.53l-3.96 -0.01c-0.31,0.01 -0.57,-0.21 -0.64,-0.52l-0.13 -0.65 5.5 0 -0.13 0.65z"/>
 </g>
</svg>
