<?xml version="1.0" encoding="UTF-8"?>
<!DOCTYPE svg PUBLIC "-//W3C//DTD SVG 1.1//EN" "http://www.w3.org/Graphics/SVG/1.1/DTD/svg11.dtd">
<!-- Creator: CorelDRAW 2018 (64-Bit) -->
<svg xmlns="http://www.w3.org/2000/svg" xml:space="preserve" width="45px" height="45px" version="1.1" style="shape-rendering:geometricPrecision; text-rendering:geometricPrecision; image-rendering:optimizeQuality; fill-rule:evenodd; clip-rule:evenodd"
viewBox="0 0 45 45"
 xmlns:xlink="http://www.w3.org/1999/xlink">
 <defs>
  <style type="text/css">
   <![CDATA[
    .fil0 {fill:url(#id0)}
   ]]>
  </style>
  <linearGradient id="id0" gradientUnits="userSpaceOnUse" x1="12.97" y1="15.62" x2="31.7" y2="15.62">
   <stop offset="0" style="stop-opacity:1; stop-color:#FECC00"/>
   <stop offset="1" style="stop-opacity:1; stop-color:#BA782D"/>
  </linearGradient>
 </defs>
 <g id="Warstwa_x0020_1">
  <metadata id="CorelCorpID_0Corel-Layer"/>
  <path class="fil0" d="M6.6 12.35l1.22 0 0 10.28c0,0.68 0.56,1.23 1.24,1.23l1.4 0c0.68,0 1.23,-0.55 1.23,-1.23l0 -10.28 1.23 0c0.3,0 0.58,-0.16 0.73,-0.43 0.14,-0.26 0.14,-0.58 -0.02,-0.84l-3.16 -5.2c-0.15,-0.25 -0.42,-0.4 -0.71,-0.4 -0.3,0 -0.56,0.15 -0.71,0.4l0 0 -3.16 5.2c-0.16,0.26 -0.17,0.58 -0.02,0.84 0.15,0.27 0.43,0.43 0.73,0.43zm33.79 7.6l-20.74 0c-0.37,0 -0.66,0.3 -0.66,0.66 0,0.37 0.29,0.66 0.66,0.66l20.74 0c0.36,0 0.66,-0.29 0.66,-0.66 0,-0.36 -0.3,-0.66 -0.66,-0.66l0 0zm0 2.64l-20.74 0c-0.37,0 -0.66,0.29 -0.66,0.66 0,0.36 0.29,0.66 0.66,0.66l20.74 0c0.36,0 0.66,-0.3 0.66,-0.66 0,-0.37 -0.3,-0.66 -0.66,-0.66l0 0zm0 2.63l-13.98 0c-0.36,0 -0.66,0.3 -0.66,0.66 0,0.37 0.3,0.66 0.66,0.66l13.98 0c0.36,0 0.66,-0.29 0.66,-0.66 0,-0.36 -0.3,-0.66 -0.66,-0.66l0 0zm0 2.64l-9.85 0c-0.36,0 -0.65,0.3 -0.65,0.66 0,0.36 0.29,0.66 0.65,0.66l9.85 0c0.36,0 0.66,-0.3 0.66,-0.66 0,-0.36 -0.3,-0.66 -0.66,-0.66l0 0zm-10.22 10.39c0.31,0.19 0.72,0.09 0.91,-0.22l1.18 -1.9 0.88 1.65c0.19,0.35 0.54,0.57 0.94,0.58 0.39,0.01 0.76,-0.19 0.96,-0.52l1.07 -1.71 0.89 1.67c0.18,0.35 0.53,0.56 0.92,0.58 0.02,0 0.03,0 0.05,0 0.37,0 0.71,-0.18 0.92,-0.5l2 -3.06c0.19,-0.31 0.11,-0.72 -0.2,-0.91 -0.3,-0.2 -0.71,-0.12 -0.91,0.19l-1.79 2.75 -0.9 -1.68c-0.19,-0.35 -0.54,-0.57 -0.94,-0.58 -0.39,-0.02 -0.76,0.18 -0.96,0.52l-1.06 1.71 -0.89 -1.65c-0.18,-0.35 -0.54,-0.57 -0.93,-0.58 -0.39,-0.02 -0.77,0.18 -0.97,0.52l-1.38 2.23c-0.19,0.31 -0.1,0.71 0.21,0.91zm0.33 2.8l9.89 0c0.36,0 0.66,-0.3 0.66,-0.66 0,-0.37 -0.3,-0.66 -0.66,-0.66l-9.89 0c-0.37,0 -0.66,0.29 -0.66,0.66 0,0.36 0.29,0.66 0.66,0.66zm13.41 -33.23l-6.73 -6.72c-0.7,-0.71 -1.64,-1.1 -2.64,-1.1l-17.53 0c-1.09,0 -1.98,0.89 -1.98,1.98l0 23.24 -10.85 0c-0.85,0 -1.54,0.69 -1.54,1.54l0 1.32c0,0.07 0.01,0.15 0.02,0.22l-1.12 0c-0.85,0 -1.54,0.69 -1.54,1.54l0 1.32c0,0.85 0.69,1.54 1.54,1.54l1.12 0c-0.01,0.07 -0.02,0.14 -0.02,0.22l0 1.32c0,0.07 0.01,0.14 0.02,0.21l-1.12 0c-0.85,0 -1.54,0.69 -1.54,1.54l0 1.32c0,0.85 0.69,1.54 1.54,1.54l1.12 0c-0.01,0.07 -0.02,0.14 -0.02,0.22l0 1.32c0,0.07 0.01,0.15 0.02,0.22l-1.12 0c-0.85,0 -1.54,0.69 -1.54,1.54l0 1.31c0,0.85 0.69,1.54 1.54,1.54l41.48 0c1.09,0 1.98,-0.89 1.98,-1.98l0 -25.05c0,-0.36 -0.3,-0.65 -0.66,-0.65 -0.36,0 -0.66,0.29 -0.66,0.65l0 25.05c0,0.37 -0.29,0.66 -0.66,0.66l-22.65 0c0.01,-0.07 0.02,-0.14 0.02,-0.22l0 -1.31c0,-0.08 -0.01,-0.15 -0.02,-0.23l1.12 0c0.85,0 1.54,-0.68 1.54,-1.53l0 -1.32c0,-0.85 -0.69,-1.54 -1.54,-1.54l-1.12 0c0.01,-0.07 0.02,-0.14 0.02,-0.22l0 -1.32c0,-0.07 -0.01,-0.15 -0.02,-0.22l1.12 0c0.85,0 1.54,-0.69 1.54,-1.53l0 -1.32c0,-0.85 -0.69,-1.55 -1.54,-1.55l-1.12 0c0.01,-0.06 0.02,-0.14 0.02,-0.21l0 -1.32c0,-0.08 -0.01,-0.15 -0.02,-0.22l1.12 0c0.85,0 1.54,-0.69 1.54,-1.54l0 -1.32c0,-0.85 -0.69,-1.54 -1.54,-1.54l-5.14 0 0 -23.24c0,-0.36 0.3,-0.66 0.66,-0.66l17.49 0c0.36,0 0.66,0.29 0.66,0.66l0 1.98 -15.08 0c-0.6,0 -1.09,0.49 -1.09,1.09l0 11.17c0,0.6 0.49,1.1 1.09,1.1l19.87 0c0.6,0 1.1,-0.5 1.1,-1.1l0 -6.37 1.97 0c0.37,0 0.66,0.29 0.66,0.65l0 0.66 0 3.74c0,0.36 0.3,0.66 0.66,0.66 0.36,0 0.66,-0.3 0.66,-0.66l0 -4.44c0,-1 -0.39,-1.94 -1.09,-2.64l0 0zm-22.2 31.25l0 1.32c0,0.12 -0.1,0.22 -0.22,0.22l-12.48 0c-0.36,0 -0.66,0.29 -0.66,0.66 0,0.36 0.3,0.65 0.66,0.65l9.84 0c0.13,0 0.22,0.1 0.22,0.23l0 1.31c0,0.12 -0.09,0.22 -0.22,0.22l-17.31 0c-0.12,0 -0.22,-0.1 -0.22,-0.22l0 -1.31c0,-0.13 0.1,-0.23 0.22,-0.23l4.39 0c0.37,0 0.66,-0.29 0.66,-0.65 0,-0.37 -0.29,-0.66 -0.66,-0.66l-1.75 0c-0.12,0 -0.22,-0.1 -0.22,-0.22l0 -1.32c0,-0.12 0.1,-0.22 0.22,-0.22l14.67 0 -16.21 0c0.12,0 0.22,0.1 0.22,0.22l18.85 0zm-2.64 -3.08l0 1.32c0,0.12 -0.09,0.22 -0.22,0.22l-17.31 0c-0.12,0 -0.22,-0.1 -0.22,-0.22l0 -1.32c0,-0.12 0.1,-0.22 0.22,-0.22l2.64 0 10.5 0c0.12,0 0.22,0.1 0.22,0.22l4.17 0zm2.64 -3.07l0 1.32c0,0.12 -0.1,0.21 -0.22,0.21l-17.31 0c-0.12,0 -0.22,-0.09 -0.22,-0.21l0 -1.32c0,-0.12 0.1,-0.22 0.22,-0.22l17.31 0c0.12,0 0.22,0.1 0.22,0.22l0 0zm-2.64 -3.08l0 1.32c0,0.12 -0.09,0.21 -0.22,0.21l-17.31 0c-0.12,0 -0.22,-0.09 -0.22,-0.21l0 -1.32c0,-0.12 0.1,-0.22 0.22,-0.22l17.31 0c0.13,0 0.22,0.1 0.22,0.22l0 0zm2.64 -3.08l0 1.32c0,0.12 -0.1,0.22 -0.22,0.22l-17.31 0c-0.12,0 -0.22,-0.1 -0.22,-0.22l0 -1.32c0,-0.12 0.1,-0.22 0.22,-0.22l17.31 0c0.12,0 0.22,0.1 0.22,0.22zm21.04 -18.24l-5.61 0c-0.37,0 -0.66,-0.29 -0.66,-0.65l0 -5.62 6.27 6.27zm-3.02 7.48l-19.43 0 0 -10.73 14.86 0 0 2.6c0,1.09 0.88,1.98 1.98,1.98l2.59 0 0 6.15zm-35.86 7.86l1.41 0c0.68,0 1.23,-0.55 1.23,-1.23l0 -6.41c0,-0.68 -0.55,-1.23 -1.23,-1.23l-1.41 0c-0.68,0 -1.23,0.55 -1.23,1.23l0 6.41c0,0.68 0.55,1.23 1.23,1.23l0 0zm0.09 -7.56l1.23 0 0 6.25 -1.23 0 0 -6.25zm6.21 -9.73c0,0 0,0 0,0l0 0zm-0.41 0.68l2.3 3.78 -0.46 0c-0.67,0 -1.23,0.55 -1.23,1.23l0 10.29 -1.23 0 0 -10.29c0,-0.68 -0.55,-1.23 -1.22,-1.23l-0.46 0 2.3 -3.78z"/>
 </g>
</svg>
