<?xml version="1.0" encoding="UTF-8"?>
<!DOCTYPE svg PUBLIC "-//W3C//DTD SVG 1.1//EN" "http://www.w3.org/Graphics/SVG/1.1/DTD/svg11.dtd">
<!-- Creator: CorelDRAW 2018 (64-Bit) -->
<svg xmlns="http://www.w3.org/2000/svg" xml:space="preserve" width="155222px" height="158750px" version="1.1" style="shape-rendering:geometricPrecision; text-rendering:geometricPrecision; image-rendering:optimizeQuality; fill-rule:evenodd; clip-rule:evenodd"
viewBox="0 0 155222.86 159521.94"
 xmlns:xlink="http://www.w3.org/1999/xlink">
 <defs>
  <style type="text/css">
   <![CDATA[
    .fil0 {fill:url(#id0)}
   ]]>
  </style>
  <linearGradient id="id0" gradientUnits="userSpaceOnUse" x1="44753.68" y1="55379.91" x2="109340.36" y2="55379.91">
   <stop offset="0" style="stop-opacity:1; stop-color:#FECC00"/>
   <stop offset="1" style="stop-opacity:1; stop-color:#BA782D"/>
  </linearGradient>
 </defs>
 <g id="Warstwa_x0020_1">
  <metadata id="CorelCorpID_0Corel-Layer"/>
  <path class="fil0" d="M56427.33 5780.23c-1081.13,-142.46 -2189.6,-215.59 -3314.61,-215.59 -1723.45,0 -3408.74,171.71 -5036.16,492.87 -1673.21,330.69 -3288.54,826.74 -4823.11,1463.97 -1572.73,648.04 -3065.96,1452.53 -4461.25,2386.75 -1409.92,941.86 -2726.35,2024.9 -3925.14,3224.31 -1198.78,1198.79 -2283.09,2515.86 -3225.58,3924.5 -930.41,1390.85 -1733.62,2884.71 -2386.11,4459.98 -637.23,1535.21 -1132.01,3151.18 -1464.62,4821.84 -321.79,1629.33 -492.86,3312.71 -492.86,5036.16 0,2516.48 324.97,5034.24 920.86,7535.47 637.87,2674.2 1582.9,5321.7 2770.87,7923.41 1111.66,2435.72 2449.72,4853 3956.94,7228.3 1621.69,2557.83 3434.18,5055.24 5370.03,7468.06 2311.08,2880.9 4805.31,5652.4 7368.22,8280.18 2917.14,2988.37 5938.58,5801.85 8896.42,8383.84 3621.79,3161.99 7166.62,5986.28 10328.61,8376.22 4815.47,3640.86 8721.53,6252.1 10682.83,7523.38 1960.02,-1271.28 5864.81,-3882.52 10679.01,-7524.66 3163.9,-2391.2 6709.37,-5217.4 10331.15,-8380.02 2776.6,-2426.82 5610.43,-5055.87 8366.67,-7850.91 2752.43,-2788.68 5429.82,-5743.34 7896.7,-8818.2 2068.14,-2578.81 3991.91,-5247.3 5692.46,-7982.55 1568.28,-2519.04 2948.31,-5097.85 4072.68,-7709.73 1054.42,-2447.8 1885.62,-4919.78 2442.08,-7398.74 523.4,-2335.24 807.67,-4691.47 807.67,-7054.05 0,-1724.09 -170.44,-3406.83 -492.87,-5035.52 -332.6,-1675.76 -826.11,-3291.09 -1461.43,-4825.66 -655.04,-1574 -1456.98,-3067.86 -2388.66,-4461.25 -942.49,-1408.65 -2024.89,-2725.08 -3221.77,-3922.59 -1205.14,-1201.96 -2521.57,-2284.36 -3921.95,-3221.77 -1392.12,-931.67 -2886.62,-1734.89 -4461.89,-2388.02 -1536.47,-637.23 -3150.54,-1132.01 -4823.74,-1462.7 -1626.79,-322.44 -3310.8,-492.87 -5033.62,-492.87 -1124.37,0 -2232.21,73.13 -3313.98,215.59 -1098.93,144.36 -2193.42,366.31 -3268.82,653.13 -1084.31,291.27 -2144.45,649.95 -3164.53,1069.68 -1025.8,421.64 -2036.34,918.32 -3018.26,1479.87 -983.83,565.37 -1923.14,1183.52 -2803.31,1851.28 -882.71,669.03 -1732.35,1402.92 -2535.56,2194.69 -793.68,784.14 -1540.93,1619.79 -2230.31,2501.86 -677.3,866.18 -1307.53,1788.32 -1878.62,2755.61l-187.61 279.19 -225.13 255.65 -265.19 228.95 -288.09 188.24 -307.81 145c-94.12,42.61 -200.96,78.86 -319.88,108.11 -285.55,58.51 -383.49,69.96 -674.76,90.31l-339.6 -22.89 -329.42 -62.96c-109.39,-26.71 -218.14,-64.87 -321.8,-106.21l-314.16 -151.36 -289.36 -192.69 -260.11 -225.77c-195.24,-218.13 -249.3,-290.63 -412.1,-533.57 -572.36,-967.29 -1201.96,-1888.79 -1879.9,-2755.61 -690.01,-882.07 -1437.26,-1718.99 -2229.67,-2502.49 -805.12,-791.14 -1653.49,-1525.03 -2536.84,-2194.06 -880.16,-667.76 -1818.84,-1287.82 -2803.3,-1851.28 -982.56,-561.55 -1991.19,-1056.96 -3017.62,-1479.87 -1020.72,-419.73 -2078.95,-779.69 -3163.26,-1069.68 -1075.41,-286.82 -2169.26,-508.77 -3268.83,-653.13zm20001.53 94122.5l-361.22 -185.7c-960.93,-585.08 -11256.47,-6949.12 -22615.96,-16775.31 -5958.93,-5152.54 -12215.49,-11261.56 -17574.71,-17988.73 -4296.54,-5391.65 -8023.26,-11194.14 -10572.18,-17227.48 -2241.75,-5312.16 -3569.63,-10800.48 -3569.63,-16350.49 0,-4239.3 847.73,-8289.09 2381.02,-11985.92 1593.72,-3840.55 3926.41,-7297.62 6819.39,-10190.6 2891.7,-2891.06 6349.41,-5224.39 10189.33,-6817.47 3696.82,-1534.57 7748.52,-2381.03 11987.82,-2381.03 2416,0 4805.3,284.91 7117.01,830.56 2349.23,555.19 4625.96,1381.3 6776.14,2449.71 2162.26,1074.77 4198.59,2396.93 6064.5,3937.86 1647.13,1360.32 3167.07,2898.7 4522.3,4592.26 1355.86,-1693.56 2875.17,-3230.04 4522.3,-4591.62 1864.63,-1540.93 3902.24,-2863.73 6060.68,-3937.22 2154,-1069.69 4430.09,-1895.8 6779.96,-2449.72 2312.98,-545.65 4702.28,-831.83 7119.55,-831.83 4239.94,0 8287.82,846.46 11984.64,2381.03 3840.56,1593.08 7298.26,3927.68 10188.7,6816.84 2891.7,2892.97 5225.67,6350.04 6818.11,10191.23 1532.66,3695.56 2381.03,7746.62 2381.03,11985.92 0,5549.37 -1327.88,11038.33 -3569,16347.95 -2547.02,6033.97 -6275.01,11833.91 -10571.54,17226.84 -5358.59,6725.9 -11611.97,12834.28 -17568.99,17987.45 -11361.4,9828.11 -21660.75,16196.6 -22619.78,16780.41 -124.01,74.4 -244.84,134.82 -360.59,185.06 -113.2,50.24 -242.3,93.49 -379.66,131.64 -122.74,33.71 -256.29,63.6 -389.21,80.77 -140.55,17.81 -274.1,27.35 -395.57,27.35 -120.83,0 -257.56,-9.54 -396.83,-27.35 -130.38,-17.17 -262.02,-45.15 -390.48,-80.77 -127.19,-32.43 -253.11,-78.85 -377.13,-131.64zm-5613.6 -21344.68c-204.14,43.25 -407.02,65.51 -599.08,65.51 -281.09,0 -565.36,-42.61 -835.64,-122.74 -271.56,-80.77 -531.67,-202.87 -769.51,-356.78 -232.77,-151.35 -448.99,-340.87 -632.78,-558.37 -175.53,-209.23 -326.25,-450.26 -442.63,-719.9 -2854.18,-6511.58 -5588.8,-13622.87 -7571.09,-20627.32 -1646.49,-5823.47 -2779.14,-11587.8 -3032.88,-16898.05 -224.5,-4687.65 235.94,-9031.25 1628.69,-12759.24 1282.09,-3431 3348.32,-6330.97 6383.75,-8492.59l9.54 -8.9c325.61,-230.22 679.2,-386.03 1041.06,-467.43 379.03,-84.59 766.33,-96.03 1137.73,-31.8 371.4,62.96 734.53,200.33 1058.24,400.65 309.71,193.97 586.35,446.45 810.84,751.07l31.8 45.15c227.68,322.43 383.48,676.03 465.52,1037.89 85.86,375.21 95.4,765.06 33.71,1139.63 -62.96,371.4 -202.87,740.26 -408.92,1067.78 -199.06,317.34 -464.89,602.25 -788.59,831.2 -2263.38,1612.15 -3747.7,3913.05 -4621.51,6679.47 -1001,3167.71 -1207.69,6954.21 -868.08,11037.7 402.56,4841.55 1570.18,10093.29 3092.03,15240.11 2012.17,6804.12 4646.31,13432.71 6959.29,18711.17 157.72,361.22 235.94,739.62 244.21,1111.02 6.99,386.03 -62.96,769.51 -199.06,1123.74 -138,354.86 -347.87,684.93 -617.51,966.66 -260.75,267.1 -575.55,492.23 -932.95,648.67l-279.83 108.12 -296.35 77.58zm-55797.73 39666.65c-255.66,256.29 -566.01,466.15 -906.88,608.61 -329.43,135.46 -690.02,209.23 -1065.87,209.23 -375.21,0 -737.07,-73.77 -1067.14,-209.23 -341.51,-141.82 -649.95,-352.32 -908.15,-607.98 -256.92,-256.29 -466.79,-567.27 -608.61,-905.6 -136.73,-329.43 -213.68,-689.38 -213.68,-1065.23 0,-377.76 76.95,-741.53 212.41,-1069.69 142.46,-343.41 352.32,-651.85 607.98,-908.14 256.29,-257.57 566.64,-469.34 908.15,-609.89 330.06,-136.09 691.92,-211.14 1069.04,-211.14 375.85,0 737.71,75.05 1066.5,211.14 342.79,144.36 650.59,352.32 906.88,609.89 256.93,256.29 466.16,567.91 606.71,908.14 135.46,328.16 212.41,691.93 212.41,1069.69 0,375.21 -76.95,733.89 -212.41,1065.23 -142.46,338.33 -351.05,648.04 -607.34,904.97zm-9451.62 28632.76l14354.22 0 0 -36708.17 -14354.22 0 0 36708.17zm106443.56 -22083.03c-825.47,259.47 -1652.22,507.5 -2479.6,746.62 206.05,1568.27 315.44,3668.84 -156.44,5204.05 2902.51,-736.44 5615.51,-1511.68 8146.62,-2297.72 2690.11,-836.92 5161.44,-1685.29 7429.27,-2513.31 4538.84,-1655.4 8325.34,-3266.28 11450.44,-4596.07 108.11,-27.98 266.46,-106.84 377.12,-151.36 448.99,-172.34 1154.9,-448.99 1224.86,-500.5l546.28 -547.56 508.77 -574.27c149.45,-178.7 294.45,-363.77 431.18,-550.74 114.47,-159.63 234.03,-340.24 352.96,-535.48 101.12,-160.89 193.97,-330.06 277.28,-501.77 76.95,-158.35 145.63,-319.89 200.96,-484.6 50.88,-147.54 91.58,-291.9 113.84,-421 22.89,-130.37 38.15,-255.02 38.15,-368.22l-31.16 -331.97 -55.96 -195.24 -89.67 -206.05 -146.27 -241.67 -199.69 -251.2 -293.82 -301.45 -338.96 -284.9c-169.8,-103.67 -612.43,-76.32 -1237.58,38.79 -760.61,141.82 -1721.54,431.81 -2777.87,805.12 -2092.94,737.71 -4601.16,1815.03 -6743.7,2735.9 -1405.47,508.13 -2962.3,1257.29 -4367.13,1844.91l-2232.85 907.51 -2348.59 918.96 -2443.36 908.79c-854.72,308.44 -1700.55,607.34 -2529.2,887.16 -861.73,292.54 -1739.35,581.27 -2625.88,857.27zm22004.81 13147.81c4057.41,-2395.65 8054.41,-5118.19 11945.21,-8200.68l33.7 -24.81c190.79,-135.46 444.54,-331.97 729.45,-569.82 236.57,-197.14 490.96,-423.54 742.16,-664.57 226.4,-216.86 449.62,-443.27 656.31,-672.21 183.15,-202.87 369.49,-424.82 548.83,-660.13 158.99,-213.04 305.9,-426.09 429.27,-629.59 116.38,-191.43 219.41,-384.76 304.63,-583.18 75.68,-170.44 137.36,-342.14 180.61,-511.95 40.06,-164.07 66.77,-326.88 72.5,-477.6l-17.81 -343.42 -47.7 -201.6 -82.67 -216.22 -139.27 -254.39 -192.06 -269.01 -288.09 -320.52 -358.68 -330.7c-56.6,-47.69 -157.09,-80.76 -294.45,-101.75 -204.78,-31.16 -461.71,-26.71 -758.07,9.54 -323.06,39.43 -681.74,113.2 -1068.41,214.32 -396.2,101.75 -845.82,240.39 -1330.42,405.1 -442.63,146.91 -934.22,327.52 -1461.43,528.48l-1600.71 634.05 -1713.27 708.46c-606.07,259.47 -1280.19,511.31 -1864.63,795.59 -3864.09,1638.23 -8709.46,3696.82 -14708.45,5756.06 -2995.37,1027.07 -6309.99,2070.04 -9977.56,3074.86 -3659.3,1001.63 -7630.86,1956.2 -11928.04,2809.66l-45.79 4.45c-497.95,185.07 -1004.81,356.78 -1516.12,509.41 -539.93,160.26 -1105.93,311.62 -1693.56,449.62 -562.19,131.64 -1179.7,258.2 -1843.64,379.67 -640.41,113.83 -1294.18,219.4 -1955.58,308.44 -667.12,88.39 -1375.57,169.8 -2117.1,241.02 -746.62,70.6 -1498.32,127.83 -2251.29,172.35 -743.44,43.24 -1539.02,78.86 -2379.76,101.12 -872.54,22.89 -1717.73,34.97 -2533.02,34.97l-2276.74 -26.71 -2354.31 -71.22 -2460.53 -121.47 -2564.18 -171.71 -2655.77 -220.68 -2770.23 -269.01 -2864.36 -317.98 -2943.22 -366.31c-178.06,-20.35 -349.14,-59.78 -508.76,-115.74 -162.81,-55.33 -320.53,-127.83 -463.62,-210.51 -141.81,-77.58 -283,-180.61 -416.55,-296.99 -128.46,-108.11 -248.02,-237.21 -356.14,-377.76 -104.93,-137.37 -199.05,-287.45 -276,-442.63 -75.04,-150.08 -136.73,-314.16 -181.25,-480.14 -43.24,-160.27 -73.14,-330.7 -84.58,-502.41 -11.45,-167.26 -7,-338.97 12.08,-510.68l1.91 -20.35c24.8,-169.8 63.59,-337.69 118.29,-497.95 54.05,-165.35 126.55,-324.34 209.23,-470.61 82.67,-147.54 185.7,-289.36 300.81,-419.1 111.92,-131.01 237.84,-249.93 372.03,-352.32 136.1,-106.21 284.91,-199.06 440.72,-276.64 153.27,-75.68 317.34,-138 482.06,-181.89 166.62,-41.97 337.06,-71.22 508.13,-82.03 162.8,-9.54 324.34,-6.36 485.23,10.81l41.98 6.36c2093.57,272.19 4093.03,503.04 5992,697.01 1942.85,197.14 3804.94,358.68 5585.62,485.23 1847.46,129.1 3549.29,218.77 5114.38,269.01 1676.39,54.06 3223.04,71.87 4643.77,54.06 1507.22,-17.81 2905.06,-76.95 4194.78,-165.99 1360.32,-92.85 2577.54,-223.22 3665.03,-377.75 1203.87,-171.08 2246.85,-372.68 3142.27,-590.17 1001.64,-242.3 1844.28,-510.68 2549.56,-787.32l113.84 -45.15c1025.8,-410.83 1795.31,-845.19 2375.3,-1277.64 555.83,-417.19 935.5,-824.21 1189.25,-1199.42 246.11,-362.5 382.21,-701.46 457.25,-988.28 75.04,-283 93.49,-529.76 103.66,-696.38l2.55 -26.07c20.35,-360.59 31.16,-697.01 29.89,-1008 -0.64,-299.53 -15.9,-613.06 -40.7,-930.4 -23.54,-307.81 -59.78,-596.53 -104.3,-859.82 -45.16,-267.1 -102.39,-531.02 -170.44,-782.86 -69.32,-256.93 -149.45,-496.69 -236.58,-714.82 -84.58,-214.32 -187.6,-429.27 -302.71,-639.14 -108.75,-197.78 -229.58,-387.3 -358.68,-559.64 -120.2,-160.26 -262.65,-324.98 -424.82,-486.51 -345.96,-351.05 -730.72,-621.97 -1119.93,-833.74 -489.05,-263.29 -986.37,-435 -1432.17,-541.84 -801.31,-196.51 -1465.25,-197.15 -1624.24,-197.15l-31.16 -1.27c-5717.27,96.67 -10258.02,17.81 -13923.05,-197.15 -3684.1,-214.95 -6517.3,-574.27 -8788.94,-1032.16 -2283.09,-463.61 -3998.91,-1028.98 -5446.99,-1659.21 -1451.89,-629.6 -2616.97,-1311.35 -3819.56,-2016.63l-35.62 -20.98c-1161.26,-680.48 -2366.4,-1385.76 -3990,-2054.15 -1626.78,-669.03 -3699.37,-1315.16 -6616.52,-1879.26 -2931.13,-567.91 -6716.35,-1056.96 -11755.69,-1411.83 -5006.9,-352.95 -11224.03,-576.81 -19030.42,-615.6l0 37409.62c2207.41,661.4 6371.67,1821.39 11960.47,2965.48 5794.85,1184.15 13155.44,2366.4 21540.55,2988.37 4968.11,368.85 10285.36,543.74 15827.74,407.65 5543.01,-136.1 11335.96,-582.54 17265.64,-1455.08 4968.11,-730.08 10021.43,-1757.15 15084.93,-3147.99 4683.84,-1284.64 9403.92,-2888.53 14100.48,-4859.36 4392.56,-1844.28 8757.78,-4010.99 13042.24,-6537.02zm16574.98 -20129.36c531.67,227.04 1037.25,538.66 1514.86,938.68 635.96,536.11 1147.27,1081.13 1554.28,1617.24 462.34,609.88 802.58,1226.13 1041.06,1820.11 228.31,566.64 368.86,1112.93 445.17,1619.15 75.05,503.05 89.04,979.38 70.6,1405.47 -59.15,1254.75 -433.09,2426.82 -969.2,3481.24 -524.67,1030.89 -1207.69,1956.21 -1895.8,2739.07 -492.86,559.64 -1005.45,1061.42 -1469.06,1477.97 -772.05,694.47 -1410.56,1152.99 -1607.07,1287.81 -5447.62,4315.62 -11080.94,7952.03 -16802.02,10992.55 -6185.97,3290.45 -12494.68,5895.33 -18800.21,7931.67 -6951.03,2243.67 -13892.52,3794.77 -20664.2,4806.58 -7683.65,1149.81 -15172.7,1610.25 -22228.03,1610.88 -4311.79,3.82 -8465.88,-170.44 -12407.55,-461.07 -4493.04,-331.33 -8707.54,-819.11 -12558.27,-1381.3 -4759.52,-697.65 -8996.27,-1516.76 -12543.65,-2304.08 -6070.22,-1346.96 -10071.67,-2595.34 -11270.46,-2986.46 -362.49,-122.1 -10337.5,-41.34 -15783.85,2.54l-3283.46 26.08c-391.11,0 -771.41,-80.13 -1121.19,-223.86 -358.68,-146.27 -683.66,-365.67 -950.12,-630.87 -267.74,-266.47 -487.15,-590.81 -635.96,-949.49 -145,-346.59 -225.13,-726.26 -225.13,-1118.01l0 -41982.17c0,-393.66 80.13,-774.6 224.49,-1121.83 150.09,-359.95 368.22,-684.93 634.05,-951.39 265.83,-263.93 590.81,-482.7 955.85,-633.42 347.23,-143.73 726.26,-224.49 1118.01,-224.49l19621.87 0c17623.05,0 27964.37,888.43 34568.8,2162.89 6683.29,1291.63 9574.36,2983.92 12275.91,4565.55l38.16 23.53c2045.24,1203.87 3965.83,2326.97 7965.38,3102.21 2031.88,393.02 4600.52,700.82 7988.91,884.61 3417.64,186.34 7656.3,251.21 12993.9,158.99l22.9 0c168.53,-5.08 1430.9,-43.24 3036.06,333.88 1621.7,379.03 3623.7,1185.43 5303.26,2870.72l401.93 430.54 379.03 464.25 424.18 593.99c1653.5,-473.16 3249.12,-976.2 4783.05,-1493.23 1656.67,-556.47 3280.27,-1146.64 4854.91,-1746.35 1601.34,-611.15 3092.66,-1208.32 4485.41,-1784.49 1298.63,-536.12 2704.1,-1138.37 4067.59,-1724.09l62.33 -25.44c3967.11,-1696.73 7150.08,-3060.23 9772.14,-3713.99 2784.86,-694.47 4942.03,-588.27 6690.28,744.07 567.91,434.36 1046.79,887.79 1446.17,1342.51 444.53,507.49 793.04,1016.89 1060.14,1516.76 307.81,571.09 515.76,1140.91 648.68,1677.02 159.63,642.95 211.14,1246.48 206.69,1771.14l-22.9 452.17 -38.16 345.96c375.22,-73.77 740.26,-130.37 1096.4,-168.53 647.4,-68.68 1261.1,-76.95 1839.83,-9.54 590.8,65.51 1151.72,210.51 1684.01,436.27z"/>
 </g>
</svg>
