<?xml version="1.0" encoding="UTF-8"?>
<!DOCTYPE svg PUBLIC "-//W3C//DTD SVG 1.1//EN" "http://www.w3.org/Graphics/SVG/1.1/DTD/svg11.dtd">
<!-- Creator: CorelDRAW 2018 (64-Bit) -->
<svg xmlns="http://www.w3.org/2000/svg" xml:space="preserve" width="47px" height="45px" version="1.1" style="shape-rendering:geometricPrecision; text-rendering:geometricPrecision; image-rendering:optimizeQuality; fill-rule:evenodd; clip-rule:evenodd"
viewBox="0 0 47 45.19"
 xmlns:xlink="http://www.w3.org/1999/xlink">
 <defs>
  <style type="text/css">
   <![CDATA[
    .fil0 {fill:url(#id0)}
   ]]>
  </style>
  <linearGradient id="id0" gradientUnits="userSpaceOnUse" x1="13.55" y1="15.69" x2="33.11" y2="15.69">
   <stop offset="0" style="stop-opacity:1; stop-color:#FECC00"/>
   <stop offset="1" style="stop-opacity:1; stop-color:#BA782D"/>
  </linearGradient>
 </defs>
 <g id="Warstwa_x0020_1">
  <metadata id="CorelCorpID_0Corel-Layer"/>
  <path class="fil0" d="M8.9 37.46l-8.76 -5.66c-0.06,-7.45 -0.1,-14.89 -0.14,-22.34 7.65,-3.14 15.3,-6.31 22.95,-9.46l3.35 5.46 18.7 -0.04 2 26.96 -10.11 10.32 -1.14 -1.12 9.6 -9.79 -1.83 -24.77 -18.11 0.03 -3.11 -5.06 -20.7 8.54 0.12 20.39 8.04 5.19 -0.86 1.35zm19.42 -24.37l4.56 0 0 32.1 -5.36 0 0 -32.1 0.8 0zm2.96 1.6l-2.15 0 0 28.9 2.15 0 0 -28.9zm-10.34 3.78l4.56 0 0 24.92 -5.36 0 0 -24.92 0.8 0zm2.96 1.6l-2.16 0 0 21.72 2.16 0 0 -21.72zm-10.1 4.65l4.56 0 0 16.92 -5.36 0 0 -16.92 0.8 0zm2.96 1.6l-2.16 0 0 13.72 2.16 0 0 -13.72z"/>
 </g>
</svg>
