<?xml version="1.0" encoding="UTF-8"?>
<!DOCTYPE svg PUBLIC "-//W3C//DTD SVG 1.1//EN" "http://www.w3.org/Graphics/SVG/1.1/DTD/svg11.dtd">
<!-- Creator: CorelDRAW 2018 (64-Bit) -->
<svg xmlns="http://www.w3.org/2000/svg" xml:space="preserve" width="52px" height="45px" version="1.1" style="shape-rendering:geometricPrecision; text-rendering:geometricPrecision; image-rendering:optimizeQuality; fill-rule:evenodd; clip-rule:evenodd"
viewBox="0 0 52 44.85"
 xmlns:xlink="http://www.w3.org/1999/xlink">
 <defs>
  <style type="text/css">
   <![CDATA[
    .fil0 {fill:url(#id0)}
   ]]>
  </style>
  <linearGradient id="id0" gradientUnits="userSpaceOnUse" x1="-0.35" y1="22.42" x2="52.35" y2="22.42">
   <stop offset="0" style="stop-opacity:1; stop-color:#FECC00"/>
   <stop offset="1" style="stop-opacity:1; stop-color:#BA782D"/>
  </linearGradient>
 </defs>
 <g id="Warstwa_x0020_1">
  <metadata id="CorelCorpID_0Corel-Layer"/>
  <path class="fil0" d="M36.5 43.49l-0.07 -0.01c-0.17,-0.02 -0.35,0.03 -0.48,0.12 -0.14,0.1 -0.25,0.26 -0.28,0.44l-0.01 0.12c0,0.17 0.06,0.32 0.16,0.44 0.1,0.12 0.25,0.21 0.41,0.24l0.16 0.01c0.16,0 0.32,-0.06 0.44,-0.16 0.11,-0.1 0.2,-0.24 0.23,-0.41l0.01 -0.11c0,-0.17 -0.06,-0.33 -0.16,-0.45 -0.1,-0.12 -0.25,-0.2 -0.41,-0.23zm7.61 -13.64c0.29,0 0.58,-0.03 0.86,-0.08 0.28,-0.05 0.57,-0.12 0.85,-0.22 1.98,-0.72 3.49,-2.59 4.52,-4.32 1.04,-1.75 1.58,-3.34 1.63,-3.47 0.03,-0.1 0.04,-0.21 0.03,-0.31 -0.02,-0.1 -0.05,-0.2 -0.11,-0.28 -0.06,-0.09 -0.14,-0.17 -0.22,-0.22 -0.09,-0.05 -0.19,-0.08 -0.29,-0.09 -1.56,-0.14 -2.99,-0.08 -4.25,0.18 -1.25,0.24 -2.35,0.68 -3.3,1.31l-0.64 0.43 0.11 -0.77c0.08,-0.53 0.15,-1.03 0.19,-1.51l0.11 -1.77 0.38 0c0.68,0 1.3,-0.11 1.87,-0.32 0.57,-0.22 1.09,-0.55 1.56,-0.98 0.96,-0.88 1.57,-2.12 1.96,-3.38 0.75,-2.49 0.64,-5.05 0.63,-5.21 -0.01,-0.1 -0.04,-0.21 -0.09,-0.3 -0.05,-0.09 -0.13,-0.17 -0.22,-0.23 -0.08,-0.06 -0.19,-0.1 -0.29,-0.11 -0.11,-0.02 -0.22,0 -0.32,0.03 -1.39,0.49 -2.5,1.09 -3.39,1.72 -0.88,0.64 -1.54,1.31 -2.03,1.98l-0.46 0.64c-0.17,-0.86 -0.34,-1.73 -0.57,-2.57l0.09 -0.13c0.39,-0.56 0.65,-1.14 0.78,-1.73 0.13,-0.58 0.14,-1.18 0.03,-1.79 -0.33,-1.78 -1.7,-3.32 -3.01,-4.42 -1.32,-1.11 -2.58,-1.79 -2.69,-1.85 -0.1,-0.05 -0.2,-0.08 -0.3,-0.08 -0.1,0 -0.2,0.02 -0.3,0.06 -0.1,0.04 -0.18,0.11 -0.25,0.19 -0.06,0.07 -0.11,0.17 -0.14,0.27 -0.36,1.48 -0.49,2.84 -0.37,4.05 0.11,1.2 0.46,2.28 1.05,3.21 0.46,0.73 1.02,1.29 1.56,1.71 0.83,0.64 1.66,0.97 2.13,1.11l0.18 0.06 0.05 0.19c0.15,0.62 0.35,1.55 0.51,2.69 0.12,0.83 0.22,1.77 0.27,2.8l0.04 1 -0.65 -0.77c-0.73,-0.86 -1.62,-1.61 -2.45,-2.23 -1.66,-1.2 -3.13,-1.86 -3.16,-1.87 -0.09,-0.03 -0.19,-0.04 -0.28,-0.02 -0.1,0.01 -0.19,0.04 -0.27,0.09 -0.08,0.05 -0.16,0.12 -0.21,0.19 -0.05,0.08 -0.09,0.17 -0.11,0.26 -0.34,1.8 -0.41,3.44 -0.2,4.89 0.22,1.44 0.7,2.7 1.46,3.77 0.75,1.07 1.67,1.8 2.51,2.28 0.84,0.49 1.6,0.73 2.05,0.85l0.35 0.09 -0.11 0.34c-0.04,0.15 -0.57,1.52 -1.11,2.8 -0.32,0.73 -0.64,1.43 -0.89,1.86l-0.45 0.79 -0.18 -0.89c-0.41,-2 -1.68,-3.9 -2.88,-5.31 -1.2,-1.43 -2.33,-2.36 -2.43,-2.44 -0.07,-0.07 -0.17,-0.12 -0.27,-0.14 -0.1,-0.02 -0.21,-0.02 -0.31,0 -0.1,0.02 -0.2,0.07 -0.28,0.13 -0.08,0.07 -0.15,0.15 -0.19,0.25 -0.8,1.72 -1.28,3.34 -1.43,4.85 -0.15,1.5 0.02,2.9 0.5,4.18 0.37,0.96 0.88,1.76 1.42,2.39 0.53,0.64 1.11,1.13 1.59,1.47l0.36 0.26 -0.34 0.28c-0.7,0.6 -1.45,1.17 -2.24,1.71 -0.78,0.53 -1.62,1.04 -2.5,1.52l-0.89 0.49 0.41 -0.93c0.16,-0.35 0.28,-0.72 0.37,-1.09 0.07,-0.34 0.12,-0.7 0.12,-1.07 0,-1.02 -0.35,-1.98 -0.81,-2.79 -0.91,-1.6 -2.25,-2.66 -2.34,-2.72 -0.12,-0.1 -0.27,-0.15 -0.42,-0.15 -0.15,0 -0.3,0.05 -0.42,0.14 -0.09,0.07 -1.43,1.13 -2.34,2.73 -0.46,0.81 -0.8,1.77 -0.8,2.79 0,0.37 0.04,0.73 0.12,1.07 0.08,0.37 0.21,0.74 0.36,1.09l0.41 0.93 -0.89 -0.49c-0.88,-0.48 -1.71,-0.99 -2.5,-1.52 -0.79,-0.54 -1.54,-1.11 -2.24,-1.71l-0.34 -0.28 0.36 -0.26c0.48,-0.34 1.06,-0.83 1.59,-1.47 0.54,-0.63 1.06,-1.43 1.42,-2.39 0.48,-1.28 0.65,-2.68 0.5,-4.18 -0.15,-1.51 -0.63,-3.13 -1.43,-4.85 -0.04,-0.1 -0.11,-0.18 -0.19,-0.25 -0.08,-0.06 -0.17,-0.11 -0.27,-0.13 -0.11,-0.02 -0.22,-0.02 -0.32,0 -0.1,0.02 -0.2,0.07 -0.27,0.14 -0.1,0.08 -1.23,1.01 -2.43,2.44 -1.2,1.41 -2.47,3.3 -2.88,5.31l-0.18 0.89 -0.45 -0.79c-0.25,-0.43 -0.58,-1.14 -0.89,-1.87 -0.54,-1.27 -1.07,-2.64 -1.11,-2.79l-0.1 -0.34 0.34 -0.09c0.45,-0.12 1.21,-0.36 2.05,-0.85 0.84,-0.48 1.76,-1.21 2.51,-2.28 0.76,-1.07 1.25,-2.34 1.46,-3.77 0.21,-1.45 0.15,-3.09 -0.2,-4.89 -0.02,-0.09 -0.06,-0.18 -0.11,-0.26 -0.05,-0.07 -0.12,-0.14 -0.2,-0.19 -0.09,-0.05 -0.18,-0.08 -0.28,-0.09 -0.09,-0.02 -0.19,-0.01 -0.28,0.02 -0.03,0.01 -1.5,0.67 -3.15,1.87 -0.84,0.61 -1.72,1.37 -2.46,2.23l-0.65 0.77 0.04 -1c0.05,-1.03 0.15,-1.98 0.27,-2.8 0.16,-1.14 0.36,-2.07 0.51,-2.69l0.05 -0.19 0.18 -0.05c0.47,-0.15 1.29,-0.48 2.13,-1.12 0.55,-0.42 1.1,-0.98 1.56,-1.71 0.59,-0.93 0.94,-2.01 1.05,-3.21 0.12,-1.21 -0.01,-2.57 -0.37,-4.05 -0.03,-0.1 -0.08,-0.2 -0.14,-0.27 -0.07,-0.08 -0.15,-0.15 -0.25,-0.19 -0.09,-0.04 -0.2,-0.06 -0.3,-0.06 -0.1,0 -0.2,0.03 -0.3,0.08 -0.24,0.13 -5.03,2.7 -5.7,6.27 -0.11,0.61 -0.1,1.21 0.03,1.79 0.13,0.59 0.39,1.17 0.78,1.73l0.09 0.13c-0.23,0.84 -0.4,1.71 -0.56,2.57l-0.47 -0.64c-0.52,-0.71 -1.25,-1.44 -2.23,-2.11 -0.85,-0.59 -1.9,-1.13 -3.19,-1.59 -0.1,-0.03 -0.21,-0.05 -0.32,-0.03 -0.1,0.01 -0.2,0.05 -0.29,0.11 -0.09,0.06 -0.17,0.14 -0.22,0.23 -0.05,0.09 -0.08,0.2 -0.09,0.3 0,0.16 -0.12,2.72 0.64,5.21 0.38,1.26 0.99,2.5 1.95,3.38 0.47,0.43 1,0.76 1.56,0.98 0.57,0.21 1.2,0.32 1.87,0.32l0.38 0 0.11 1.77c0.05,0.48 0.11,0.98 0.19,1.51l0.11 0.77 -0.64 -0.43c-0.95,-0.63 -2.05,-1.07 -3.3,-1.32 -1.26,-0.25 -2.68,-0.31 -4.24,-0.17 -0.11,0.01 -0.21,0.04 -0.3,0.09 -0.08,0.05 -0.16,0.13 -0.21,0.21 -0.07,0.09 -0.1,0.19 -0.11,0.29 -0.02,0.1 -0.01,0.21 0.02,0.31 0.06,0.17 0.99,2.89 2.77,5.14 0.91,1.14 2.04,2.16 3.38,2.65 0.28,0.1 0.56,0.17 0.85,0.22 0.28,0.05 0.57,0.08 0.86,0.08 0.43,0 0.87,-0.06 1.29,-0.17 0.44,-0.11 0.88,-0.28 1.32,-0.5l0.31 -0.16 0.16 0.31c0.13,0.28 0.57,1.01 1.01,1.74 0.42,0.69 0.86,1.38 1.05,1.64l0.49 0.66 -0.81 -0.12c-1.15,-0.16 -2.47,-0.13 -3.97,0.23 -1.51,0.35 -3.21,1.04 -5.08,2.18 -0.09,0.05 -0.16,0.13 -0.22,0.21 -0.05,0.09 -0.09,0.18 -0.1,0.29 -0.02,0.1 0,0.21 0.03,0.3 0.03,0.1 0.09,0.19 0.16,0.26 0.14,0.15 2.36,2.4 5.27,3.91 1.48,0.77 3.15,1.35 4.79,1.35l0.73 -0.03c0.95,-0.11 1.83,-0.42 2.61,-0.93 0.8,-0.51 1.51,-1.23 2.13,-2.15l0.19 -0.28 0.28 0.18c0.59,0.39 1.21,0.77 1.85,1.13 0.65,0.37 1.32,0.71 2,1.04l0.77 0.37 -2.63 0.83 -1.87 0.49c-0.19,0.05 -0.34,0.17 -0.43,0.31 -0.09,0.15 -0.12,0.34 -0.08,0.52 0.04,0.16 0.13,0.29 0.25,0.38 0.11,0.09 0.26,0.14 0.42,0.14l0.17 -0.02c1.05,-0.25 2.06,-0.54 3.04,-0.84 0.99,-0.31 1.95,-0.64 2.86,-1l0.12 -0.04 0.13 0.04c0.9,0.36 1.86,0.69 2.84,1 0.98,0.3 2,0.58 3.06,0.84l0.16 0.02c0.16,0 0.31,-0.05 0.42,-0.14 0.12,-0.09 0.21,-0.22 0.25,-0.38 0.04,-0.18 0.01,-0.37 -0.08,-0.52 -0.09,-0.14 -0.24,-0.26 -0.43,-0.31l-1.86 -0.49 -2.64 -0.83 0.77 -0.37c0.68,-0.32 1.35,-0.67 1.99,-1.04 0.65,-0.36 1.28,-0.74 1.86,-1.13l0.29 -0.18 0.19 0.28c0.62,0.92 1.33,1.64 2.12,2.15 0.79,0.51 1.66,0.82 2.61,0.93l0.73 0.03c1.65,0 3.31,-0.58 4.79,-1.35 2.91,-1.51 5.13,-3.76 5.27,-3.91 0.08,-0.07 0.13,-0.16 0.16,-0.25 0.03,-0.1 0.05,-0.21 0.03,-0.31 -0.01,-0.11 -0.05,-0.21 -0.1,-0.29 -0.06,-0.08 -0.13,-0.16 -0.22,-0.21 -1.74,-1.06 -3.32,-1.72 -4.74,-2.1 -1.64,-0.43 -3.07,-0.48 -4.31,-0.31l-0.81 0.12 0.49 -0.66c0.19,-0.26 0.62,-0.94 1.04,-1.63 0.45,-0.73 0.89,-1.48 1.03,-1.75l0.15 -0.31 0.31 0.16c0.44,0.22 0.88,0.39 1.32,0.5 0.43,0.11 0.86,0.17 1.29,0.17zm4.5 -19.41c-0.07,1.07 -0.27,2.41 -0.69,3.61 -0.32,0.93 -0.79,1.78 -1.44,2.38 -0.33,0.31 -0.71,0.54 -1.13,0.7 -0.41,0.15 -0.87,0.23 -1.36,0.23l-0.31 0 -0.03 -0.31c-0.11,-0.87 -0.1,-2.44 0.93,-4.02 0.67,-1.03 1.77,-2.07 3.53,-2.92l0.53 -0.25 -0.03 0.58zm-4.94 13.8c0.76,-0.64 1.62,-1.16 2.63,-1.52 1.01,-0.36 2.16,-0.56 3.49,-0.56l0.57 0 -0.22 0.48c-0.49,1.11 -1.26,2.52 -2.23,3.68 -0.74,0.87 -1.6,1.59 -2.55,1.94 -0.53,0.18 -1.06,0.25 -1.6,0.2 -0.54,-0.05 -1.09,-0.22 -1.65,-0.51l-0.22 -0.11 0.04 -0.25c0.01,-0.13 0.3,-1.12 0.76,-2.02 0.27,-0.51 0.6,-1.01 0.98,-1.33zm-2.15 -15.12l-0.16 0.09 -0.15 -0.06c-0.34,-0.15 -0.79,-0.37 -1.24,-0.71 -0.45,-0.34 -0.91,-0.79 -1.29,-1.39 -0.39,-0.63 -0.66,-1.34 -0.79,-2.14 -0.13,-0.79 -0.13,-1.67 0,-2.62l0.08 -0.55 0.46 0.32c0.83,0.56 1.81,1.36 2.56,2.26 0.59,0.7 1.05,1.48 1.19,2.28 0.08,0.41 0.07,0.83 -0.02,1.23 -0.08,0.39 -0.26,0.79 -0.51,1.17l-0.05 0.08 -0.08 0.04zm-33.51 8.24c-0.49,0 -0.94,-0.08 -1.36,-0.23 -0.42,-0.16 -0.79,-0.39 -1.13,-0.7 -0.65,-0.6 -1.12,-1.45 -1.44,-2.38 -0.42,-1.2 -0.61,-2.54 -0.68,-3.61l-0.04 -0.58 0.53 0.25c1.77,0.85 2.86,1.89 3.53,2.92 1.03,1.59 1.04,3.15 0.94,4.02l-0.04 0.31 -0.31 0zm-1.36 10.9c-0.96,-0.34 -1.82,-1.07 -2.55,-1.94 -0.97,-1.15 -1.74,-2.57 -2.24,-3.68l-0.22 -0.48 0.57 0c1.33,0 2.5,0.17 3.52,0.52 1.04,0.35 1.91,0.88 2.62,1.58 0.32,0.31 0.59,0.64 0.8,0.97 0.25,0.38 0.45,0.77 0.59,1.13 0.14,0.31 0.31,1.1 0.38,1.48l-0.23 0.11c-0.56,0.29 -1.11,0.46 -1.65,0.51 -0.54,0.05 -1.07,-0.02 -1.59,-0.2zm3.17 -21.66c0.15,-0.8 0.6,-1.58 1.19,-2.28 0.75,-0.9 1.73,-1.7 2.56,-2.26l0.46 -0.32 0.08 0.55c0.13,0.94 0.13,1.81 0,2.6 -0.12,0.79 -0.39,1.51 -0.77,2.13 -0.32,0.51 -0.7,0.92 -1.09,1.24 -0.53,0.44 -1.07,0.72 -1.46,0.89l-0.15 0.06 -0.24 -0.12 -0.05 -0.08c-0.25,-0.38 -0.42,-0.78 -0.51,-1.18 -0.09,-0.4 -0.1,-0.81 -0.02,-1.23zm0.24 13.37c0.2,-1.02 0.82,-1.98 1.61,-2.82 1.07,-1.14 2.47,-2.09 3.55,-2.73l0.47 -0.27 0.05 0.53c0.13,1.26 0.1,2.4 -0.1,3.42 -0.2,1.04 -0.58,1.96 -1.13,2.74 -0.54,0.77 -1.19,1.33 -1.8,1.73 -0.61,0.39 -1.21,0.63 -1.62,0.77l-0.26 0.09 -0.14 -0.23c-0.21,-0.34 -0.48,-0.94 -0.61,-1.62 -0.1,-0.5 -0.13,-1.07 -0.02,-1.61zm4.1 20.61c-1.64,0.18 -3.37,-0.42 -4.92,-1.26 -1.51,-0.81 -2.85,-1.87 -3.71,-2.61l-0.38 -0.33 0.44 -0.24c1.53,-0.8 2.98,-1.27 4.35,-1.46 1.38,-0.19 2.67,-0.1 3.89,0.24 0.74,0.21 1.44,0.62 2.04,1.08 1.02,0.78 1.77,1.71 1.91,1.94l0.13 0.19 -0.14 0.19c-0.49,0.68 -1.03,1.2 -1.62,1.58 -0.61,0.38 -1.27,0.61 -1.99,0.68zm1.97 -6.35c-0.1,-0.1 -1.39,-1.39 -1.45,-3.12 -0.05,-1.39 0.57,-2.8 1.38,-4.05 0.79,-1.22 1.77,-2.29 2.5,-3.01l0.37 -0.37 0.19 0.5c0.46,1.24 0.72,2.42 0.78,3.51 0.06,1.1 -0.09,2.13 -0.44,3.08 -0.36,0.95 -0.89,1.71 -1.42,2.28 -0.54,0.57 -1.09,0.98 -1.48,1.23l-0.23 0.15 -0.2 -0.2zm9.63 5.92c-0.45,-0.45 -1.04,-1.13 -1.45,-1.92 -0.3,-0.59 -0.51,-1.24 -0.51,-1.91 0,-0.67 0.21,-1.33 0.51,-1.91 0.41,-0.79 1,-1.47 1.44,-1.92l0.25 -0.24 0.24 0.24c0.45,0.45 1.03,1.12 1.45,1.92 0.3,0.58 0.51,1.24 0.51,1.91 0,0.68 -0.21,1.33 -0.51,1.91 -0.41,0.8 -1,1.48 -1.44,1.92l-0.25 0.25 -0.24 -0.25zm6.78 -9.38c-0.35,-0.95 -0.5,-1.98 -0.44,-3.08 0.06,-1.1 0.32,-2.27 0.78,-3.51l0.18 -0.5 0.39 0.37c0.72,0.72 1.69,1.79 2.48,3.01 0.8,1.25 1.41,2.66 1.39,4.05 -0.01,0.53 -0.11,1.03 -0.31,1.51 -0.19,0.47 -0.49,0.92 -0.88,1.34l-0.47 0.46 -0.22 -0.14c-0.39,-0.25 -0.94,-0.65 -1.48,-1.23 -0.53,-0.57 -1.06,-1.33 -1.42,-2.28zm13.94 5.94c-1.14,0.98 -2.83,2.24 -4.62,3.05 -1.33,0.6 -2.72,0.96 -4.02,0.82 -0.72,-0.07 -1.38,-0.3 -1.98,-0.68 -0.6,-0.38 -1.14,-0.9 -1.63,-1.58l-0.14 -0.19 0.13 -0.2c0.15,-0.22 0.97,-1.13 1.98,-1.9 0.61,-0.46 1.29,-0.89 1.96,-1.11 1.21,-0.39 2.52,-0.49 3.91,-0.28 1.37,0.21 2.82,0.71 4.35,1.5l0.44 0.24 -0.38 0.33zm-8.97 -15.85c-0.55,-0.78 -0.94,-1.7 -1.14,-2.74 -0.21,-1.02 -0.24,-2.17 -0.11,-3.44l0.06 -0.53 0.46 0.27c1.06,0.63 2.39,1.57 3.45,2.69 0.8,0.85 1.45,1.82 1.71,2.84 0.11,0.45 0.08,1.02 -0.03,1.56 -0.13,0.69 -0.39,1.36 -0.6,1.69l-0.14 0.23 -0.26 -0.09c-0.41,-0.13 -0.99,-0.37 -1.6,-0.76 -0.61,-0.39 -1.26,-0.94 -1.8,-1.72zm-21.18 23.19c-0.03,-0.19 -0.14,-0.35 -0.28,-0.45 -0.13,-0.09 -0.31,-0.14 -0.48,-0.12l-0.06 0.01c-0.17,0.03 -0.32,0.11 -0.41,0.23 -0.11,0.12 -0.17,0.28 -0.17,0.45l0.01 0.11c0.03,0.17 0.12,0.31 0.23,0.41 0.12,0.1 0.28,0.16 0.45,0.16l0.15 -0.01c0.17,-0.03 0.31,-0.12 0.41,-0.24 0.1,-0.12 0.16,-0.27 0.16,-0.44l-0.01 -0.11z"/>
 </g>
</svg>
