<?xml version="1.0" encoding="UTF-8"?>
<!DOCTYPE svg PUBLIC "-//W3C//DTD SVG 1.1//EN" "http://www.w3.org/Graphics/SVG/1.1/DTD/svg11.dtd">
<!-- Creator: CorelDRAW 2018 (64-Bit) -->
<svg xmlns="http://www.w3.org/2000/svg" xml:space="preserve" width="47px" height="45px" version="1.1" style="shape-rendering:geometricPrecision; text-rendering:geometricPrecision; image-rendering:optimizeQuality; fill-rule:evenodd; clip-rule:evenodd"
viewBox="0 0 47 45.04"
 xmlns:xlink="http://www.w3.org/1999/xlink">
 <defs>
  <style type="text/css">
   <![CDATA[
    .fil0 {fill:url(#id0)}
   ]]>
  </style>
  <linearGradient id="id0" gradientUnits="userSpaceOnUse" x1="0" y1="22.52" x2="47" y2="22.52">
   <stop offset="0" style="stop-opacity:1; stop-color:#FECC00"/>
   <stop offset="1" style="stop-opacity:1; stop-color:#BA782D"/>
  </linearGradient>
 </defs>
 <g id="Warstwa_x0020_1">
  <metadata id="CorelCorpID_0Corel-Layer"/>
  <path class="fil0" d="M14.69 45.04l-13.71 0c-0.54,0 -0.98,-0.44 -0.98,-0.98l0 -23.5c0,-0.54 0.44,-0.98 0.98,-0.98l13.71 0c0.54,0 0.98,0.44 0.98,0.98l0 0.38 0.23 -0.12 5.64 -12.22 0 -6.64c0,-0.3 0.14,-0.58 0.37,-0.77 1.03,-0.76 2.27,-1.17 3.55,-1.19 2.26,0 5.87,3.59 5.87,7.83 -0.15,2.67 -0.67,5.31 -1.56,7.84l12.33 0c2.71,0 4.9,2.19 4.9,4.89 0,1.22 -0.45,2.39 -1.27,3.29 1.7,1.71 1.69,4.48 -0.03,6.19 -0.33,0.32 -0.7,0.6 -1.12,0.8 0.31,0.61 0.46,1.29 0.46,1.96 0,1.66 -0.94,3.18 -2.42,3.92 0.31,0.61 0.47,1.28 0.46,1.96 0,2.43 -1.97,4.4 -4.41,4.4l-18.11 0c-1.71,-0.01 -3.38,-0.42 -4.89,-1.19l0 2.17c0,0.54 -0.44,0.98 -0.98,0.98zm0.98 -21.91l0 16.57c1.48,0.88 3.16,1.37 4.89,1.42l18.11 0c1.36,0 2.45,-1.09 2.45,-2.45 0,-0.67 -0.28,-1.31 -0.77,-1.77 -0.39,-0.37 -0.41,-0.99 -0.04,-1.38 0.16,-0.17 0.37,-0.28 0.6,-0.3 1.33,-0.14 2.3,-1.34 2.16,-2.67 -0.06,-0.58 -0.33,-1.12 -0.76,-1.52 -0.39,-0.37 -0.42,-0.99 -0.04,-1.38 0.16,-0.17 0.37,-0.28 0.6,-0.31 1.33,-0.14 2.3,-1.33 2.16,-2.66 -0.09,-0.83 -0.59,-1.55 -1.33,-1.92 -0.48,-0.25 -0.67,-0.84 -0.42,-1.32 0.08,-0.16 0.2,-0.29 0.35,-0.38 1.38,-0.86 1.8,-2.68 0.94,-4.05 -0.53,-0.85 -1.46,-1.38 -2.47,-1.39l-13.7 0c-0.55,0 -0.98,-0.43 -0.98,-0.97 0,-0.12 0.02,-0.24 0.06,-0.35 1.03,-2.72 1.67,-5.57 1.89,-8.47 0,-3.21 -2.84,-5.87 -3.91,-5.87 -0.69,0.01 -1.36,0.19 -1.96,0.53l0 6.32c0,0.14 -0.03,0.29 -0.09,0.41l-5.88 12.73c-0.09,0.2 -0.25,0.37 -0.45,0.47l-1.41 0.71zm-13.71 19.95l11.75 0 0 -2.91 0 -0.02 0 -17.63 0 -0.03 0 -0.95 -11.75 0 0 21.54z"/>
 </g>
</svg>
